<svg width="25" height="25" viewBox="0 0 25 25" fill="none" xmlns="http://www.w3.org/2000/svg">
<path fill-rule="evenodd" clip-rule="evenodd" d="M15.3798 1.31578C15.8628 1.31578 16.2548 1.70778 16.2548 2.19078C16.2548 2.67378 15.8628 3.06578 15.3798 3.06578H6.90042C3.97442 3.06578 2.08325 5.07712 2.08325 8.19212V17.6211C2.08325 20.7769 3.92892 22.7369 6.90042 22.7369H16.9384C19.8644 22.7369 21.7556 20.7291 21.7556 17.6211V9.40895C21.7556 8.92595 22.1476 8.53395 22.6306 8.53395C23.1136 8.53395 23.5056 8.92595 23.5056 9.40895V17.6211C23.5056 21.7278 20.8666 24.4869 16.9384 24.4869H6.90042C2.97225 24.4869 0.333252 21.7278 0.333252 17.6211V8.19212C0.333252 4.07962 2.97225 1.31578 6.90042 1.31578H15.3798ZM17.8477 9.28388C18.2304 9.58022 18.3004 10.1297 18.004 10.5112L14.5857 14.9212C14.4434 15.1055 14.2334 15.2257 14.0024 15.2537C13.7691 15.2852 13.5381 15.2176 13.3537 15.074L10.0661 12.4911L7.11322 16.3282C6.94055 16.5522 6.68155 16.67 6.41905 16.67C6.23238 16.67 6.04455 16.6105 5.88588 16.4892C5.50322 16.1941 5.43088 15.6446 5.72605 15.2619L9.21788 10.7235C9.36022 10.5381 9.57138 10.4179 9.80238 10.3887C10.0381 10.3584 10.2691 10.4237 10.4522 10.5696L13.7422 13.1537L16.6204 9.44022C16.9167 9.05638 17.465 8.98522 17.8477 9.28388ZM21.2952 0.333334C23.0149 0.333334 24.4125 1.731 24.4125 3.45067C24.4125 5.17033 23.0149 6.56917 21.2952 6.56917C19.5767 6.56917 18.1779 5.17033 18.1779 3.45067C18.1779 1.731 19.5767 0.333334 21.2952 0.333334ZM21.2952 2.08333C20.5415 2.08333 19.9279 2.69583 19.9279 3.45067C19.9279 4.20433 20.5415 4.81917 21.2952 4.81917C22.0489 4.81917 22.6625 4.20433 22.6625 3.45067C22.6625 2.69583 22.0489 2.08333 21.2952 2.08333Z" fill="#F7F8FA"/>
</svg>
