<svg width="50" height="50" viewBox="0 0 50 50" fill="none" xmlns="http://www.w3.org/2000/svg">
<path d="M39.5512 17.6993C39.2012 16.3992 38.1761 15.3741 36.876 15.0241C34.5008 14.374 24.9999 14.374 24.9999 14.374C24.9999 14.374 15.499 14.374 13.1238 14.9991C11.8487 15.3491 10.7986 16.3992 10.4485 17.6993C9.82349 20.0745 9.82349 25 9.82349 25C9.82349 25 9.82349 29.9505 10.4485 32.3007C10.7986 33.6008 11.8237 34.6259 13.1238 34.9759C15.524 35.626 24.9999 35.626 24.9999 35.626C24.9999 35.626 34.5008 35.626 36.876 35.0009C38.1761 34.6509 39.2012 33.6258 39.5512 32.3257C40.1763 29.9505 40.1763 25.025 40.1763 25.025C40.1763 25.025 40.2013 20.0745 39.5512 17.6993Z" fill="white"/>
<path d="M21.9747 20.4493V29.5502L29.8755 24.9998L21.9747 20.4493Z" fill="#32074F"/>
<rect x="0.5" y="0.5" width="49" height="49" rx="7.5" stroke="white"/>
</svg>
