<svg width="45" height="44" viewBox="0 0 45 44" fill="none" xmlns="http://www.w3.org/2000/svg">
<path d="M22.9918 21.6333L20.4067 24.2183C18.9767 25.6483 18.9767 27.9766 20.4067 29.4066C21.8367 30.8366 24.1651 30.8366 25.5951 29.4066L29.6651 25.3366C32.5251 22.4766 32.5251 17.8383 29.6651 14.96C26.8051 12.1 22.1667 12.1 19.2884 14.96L14.8518 19.3966C12.3951 21.8533 12.3951 25.8316 14.8518 28.2883" stroke="#38414D" strokeWidth="1.5" strokeLinecap="round" strokeLinejoin="round"/>
<path d="M17.1251 40.3333H28.1251C37.2917 40.3333 40.9584 36.6667 40.9584 27.5V16.5C40.9584 7.33332 37.2917 3.66666 28.1251 3.66666H17.1251C7.95841 3.66666 4.29175 7.33332 4.29175 16.5V27.5C4.29175 36.6667 7.95841 40.3333 17.1251 40.3333Z" stroke="#38414D" strokeWidth="1.5" strokeLinecap="round" strokeLinejoin="round"/>
</svg>
