<svg width="48" height="49" viewBox="0 0 48 49" fill="none" xmlns="http://www.w3.org/2000/svg">
<path d="M43.9999 9.81517V33.9552C43.9999 35.8752 42.4399 37.6751 40.5199 37.9151L39.8599 37.9952C35.4999 38.5752 28.7798 40.7951 24.9398 42.9151C24.4198 43.2151 23.5599 43.2151 23.0199 42.9151L22.9398 42.8752C19.0998 40.7752 12.3999 38.5752 8.05994 37.9952L7.47986 37.9151C5.55986 37.6751 3.99988 35.8752 3.99988 33.9552V9.79515C3.99988 7.41515 5.93982 5.61517 8.31982 5.81517C12.5198 6.15517 18.8798 8.27522 22.4398 10.4952L22.9398 10.7952C23.5198 11.1552 24.4799 11.1552 25.0599 10.7952L25.3999 10.5752C26.6599 9.79518 28.2599 9.01517 29.9999 8.31517V16.4752L33.9999 13.8152L37.9999 16.4752V6.03526C38.5399 5.93526 39.0599 5.87519 39.5399 5.83519H39.6599C42.0399 5.63519 43.9999 7.41517 43.9999 9.81517Z" stroke="#38414D" stroke-width="1.5" stroke-linecap="round" stroke-linejoin="round"/>
<path d="M23.9999 11.4551V41.4551" stroke="#38414D" stroke-width="1.5" stroke-linecap="round" stroke-linejoin="round"/>
<path d="M37.9999 6.03522V16.4752L33.9999 13.8151L29.9999 16.4752V8.31512C32.6199 7.27512 35.5399 6.43522 37.9999 6.03522Z" stroke="#38414D" stroke-width="1.5" stroke-linecap="round" stroke-linejoin="round"/>
</svg>
