<svg width="63" height="63" viewBox="0 0 63 63" fill="none" xmlns="http://www.w3.org/2000/svg">
<path d="M57.75 19.8188C57.75 21.5513 56.3325 22.9688 54.6 22.9688H8.4C6.6675 22.9688 5.25 21.5513 5.25 19.8188V19.7925C5.25 13.7813 10.1062 8.92505 16.1175 8.92505H46.8562C52.8675 8.92505 57.75 13.8075 57.75 19.8188Z" fill="#F1D550"/>
<path d="M5.25 30.0562V43.2075C5.25 49.2187 10.1062 54.075 16.1175 54.075H46.8562C52.8675 54.075 57.75 49.1925 57.75 43.1812V30.0562C57.75 28.3237 56.3325 26.9062 54.6 26.9062H8.4C6.6675 26.9062 5.25 28.3237 5.25 30.0562ZM21 45.2812H15.75C14.6737 45.2812 13.7812 44.3887 13.7812 43.3125C13.7812 42.2362 14.6737 41.3437 15.75 41.3437H21C22.0762 41.3437 22.9687 42.2362 22.9687 43.3125C22.9687 44.3887 22.0762 45.2812 21 45.2812ZM38.0625 45.2812H27.5625C26.4862 45.2812 25.5937 44.3887 25.5937 43.3125C25.5937 42.2362 26.4862 41.3437 27.5625 41.3437H38.0625C39.1387 41.3437 40.0312 42.2362 40.0312 43.3125C40.0312 44.3887 39.1387 45.2812 38.0625 45.2812Z" fill="#F1D550"/>
</svg>
