<svg width="26" height="27" viewBox="0 0 26 27" fill="none" xmlns="http://www.w3.org/2000/svg">
<path fill-rule="evenodd" clip-rule="evenodd" d="M18.1753 0.208332C22.4068 0.208332 25.25 3.28475 25.25 7.86312V18.5327C25.25 23.1111 22.4068 26.1875 18.1753 26.1875H7.24129C3.00979 26.1875 0.166626 23.1111 0.166626 18.5327V7.86312C0.166626 3.28475 3.00979 0.208332 7.24129 0.208332H18.1753ZM18.1753 2.02083H7.24129C4.00729 2.02083 1.91663 4.31304 1.91663 7.86312V18.5327C1.91663 22.0828 4.00729 24.375 7.24129 24.375H18.1753C21.4105 24.375 23.5 22.0828 23.5 18.5327V7.86312C23.5 4.31304 21.4105 2.02083 18.1753 2.02083ZM7.30791 10.1197C7.79091 10.1197 8.18291 10.5257 8.18291 11.0259V19.3151C8.18291 19.8154 7.79091 20.2214 7.30791 20.2214C6.82491 20.2214 6.43291 19.8154 6.43291 19.3151V11.0259C6.43291 10.5257 6.82491 10.1197 7.30791 10.1197ZM12.7527 6.15152C13.2357 6.15152 13.6277 6.55752 13.6277 7.05777V19.3139C13.6277 19.8141 13.2357 20.2201 12.7527 20.2201C12.2697 20.2201 11.8777 19.8141 11.8777 19.3139V7.05777C11.8777 6.55752 12.2697 6.15152 12.7527 6.15152ZM18.1081 14.4999C18.5911 14.4999 18.9831 14.9059 18.9831 15.4061V19.3139C18.9831 19.8141 18.5911 20.2201 18.1081 20.2201C17.6251 20.2201 17.2331 19.8141 17.2331 19.3139V15.4061C17.2331 14.9059 17.6251 14.4999 18.1081 14.4999Z" fill="#F7F8FA"/>
</svg>
