<svg xmlns="http://www.w3.org/2000/svg" width="298.635" height="177.675" viewBox="0 0 298.635 177.675">
    <defs>
        <clipPath id="obxqe7odba">
            <rect data-name="Rectangle 2820" width="123.787" height="82.01" rx="10.55" style="fill:#f1f2f5"/>
        </clipPath>
        <clipPath id="1mz1lnsdob">
            <rect data-name="Rectangle 2826" width="46.77" height="10.914" rx="5.457" style="fill:#d2d6e1"/>
        </clipPath>
        <clipPath id="v8ajpe1inc">
            <rect data-name="Rectangle 2829" width="46.77" height="10.914" rx="5.457" style="fill:#f1f2f5"/>
        </clipPath>
        <clipPath id="kmmzzpebjd">
            <rect data-name="Rectangle 2831" width="36.666" height="8.556" rx="4.278" style="fill:#d2d6e1"/>
        </clipPath>
        <clipPath id="z8fs96a1pe">
            <path data-name="Path 1879" d="M2228.148 1637.422h-41.238l1.059-11.018-1.059-7.086v-8.638h41.238l-.356 7.758 1.266 8.412-.909 5.193z" transform="translate(-2186.91 -1610.68)" style="fill:#f1f2f5"/>
        </clipPath>
        <clipPath id="fql2po9tif">
            <path data-name="Path 1889" d="M2334.263 1510.161h-10.073l1.414-12.5h6.692z" transform="translate(-2324.19 -1497.66)" style="fill:#d2d6e1"/>
        </clipPath>
        <clipPath id="np9m9e1kxg">
            <path data-name="Path 1902" d="m1015.487 1030.037-6.668-17.257H986.01l6.654 17.257z" transform="translate(-986.01 -1012.78)" style="fill:#1d2238"/>
        </clipPath>
    </defs>
    <g data-name="vecteezy_the-salesperson-has-successfully-confirmed-the-big-project_ [Converted]" transform="translate(-18.571 -28.328)">
        <rect data-name="Rectangle 2818" width="123.787" height="82.01" rx="10.55" transform="translate(48.479 39.756)" style="fill:#f1f2f5"/>
        <g data-name="Group 2068" transform="translate(48.479 39.756)" style="clipPath:url(#obxqe7odba)">
            <path data-name="Rectangle 2819" style="fill:#d2d6e1" d="M0 0h123.787v7.841H0z"/>
        </g>
        <circle data-name="Ellipse 213" cx="24.425" cy="24.425" r="24.425" transform="translate(85.947 58.351)" style="fill:#fff"/>
        <path data-name="Path 1847" d="M804.921 548.091a20.336 20.336 0 0 1 .1 2.094c0 .349 0 .7-.009 1.05l-.061 1.05a25.025 25.025 0 0 1-.7 4.148 23.035 23.035 0 0 1-1.4 3.975 25.083 25.083 0 0 1-2.078 3.679 24.3 24.3 0 0 1-2.681 3.281 25.214 25.214 0 0 1-3.208 2.765 24.658 24.658 0 0 1-3.641 2.187 24.334 24.334 0 0 1-3.973 1.519 25.4 25.4 0 0 1-4.178.826 25.861 25.861 0 0 1-4.262.081 24.651 24.651 0 0 1-8.267-1.991 23.41 23.41 0 0 1-3.761-2.036 25.385 25.385 0 0 1-3.348-2.655 24.576 24.576 0 0 1-7.62-14.948l-.066-.531c-.024-.177-.03-.355-.045-.533l-.04-.533-.02-.267c-.005-.09-.005-.178-.008-.268l-.026-1.068.029-1.07a25.153 25.153 0 0 1 .553-4.234 24.791 24.791 0 0 1 8.942-14.158 25.084 25.084 0 0 1 3.562-2.323 24.457 24.457 0 0 1 3.909-1.659 24.853 24.853 0 0 1 4.129-.971 25.737 25.737 0 0 1 4.226-.239 24.113 24.113 0 0 1 15.375 6.046 24.433 24.433 0 0 0-15.387-5.531 25.629 25.629 0 0 0-4.127.319 24.248 24.248 0 0 0-4 1.028 24.834 24.834 0 0 0-3.767 1.678 24.416 24.416 0 0 0-6.391 5.142 23.437 23.437 0 0 0-2.453 3.3 24.311 24.311 0 0 0-1.855 3.662l-.176.471c-.061.159-.128.318-.178.481l-.324.974-.277.989c-.087.332-.154.664-.232 1a25.288 25.288 0 0 0-.52 4.075l-.025 1.025.028 1.026c0 .085 0 .171.008.257l.02.255.04.512c.015.169.021.341.045.511l.065.508a24.024 24.024 0 0 0 22.043 20.848 25.5 25.5 0 0 0 4.11-.038 24.674 24.674 0 0 0 4.047-.74 23.712 23.712 0 0 0 3.871-1.414 25.083 25.083 0 0 0 3.566-2.061 24.247 24.247 0 0 0 9.488-13.219 24.984 24.984 0 0 0 .817-4.093l.1-1.04c.02-.348.032-.7.049-1.045a19.989 19.989 0 0 0-.018-2.097z" transform="translate(-672.048 -467.153)" style="fill:#1d2238"/>
        <path data-name="Path 1848" d="m915.386 568.832-4.194-5.162-25.905 21.049-7.535-9.273-5.161 4.194 11.732 14.439 5.162-4.194z" transform="translate(-776.071 -501.321)" style="fill:#f8d12f"/>
        <circle data-name="Ellipse 214" cx="1.654" cy="1.654" r="1.654" transform="translate(53.545 42.088)" style="fill:#f0c36a"/>
        <circle data-name="Ellipse 215" cx="1.654" cy="1.654" r="1.654" transform="translate(60.292 42.088)" style="fill:#1d2238"/>
        <circle data-name="Ellipse 216" cx="1.654" cy="1.654" r="1.654" transform="translate(67.04 42.088)" style="fill:#1d2238"/>
        <path data-name="Path 1849" d="M1836.626 259.438s-3.41 12.58 9.07 13.122a6.068 6.068 0 0 0 1.032-.041l10.406-1.3s-12.343-2.447-9-13.219z" transform="translate(-1633.094 -229.462)" style="fill:#f1f2f5"/>
        <path data-name="Path 1850" d="M1844.42 345.7s1.707 2.846 8.406.674c0 0 2.5 3.982 6.881 3.438l-5 .625a12.3 12.3 0 0 1-4.691-.3 7.945 7.945 0 0 1-5.596-4.437z" transform="translate(-1640.405 -307.461)" style="fill:#e4e6ed"/>
        <path data-name="Path 1851" d="M1839.38 331.2a6.682 6.682 0 0 0 .483 1.432 8.03 8.03 0 0 0 .757 1.3 7.915 7.915 0 0 0 2.17 2.046 9.384 9.384 0 0 0 1.327.7c.233.092.463.195.7.269.119.04.238.082.357.119l.363.1a15.661 15.661 0 0 0 2.987.493 12.268 12.268 0 0 1-3.029-.332l-.373-.092c-.123-.035-.243-.076-.366-.111-.245-.071-.482-.17-.722-.259a9.321 9.321 0 0 1-1.365-.707 8.183 8.183 0 0 1-1.207-.956 7.172 7.172 0 0 1-.986-1.179 6.664 6.664 0 0 1-1.096-2.823z" transform="translate(-1635.922 -294.565)" style="fill:#9ea9bd"/>
        <path data-name="Path 1852" d="M2175.37 818.225s16.49-5.767 30.909 10.467l14.873-20.154s-17.175-12.423-30.85-7.474z" transform="translate(-1934.748 -711.422)" style="fill:#f1f2f5"/>
        <path data-name="Path 1853" d="M2180.648 870.17c-.742.9-1.494 1.79-2.243 2.683s-1.508 1.779-2.262 2.668l-2.269 2.661-2.282 2.655-.168-.278a23.537 23.537 0 0 1 2.6-.521c.873-.132 1.752-.216 2.633-.27s1.764-.073 2.646-.051 1.763.082 2.64.174 1.749.239 2.614.407c.43.1.863.18 1.289.294.213.056.428.1.639.166l.635.183a25.012 25.012 0 0 1 2.486.893 25.451 25.451 0 0 1 2.379 1.132c-.8-.368-1.6-.731-2.42-1.031-.407-.16-.825-.293-1.24-.432-.206-.073-.419-.126-.627-.191s-.418-.132-.63-.184l-.634-.168c-.211-.058-.426-.1-.638-.15-.426-.1-.856-.179-1.285-.264q-1.291-.221-2.6-.353a33.485 33.485 0 0 0-5.234-.078q-1.307.085-2.6.269a23.256 23.256 0 0 0-2.561.5l-.538.143.364-.415 2.31-2.627 2.323-2.614c.774-.871 1.549-1.745 2.33-2.609s1.555-1.734 2.343-2.592z" transform="translate(-1930.844 -773.919)" style="fill:#9ea9bd"/>
        <path data-name="Path 1854" d="M2466.729 564.131a10.783 10.783 0 0 0 1.431 8.784 27.767 27.767 0 0 1 8.232-12.831s-4.715-.743-9.663 4.047z" transform="translate(-2193.547 -498.095)" style="fill:#e4e6ed"/>
        <path data-name="Path 1855" d="m2469.73 448.763 4.039-7.749a19.75 19.75 0 0 1 17.7-10.685c.123 0 .246 0 .37.008l-4.314 14.872s-6.065-3.545-17.795 3.554z" transform="translate(-2196.548 -382.727)" style="fill:#f1f2f5"/>
        <path data-name="Path 1856" d="M2466.167 572.106c-.018-.221-.023-.442-.021-.655s.008-.442.024-.658a5.571 5.571 0 0 1 .095-.657l.04-.165.051-.164c.02-.055.044-.111.066-.165.019-.031.041-.063.063-.094a.5.5 0 0 1 .067-.069 3.159 3.159 0 0 1 .553-.4c.19-.111.383-.221.576-.324.388-.2.782-.392 1.178-.575.794-.359 1.6-.7 2.41-1.009.407-.154.815-.306 1.225-.455s.822-.285 1.24-.409l.008.018q-1.217.481-2.413.988c-.8.339-1.6.684-2.388 1.046-.395.18-.789.366-1.176.562-.193.1-.385.2-.573.307a3.433 3.433 0 0 0-.537.362.627.627 0 0 0-.056.055l-.047.063-.066.147-.053.153-.043.157a5.955 5.955 0 0 0-.118.638 11.862 11.862 0 0 0-.087 1.3z" transform="translate(-2193.361 -503.669)" style="fill:#9ea9bd"/>
        <path data-name="Path 1857" d="m2639.71 457.983.316-1.177.326-1.175.668-2.344.69-2.338.353-1.166.363-1.164-.316 1.177-.326 1.175-.668 2.344-.69 2.337-.353 1.167z" transform="translate(-2347.726 -398.997)" style="fill:#9ea9bd"/>
        <path data-name="Path 1858" d="M2112.086 269.95s12.585-8.288 19.849.491c0 0-7.619-18.665-25.235-13.4z" transform="translate(-1873.674 -227.776)" style="fill:#f1f2f5"/>
        <path data-name="Path 1859" d="M2226.49 348.829s5.309 2.81 2.669 8.288l10.84.811s.486-10.664-13.5-9.1" transform="translate(-1980.214 -310.105)" style="fill:#e4e6ed"/>
        <path data-name="Path 1860" d="M2155.39 352.324a9.8 9.8 0 0 1 .8-.6c.276-.187.553-.367.843-.536a17.31 17.31 0 0 1 1.779-.917 18.5 18.5 0 0 1 1.872-.716 19.748 19.748 0 0 1 1.941-.5 18.156 18.156 0 0 1 1.985-.278l.5-.033c.167-.01.332-.01.5-.015.332-.017.664 0 1 0a16.739 16.739 0 0 1 3.939.639 20.63 20.63 0 0 0-3.943-.451 19.116 19.116 0 0 0-3.938.369 19.98 19.98 0 0 0-3.784 1.159c-.61.254-1.211.533-1.8.846a15.393 15.393 0 0 0-1.694 1.033z" transform="translate(-1916.978 -310.15)" style="fill:#9ea9bd"/>
        <rect data-name="Rectangle 2821" width="46.77" height="10.914" rx="5.457" transform="translate(52.407 194.227)" style="fill:#d2d6e1"/>
        <g data-name="Group 2069" transform="translate(52.407 194.227)" style="clipPath:url(#1mz1lnsdob)">
            <path data-name="Rectangle 2822" transform="translate(4.323 -1.099)" style="fill:#f1f2f5" d="M0 0h2.363v12.89H0z"/>
            <path data-name="Rectangle 2823" transform="translate(8.72 -1.099)" style="fill:#f1f2f5" d="M0 0h2.363v12.89H0z"/>
            <path data-name="Rectangle 2824" transform="translate(35.179)" style="fill:#f1f2f5" d="M0 0h2.363v12.89H0z"/>
            <path data-name="Rectangle 2825" transform="translate(39.576)" style="fill:#f1f2f5" d="M0 0h2.363v12.89H0z"/>
        </g>
        <rect data-name="Rectangle 2827" width="46.77" height="10.914" rx="5.457" transform="translate(50.839 163.84)" style="fill:#f1f2f5"/>
        <g data-name="Group 2070" transform="translate(50.839 163.84)" style="clipPath:url(#v8ajpe1inc)">
            <path data-name="Rectangle 2828" transform="translate(-1.722 3.827)" style="fill:#d2d6e1" d="M0 0h49.234v3.259H0z"/>
        </g>
        <rect data-name="Rectangle 2830" width="36.666" height="8.556" rx="4.278" transform="translate(53.371 174.754)" style="fill:#d2d6e1"/>
        <g data-name="Group 2071" transform="translate(53.371 174.754)" style="clipPath:url(#kmmzzpebjd)">
            <circle data-name="Ellipse 217" cx="2.86" cy="2.86" r="2.86" transform="rotate(-40.9 12.486 -17.175)" style="fill:#f1f2f5"/>
            <path data-name="Path 1861" d="M504.49 1565.12c.352.956.64 1.926.909 2.9s.507 1.955.726 2.94.416 1.974.588 2.97.319 1.991.4 3.011c-.353-.955-.64-1.925-.909-2.9s-.507-1.954-.725-2.939-.416-1.975-.587-2.971-.316-1.997-.402-3.011z" transform="translate(-502.059 -1566.753)" style="fill:#f1f2f5"/>
            <path data-name="Path 1862" d="M531.82 1570c.353.956.64 1.926.909 2.9s.507 1.954.726 2.94.416 1.974.588 2.97.319 1.991.4 3.011c-.353-.956-.64-1.925-.909-2.9s-.507-1.954-.724-2.939-.416-1.976-.587-2.971-.317-1.998-.403-3.011z" transform="translate(-526.366 -1571.093)" style="fill:#f1f2f5"/>
            <path data-name="Path 1863" d="M738.29 1562.69c.352.956.639 1.925.908 2.9s.507 1.954.726 2.939.417 1.975.588 2.971.319 1.991.4 3.011c-.352-.956-.64-1.925-.909-2.9s-.507-1.955-.724-2.94-.416-1.974-.587-2.97-.317-2.001-.402-3.011z" transform="translate(-709.998 -1564.591)" style="fill:#f1f2f5"/>
            <path data-name="Path 1864" d="M765.62 1567.56c.352.955.639 1.925.908 2.9s.507 1.955.726 2.939.417 1.974.588 2.97.319 1.991.4 3.012c-.352-.956-.64-1.926-.908-2.9s-.508-1.954-.726-2.94-.416-1.974-.587-2.97-.315-1.997-.401-3.011z" transform="translate(-734.305 -1568.923)" style="fill:#f1f2f5"/>
        </g>
        <rect data-name="Rectangle 2832" width="46.77" height="10.914" rx="5.457" transform="translate(56.73 183.314)" style="fill:#f1f2f5"/>
        <g data-name="Group 2072" transform="translate(56.73 183.314)" style="clipPath:url(#v8ajpe1inc)">
            <circle data-name="Ellipse 218" cx="5.388" cy="5.388" r="5.388" transform="translate(5.263 -5.544)" style="fill:#fff"/>
            <circle data-name="Ellipse 219" cx="5.388" cy="5.388" r="5.388" transform="rotate(-17.92 13.77 32.185)" style="fill:#d2d6e1"/>
            <circle data-name="Ellipse 220" cx="3.519" cy="3.519" r="3.519" transform="rotate(-22.03 36.705 -77.073)" style="fill:#fff"/>
            <circle data-name="Ellipse 221" cx="1.302" cy="1.302" r="1.302" transform="translate(22.083 4.155)" style="fill:#d2d6e1"/>
            <circle data-name="Ellipse 222" cx="2.339" cy="2.339" r="2.339" transform="translate(40.879 .768)" style="fill:#d2d6e1"/>
        </g>
        <rect data-name="Rectangle 2834" width="46.77" height="10.914" rx="5.457" transform="translate(53.371 153.027)" style="fill:#f1f2f5"/>
        <g data-name="Group 2073" transform="translate(53.371 153.027)" style="clipPath:url(#v8ajpe1inc)">
            <path data-name="Path 1865" d="m513.858 1385.766-1.418-1.932 1.316-1.792-1.316-1.793 1.316-1.792-1.316-1.792 1.316-1.792-1.316-1.792 1.418-1.931.378.279-1.213 1.653 1.316 1.792-1.316 1.792 1.316 1.792-1.316 1.792 1.316 1.793-1.316 1.792 1.213 1.654z" transform="translate(-509.129 -1372.512)" style="fill:#d2d6e1"/>
            <path data-name="Path 1866" d="m540.868 1386.565-1.418-1.931 1.316-1.793-1.316-1.792 1.316-1.792-1.316-1.792 1.316-1.792-1.316-1.793 1.418-1.93.378.278-1.213 1.653 1.316 1.793-1.316 1.792 1.316 1.792-1.316 1.792 1.316 1.792-1.316 1.793 1.214 1.654z" transform="translate(-533.152 -1373.223)" style="fill:#d2d6e1"/>
            <path data-name="Path 1867" d="m834.828 1392.125-1.418-1.931 1.316-1.793-1.316-1.792 1.316-1.792-1.316-1.792 1.316-1.792-1.316-1.792 1.418-1.931.378.278-1.213 1.654 1.316 1.792-1.316 1.792 1.316 1.792-1.316 1.792 1.316 1.792-1.316 1.793 1.213 1.654z" transform="translate(-794.596 -1378.168)" style="fill:#d2d6e1"/>
            <path data-name="Path 1868" d="m861.838 1392.925-1.418-1.931 1.316-1.793-1.316-1.792 1.316-1.793-1.316-1.792 1.316-1.792-1.316-1.792 1.418-1.93.378.278-1.216 1.652 1.316 1.792-1.316 1.792 1.316 1.792-1.316 1.793 1.316 1.792-1.316 1.793 1.214 1.653z" transform="translate(-818.619 -1378.88)" style="fill:#d2d6e1"/>
        </g>
        <path data-name="Path 1869" d="M493.46 1480.992c1.793-.032 3.586-.045 5.379-.069l5.378-.04c1.793-.017 3.585-.013 5.378-.02l5.378-.013 5.379.013c1.792.007 3.585 0 5.378.02l5.378.039c1.793.023 3.585.038 5.378.07-1.793.032-3.585.045-5.378.069l-5.378.04c-1.793.017-3.586.013-5.378.02l-5.379.012-5.378-.013c-1.793 0-3.585 0-5.378-.02l-5.378-.039c-1.793-.024-3.586-.038-5.379-.069z" transform="translate(-438.877 -1317.05)" style="fill:#9ea9bd"/>
        <path data-name="Path 1870" d="M491.1 1578.742c1.448-.032 2.9-.045 4.346-.069l4.346-.04c1.448-.017 2.9-.013 4.345-.02l4.346-.013 4.346.013c1.449.007 2.9 0 4.346.02l4.346.039c1.449.023 2.9.038 4.346.07-1.449.032-2.9.045-4.346.068l-4.346.04c-1.448.016-2.9.013-4.346.02l-4.346.012-4.342-.017c-1.448 0-2.9 0-4.345-.02l-4.346-.039c-1.45-.019-2.902-.034-4.35-.064z" transform="translate(-436.778 -1403.988)" style="fill:#9ea9bd"/>
        <path data-name="Path 1871" d="M523.82 1656.132c1.3-.032 2.6-.045 3.893-.069l3.894-.04c1.3-.017 2.6-.013 3.894-.02l3.894-.013 3.892.013c1.3.007 2.6 0 3.894.02l3.893.039c1.3.023 2.6.038 3.894.07-1.3.032-2.6.045-3.894.069l-3.893.04c-1.3.017-2.595.013-3.894.02l-3.892.012-3.894-.013c-1.3-.006-2.6 0-3.894-.02l-3.894-.039c-1.297-.024-2.594-.038-3.893-.069z" transform="translate(-465.879 -1472.818)" style="fill:#9ea9bd"/>
        <path data-name="Path 1872" d="M523.82 1754.8c1.668-.031 3.336-.045 5-.069l5-.039c1.668-.018 3.336-.014 5-.021l5-.012 5 .012c1.668.007 3.336 0 5 .02l5 .04c1.668.023 3.336.036 5 .069-1.667.032-3.335.047-5 .07l-5 .039c-1.667.018-3.335.013-5 .02l-5 .013-5-.013c-1.667-.007-3.335 0-5-.02l-5-.04c-1.662-.023-3.332-.036-5-.069z" transform="translate(-465.879 -1560.574)" style="fill:#9ea9bd"/>
        <path data-name="Path 1874" d="M466.291 1852.839H168.123a.25.25 0 0 1 0-.5h298.168a.25.25 0 0 1 0 .5z" transform="translate(-149.319 -1647.449)" style="fill:#9ea9bd"/>
        <path data-name="Rectangle 2836" transform="translate(104.9 131.407)" style="fill:#9ea9bd" d="M0 0h136.998v4.347H0z"/>
        <path data-name="Path 1875" d="M999.04 1227.3v69.619h2.345l3.9-69.619z" transform="translate(-888.534 -1091.546)" style="fill:#9ea9bd"/>
        <path data-name="Path 1876" d="M2086.006 1227.3v69.619h-2.346l-3.9-69.619z" transform="translate(-1849.714 -1091.546)" style="fill:#9ea9bd"/>
        <path data-name="Path 1877" d="M2228.148 1637.422h-41.238l1.059-11.018-1.059-7.086v-8.638h41.238l-.356 7.758 1.266 8.412-.909 5.193z" transform="translate(-1945.011 -1432.52)" style="fill:#f1f2f5"/>
        <g data-name="Group 2074" transform="translate(241.898 178.161)" style="clipPath:url(#z8fs96a1pe)">
            <path data-name="Path 1878" d="M2174.94 1833.82s18.749 1.184 19.342 1.184 22.676-.493 22.676-.493l.584 1.88-43.581.3z" transform="translate(-2175.393 -1809.138)" style="fill:#e4e6ed"/>
        </g>
        <path data-name="Path 1880" d="M2186.91 1688.77h10.533l-10.268 1.776z" transform="translate(-1945.011 -1501.972)" style="fill:#e4e6ed"/>
        <path data-name="Path 1881" d="m2411.122 1803.82-18.482.5 18.482 1.752z" transform="translate(-2127.985 -1604.296)" style="fill:#e4e6ed"/>
        <path data-name="Path 1882" d="m2437.4 1680.82-14.813.879 15.007.407z" transform="translate(-2154.623 -1494.901)" style="fill:#e4e6ed"/>
        <path data-name="Path 1883" d="M2186.91 1687.453c.9-.034 1.8-.05 2.693-.075l2.694-.042c.9-.019 1.795-.014 2.692-.022l2.693-.013 2.694.013c.9.008 1.8 0 2.693.022l2.693.043c.9.026 1.8.04 2.692.074v.019l-10.772.009-10.772-.009z" transform="translate(-1945.011 -1500.664)" style="fill:#9ea9bd"/>
        <path data-name="Path 1884" d="M2196.48 1751.514c.4-.035.81-.05 1.217-.075l1.217-.043c.4-.019.81-.014 1.217-.022l1.217-.013 1.217.014c.4.007.81 0 1.217.021l1.217.043c.4.026.81.04 1.217.075v.018l-4.857.009-4.857-.009z" transform="translate(-1953.523 -1557.639)" style="fill:#9ea9bd"/>
        <path data-name="Path 1885" d="M2313.594 1807.114c.425-.023.85-.041 1.273-.057l1.274-.05 2.544-.074 2.544-.045c.425 0 .85-.018 1.274-.018s.849.007 1.273.012l2.544.034 1.273.017 1.274.029 2.544.062c.849.03 1.7.052 2.544.091v.018l-10.191-.074-1.273-.01c-.425 0-.849.007-1.274.009l-2.544.026-5.095.05z" transform="translate(-2057.67 -1607.008)" style="fill:#9ea9bd"/>
        <path data-name="Path 1886" d="M2463.014 1721.6c-.518.034-1.035.05-1.549.075l-1.548.042c-.518.019-1.036.014-1.549.022l-1.554.013-1.549-.013c-.518-.007-1.035 0-1.549-.022l-1.549-.043c-.518-.024-1.035-.04-1.549-.074v-.019l6.212-.009 6.213.009z" transform="translate(-2179.552 -1531.144)" style="fill:#9ea9bd"/>
        <path data-name="Path 1887" d="M2334.263 1510.161h-10.073l1.414-12.5h6.692z" transform="translate(-2067.107 -1332.001)" style="fill:#d2d6e1"/>
        <g data-name="Group 2075" transform="translate(257.083 165.659)" style="clipPath:url(#fql2po9tif)">
            <path data-name="Path 1888" d="m2328.481 1498.434-11.111-7.186v-4.468h11.111z" transform="translate(-2318.125 -1487.984)" style="opacity:.53;fill:#9ea9bd"/>
        </g>
        <path data-name="Path 1890" d="M2300.791 1414.146a7.025 7.025 0 0 0-7.471-6.057c.243 1.009.29 2.148.528 3.158a5.228 5.228 0 0 0 1.239 2.4 3.618 3.618 0 0 0 2.4 1.159 6.237 6.237 0 0 0 2.042-.366c.299-.09.966-.21 1.262-.294z" transform="translate(-2039.652 -1252.32)" style="fill:#f8d12f"/>
        <path data-name="Path 1891" d="M2382.5 1480.91a6.391 6.391 0 0 0 .021 3.139 5.99 5.99 0 0 0 2.019 2.655 13.735 13.735 0 0 0 4.527 2.48 8.732 8.732 0 0 0 .081-4.424 5.623 5.623 0 0 0-2.734-3.125 7.314 7.314 0 0 0-3.914-.725z" transform="translate(-2118.801 -1317.094)" style="fill:#f8d12f"/>
        <path data-name="Path 1892" d="M2372.05 1429.364a8.615 8.615 0 0 1 2.607-3.54 6.332 6.332 0 0 1 1.779-.768 12.18 12.18 0 0 1 2.241-.417 4.757 4.757 0 0 1-1.644 4.093 3.56 3.56 0 0 1-1.018.753 4.419 4.419 0 0 1-2.353.135c-.504-.063-1.108-.194-1.612-.256z" transform="translate(-2109.673 -1267.058)" style="fill:#f8d12f"/>
        <path data-name="Path 1893" d="M2299.817 1480.355a7.557 7.557 0 0 0-6.637 3.931 24.534 24.534 0 0 0 3.74.044 3.951 3.951 0 0 0 2.263-.642 3.01 3.01 0 0 0 .634-3.333z" transform="translate(-2039.527 -1316.609)" style="fill:#f8d12f"/>
        <path data-name="Path 1894" d="m2300.815 1417.394-.569-3.805c-1.106-1.951-7.364-5.964-7.427-6.005l.111-.174c.016.01 1.613 1.032 3.324 2.285 2.307 1.689 3.713 2.97 4.181 3.808l.009.017.6 3.871z" transform="translate(-2039.207 -1251.734)" style="fill:#1d2238"/>
        <path data-name="Path 1895" d="M2368.511 1432.015h-.221l.313-3.391.018-.023a17.7 17.7 0 0 1 3.709-2.89 94.49 94.49 0 0 1 2.948-1.86l.111.178c-.055.033-5.568 3.347-6.579 4.672z" transform="translate(-2106.329 -1266.355)" style="fill:#1d2238"/>
        <path data-name="Path 1896" d="M2378.4 1488.287c-.041-.073-4.087-7.24-6.439-8.2l-1.268 1.723h-.271l1.463-1.971.073.025c1.018.366 2.443 1.88 4.235 4.5a58.207 58.207 0 0 1 2.387 3.821z" transform="translate(-2108.223 -1316.152)" style="fill:#1d2238"/>
        <path data-name="Path 1897" d="m2292.65 1483.54-.14-.153a29.029 29.029 0 0 1 2.42-1.949c1.817-1.306 3.261-1.982 4.289-2.009h.057l1.292 2.021h-.236l-1.166-1.807c-2.366.118-6.475 3.857-6.516 3.897z" transform="translate(-2038.931 -1315.787)" style="fill:#1d2238"/>
        <path data-name="Path 1898" d="M1006.234 1023.651h-24.94l-6.9-18.051h24.94z" transform="translate(-866.611 -894.369)" style="fill:#1d2238"/>
        <path data-name="Path 1899" d="M1071.329 1168.79h-34.519l.782 2.123h46.614v-2.123z" transform="translate(-922.126 -1039.508)" style="fill:#1d2238"/>
        <path data-name="Path 1900" d="m1015.487 1030.037-6.668-17.257H986.01l6.654 17.257z" transform="translate(-876.945 -900.754)" style="fill:#1d2238"/>
        <g data-name="Group 2076" transform="translate(109.065 112.026)" style="clipPath:url(#np9m9e1kxg)">
            <path data-name="Path 1901" d="M1006.762 975.374c-.085.343-7.522 12.417-7.522 12.417l2.39 5.887 8.242-11.406-7.147 14.3h10.2l5.744-9.552-3.847 9.722h6.55l7.686-11.6-5.62-13.142-8.617 14.444 4.957-13.6z" transform="translate(-997.777 -976.511)" style="opacity:.24;fill:#9ea9bd"/>
        </g>
        <rect data-name="Rectangle 2837" width="3.755" height=".767" rx=".383" transform="translate(117.176 130.006)" style="fill:#9ea9bd"/>
        <rect data-name="Rectangle 2838" width="3.755" height=".767" rx=".383" transform="translate(121.649 130.006)" style="fill:#9ea9bd"/>
        <path data-name="Path 1903" d="M1022.752 1384.93h-41.759a3.994 3.994 0 0 0-3.993 3.99 3.994 3.994 0 0 0 3.994 3.994h17.477v7.714h6.815v-7.714h17.477a3.994 3.994 0 0 0 3.993-3.994 3.994 3.994 0 0 0-4-3.99z" transform="translate(-868.932 -1231.74)" style="fill:#1d2238"/>
        <path data-name="Rectangle 2839" transform="translate(130.721 168.892)" style="fill:#d2d6e1" d="M0 0h4.439v13.314H0z"/>
        <path data-name="Path 1904" d="m1204.08 1647.26 20.6 15.406v3.482l-22.821-15.279v-3.609z" transform="translate(-1068.92 -1465.053)" style="fill:#d2d6e1"/>
        <path data-name="Path 1905" d="m1016.151 1647.26-20.6 15.406v3.482l22.82-15.279v-3.609z" transform="translate(-885.43 -1465.053)" style="fill:#d2d6e1"/>
        <circle data-name="Ellipse 223" cx="4.144" cy="4.144" r="4.144" transform="rotate(-70.83 196.058 26.943)" style="fill:#1d2238"/>
        <circle data-name="Ellipse 224" cx="2.274" cy="2.274" r="2.274" transform="rotate(-78.05 179.365 34.123)" style="fill:#d2d6e1"/>
        <circle data-name="Ellipse 225" cx="4.144" cy="4.144" r="4.144" transform="rotate(-76.72 203.444 7.523)" style="fill:#1d2238"/>
        <circle data-name="Ellipse 226" cx="2.274" cy="2.274" r="2.274" transform="rotate(-76.72 203.69 5.407)" style="fill:#d2d6e1"/>
        <path data-name="Rectangle 2840" transform="translate(130.721 169.873)" style="fill:#9ea9bd" d="M0 0h4.439v.972H0z"/>
        <path data-name="Rectangle 2841" transform="translate(130.721 171.993)" style="fill:#9ea9bd" d="M0 0h4.439v.972H0z"/>
        <path data-name="Rectangle 2842" transform="translate(130.721 174.113)" style="fill:#9ea9bd" d="M0 0h4.439v.972H0z"/>
        <path data-name="Rectangle 2843" transform="translate(130.721 176.233)" style="fill:#9ea9bd" d="M0 0h4.439v.972H0z"/>
        <path data-name="Path 1906" d="m1704.751 1518.96-.58-1.77-7.341 2.4.391 1.19-7.623 6.713a3.753 3.753 0 0 0-1.072 4.032l19.3-6.245z" transform="translate(-1501.575 -1349.371)" style="fill:#f8d12f"/>
        <path data-name="Path 1907" d="M1707.49 1578.78c-1.562.6-3.137 1.164-4.717 1.709-.789.278-1.582.539-2.374.807l-2.38.784-2.389.76c-.8.246-1.595.5-2.4.737-1.6.483-3.208.951-4.824 1.377 1.561-.6 3.136-1.165 4.715-1.71.789-.278 1.583-.539 2.374-.807l2.381-.783 2.388-.76c.8-.247 1.6-.5 2.4-.737 1.602-.483 3.207-.951 4.826-1.377z" transform="translate(-1501.652 -1404.148)" style="fill:#1d2238"/>
        <path data-name="Path 1908" d="M1802.67 1549.448a1.842 1.842 0 1 1-.915-1.075 1.843 1.843 0 0 1 .915 1.075z" transform="translate(-1600.074 -1376.926)" style="fill:#1d2238"/>
        <path data-name="Path 1909" d="M1708.63 1598.247a1.237 1.237 0 0 1 .636-.272 1.612 1.612 0 0 1 .658.044 1.548 1.548 0 0 1 .6.316 1.079 1.079 0 0 1 .363.606l-.031.033a2.459 2.459 0 0 0-.24-.173c-.042-.025-.081-.055-.125-.077l-.13-.07a3.063 3.063 0 0 0-.553-.2 3.989 3.989 0 0 0-.58-.119c-.1-.012-.2-.022-.3-.028a2.966 2.966 0 0 0-.3-.012z" transform="translate(-1519.635 -1421.206)" style="fill:#1d2238"/>
        <path data-name="Path 1910" d="M1726.32 1582.911a1.249 1.249 0 0 1 .636-.273 1.633 1.633 0 0 1 .664.045 1.547 1.547 0 0 1 .6.316 1.075 1.075 0 0 1 .362.606l-.03.033a2.4 2.4 0 0 0-.24-.172c-.042-.026-.082-.055-.125-.078l-.13-.07a3.044 3.044 0 0 0-.553-.2 3.954 3.954 0 0 0-.578-.12c-.1-.012-.2-.022-.3-.028s-.2-.013-.3-.013z" transform="translate(-1535.368 -1407.565)" style="fill:#1d2238"/>
        <path data-name="Path 1911" d="M1742.74 1568.881a1.235 1.235 0 0 1 .636-.273 1.659 1.659 0 0 1 .664.044 1.549 1.549 0 0 1 .6.318 1.072 1.072 0 0 1 .363.606l-.03.033a2.384 2.384 0 0 0-.24-.172c-.042-.026-.082-.055-.125-.078l-.13-.069a3.036 3.036 0 0 0-.553-.2 3.941 3.941 0 0 0-.58-.119c-.1-.013-.2-.022-.3-.028s-.2-.013-.3-.013z" transform="translate(-1549.972 -1395.088)" style="fill:#1d2238"/>
        <path data-name="Path 1912" d="m1380.661 1452.892.325-1.834-7.606-1.348-.221 1.232-9.89 2.316a3.761 3.761 0 0 0-2.849 3.048l19.965 3.611z" transform="translate(-1209.941 -1289.355)" style="fill:#f8d12f"/>
        <path data-name="Path 1913" d="M1384.414 1501.3a141.52 141.52 0 0 1-4.964-.72c-.826-.128-1.649-.273-2.473-.409l-2.469-.435-2.466-.458c-.82-.16-1.641-.313-2.46-.482a143.902 143.902 0 0 1-4.9-1.065c1.659.206 3.318.455 4.965.72.826.128 1.649.273 2.473.409l2.469.435 2.464.458c.82.16 1.641.314 2.46.483 1.637.331 3.273.676 4.901 1.064z" transform="translate(-1213.73 -1332.063)" style="fill:#1d2238"/>
        <circle data-name="Ellipse 227" cx="1.843" cy="1.843" r="1.843" transform="rotate(-34.75 345.953 -180.26)" style="fill:#1d2238"/>
        <path data-name="Path 1914" d="M1398.439 1477.11a1.235 1.235 0 0 1 .689.061 1.613 1.613 0 0 1 .56.349 1.548 1.548 0 0 1 .375.561 1.071 1.071 0 0 1 .033.7l-.042.016a2.276 2.276 0 0 0-.13-.266c-.024-.042-.045-.087-.073-.127l-.082-.123a3.086 3.086 0 0 0-.392-.443 4.117 4.117 0 0 0-.453-.378c-.081-.058-.164-.111-.248-.165s-.168-.1-.256-.151z" transform="translate(-1243.738 -1313.703)" style="fill:#1d2238"/>
        <path data-name="Path 1915" d="M1421.269 1471.95a1.235 1.235 0 0 1 .689.061 1.616 1.616 0 0 1 .56.35 1.548 1.548 0 0 1 .375.561 1.063 1.063 0 0 1 .033.7l-.042.016a2.286 2.286 0 0 0-.13-.266c-.024-.042-.045-.086-.073-.127l-.082-.123a3.079 3.079 0 0 0-.392-.442 4.118 4.118 0 0 0-.453-.378 5.905 5.905 0 0 0-.248-.164 2.4 2.4 0 0 0-.256-.152z" transform="translate(-1264.043 -1309.114)" style="fill:#1d2238"/>
        <path data-name="Path 1916" d="M1442.369 1467.34a1.244 1.244 0 0 1 .689.06 1.635 1.635 0 0 1 .56.351 1.549 1.549 0 0 1 .375.561 1.071 1.071 0 0 1 .033.7l-.042.016a2.267 2.267 0 0 0-.13-.266c-.024-.042-.045-.087-.073-.128l-.082-.122a3.024 3.024 0 0 0-.391-.442 4.021 4.021 0 0 0-.453-.378 7.111 7.111 0 0 0-.248-.165 2.092 2.092 0 0 0-.255-.15z" transform="translate(-1282.809 -1305.014)" style="fill:#1d2238"/>
        <path data-name="Path 1917" d="m1526.25 991.85-19.344 3.583a118.4 118.4 0 0 0-24.637 2.412 26.821 26.821 0 0 0-8.055 2.708c-2.908 1.739-4.368 4.521-5.61 7.572a110.235 110.235 0 0 0-4.874 16.474 274.585 274.585 0 0 0-3.761 18.941l11.041 2.836 7.466-19.2 14.439 26.569 9.95-3.1-9.014-32.753s12.167-1.352 25.142-3.532c14.263-2.392 7.257-22.51 7.257-22.51z" transform="translate(-1298.48 -882.139)" style="fill:#1d2238"/>
        <path data-name="Path 1918" d="m1597.093 1106.175-.451-.935-.443-.939-.885-1.88-.442-.94c-.145-.315-.294-.624-.434-.947a13.385 13.385 0 0 1-1.082-6.151 12.608 12.608 0 0 1 .3-2.082l.054-.258c.021-.085.046-.169.07-.254l.142-.507c.048-.169.111-.332.168-.5l.086-.249c.029-.083.057-.166.094-.245.141-.322.263-.652.429-.961l.237-.471.264-.456c.168-.309.376-.593.567-.885.1-.148.209-.282.313-.424s.208-.283.325-.414c.233-.262.451-.538.706-.781l.368-.375.392-.351c.13-.117.26-.236.4-.341l.413-.332c.136-.111.286-.2.429-.3s.285-.2.436-.292l.451-.27c.075-.043.148-.091.221-.133l.233-.12.466-.24c.158-.074.321-.141.48-.211.32-.144.641-.265.963-.394l.966-.382 1.935-.752.968-.363.971-.368-.947.427-.949.419-1.9.839-.951.414c-.317.138-.638.272-.945.423-.154.074-.31.145-.463.221l-.45.247-.221.123c-.074.042-.145.09-.221.135l-.434.273a13.745 13.745 0 0 0-3.015 2.745 13.524 13.524 0 0 0-2.053 3.514 2.874 2.874 0 0 0-.092.239l-.085.24c-.054.161-.118.32-.165.483l-.139.491c-.023.082-.049.164-.07.247l-.053.249a12.7 12.7 0 0 0-.307 2.019 13.446 13.446 0 0 0 .322 4.065 13.629 13.629 0 0 0 .617 1.954c.258.635.54 1.272.806 1.909l.8 1.915.4.957z" transform="translate(-1417.09 -961.135)" style="fill:#4a4e60"/>
        <path data-name="Path 1919" d="M2136.847 465.659a1.014 1.014 0 0 0-1.317-.559l-2.723.872 2.963-1.843a.87.87 0 0 0-.843-1.522l-4.187 2.056 1.991-2.249a.973.973 0 1 0-1.422-1.324l-4.077 3.85-.173.154.345-2.883a1.532 1.532 0 0 0 0-.409 1.026 1.026 0 0 0-.941-.972 1.089 1.089 0 0 0-1.069.879l-.442 2.285a13.1 13.1 0 0 1-1.352 3.752l-20.059 9.561-5.831 2.034 2.252 10.208c3.609-1.549 7.411-2.8 10.584-5.164 1.481-1.106 2.941-2.24 4.411-3.36l11.771-8.96a2 2 0 0 1 .428-.332l6.4-1.854a.811.811 0 0 0-.352-1.58l-2.026.32 5.077-1.719a1.01 1.01 0 0 0 .592-1.241z" transform="translate(-1865.678 -409.799)" style="fill:#eb9481"/>
        <path data-name="Path 1921" d="m1756.746 630.525-2.908-13.145-23.56 5.8-18.888 4.739 1.252 12.678 9.25-.087a17.054 17.054 0 0 0 3.378 7.511l-3 15.655s29.116 5.724 29.125-.363-4.093-28.98-4.093-28.98z" transform="translate(-1522.09 -549.09)" style="fill:#f8d12f"/>
        <path data-name="Path 1922" d="M1798.8 756.989s-.279-6.084 1.753-8.639c0 0-3.129 2.832-2.641 8.648z" transform="translate(-1598.998 -665.574)" style="fill:#1d2238"/>
        <path data-name="Path 1923" d="m1482.651 520.163-7.582 1.1-11.444-14.638a18.151 18.151 0 0 1 .671-2.4 19.23 19.23 0 0 1 1.187-2.367c.332-.577.681-1.195.092-1.751a1.026 1.026 0 0 0-1.352.06 1.533 1.533 0 0 0-.282.3l-1.727 2.333-.021-.23-.32-5.6a.973.973 0 1 0-1.943-.013l-.1 3-1.634-4.365a.872.872 0 0 0-1.659.528l.885 3.375-1.379-2.509a.972.972 0 1 0-1.764.813l2.512 4.735-1.255-1.623a.81.81 0 0 0-1.34.906l4.17 7.053 9.011 18.542a7.1 7.1 0 0 0 6.535 3.882l9.76-.525z" transform="translate(-1293.242 -440.265)" style="fill:#eb9481"/>
        <path data-name="Path 1924" d="M1620.372 732.012a3.991 3.991 0 0 1 0 1.678 5.9 5.9 0 0 1-1.54 2.937c-.048.051-.1.1-.148.148a1.43 1.43 0 0 1-.155.14c-.111.089-.221.177-.332.262a3.392 3.392 0 0 1-.353.229 3.845 3.845 0 0 1-.374.2h-.008a.028.028 0 0 1-.031-.044 11.312 11.312 0 0 0 1.043-1.2 9.248 9.248 0 0 0 .841-1.346 9.443 9.443 0 0 0 .626-1.46 8.532 8.532 0 0 0 .37-1.549.027.027 0 0 1 .053 0z" transform="translate(-1438.518 -651.013)" style="fill:#1d2238"/>
        <path data-name="Path 1925" d="M1509.518 565.3c-.184.332-.379.632-.576.924s-.395.574-.584.859-.375.567-.545.862a10.409 10.409 0 0 0-.478.948 2.149 2.149 0 0 1 .02-1.135 3.6 3.6 0 0 1 .482-1.025 4.311 4.311 0 0 1 .737-.835 3.283 3.283 0 0 1 .944-.598z" transform="translate(-1340.546 -502.771)" style="fill:#1d2238"/>
        <path data-name="Path 1926" d="M2363 499.86a2.715 2.715 0 0 1 .6.815 3.661 3.661 0 0 1 .323.957 3.162 3.162 0 0 1 .02 1.026 1.924 1.924 0 0 1-.419.941c-.019-.35-.04-.651-.075-.955s-.091-.6-.144-.9l-.171-.913c-.053-.31-.105-.624-.134-.971z" transform="translate(-2101.624 -444.569)" style="fill:#1d2238"/>
        <path data-name="Path 1927" d="M1799.46 507.39a2.9 2.9 0 0 0 .044-1.3L1797 493.477l-.06.012a7.411 7.411 0 0 0-7.681-6.526 6.984 6.984 0 0 0-6.808 5.787 10.253 10.253 0 0 0-.241 2.774l.078 1.813a7.406 7.406 0 0 0 8.691 6.98l.753 4.857a2.212 2.212 0 0 0 2.256 1.867 5.444 5.444 0 0 0 1.866-.5c1.498-.609 3.161-1.458 3.606-3.151z" transform="translate(-1585.064 -433.093)" style="fill:#eb9481"/>
        <path data-name="Path 1928" d="M1861.54 630.4s2.6-.536 3.65-1.691c0 0-.266 2.122-3.344 3.208z" transform="translate(-1655.631 -559.167)" style="fill:#1d2238"/>
        <path data-name="Path 1929" d="M1832.69 476.908s1.45 4.646 6.209 4.478l1.085-.146 2.383 5.222a7.907 7.907 0 0 0 1.94-7.591c-1.073-4.976-6.091-6.713-10.051-5.767s-1.566 3.804-1.566 3.804z" transform="translate(-1629.334 -420.552)" style="fill:#1d2238"/>
        <ellipse data-name="Ellipse 228" cx="1.477" cy="1.826" rx="1.477" ry="1.826" transform="rotate(-2.49 1480.816 -4805.288)" style="fill:#eb9481"/>
        <path data-name="Path 1930" d="M1905.88 546.041a.816.816 0 0 1 .221-.513.913.913 0 0 1 .252-.186.884.884 0 0 1 .321-.083.985.985 0 0 1 .64.194 1.216 1.216 0 0 1 .234.229 1.335 1.335 0 0 1 .163.275 1.538 1.538 0 0 1 .092.3c.008.051.014.1.019.154v.076a.844.844 0 0 1 0 .09.638.638 0 0 1-.068.248.441.441 0 0 1-.111.139.451.451 0 0 1-.155.083.519.519 0 0 1-.238.014.9.9 0 0 1-.16-.044 2.474 2.474 0 0 1-.462-.244 2.752 2.752 0 0 0-.423-.246h-.008a.018.018 0 0 1-.01-.022.02.02 0 0 1 .017-.011 4.188 4.188 0 0 1 .952.24.464.464 0 0 0 .221.008.16.16 0 0 0 .091-.168 1.185 1.185 0 0 0-.1-.461.983.983 0 0 0-.278-.378.73.73 0 0 0-.429-.171.817.817 0 0 0-.745.5.019.019 0 0 1-.023.009.02.02 0 0 1-.011-.018z" transform="translate(-1695.067 -484.946)" style="fill:#1d2238"/>
        <path data-name="Path 1931" d="M1801.351 550.22a5.265 5.265 0 0 1 .055.6c.008.1 0 .2.008.3s0 .2 0 .293c0 .2-.011.392-.029.585l-.023.291-.031.29v-.1a.036.036 0 0 1 0 .023l-.1.418-.274-.036a.367.367 0 0 0-.147.008.356.356 0 0 0-.259.385.516.516 0 0 0 .057.188.5.5 0 0 0 .15.16.5.5 0 0 0 .111.058 4.769 4.769 0 0 1 .448.18.018.018 0 0 1 .009.024.019.019 0 0 1-.019.01l-.307-.04a1.937 1.937 0 0 1-.31-.054.663.663 0 0 1-.419-.461.671.671 0 0 1 0-.322.689.689 0 0 1 .15-.285.664.664 0 0 1 .59-.221l-.041.042a.2.2 0 0 1 0-.024v-.011c.111-.768.221-1.536.351-2.3a.017.017 0 0 1 .007-.012.018.018 0 0 1 .014 0 .021.021 0 0 1 .016.014z" transform="translate(-1601.115 -489.338)" style="fill:#1d2238"/>
        <path data-name="Path 1932" d="M1826.573 538.8c-.028.2-.494.291-1.043.212s-.97-.3-.941-.5.495-.291 1.043-.212.968.3.941.5z" transform="translate(-1622.766 -478.733)" style="fill:#1d2238"/>
        <path data-name="Path 1933" d="M1791.2 539.5c.041.194-.365.442-.907.553s-1.014.051-1.055-.143.365-.442.907-.553 1.012-.052 1.055.143z" transform="translate(-1591.324 -479.648)" style="fill:#1d2238"/>
        <path data-name="Path 1934" d="M1822.882 551.242a.455.455 0 1 1-.474-.435.455.455 0 0 1 .474.435z" transform="translate(-1620.442 -489.881)" style="fill:#1d2238"/>
        <path data-name="Path 1935" d="M1795.922 552.111a.455.455 0 1 1-.147-.316.454.454 0 0 1 .147.316z" transform="translate(-1596.464 -490.654)" style="fill:#1d2238"/>
        <path data-name="Path 1936" d="M1780.168 475.071c-2.421-.072-8.726.614-8.54 9.763a13.508 13.508 0 0 1 1.7-3.746 13.867 13.867 0 0 0 6.379-1.4l2.833-4.38a8.677 8.677 0 0 0-2.372-.237z" transform="translate(-1575.661 -422.517)" style="fill:#1d2238"/>
        <path data-name="Path 1937" d="M1837 511.016s1.461 4.494 5.906 5.493c0 0-2.661-1.24-5.009-5.959z" transform="translate(-1633.806 -454.077)" style="fill:#1d2238"/>
        <path data-name="Path 1938" d="M1801.11 585.834a4.369 4.369 0 0 0 3.59-2.384s-1.424 4.05-3.59 2.384z" transform="translate(-1601.886 -518.913)" style="fill:#fff"/>
        <path data-name="Path 1939" d="M1801.11 605a1.5 1.5 0 0 0 .431.238 2 2 0 0 0 .476.111l.122.011h.123c.082 0 .164-.007.247-.008s.164-.018.247-.024.165-.028.249-.036c-.077.032-.158.059-.238.087a1.359 1.359 0 0 1-.248.056 1.935 1.935 0 0 1-.512.019 1.548 1.548 0 0 1-.5-.136 1.053 1.053 0 0 1-.397-.318z" transform="translate(-1601.886 -538.08)" style="fill:#1d2238"/>
        <path data-name="Path 1940" d="M1880.07 433.066s-.065-6.084 6.536-4.828 6.914 10.671 15.707 6.747c0 0-2.845 7.606-8.247 5.792s-8.153-8.246-11.119-6.637z" transform="translate(-1672.111 -380.718)" style="fill:#1d2238"/>
        <path data-name="Path 1941" d="M1888.32 656.15s1.734 3.957 3.593 3.5 5.176-3.991 4.535-9.482l-2.649.651s-1.468 5.093-5.479 5.331z" transform="translate(-1679.449 -578.253)" style="fill:#fff"/>
        <path data-name="Path 1942" d="M1848.769 677.068s-.7 4.59-3.121 4.162c-2.963-.524-1.369-7.017-1.369-7.017l1.991-.523s.472 3.223 2.499 3.378z" transform="translate(-1639.898 -599.172)" style="fill:#fff"/>
        <path data-name="Path 1943" d="M2147.27 610.28c-.02.467-.025.919-.008 1.369a10.611 10.611 0 0 0 .131 1.327c.02.111.032.221.059.332l.072.324c.023.111.062.212.089.32l.045.161c.017.052.037.1.055.156l.111.318.133.311c.021.053.04.111.064.158s.053.1.077.153c.051.1.1.207.147.316-.085-.078-.167-.163-.249-.248-.041-.042-.081-.085-.121-.129s-.071-.093-.111-.139l-.2-.291c-.06-.1-.11-.207-.17-.312-.027-.053-.056-.111-.082-.159l-.065-.165c-.043-.111-.091-.221-.125-.332l-.1-.344c-.031-.111-.045-.233-.068-.35a5.363 5.363 0 0 1-.042-1.415 4.362 4.362 0 0 1 .358-1.361z" transform="translate(-1909.414 -542.776)" style="fill:#1d2238"/>
    </g>
</svg>
