<svg xmlns="http://www.w3.org/2000/svg" width="24.902" height="24.902" viewBox="0 0 24.902 24.902">
    <path data-name="Path 1852" d="M25.075 25.944H5.385A4.345 4.345 0 0 1 1.042 21.6V1.91a.869.869 0 1 1 1.737 0V21.6a2.61 2.61 0 0 0 2.606 2.606h19.69a.869.869 0 1 1 0 1.737z" style="fill:#fff" transform="translate(-1.042 -1.042)"/>
    <path data-name="Path 1853" d="M4.41 18.528a.868.868 0 0 1-.66-1.436l5.316-6.208a3.205 3.205 0 0 1 2.294-1.112 3.238 3.238 0 0 1 2.374.927l1.1 1.1a1.5 1.5 0 0 0 1.077.428 1.415 1.415 0 0 0 1.042-.51l5.317-6.208a.871.871 0 0 1 1.32 1.135l-5.316 6.208a3.205 3.205 0 0 1-2.293 1.112 3.238 3.238 0 0 1-2.374-.926l-1.089-1.1a1.449 1.449 0 0 0-1.077-.429 1.415 1.415 0 0 0-1.042.51l-5.317 6.208a.926.926 0 0 1-.672.301z" transform="translate(-.067 .583)" style="fill:#fff"/>
</svg>
