<svg width="20" height="20" viewBox="0 0 20 20" fill="none" xmlns="http://www.w3.org/2000/svg">
<path d="M9.16666 1.66675H7.49999C3.33332 1.66675 1.66666 3.33341 1.66666 7.50008V12.5001C1.66666 16.6667 3.33332 18.3334 7.49999 18.3334H12.5C16.6667 18.3334 18.3333 16.6667 18.3333 12.5001V10.8334" stroke="#F7F8FA" stroke-width="1.5" stroke-linecap="round" stroke-linejoin="round"/>
<path d="M13.3667 2.51663L6.79999 9.0833C6.54999 9.3333 6.29999 9.82497 6.24999 10.1833L5.89166 12.6916C5.75832 13.6 6.39999 14.2333 7.30832 14.1083L9.81666 13.75C10.1667 13.7 10.6583 13.45 10.9167 13.2L17.4833 6.6333C18.6167 5.49997 19.15 4.1833 17.4833 2.51663C15.8167 0.849966 14.5 1.3833 13.3667 2.51663Z" stroke="#F7F8FA" stroke-width="1.5" stroke-miterlimit="10" stroke-linecap="round" stroke-linejoin="round"/>
<path d="M12.425 3.45825C12.9833 5.44992 14.5417 7.00825 16.5417 7.57492" stroke="#F7F8FA" stroke-width="1.5" stroke-miterlimit="10" stroke-linecap="round" stroke-linejoin="round"/>
</svg>
