<svg width="45" height="44" viewBox="0 0 45 44" fill="none" xmlns="http://www.w3.org/2000/svg">
<path d="M17.2501 40.3334H28.2501C37.4167 40.3334 41.0834 36.6667 41.0834 27.5V16.5C41.0834 7.33335 37.4167 3.66669 28.2501 3.66669H17.2501C8.08341 3.66669 4.41675 7.33335 4.41675 16.5V27.5C4.41675 36.6667 8.08341 40.3334 17.2501 40.3334Z" stroke="#292D32" strokeWidth="1.5" strokeLinecap="round" strokeLinejoin="round"/>
<path d="M34.4466 27.995V13.8967C34.4466 12.485 33.3099 11.4584 31.9166 11.5684H31.8433C29.3866 11.77 25.6649 13.035 23.5749 14.3367L23.3733 14.465C23.0433 14.6667 22.4748 14.6667 22.1265 14.465L21.8332 14.2817C19.7616 12.98 16.0399 11.7517 13.5832 11.55C12.1899 11.44 11.0532 12.485 11.0532 13.8784V27.995C11.0532 29.1133 11.9699 30.1767 13.0882 30.305L13.4182 30.36C15.9482 30.69 19.8716 31.9917 22.1083 33.22L22.1632 33.2384C22.4749 33.4217 22.9882 33.4217 23.2815 33.2384C25.5182 31.9917 29.4599 30.7083 32.0082 30.36L32.3932 30.305C33.5299 30.1767 34.4466 29.1317 34.4466 27.995Z" stroke="#292D32" strokeWidth="1.5" strokeLinecap="round" strokeLinejoin="round"/>
<path d="M22.75 14.85V32.3767" stroke="#292D32" strokeWidth="1.5" strokeLinecap="round" strokeLinejoin="round"/>
</svg>
