<svg width="63" height="63" viewBox="0 0 63 63" fill="none" xmlns="http://www.w3.org/2000/svg">
<path d="M50.1898 39.2175L51.0298 40.9238C51.4498 41.7638 52.526 42.5513 53.4185 42.7088L54.5473 42.8925C57.986 43.47 58.7735 45.99 56.3323 48.4575L55.2823 49.5075C54.5735 50.2163 54.206 51.5813 54.416 52.5788L54.5473 53.2088C55.4923 57.3563 53.2873 58.9575 49.691 56.7788L48.9298 56.3063C48.011 55.755 46.4885 55.755 45.5698 56.3063L44.8085 56.7788C41.186 58.9575 39.0073 57.3563 39.9523 53.2088L40.0835 52.5788C40.2935 51.6075 39.926 50.2163 39.2173 49.5075L38.1673 48.4575C35.726 45.9638 36.5135 43.47 39.9523 42.8925L41.081 42.7088C41.9998 42.5513 43.0498 41.7638 43.4698 40.9238L44.3098 39.2175C45.9373 35.9363 48.5623 35.9363 50.1898 39.2175Z" fill="#F1D550"/>
<path d="M42.4988 5.25H20.5013C10.9462 5.25 5.25 10.9462 5.25 20.5013V42.4988C5.25 52.0538 10.9462 57.75 20.5013 57.75H34.3612C35.28 57.75 35.9362 56.805 35.8312 55.8863C35.7262 54.8888 35.7787 53.7075 36.0938 52.3425C36.1462 52.1588 36.0937 51.9487 35.9362 51.7912L35.3588 51.2137C33.1275 48.9562 32.3137 46.2262 33.1012 43.7325C33.915 41.265 36.1725 39.5325 39.2962 39.0075L40.0838 38.8763L40.7925 37.4588C42.2363 34.5188 44.5988 32.8125 47.25 32.8125C49.9012 32.8125 52.2637 34.5188 53.7075 37.4588L54.1012 38.2725C54.285 38.6662 54.6525 38.9287 55.0725 39.0075C55.3088 39.06 55.545 39.1125 55.7812 39.165C56.7 39.4012 57.75 38.6662 57.75 37.695V20.5013C57.75 10.9462 52.0538 5.25 42.4988 5.25ZM42.6825 23.52L36.6187 31.3425C35.8575 32.3137 34.7812 32.9438 33.5475 33.075C32.34 33.2325 31.1062 32.8912 30.1612 32.13L25.3575 28.4025C25.1737 28.245 24.9638 28.245 24.8588 28.2713C24.7537 28.2713 24.57 28.3237 24.4125 28.5338L18.165 36.645C17.7712 37.1437 17.1938 37.4062 16.59 37.4062C16.17 37.4062 15.75 37.275 15.3825 36.9862C14.5163 36.33 14.3587 35.0963 15.015 34.23L21.2625 26.1187C22.0238 25.1475 23.1 24.5175 24.3338 24.36C25.5675 24.2025 26.775 24.5438 27.7463 25.305L32.55 29.085C32.7337 29.2425 32.9175 29.2162 33.0487 29.2162C33.1537 29.2162 33.3375 29.1637 33.495 28.9537L39.5588 21.1313C40.215 20.265 41.4488 20.1075 42.315 20.79C43.2075 21.4463 43.3387 22.68 42.6825 23.52Z" fill="#F1D550"/>
</svg>
