<svg xmlns="http://www.w3.org/2000/svg" width="25.456" height="25.456" viewBox="0 0 25.456 25.456">
    <g data-name="Iconly/Light-outline/Swap">
        <path data-name="Swap" d="M13.155 17.853a.715.715 0 0 1-.075-.071l-3.754-4.141a.81.81 0 0 1 0-1.07.644.644 0 0 1 .9-.071l.077.074 2.57 2.835V3.5a.725.725 0 0 1 .69-.757.713.713 0 0 1 .682.654l.007.1v11.911l2.57-2.834a.645.645 0 0 1 .974 0 .813.813 0 0 1 .069.986l-.067.084-3.748 4.135a.656.656 0 0 1-.484.219.645.645 0 0 1-.411-.145zm-9.4-3.247-.006-.1V2.59L1.178 5.426a.645.645 0 0 1-.9.075L.2 5.429a.815.815 0 0 1-.069-.986L.2 4.358 3.949.223a.678.678 0 0 1 .283-.189H4.583a.66.66 0 0 1 .251.129.716.716 0 0 1 .086.054l.006.006 3.748 4.135a.812.812 0 0 1 0 1.071.644.644 0 0 1-.9.071L7.7 5.426 5.126 2.59V14.5a.725.725 0 0 1-.689.757.716.716 0 0 1-.683-.651z" fill="rgb(214, 213, 221)" transform="rotate(45 6.364 15.364)"/>
    </g>
</svg>
