<svg xmlns="http://www.w3.org/2000/svg" width="16.664" height="14.914" viewBox="0 0 16.664 14.914">
  <g id="Group_1" data-name="Group 1" transform="translate(-1996 -170.293)">
    <path id="Show" d="M8.093,13.329C4.839,13.221,1.877,10.922.17,7.181L.051,6.912a.619.619,0,0,1,0-.491A11.894,11.894,0,0,1,3.545,1.716,7.781,7.781,0,0,1,8.334,0h.238c3.253.109,6.216,2.408,7.924,6.151l.116.261a.621.621,0,0,1,0,.5,11.9,11.9,0,0,1-3.495,4.7,7.781,7.781,0,0,1-4.79,1.716ZM4.442,2.6a10.268,10.268,0,0,0-3,3.79l-.13.278.141.3A10.42,10.42,0,0,0,4.265,10.6,6.649,6.649,0,0,0,7.9,12.076l.222.011h.426a6.617,6.617,0,0,0,3.862-1.5,10.555,10.555,0,0,0,2.939-3.906l.008-.02A10.662,10.662,0,0,0,12.5,2.816,6.689,6.689,0,0,0,8.762,1.257L8.54,1.246h-.2A6.522,6.522,0,0,0,4.442,2.6Zm.632,4.069a3.26,3.26,0,1,1,3.26,3.238,3.26,3.26,0,0,1-3.26-3.238Zm1.25,0a2.01,2.01,0,1,0,2.009-2,2.01,2.01,0,0,0-2.009,2Z" transform="translate(1996 171)" fill="#d6d5dd"/>
    <line id="Line_1" data-name="Line 1" x1="13.668" y2="13.5" transform="translate(1997.498 171)" fill="none" stroke="#d6d5dd" strokeLinecap="round" strokeWidth="1"/>
  </g>
</svg>
