<svg data-name="Iconly/Light-outline/Work" xmlns="http://www.w3.org/2000/svg" width="18" height="18" viewBox="0 0 18 18">
    <path data-name="Work" d="M3.862 18a3.342 3.342 0 0 1-2.779-1.246 4.193 4.193 0 0 1-.876-2.335c-.029-.5-.156-2.107-.156-2.128a.678.678 0 0 1 .673-.682.671.671 0 0 1 .663.63s.139 1.595.169 2.1a2.847 2.847 0 0 0 .568 1.543 1.985 1.985 0 0 0 1.74.752h10.323a1.986 1.986 0 0 0 1.741-.751 2.847 2.847 0 0 0 .569-1.544c.029-.5.168-2.1.168-2.1a.671.671 0 0 1 .663-.63.678.678 0 0 1 .673.682c0 .021-.127 1.632-.156 2.128a4.205 4.205 0 0 1-.877 2.336A3.343 3.343 0 0 1 14.19 18H9.025zm4.462-4.611v-1.18a.675.675 0 1 1 1.351 0v1.18a.675.675 0 1 1-1.351 0zm2.252-1.939a1.626 1.626 0 0 0-1.581-1.234 1.649 1.649 0 0 0-1.6 1.237.669.669 0 0 1-.648.5.642.642 0 0 1-.1-.007A15.34 15.34 0 0 1 .3 9.56a.686.686 0 0 1-.3-.571V5.827a3.459 3.459 0 0 1 3.436-3.473h1.772A2.677 2.677 0 0 1 7.836 0h2.325a2.674 2.674 0 0 1 2.629 2.354h1.78A3.455 3.455 0 0 1 18 5.827v3.162a.688.688 0 0 1-.3.571 15.336 15.336 0 0 1-6.373 2.4.729.729 0 0 1-.092.007.679.679 0 0 1-.66-.519zm1.092-.93a14.058 14.058 0 0 0 4.979-1.9V5.827a2.094 2.094 0 0 0-2.077-2.105H3.436a2.1 2.1 0 0 0-2.085 2.105v2.788a14.037 14.037 0 0 0 4.961 1.895 3 3 0 0 1 2.682-1.663 2.957 2.957 0 0 1 2.674 1.671zM6.573 2.354h4.85a1.316 1.316 0 0 0-1.262-.986H7.836a1.318 1.318 0 0 0-1.263.986z" fill="rgb(214, 213, 221)"/>
</svg>
