<svg data-name="Iconly/Light-outline/Paper Plus" xmlns="http://www.w3.org/2000/svg" width="12.052" height="13.865" viewBox="0 0 12.052 13.865">
    <path data-name="Paper Plus" d="M3.24 13.865A3.13 3.13 0 0 1 0 10.706V3.135A3.045 3.045 0 0 1 .961.927 3.278 3.278 0 0 1 3.24.008h4.422a.541.541 0 0 1 .187 0h.092a.539.539 0 0 1 .383.161L11.9 3.851a.521.521 0 0 1 .148.363v6.492a3.166 3.166 0 0 1-3.167 3.158zm0-12.809a2.16 2.16 0 0 0-2.18 2.079v7.572a2.076 2.076 0 0 0 2.18 2.111h5.646a2.12 2.12 0 0 0 2.106-2.111V4.874h-1.42a2.337 2.337 0 0 1-2.343-2.189V1.054zm5.046 1.5a1.281 1.281 0 0 0 1.287 1.271h.839L8.286 1.641zM5.372 9.4l-.005-.071V8.141h-1.2A.523.523 0 0 1 4.093 7.1l.072-.005h1.2V5.908a.531.531 0 0 1 1.055-.072l.005.072v1.186h1.2A.523.523 0 0 1 7.7 8.136l-.072.005h-1.2v1.187a.531.531 0 0 1-1.056.072z" style="fill:#d6d5dd"/>
</svg>
