<svg width="16" height="14" viewBox="0 0 16 14" fill="none" xmlns="http://www.w3.org/2000/svg">
<path fill-rule="evenodd" clip-rule="evenodd" d="M12.4899 8.42337C13.9199 8.42337 15.0833 9.58087 15.0833 11.0034C15.0833 12.4259 13.9199 13.5834 12.4899 13.5834C11.0591 13.5834 9.89492 12.4259 9.89492 11.0034C9.89492 9.58087 11.0591 8.42337 12.4899 8.42337ZM12.4899 9.67337C11.7483 9.67337 11.1449 10.27 11.1449 11.0034C11.1449 11.7375 11.7483 12.3334 12.4899 12.3334C13.2308 12.3334 13.8333 11.7375 13.8333 11.0034C13.8333 10.27 13.2308 9.67337 12.4899 9.67337ZM6.40025 10.4107C6.74525 10.4107 7.02525 10.6907 7.02525 11.0357C7.02525 11.3807 6.74525 11.6607 6.40025 11.6607H1.14942C0.804417 11.6607 0.524417 11.3807 0.524417 11.0357C0.524417 10.6907 0.804417 10.4107 1.14942 10.4107H6.40025ZM3.09417 0.333374C4.525 0.333374 5.68833 1.49171 5.68833 2.91421C5.68833 4.33671 4.525 5.49337 3.09417 5.49337C1.66417 5.49337 0.5 4.33671 0.5 2.91421C0.5 1.49171 1.66417 0.333374 3.09417 0.333374ZM3.09417 1.58337C2.35333 1.58337 1.75 2.18004 1.75 2.91421C1.75 3.64754 2.35333 4.24337 3.09417 4.24337C3.83583 4.24337 4.43833 3.64754 4.43833 2.91421C4.43833 2.18004 3.83583 1.58337 3.09417 1.58337ZM13.9926 2.33371C14.3376 2.33371 14.6176 2.61371 14.6176 2.95871C14.6176 3.30371 14.3376 3.58371 13.9926 3.58371H8.74258C8.39758 3.58371 8.11758 3.30371 8.11758 2.95871C8.11758 2.61371 8.39758 2.33371 8.74258 2.33371H13.9926Z" fill="#F7F8FA"/>
</svg>
