<svg data-name="Iconly/Broken/Edit" xmlns="http://www.w3.org/2000/svg" width="10" height="10" viewBox="0 0 10 10">
    <path data-name="Edit" d="M5.887 10a.438.438 0 0 1 0-.875h3.68a.438.438 0 0 1 0 .875zM.873 10a.434.434 0 0 1-.422-.339L.034 7.845a1.308 1.308 0 0 1 .241-1.1l.625-.81a.429.429 0 0 1 .608-.074.44.44 0 0 1 .073.614l-.628.81a.429.429 0 0 0-.079.362l.342 1.473 1.5-.019a.42.42 0 0 0 .328-.164l4.781-6.169a.59.59 0 0 0 .127-.5.962.962 0 0 0-.362-.527l-.8-.636a.7.7 0 0 0-1.048.016l-.632.815 1 .813a.44.44 0 0 1 .067.615.429.429 0 0 1-.609.068l-1-.807-1.631 2.106a.43.43 0 0 1-.609.074.441.441 0 0 1-.073-.615L5.058.577A1.544 1.544 0 0 1 7.321.413l.8.636A1.832 1.832 0 0 1 8.8 2.078a1.472 1.472 0 0 1-.291 1.23L3.723 9.477a1.278 1.278 0 0 1-1 .5L.879 10z" style="fill:#d6d5dd"/>
</svg>
