<svg data-name="Iconly/Bold/Star" xmlns="http://www.w3.org/2000/svg" width="14.165" height="13.458" viewBox="0 0 8.334 7.917">
    <path data-name="Star" d="M6.633 4.925a.459.459 0 0 0-.133.4l.37 2.05a.45.45 0 0 1-.188.45.459.459 0 0 1-.488.033L4.35 6.9a.471.471 0 0 0-.208-.055h-.113a.338.338 0 0 0-.112.037L2.07 7.85a.487.487 0 0 1-.3.046.463.463 0 0 1-.371-.53l.371-2.05a.466.466 0 0 0-.133-.408L.137 3.45a.45.45 0 0 1-.112-.471.468.468 0 0 1 .375-.312l2.071-.3a.463.463 0 0 0 .367-.254L3.745.242a.434.434 0 0 1 .084-.113L3.866.1a.28.28 0 0 1 .067-.054l.046-.017L4.05 0h.175a.466.466 0 0 1 .367.25l.925 1.862a.463.463 0 0 0 .346.254l2.071.3a.472.472 0 0 1 .379.313.453.453 0 0 1-.121.471z" style="fill:#f8d12f"/>
</svg>
