<svg id="Iconly_Light-outline_Unlock" data-name="Iconly/Light-outline/Unlock" xmlns="http://www.w3.org/2000/svg" width="24" height="24" viewBox="0 0 24 24">
  <g id="Unlock" transform="translate(3.5 2)">
    <path id="Unlock-2" data-name="Unlock" d="M4.617,20A4.586,4.586,0,0,1,0,15.458V11.17A4.557,4.557,0,0,1,3.1,6.878v-1.6A5.346,5.346,0,0,1,8.51,0,5.384,5.384,0,0,1,13.6,3.567a.747.747,0,0,1-.471.954.765.765,0,0,1-.969-.464A3.888,3.888,0,0,0,4.633,5.086l-.006.2V6.627h7.756A4.585,4.585,0,0,1,17,11.17v4.288A4.586,4.586,0,0,1,12.383,20ZM1.525,11.17v4.288A3.071,3.071,0,0,0,4.617,18.5h7.766a3.071,3.071,0,0,0,3.092-3.043V11.17a3.071,3.071,0,0,0-3.092-3.043H4.617A3.071,3.071,0,0,0,1.525,11.17Zm6.22,3.356-.006-.1V12.2a.763.763,0,0,1,1.517-.1l.007.1v2.222a.764.764,0,0,1-1.518.1Z" fill="#d6d5dd"/>
  </g>
</svg>
