<svg width="50" height="50" viewBox="0 0 50 50" fill="none" xmlns="http://www.w3.org/2000/svg">
<path d="M24.4966 20.9983C22.2014 20.9983 20.3283 22.7965 20.3283 25C20.3283 27.2035 22.2014 29.0017 24.4966 29.0017C26.7919 29.0017 28.665 27.2035 28.665 25C28.665 22.7965 26.7919 20.9983 24.4966 20.9983ZM36.9986 25C36.9986 23.3429 37.0142 21.7008 36.9173 20.0467C36.8204 18.1254 36.3638 16.4202 34.9004 15.0153C33.4338 13.6073 31.6607 13.172 29.6594 13.0789C27.9333 12.9859 26.2228 13.0009 24.4998 13.0009C22.7736 13.0009 21.0631 12.9859 19.3401 13.0789C17.3388 13.172 15.5626 13.6103 14.0992 15.0153C12.6326 16.4232 12.1792 18.1254 12.0822 20.0467C11.9853 21.7038 12.0009 23.3459 12.0009 25C12.0009 26.6541 11.9853 28.2992 12.0822 29.9533C12.1792 31.8746 12.6357 33.5798 14.0992 34.9847C15.5658 36.3927 17.3388 36.828 19.3401 36.9211C21.0663 37.0141 22.7768 36.9991 24.4998 36.9991C26.2259 36.9991 27.9364 37.0141 29.6594 36.9211C31.6607 36.828 33.4369 36.3897 34.9004 34.9847C36.3669 33.5768 36.8204 31.8746 36.9173 29.9533C37.0174 28.2992 36.9986 26.6571 36.9986 25ZM24.4966 31.1572C20.9474 31.1572 18.0831 28.4073 18.0831 25C18.0831 21.5927 20.9474 18.8428 24.4966 18.8428C28.0458 18.8428 30.9102 21.5927 30.9102 25C30.9102 28.4073 28.0458 31.1572 24.4966 31.1572ZM31.1729 20.0286C30.3442 20.0286 29.675 19.3862 29.675 18.5907C29.675 17.7951 30.3442 17.1527 31.1729 17.1527C32.0016 17.1527 32.6708 17.7951 32.6708 18.5907C32.671 18.7796 32.6324 18.9667 32.5572 19.1412C32.4821 19.3158 32.3717 19.4744 32.2326 19.608C32.0935 19.7416 31.9282 19.8475 31.7464 19.9197C31.5646 19.9918 31.3697 20.0289 31.1729 20.0286Z" fill="white"/>
<rect x="0.5" y="0.5" width="49" height="49" rx="7.5" stroke="white"/>
</svg>
