<svg width="190" height="150" viewBox="0 0 190 150" fill="none" xmlns="http://www.w3.org/2000/svg">
<path d="M42.6648 128.035C42.6648 128.035 18.8275 47.0692 23.5603 27.8455C28.2931 8.62179 39.3027 -2.06932 59.2874 30.6559C82.5909 68.7992 75.8524 131.121 75.8524 131.121L42.6648 128.035Z" fill="#7C1338"/>
<path d="M156.339 127.876L75.8521 131.121C75.8521 131.121 78.6514 90.1379 69.8351 57.659C61.0187 25.18 45.0742 12.2869 39.3025 10.1284C39.3025 10.1284 77.396 16.8212 100.627 18.5596C123.859 20.298 153.785 17.4731 163.251 15.5319C163.222 15.5319 174.838 75.5934 156.339 127.876Z" fill="url(#paint0_linear_109_2625)"/>
<path d="M79.4595 34.6978C79.4595 34.6978 137.177 37.5951 150.798 37.1316L151.924 38.276L76.819 35.3497L79.4595 34.6978Z" fill="#7C1338"/>
<path d="M78.9691 58.3689C107.539 59.9769 155.632 58.3689 155.632 58.3689L153.858 59.9769C153.858 59.9769 98.5065 59.0063 73.0531 59.9769L78.9691 58.3689Z" fill="#7C1338"/>
<path d="M89.8055 119.444C89.8055 119.444 125.561 118.995 153.987 116.04C154.464 116.04 153.194 117.749 153.194 117.749C153.194 117.749 86.6887 120.748 87.1793 120.748C88.0994 120.411 88.9801 119.974 89.8055 119.444Z" fill="#7C1338"/>
<path opacity="0.46" d="M101.003 36.2913C101.003 36.2913 121.204 38.1021 128.202 38.6816C134.313 38.9091 140.432 38.701 146.513 38.0587L101.003 36.2913Z" fill="url(#paint1_radial_109_2625)"/>
<path opacity="0.46" d="M98.0156 59.5712L140.539 59.7885C140.539 59.7885 125.691 60.3825 115.288 60.6287C109.51 60.8284 103.726 60.4743 98.0156 59.5712Z" fill="url(#paint2_radial_109_2625)"/>
<path opacity="0.46" d="M97.323 120.27L133.844 118.619C133.844 118.619 116.197 120.908 107.654 120.748C104.204 120.781 100.755 120.621 97.323 120.27Z" fill="url(#paint3_radial_109_2625)"/>
<path style="mix-blend-mode:screen" opacity="0.3" d="M89.1995 27.411C92.778 30.7284 102.316 33.3505 109.098 33.5678C115.879 33.7851 137.956 25.774 135.604 22.6594C133.252 19.5447 108.78 21.2107 97.1645 20.0663C85.5488 18.9218 82.2012 20.9355 89.1995 27.411Z" fill="url(#paint4_radial_109_2625)"/>
<path style="mix-blend-mode:screen" opacity="0.3" d="M95.433 38.8264C92.4028 42.3032 97.482 55.9351 99.3145 56.2104C101.147 56.4856 123.195 41.4051 118.246 39.9999C113.297 38.5947 98.0159 35.9291 95.433 38.8264Z" fill="url(#paint5_radial_109_2625)"/>
<path d="M141.116 37.1316C141.116 35.6829 139.803 32.5973 137.682 32.7856C135.561 32.9739 133.036 37.1316 133.036 37.1316H141.116Z" fill="#7C1338"/>
<path d="M97.323 119.3C94.8845 118.937 100.021 116.214 101.883 117.011C102.978 117.491 103.961 118.197 104.769 119.082C102.315 119.559 99.8002 119.632 97.323 119.3Z" fill="#7C1338"/>
<path style="mix-blend-mode:soft-light" opacity="0.5" d="M94.7691 127.557C94.2785 93.8465 119.299 105.175 133.469 106.146C147.638 107.116 143.786 123.95 141.881 126.557C139.976 129.165 94.8268 130.947 94.7691 127.557Z" fill="url(#paint6_linear_109_2625)"/>
<path d="M75.8522 7.31808C75.8522 7.31808 56.2716 0.074775 26.7924 0.625266C35.1473 3.96935 42.6907 9.07358 48.9137 15.5936C55.1366 22.1136 59.8943 29.8977 62.8658 38.4208C73.4858 67.7996 75.3761 129.991 75.3761 129.991L94.7836 127.557C96.6389 105.233 96.6389 82.7931 94.7836 60.4694C91.5514 26.1217 75.8522 7.31808 75.8522 7.31808Z" fill="url(#paint7_radial_109_2625)"/>
<path d="M129.01 9.65039C129.01 9.65039 156.34 5.81144 174.405 6.46334C174.405 6.46334 185.602 15.3147 186.252 45.3454C186.901 75.3761 163.395 124.095 163.395 124.095L147.393 125.196C147.393 125.196 159.947 93.7017 157.71 58.7455C154.824 15.0974 129.01 9.65039 129.01 9.65039Z" fill="url(#paint8_radial_109_2625)"/>
<path d="M45.7236 29.3521C33.1412 27.9035 37.3401 49.9376 39.2737 61.1213C41.2072 72.3049 54.2802 131.121 54.2802 131.121H46.7048C46.7048 131.121 34.2667 84.4447 29.5916 59.3394C24.9164 34.2341 27.1674 24.8178 32.8093 22.3841C38.4512 19.9503 45.7236 29.3521 45.7236 29.3521Z" fill="#675775"/>
<path d="M65.5498 128.977L67.3967 127.687L67.3102 126.905C67.036 124.355 66.0404 115.707 63.8327 101.945C63.2122 98.0911 62.5052 93.8321 61.6827 89.1963C61.524 88.3271 61.3652 87.429 61.2065 86.5308C60.5716 83.0057 59.879 79.2875 59.1287 75.3761C58.9122 74.2751 58.6958 73.2031 58.4794 72.1311C58.4794 71.8993 58.3784 71.6676 58.3351 71.4358L58.1619 70.6245C51.2647 38.1311 41.6836 24.9772 34.5843 24.9772C27.8169 24.9772 28.2354 42.3612 33.3001 69.1179C33.3867 69.6105 33.4877 70.1175 33.5887 70.5666C33.5887 70.697 33.5887 70.8418 33.6608 70.9867C34.5266 75.3327 35.58 80.1857 36.7343 85.0966C36.9075 85.8789 37.095 86.6612 37.2826 87.4435C38.3071 91.7894 39.3749 96.1354 40.4282 100.25C43.6604 112.983 46.6761 123.819 47.311 126.021L47.4265 126.441L52.9529 127.615L40.3994 126.326C40.2118 125.833 40.0242 125.326 39.851 124.877V124.717C36.9652 116.648 34.0793 108.203 31.5686 99.6847C30.2988 95.4256 29.0867 91.1231 27.9468 86.864C27.7448 86.1107 27.5572 85.4153 27.3696 84.6331C26.1287 79.9104 24.9888 75.2168 23.9643 70.61C23.9577 70.5329 23.9577 70.4554 23.9643 70.3782L23.8633 69.9147C15.8117 33.6982 14.3976 2.47954 26.9079 0.625253C40.8467 -1.46082 63.3709 22.8912 69.8353 57.659C70.6433 62.005 71.2782 66.7566 71.942 71.5082C71.942 71.7545 71.942 72.0007 72.043 72.247C72.6202 76.9697 73.0963 81.7647 73.4859 86.4729L73.7024 89.1529C74.0487 93.4989 74.3084 97.8449 74.5248 101.8C75.2463 115.127 75.3329 125.847 75.3473 129.035C75.3473 129.672 75.3473 130.02 75.3473 130.02L65.5498 128.977Z" fill="#51385B"/>
<path d="M129.01 9.65042C122.748 9.65042 117.813 19.0957 117.813 19.0957C117.813 19.0957 127.279 19.0957 130.799 18.8784C130.799 18.8784 143.569 19.4723 149.558 46.9679C155.806 75.2603 143.209 124.631 143.209 124.631L147.22 125.196C147.22 125.196 159.196 98.6561 159.196 60.2811C159.297 31.1341 142.891 9.65042 129.01 9.65042Z" fill="#51385B"/>
<path d="M23.5602 83.6335L24.3105 86.8785L65.4487 90.5001L184.202 84.6186L185.01 80.0698L63.3131 83.0685L23.5602 83.6335Z" fill="url(#paint9_linear_109_2625)"/>
<path d="M189.469 69.118L186.266 81.5041L73.4859 86.4005H72.2161L65.3044 86.7047L61.2065 86.473L36.6766 85.0243L27.2542 84.5028L21.1361 84.1551C19.7137 79.6545 18.9553 74.9691 18.8851 70.248L23.8488 70.4797L33.6031 70.9143L58.4216 72.0008L63.9481 72.2471L71.9852 72.0443L189.469 69.118Z" fill="#51385B"/>
<path d="M185.934 84.1261L182.427 95.4401L74.5246 101.727L67.0357 102.162L63.8324 101.945L40.428 100.308L31.5106 99.6702L26.7922 99.337C24.6082 95.1656 22.7368 90.8367 21.1936 86.386L27.8888 86.8496L37.2824 87.487L61.6824 89.1819L65.3042 89.4282L73.7021 89.066L185.934 84.1261Z" fill="#51385B"/>
<path d="M64.0059 72.392L65.3045 86.7627L185.949 82.7064L189.469 69.118L64.0059 72.392Z" fill="url(#paint10_radial_109_2625)"/>
<path d="M67.0358 102.162L65.2754 89.4427L185.905 84.1261L182.399 95.4401C182.399 95.4401 68.1613 102.234 67.0358 102.162Z" fill="url(#paint11_radial_109_2625)"/>
<path d="M21.1936 86.3861L23.9496 85.2851L24.0795 85.8356L68.3199 87.4436L184.462 83.17L184.534 82.7065L185.934 84.1261L65.3042 89.4427L21.1936 86.3861Z" fill="#DACFE6"/>
<path d="M177.753 125.196L170.321 143L76.7614 149.475L34.9739 143.434L30.3998 124.631L38.9564 122.472L39.7933 124.717L39.851 124.877L47.311 126.079L52.9673 125.196L67.3101 126.905L67.3967 127.687L75.3473 129.006L94.7692 127.557L94.8847 126.34L143.31 124.631L147.321 125.196L163.323 124.095L164.521 121.545L177.753 125.196Z" fill="#51385B"/>
<path d="M177.825 125.196C177.825 125.196 164.362 130.034 135.316 131.121C106.269 132.207 76.8335 131.121 76.8335 131.121C40.4715 126.427 30.4719 124.674 30.4719 124.674L39.0141 122.516L39.9232 124.92L47.1379 126.108H47.5419L52.9673 125.239L67.3101 126.948L67.3967 127.731L75.3473 129.049L94.7692 127.6L94.8847 126.384L143.31 124.674L147.321 125.239L163.323 124.138L164.521 121.588L177.825 125.196Z" fill="#DACFE6"/>
<path d="M76.819 131.077V149.475L170.379 143L177.825 125.196C177.825 125.196 158.129 128.397 130.366 130.295C110.007 131.686 76.819 131.077 76.819 131.077Z" fill="url(#paint12_radial_109_2625)"/>
<path d="M189.469 69.1179L72.043 72.1746L64.0058 72.3919L58.4794 72.1456L33.6609 71.0447L23.9066 70.6101L18.9285 70.3783L23.7479 69.9147L23.8489 70.3783L33.5887 70.6245L41.0776 70.2769L58.1619 70.6245L58.3351 71.4358H71.942L95.5485 70.6825L95.5052 69.9147L151.376 68.1329L159.081 69.1179L183.452 68.1329L183.611 67.423L189.469 69.1179Z" fill="#DACFE6"/>
<path d="M89.8054 131.121C89.8054 131.121 95.404 129.933 114.335 129.063C133.267 128.194 171.779 126.065 171.779 126.065C171.779 126.065 165.199 129.991 138.505 131.584C117.048 132.873 89.8054 131.121 89.8054 131.121Z" fill="#BBABC9"/>
<path style="mix-blend-mode:multiply" opacity="0.5" d="M117.813 19.0957C117.813 19.0957 121.969 10.5487 129.01 9.65048C136.052 8.75231 150.178 19.6752 155.301 36.2913C158.408 46.9335 159.682 58.0306 159.067 69.1035H151.347L141.102 66.8001C140.112 57.517 138.326 48.337 135.763 39.3625C133.341 30.9423 127.977 23.6804 120.656 18.9074L117.813 19.0957Z" fill="url(#paint13_linear_109_2625)"/>
<path d="M103.052 69.6828V63.7144C103.052 63.7144 127.25 61.1213 142.66 64.2214C142.66 64.2214 152.242 67.872 153.05 70.6245C153.858 73.3769 151.607 104.509 150.164 105.841C147.595 108.246 140.063 112.158 140.063 112.158L103.817 113.447L101.97 100.192L107.626 100.003C107.626 100.003 108.521 92.4268 109.17 86.7625V84.9372C109.266 80.4356 108.942 75.9348 108.203 71.4937L103.052 69.6828Z" fill="#51385B"/>
<path opacity="0.7" d="M120.179 73.1018C119.847 76.7379 118.837 102.597 118.837 104.219C118.837 105.842 147.509 107.116 149.601 106.001C151.693 104.885 153.67 73.6812 151.275 71.8994C149.976 70.9433 120.309 71.7111 120.179 73.1018Z" fill="url(#paint14_linear_109_2625)"/>
<g style="mix-blend-mode:soft-light" opacity="0.5">
<path d="M122.878 94.4549C120.569 94.4549 119.775 75.6223 121.796 73.9709C123.816 72.3194 150.856 71.0735 151.231 72.9568C151.607 74.8401 152.79 96.4396 150.207 96.8742C147.624 97.3088 142.386 91.5721 141.881 90.0655C141.376 88.5589 137.552 82.9091 135.604 82.7063C133.656 82.5035 130.078 94.6288 122.878 94.4549Z" fill="#594275"/>
</g>
<g style="mix-blend-mode:screen" opacity="0.31">
<path d="M103.052 63.7144C103.052 63.7144 105.36 65.786 117.726 69.9002C119.472 70.4941 151.837 71.3488 151.924 70.6245C152.097 69.1758 144.406 64.4822 142.66 64.2214C129.534 62.3416 116.221 62.1712 103.052 63.7144Z" fill="#776191"/>
</g>
<path style="mix-blend-mode:multiply" opacity="0.5" d="M114.437 107.971C110.712 109.473 107.129 111.305 103.73 113.447L139.977 112.158C139.977 112.158 147.523 108.362 147.523 107.45C147.523 106.537 119.876 105.827 114.437 107.971Z" fill="url(#paint15_linear_109_2625)"/>
<path d="M128.361 99.2935C130.064 99.8874 136.009 101.64 141.564 99.5253C141.683 99.4824 141.78 99.3953 141.837 99.282C141.893 99.1687 141.904 99.0379 141.867 98.9168L138.13 86.4294C138.067 86.1778 138.065 85.9146 138.126 85.6624C138.186 85.4101 138.306 85.1762 138.476 84.9807C138.924 84.4435 139.236 83.8055 139.385 83.1211C139.535 82.4367 139.517 81.7261 139.334 81.05C139.151 80.3739 138.807 79.7523 138.333 79.2382C137.859 78.7241 137.268 78.3326 136.611 78.0973C135.954 77.8619 135.249 77.7897 134.558 77.8866C133.867 77.9835 133.209 78.2468 132.641 78.6539C132.073 79.0611 131.612 79.6001 131.296 80.225C130.981 80.8499 130.82 81.5421 130.828 82.2428C130.941 83.146 131.295 84.0019 131.853 84.72C132.087 85.074 132.245 85.474 132.314 85.8934C132.384 86.3129 132.364 86.7424 132.257 87.1537L128.058 98.6271C128.03 98.6905 128.017 98.7589 128.017 98.828C128.018 98.8971 128.033 98.9652 128.062 99.0281C128.09 99.0909 128.132 99.147 128.183 99.1928C128.235 99.2385 128.295 99.2728 128.361 99.2935Z" fill="url(#paint16_linear_109_2625)"/>
<path d="M141.564 99.5254C139.148 100.394 136.572 100.72 134.017 100.481C135.458 100.354 136.875 100.033 138.23 99.5254C138.35 99.4796 138.448 99.3897 138.504 99.274C138.561 99.1583 138.571 99.0255 138.533 98.9024L134.796 86.4295C134.733 86.1779 134.732 85.9147 134.792 85.6625C134.852 85.4102 134.973 85.1763 135.142 84.9808C135.562 84.4579 135.854 83.8446 135.998 83.189C136.141 82.5335 136.132 81.8535 135.969 81.2023C135.807 80.5512 135.497 79.9466 135.063 79.4359C134.629 78.9253 134.084 78.5224 133.469 78.259C134.153 77.9758 134.896 77.8663 135.633 77.9403C136.403 78.0281 137.135 78.3216 137.753 78.7902C138.371 79.2589 138.853 79.8855 139.148 80.6047C139.442 81.3238 139.54 82.1093 139.429 82.879C139.318 83.6487 139.004 84.3746 138.519 84.9808C138.349 85.1763 138.229 85.4102 138.169 85.6625C138.108 85.9147 138.11 86.1779 138.173 86.4295L141.91 98.9024C141.945 99.0311 141.929 99.1688 141.864 99.2854C141.799 99.402 141.691 99.4883 141.564 99.5254Z" fill="#51385B"/>
<path d="M145.791 21.0368C146.412 24.7164 148.475 32.0611 150.582 32.4957C151.693 32.713 152.025 32.3074 152.631 31.4817C154.348 29.1493 154.074 23.8907 152.342 22.2247C150.611 20.5588 145.157 17.2413 145.791 21.0368Z" fill="url(#paint17_linear_109_2625)"/>
<path d="M148.533 26.6577C146.513 27.2517 149.24 32.5828 150.842 32.7421C152.443 32.9015 153.583 25.1801 148.533 26.6577Z" fill="#51385B"/>
<path style="mix-blend-mode:multiply" opacity="0.5" d="M147.321 125.196C147.321 125.196 154.536 105.986 155.632 97.0046H151.679C151.679 97.0046 151.116 103.726 150.149 105.841C150.149 105.841 128.505 107.29 120.67 106.421C118.188 106.16 118.852 102.075 119.227 91.9343C119.602 81.7937 118.751 70.3058 117.669 69.9291C116.586 69.5525 102.994 63.7433 102.994 63.7433L95.4041 69.1324V69.9436L101.782 69.7408L103.629 71.5082C104.491 76.1056 104.858 80.7826 104.726 85.4588L100.642 85.6036V86.2845L104.697 87.7332C104.623 91.8692 104.212 95.9923 103.47 100.061L95.736 100.568L95.3608 116.895C95.3608 116.895 113.585 114.939 134.854 114.939C135.677 114.939 135.33 121.313 135.503 124.935L143.209 124.66L147.321 125.196Z" fill="url(#paint18_linear_109_2625)"/>
<path style="mix-blend-mode:multiply" opacity="0.5" d="M76.8189 131.077V149.475L34.9737 143.434L30.3996 124.602L38.9418 122.443L39.7932 124.689C36.9073 116.62 34.0214 108.174 31.5107 99.6557L26.7923 99.3225C24.6083 95.1511 22.7369 90.8221 21.1937 86.3715L23.9497 85.256C23.7477 84.5172 23.9497 85.1401 23.7477 84.4013L21.1937 84.2564C19.7713 79.7559 19.0129 75.0705 18.9427 70.3493L23.7477 69.8857C15.6961 33.6692 14.282 2.45058 26.7923 0.596297C40.8465 -1.4608 63.3708 22.8912 69.8351 57.659C70.6432 62.005 71.2781 66.7566 71.9418 71.5082L64.0057 72.4499L65.3043 86.835L97.9003 85.7341L91.8399 86.7336L65.2754 89.4426L67.007 102.162L74.4958 101.771L75.3183 129.006H65.5207L76.8189 131.077Z" fill="url(#paint19_linear_109_2625)"/>
<path style="mix-blend-mode:multiply" opacity="0.8" d="M40.9044 102.162C46.1423 102.162 49.4466 108.261 49.4466 108.261C49.4466 108.261 57.3972 108.594 65.9394 116.04L63.8327 101.945L47.8305 100.902L40.4282 100.308L31.5109 99.6702L31.9726 101.119L40.9044 102.162Z" fill="url(#paint20_linear_109_2625)"/>
<path style="mix-blend-mode:multiply" opacity="0.8" d="M34.5843 24.9773C29.4619 24.6586 28.0911 37.1026 30.8038 54.2258C30.8038 54.2258 33.1414 49.6191 37.1672 48.1559C41.8788 49.1847 46.247 51.4149 49.8506 54.6314C52.3205 57.0437 54.4954 59.7427 56.3294 62.6715C56.3294 62.6715 51.5244 44.5342 46.5174 35.6105C41.5104 26.6868 36.9219 25.1367 34.5843 24.9773Z" fill="url(#paint21_linear_109_2625)"/>
<path d="M64.0056 72.3775C62.8849 74.7747 62.5126 77.4563 62.9378 80.0699C63.4861 82.069 65.261 86.1398 65.261 86.1398C65.261 86.1398 65.4053 80.3451 65.261 78.4039C65.0032 76.3647 64.5834 74.3495 64.0056 72.3775Z" fill="#51385B"/>
<path d="M65.2757 89.4426C66.402 91.2408 67.1803 93.2362 67.5699 95.3241C67.5906 97.605 67.412 99.8833 67.036 102.133C66.1426 99.7642 65.3862 97.3457 64.7706 94.8895C64.7706 94.0638 65.2757 89.4426 65.2757 89.4426Z" fill="#51385B"/>
<path d="M74.6256 105.074C73.8031 109.507 72.4179 115.692 73.0095 116.866C73.6011 118.039 75.3759 129.006 75.3759 129.006C75.3759 129.006 76.9343 120.314 76.2994 117.04C75.6645 113.766 74.6256 105.074 74.6256 105.074Z" fill="#51385B"/>
<path d="M59.3741 27.7587C56.4016 27.8456 61.9425 49.9957 62.7505 50.6331C63.5586 51.2705 67.0793 52.0817 68.2193 50.9662C69.3592 49.8508 69.8931 40.5359 69.4025 38.8265C67.6421 32.7566 62.5774 27.6718 59.3741 27.7587Z" fill="url(#paint22_linear_109_2625)"/>
<path d="M65.3477 43.8244C62.0866 39.2321 60.4561 38.9569 60.5715 41.4631C60.687 43.9692 62.5195 50.6621 63.2698 50.9228C64.0201 51.1836 66.3721 51.7341 66.9205 50.4158C67.4688 49.0975 66.5742 45.5483 65.3477 43.8244Z" fill="#51385B"/>
<g style="mix-blend-mode:soft-light" opacity="0.5">
<path d="M110.815 87.2407C110.151 88.6893 107.554 107.522 108.318 108.319C109.083 109.115 117.077 104.567 117.611 103.538C118.145 102.51 118.347 91.1521 117.063 88.6024C115.778 86.0528 111.45 85.8065 110.815 87.2407Z" fill="#25425C"/>
</g>
<path opacity="0.3" d="M62.2742 80.7217C63.4862 82.1703 64.6117 86.1252 64.0057 86.1397C63.3997 86.1541 49.5763 85.8065 49.3599 85.2849C49.1434 84.7634 60.9467 79.0557 62.2742 80.7217Z" fill="#51385B"/>
<g style="mix-blend-mode:soft-light" opacity="0.5">
<path d="M74.0196 132.902C66.8049 130.816 34.3244 124.718 33.1412 126.557C31.958 128.397 32.3765 141.044 36.4744 142.666C40.5723 144.289 67.5841 146.549 68.6519 146.36C74.0196 145.39 75.4626 133.323 74.0196 132.902Z" fill="#25425C"/>
</g>
<g style="mix-blend-mode:soft-light" opacity="0.5">
<path d="M23.5602 3.43559C15.422 10.4326 18.0337 34.6977 22.9397 33.5822C24.5125 33.2056 29.4762 24.8903 33.3577 24.2818C37.2392 23.6734 42.0153 24.9772 45.5072 24.9772C48.9991 24.9772 51.7552 20.7761 46.4452 13.1416C41.1351 5.50718 28.8413 -1.09871 23.5602 3.43559Z" fill="#25425C"/>
</g>
<path d="M154.132 85.5313C165.993 88.4286 185.01 84.0826 185.01 84.0826C185.01 84.0826 176.771 84.2709 172.5 84.213C168.229 84.155 154.132 85.5313 154.132 85.5313Z" fill="#BBABC9"/>
<path d="M72.0427 72.1457C79.5171 74.2607 101.883 71.3634 101.883 71.3634C101.883 71.3634 96.3418 70.9578 85.563 71.3634C74.7843 71.769 72.0427 72.1457 72.0427 72.1457Z" fill="#BBABC9"/>
<g style="mix-blend-mode:soft-light" opacity="0.5">
<path d="M137.682 10.7225C140.727 13.1997 149.226 19.1971 150.799 19.7476C163.381 24.0936 183.236 24.0936 181.62 21.0949C180.004 18.0962 177.291 8.94061 171.13 8.28872C164.968 7.63682 135.518 8.96959 137.682 10.7225Z" fill="#594275"/>
</g>
<g style="mix-blend-mode:soft-light" opacity="0.3">
<path d="M154.132 110.014C152.804 111.998 150.365 122.718 151.823 123.052C153.28 123.385 169.383 110.738 169.225 107C169.066 103.263 155.95 107.261 154.132 110.014Z" fill="#D2FFF1"/>
</g>
<g style="mix-blend-mode:soft-light" opacity="0.1">
<path d="M175.487 46.8231C172.601 50.0101 173.553 52.8495 175.487 52.8495C177.42 52.8495 182.586 46.0843 182.269 45.6062C181.951 45.1282 177.651 44.4183 175.487 46.8231Z" fill="#D2FFF1"/>
</g>
<g style="mix-blend-mode:soft-light" opacity="0.5">
<path d="M44.4395 1.94363C39.3892 2.03055 57.6424 21.9062 63.8037 23.6735C69.9651 25.4409 81.9559 26.4405 81.8837 22.051C81.7683 15.6769 77.5549 8.14389 71.6389 6.36204C62.6969 4.19981 53.6043 2.72276 44.4395 1.94363Z" fill="#594275"/>
</g>
<g style="mix-blend-mode:soft-light" opacity="0.1">
<path d="M72.0429 37.1315C70.6 41.7962 73.356 68.1908 75.3617 69.1179C77.3674 70.0451 91.8833 70.0596 91.8833 66.8001C91.8833 63.5406 73.3272 32.9159 72.0429 37.1315Z" fill="#D2FFF1"/>
</g>
<g style="mix-blend-mode:soft-light" opacity="0.1">
<path d="M79.4596 37.1315C79.4596 38.9713 83.9183 50.5896 85.5632 50.5896C87.2082 50.5896 89.6179 37.9283 87.0062 37.1315C84.3945 36.3348 79.4452 35.1034 79.4596 37.1315Z" fill="#D2FFF1"/>
</g>
<path style="mix-blend-mode:multiply" opacity="0.5" d="M94.8845 126.34C105.548 123.124 143.31 124.631 143.31 124.631C135.093 126.244 126.747 127.102 118.376 127.195C102.215 127.557 94.8845 126.34 94.8845 126.34Z" fill="url(#paint23_linear_109_2625)"/>
<g style="mix-blend-mode:soft-light" opacity="0.5">
<path d="M76.819 149.475C85.8085 144.289 126.586 132.453 148.865 132.091C171.144 131.729 170.379 143.029 170.379 143.029L76.819 149.475Z" fill="#594275"/>
</g>
<path d="M56.3294 86.357C56.7046 86.357 64.8716 84.0826 65.3045 84.126C68.8108 84.4447 77.0067 85.8644 78.9258 86.2266C79.099 86.2266 65.8095 86.7626 65.3045 86.7626C62.029 86.7626 56.0264 86.4149 56.3294 86.357Z" fill="#423152"/>
<path d="M189.08 70.697C188.863 70.8419 166.079 70.3783 165.993 69.7989C165.993 69.5961 189.498 68.7414 189.498 69.1904C189.519 69.7243 189.373 70.2513 189.08 70.697Z" fill="#BBABC9"/>
<path d="M65.2756 89.4426C65.9105 90.5001 67.3534 94.0783 67.6132 94.455C68.2913 95.4256 92.1431 88.4141 90.5126 88.3271C88.8821 88.2402 64.7561 88.5445 65.2756 89.4426Z" fill="#BBABC9"/>
<path style="mix-blend-mode:multiply" opacity="0.8" d="M174.246 98.1056C167.661 100.435 160.945 102.37 154.131 103.9C154.131 103.9 151.722 106.001 146.498 110.043C146.359 111.203 146.132 112.35 145.82 113.476C145.82 113.476 105.981 115.258 95.7646 114.925V103.046C95.7646 103.046 86.198 104.147 74.7266 106.03C71.3886 106.721 68.0172 107.238 64.626 107.58L64.1354 105.088L62.6925 101.887L107.424 100.018C105.513 101.665 103.893 103.624 102.633 105.812L103.614 113.418L139.861 112.129C139.861 112.129 148.793 107.783 149.961 105.812C151.13 103.842 151.491 96.9757 151.491 96.9757L174.881 95.8457L174.246 98.1056Z" fill="url(#paint24_linear_109_2625)"/>
<g style="mix-blend-mode:soft-light" opacity="0.5">
<path d="M185.039 53.1826C183.755 50.9227 159.153 60.7157 159.672 62.7003C160.192 64.685 158.561 68.9875 160.351 68.9875C162.14 68.9875 180.739 68.5239 182.312 67.423C183.885 66.322 186.295 55.4715 185.039 53.1826Z" fill="#594275"/>
</g>
<g style="mix-blend-mode:soft-light" opacity="0.3">
<path d="M157.003 70.9288C154.911 72.0732 152.284 82.6484 154.117 82.9092C155.95 83.17 181.114 82.3442 182.658 81.4605C184.202 80.5768 186.323 71.3199 184.592 70.9433C182.86 70.5666 159.672 69.4801 157.003 70.9288Z" fill="#D2FFF1"/>
</g>
<path opacity="0.3" d="M21.1936 72.1457C19.6208 76.0426 19.9094 80.8376 21.1936 80.49C22.4778 80.1423 32.1888 73.1453 29.4328 72.4499C26.6768 71.7545 21.7996 70.5811 21.1936 72.1457Z" fill="#51385B"/>
<g style="mix-blend-mode:soft-light" opacity="0.3">
<path d="M80.2676 133.598C75.0874 136.394 78.0454 145.318 82.9514 144.188C103.73 139.378 87.6554 129.6 80.2676 133.598Z" fill="#D2FFF1"/>
</g>
<path opacity="0.3" d="M35.7241 104.016C35.8396 106.913 39.1295 120.357 40.0529 121.559C40.9764 122.762 44.6126 123.617 44.627 122.704C44.627 120.85 35.6087 101.394 35.7241 104.016Z" fill="#51385B"/>
<path opacity="0.3" d="M58.9556 56.2104C55.9831 59.1077 57.6713 69.1469 60.0378 69.9582C62.4042 70.7694 69.4457 72.6237 69.5756 68.5095C69.7054 64.3953 66.8196 48.489 58.9556 56.2104Z" fill="#51385B"/>
<g style="mix-blend-mode:soft-light" opacity="0.9">
<path d="M183.971 25.919C183.567 24.4703 154.132 27.7588 154.132 27.7588L152.977 30.6561C154.79 34.438 156.188 38.4065 157.147 42.4916C157.147 42.4916 157.58 39.5943 159.24 38.87C160.899 38.1457 182.327 37.1026 184.202 37.1751C186.078 37.2475 185.934 39.9275 185.934 39.9275C185.806 35.1988 185.147 30.4997 183.971 25.919Z" fill="#95A8CF"/>
</g>
<g style="mix-blend-mode:soft-light" opacity="0.9">
<path d="M57.3682 24.2384C61.9423 25.7884 87.2081 28.1353 87.2081 28.1353C87.4823 28.8306 89.1849 33.6112 89.1849 33.6112C89.1849 33.6112 72.7787 31.0036 65.2755 31.3947C65.2755 31.3947 61.697 27.6137 59.345 27.7586L57.3682 24.2384Z" fill="#95A8CF"/>
</g>
<g style="mix-blend-mode:multiply" opacity="0.3">
<path d="M171.461 15.4306C170.812 23.2534 163.496 25.5713 160.264 23.9053C157.378 22.3263 156.599 13.3735 159.846 10.3024C161.664 8.56399 171.461 15.4306 171.461 15.4306Z" fill="#3E2952"/>
</g>
<path d="M159.153 11.3019C158.535 12.9616 158.585 14.798 159.294 16.421C160.002 18.044 161.313 19.3257 162.948 19.9938C164.387 20.677 166.025 20.8034 167.551 20.349C169.077 19.8946 170.382 18.8913 171.216 17.5311C172.009 15.99 172.17 14.1989 171.666 12.5399C171.162 10.8809 170.032 9.48528 168.518 8.6508C167.749 8.13644 166.877 7.79531 165.964 7.65083C165.051 7.50635 164.118 7.56194 163.228 7.81379C162.339 8.06564 161.514 8.5078 160.81 9.10988C160.107 9.71197 159.542 10.4597 159.153 11.3019Z" fill="#3A2542"/>
<path opacity="0.84" d="M171.245 12.8229C171.36 14.2716 161.952 14.2716 162.414 12.0117C163.655 6.0287 170.884 7.94093 171.245 12.8229Z" fill="#B3A8BD"/>
<g style="mix-blend-mode:soft-light" opacity="0.6">
<path d="M171.461 14.996C171.894 17.4153 168.215 20.6893 165.574 19.7476C163.583 19.0378 162.342 15.4017 163.107 14.8222C164.146 14.0544 171.144 13.2287 171.461 14.996Z" fill="#D2FFF1"/>
</g>
<g style="mix-blend-mode:multiply" opacity="0.3">
<path d="M178.431 37.7109C177.781 45.5482 170.466 47.8515 167.234 46.1856C164.348 44.621 163.568 35.6538 166.815 32.5827C168.633 30.8588 178.431 37.7109 178.431 37.7109Z" fill="#3E2952"/>
</g>
<path d="M166.123 33.5677C165.523 35.2163 165.583 37.0341 166.291 38.639C166.998 40.2438 168.299 41.5105 169.917 42.1728C171.355 42.854 172.991 42.9809 174.516 42.5295C176.04 42.0781 177.346 41.0798 178.186 39.7246C178.982 38.1841 179.146 36.3917 178.641 34.7317C178.137 33.0716 177.005 31.676 175.487 30.8443C174.714 30.3296 173.838 29.9902 172.921 29.8494C172.004 29.7087 171.068 29.77 170.177 30.0291C169.286 30.2882 168.462 30.739 167.761 31.3501C167.061 31.9611 166.502 32.7179 166.123 33.5677Z" fill="#3A2542"/>
<path opacity="0.84" d="M178.214 35.1179C178.33 36.5666 168.922 36.5666 169.384 34.3067C170.61 28.3092 177.825 30.2215 178.214 35.1179Z" fill="#B3A8BD"/>
<g style="mix-blend-mode:soft-light" opacity="0.6">
<path d="M178.431 37.2909C178.864 39.6957 175.184 42.9696 172.544 42.0425C170.552 41.3326 169.311 37.6965 170.076 37.117C171.115 36.3348 178.113 35.5235 178.431 37.2909Z" fill="#D2FFF1"/>
</g>
<g style="mix-blend-mode:multiply" opacity="0.3">
<path d="M180.407 59.5568C179.744 67.394 172.428 69.6974 169.196 68.0315C166.31 66.4524 165.545 57.4997 168.777 54.4285C170.61 52.6901 180.407 59.5568 180.407 59.5568Z" fill="#3E2952"/>
</g>
<path d="M168.099 55.4136C167.499 57.0622 167.56 58.88 168.267 60.4849C168.975 62.0897 170.275 63.3565 171.894 64.0187C173.329 64.7022 174.964 64.8304 176.487 64.3787C178.01 63.9269 179.313 62.927 180.148 61.5704C180.942 60.0311 181.105 58.2413 180.604 56.5825C180.103 54.9237 178.976 53.5271 177.464 52.6902C176.691 52.173 175.816 51.8315 174.898 51.6894C173.98 51.5473 173.043 51.608 172.151 51.8674C171.259 52.1267 170.435 52.5785 169.735 53.191C169.035 53.8035 168.477 54.562 168.099 55.4136Z" fill="#3A2542"/>
<path opacity="0.84" d="M180.191 56.9637C180.292 58.4123 170.898 58.4123 171.346 56.1524C172.587 50.155 179.83 52.0672 180.191 56.9637Z" fill="#B3A8BD"/>
<g style="mix-blend-mode:soft-light" opacity="0.6">
<path d="M180.407 59.1078C180.84 61.527 177.161 64.801 174.506 63.8594C172.515 63.164 171.274 59.5134 172.038 58.9484C173.077 58.1806 180.075 57.3694 180.407 59.1078Z" fill="#D2FFF1"/>
</g>
<g style="mix-blend-mode:multiply" opacity="0.3">
<path d="M164.333 137.625C163.67 145.462 155.604 144.419 152.371 142.695C149.485 141.116 149.485 135.568 152.703 132.555C154.536 130.773 164.333 137.625 164.333 137.625Z" fill="#3E2952"/>
</g>
<path d="M152.025 133.482C151.421 135.13 151.48 136.95 152.188 138.555C152.896 140.161 154.199 141.428 155.82 142.087C157.255 142.77 158.89 142.899 160.413 142.447C161.936 141.995 163.239 140.995 164.074 139.639C164.867 138.099 165.031 136.31 164.53 134.651C164.028 132.992 162.902 131.595 161.39 130.758C160.616 130.246 159.74 129.909 158.824 129.769C157.907 129.63 156.972 129.692 156.081 129.951C155.191 130.21 154.367 130.66 153.667 131.269C152.967 131.879 152.406 132.634 152.025 133.482Z" fill="#3A2542"/>
<path opacity="0.84" d="M164.117 135.032C164.218 136.481 154.824 136.481 155.272 134.221C156.513 128.223 163.756 130.092 164.117 135.032Z" fill="#B3A8BD"/>
<g style="mix-blend-mode:soft-light" opacity="0.6">
<path d="M164.333 137.205C164.766 139.61 161.087 142.898 158.432 141.957C156.44 141.247 155.199 137.611 155.964 137.031C157.003 136.249 164.001 135.438 164.333 137.205Z" fill="#D2FFF1"/>
</g>
<g style="mix-blend-mode:multiply" opacity="0.3">
<path d="M134.638 139.161C133.974 146.983 126.11 146.404 122.878 144.695C119.992 143.13 119.775 137.104 123.008 134.032C124.84 132.294 134.638 139.161 134.638 139.161Z" fill="#3E2952"/>
</g>
<path d="M122.329 135.017C121.729 136.666 121.79 138.484 122.497 140.089C123.205 141.694 124.505 142.96 126.124 143.623C127.559 144.306 129.194 144.434 130.717 143.983C132.24 143.531 133.543 142.531 134.378 141.174C135.172 139.635 135.335 137.845 134.834 136.186C134.333 134.528 133.206 133.131 131.694 132.294C130.921 131.777 130.046 131.435 129.128 131.293C128.211 131.151 127.273 131.212 126.381 131.471C125.489 131.731 124.665 132.182 123.965 132.795C123.265 133.407 122.707 134.166 122.329 135.017Z" fill="#3A2542"/>
<path opacity="0.84" d="M134.421 136.568C134.522 138.016 125.128 137.944 125.576 135.756C126.817 129.759 134.06 131.671 134.421 136.568Z" fill="#B3A8BD"/>
<g style="mix-blend-mode:soft-light" opacity="0.6">
<path d="M134.637 138.784C135.07 141.203 131.391 144.477 128.736 143.536C126.745 142.826 125.504 139.19 126.268 138.625C127.322 137.784 134.306 136.973 134.637 138.784Z" fill="#D2FFF1"/>
</g>
<g style="mix-blend-mode:multiply" opacity="0.3">
<path d="M103.889 140.957C103.239 148.794 95.9813 149.012 92.7491 147.288C89.8632 145.709 89.0407 138.914 92.2729 135.829C94.1343 134.105 103.889 140.957 103.889 140.957Z" fill="#3E2952"/>
</g>
<path d="M91.5946 136.814C90.991 138.462 91.0494 140.282 91.7576 141.887C92.4658 143.493 93.7682 144.76 95.3895 145.419C96.8236 146.106 98.4601 146.236 99.9839 145.784C101.508 145.332 102.811 144.33 103.643 142.971C104.436 141.43 104.597 139.638 104.093 137.979C103.589 136.32 102.459 134.925 100.945 134.09C100.172 133.578 99.2977 133.241 98.3823 133.102C97.4669 132.962 96.5322 133.024 95.643 133.283C94.7538 133.542 93.9312 133.992 93.2322 134.602C92.5332 135.211 91.9745 135.966 91.5946 136.814Z" fill="#3A2542"/>
<path opacity="0.84" d="M103.686 138.364C103.787 139.813 94.3939 139.813 94.8412 137.553C96.0821 131.541 103.326 133.482 103.686 138.364Z" fill="#B3A8BD"/>
<g style="mix-blend-mode:soft-light" opacity="0.6">
<path d="M103.888 140.537C104.336 142.942 100.656 146.23 98.0012 145.288C96.01 144.579 94.7691 140.942 95.5338 140.363C96.5727 139.581 103.571 138.784 103.888 140.537Z" fill="#D2FFF1"/>
</g>
<g style="mix-blend-mode:multiply" opacity="0.3">
<path d="M88.3626 63.1494C87.6988 70.9867 80.7583 72.1166 77.5261 70.3927C74.6402 68.8282 73.5003 61.1068 76.7469 58.0357C78.5795 56.2973 88.3626 63.1494 88.3626 63.1494Z" fill="#3E2952"/>
</g>
<path d="M76.0686 59.0064C75.465 60.6547 75.5234 62.4741 76.2316 64.0799C76.9398 65.6857 78.2422 66.9521 79.8635 67.6114C81.2982 68.295 82.9336 68.4232 84.4565 67.9714C85.9795 67.5197 87.2829 66.5198 88.1171 65.1632C88.922 63.6305 89.0963 61.8421 88.6026 60.1818C88.1089 58.5216 86.9866 57.1218 85.4766 56.2829C84.702 55.7604 83.823 55.4144 82.9011 55.2694C81.9792 55.1243 81.0369 55.1836 80.1403 55.4432C79.2437 55.7028 78.4146 56.1562 77.7112 56.7718C77.0078 57.3874 76.4471 58.1501 76.0686 59.0064Z" fill="#3A2542"/>
<path opacity="0.84" d="M88.1604 60.5563C88.2614 62.005 78.8679 62.005 79.3296 59.7451C80.5561 53.7476 87.7996 55.6598 88.1604 60.5563Z" fill="#B3A8BD"/>
<g style="mix-blend-mode:soft-light" opacity="0.6">
<path d="M88.3623 62.7293C88.7952 65.134 85.1157 68.408 82.4607 67.4809C80.4695 66.771 79.2285 63.1349 79.9933 62.5554C81.0611 61.7731 88.0593 60.9619 88.3623 62.7293Z" fill="#D2FFF1"/>
</g>
<g style="mix-blend-mode:multiply" opacity="0.3">
<path d="M37.7586 135.191C36.6187 142.971 43.8478 144.738 47.3975 143.796C50.6152 142.942 52.693 136.553 50.2833 132.859C48.8548 130.758 37.7586 135.191 37.7586 135.191Z" fill="#3E2952"/>
</g>
<path d="M50.6874 133.974C50.8967 135.712 50.4298 137.464 49.3841 138.865C48.3384 140.266 46.7945 141.207 45.0744 141.493C43.5119 141.825 41.8821 141.565 40.4993 140.763C39.1164 139.96 38.0785 138.672 37.5855 137.147C37.1761 135.479 37.427 133.717 38.2855 132.231C39.144 130.745 40.5431 129.651 42.1885 129.179C43.0583 128.858 43.9872 128.73 44.9111 128.804C45.835 128.878 46.7319 129.153 47.5399 129.608C48.3478 130.064 49.0477 130.691 49.5911 131.445C50.1345 132.198 50.5086 133.061 50.6874 133.974Z" fill="#3A2542"/>
<path opacity="0.48" d="M38.5524 132.714C38.1339 134.09 47.2822 136.205 47.3399 133.96C47.4986 127.832 40.0242 128.035 38.5524 132.714Z" fill="#B3A8BD"/>
<g style="mix-blend-mode:soft-light" opacity="0.41">
<path d="M37.8595 134.786C36.8783 137.031 39.7209 141.058 42.5202 140.754C44.6125 140.522 46.647 137.263 46.041 136.524C45.2041 135.525 38.5666 133.134 37.8595 134.786Z" fill="#D2FFF1"/>
</g>
<g style="mix-blend-mode:multiply" opacity="0.3">
<path d="M57.5557 138.19C56.4158 145.969 64.2365 147.085 67.7717 146.143C70.9894 145.289 72.4901 139.595 70.0371 135.858C68.6519 133.757 57.5557 138.19 57.5557 138.19Z" fill="#3E2952"/>
</g>
<path d="M70.4701 136.973C70.6824 138.716 70.213 140.473 69.1607 141.876C68.1084 143.278 66.5553 144.216 64.8282 144.492C63.2657 144.824 61.6359 144.564 60.2531 143.762C58.8702 142.959 57.8323 141.671 57.3393 140.146C56.9147 138.464 57.1632 136.682 58.0317 135.181C58.9003 133.681 60.3196 132.582 61.9856 132.12C62.8585 131.799 63.7906 131.673 64.7171 131.75C65.6436 131.828 66.542 132.108 67.3498 132.57C68.1575 133.032 68.8552 133.665 69.3941 134.426C69.933 135.186 70.3002 136.056 70.4701 136.973Z" fill="#3A2542"/>
<path opacity="0.48" d="M58.3495 135.713C57.9166 137.075 67.0071 139.19 67.1369 136.944C67.2957 130.831 59.8213 131.034 58.3495 135.713Z" fill="#B3A8BD"/>
<g style="mix-blend-mode:soft-light" opacity="0.41">
<path d="M57.6567 137.77C56.6755 140.015 59.5181 144.057 62.303 143.753C64.4096 143.521 66.4442 140.262 65.8237 139.523C64.9868 138.523 58.3637 136.133 57.6567 137.77Z" fill="#D2FFF1"/>
</g>
<g style="mix-blend-mode:multiply" opacity="0.3">
<path d="M84.5676 38.6526C83.9183 46.4898 76.6026 48.8657 73.3704 47.1273C70.4846 45.5627 69.7198 36.61 72.952 33.5243C74.7701 31.8004 84.5676 38.6526 84.5676 38.6526Z" fill="#3E2952"/>
</g>
<path d="M72.2738 34.4804C71.6468 36.1378 71.6915 37.9758 72.3982 39.6006C73.1048 41.2253 74.4173 42.5075 76.0543 43.1724C77.4905 43.8601 79.1293 43.9905 80.6555 43.5386C82.1817 43.0867 83.4877 42.0843 84.3223 40.7241C85.1151 39.183 85.2766 37.3919 84.7725 35.7329C84.2684 34.0739 83.1386 32.6783 81.624 31.8439C80.8567 31.3292 79.9875 30.9874 79.0762 30.842C78.1648 30.6966 77.2329 30.751 76.3445 31.0015C75.4561 31.252 74.6322 31.6927 73.9295 32.2932C73.2268 32.8938 72.662 33.6399 72.2738 34.4804Z" fill="#3A2542"/>
<path opacity="0.84" d="M84.3656 36.0595C84.4666 37.5081 75.0731 37.5081 75.5204 35.2482C76.819 29.2508 84.0337 31.1775 84.3656 36.0595Z" fill="#B3A8BD"/>
<g style="mix-blend-mode:soft-light" opacity="0.6">
<path d="M84.5676 38.2325C85.0149 40.6373 81.321 43.9258 78.6804 42.9842C76.6892 42.2743 75.4483 38.6382 76.213 38.0587C77.2519 37.2764 84.2502 36.4652 84.5676 38.2325Z" fill="#D2FFF1"/>
</g>
<g style="mix-blend-mode:multiply" opacity="0.3">
<path d="M71.9563 15.1408C71.2926 22.9636 63.9769 25.2814 60.7447 23.601C57.8588 22.0364 57.0941 13.0837 60.3263 10.0125C62.1588 8.27415 71.9563 15.1408 71.9563 15.1408Z" fill="#3E2952"/>
</g>
<path d="M59.6481 10.9832C59.0258 12.6427 59.0744 14.4807 59.7834 16.1047C60.4925 17.7287 61.8058 19.0101 63.443 19.6752C64.8921 20.3506 66.5397 20.4608 68.0652 19.9842C69.5907 19.5076 70.8851 18.4783 71.6966 17.0966C72.4905 15.5572 72.6542 13.7674 72.1529 12.1087C71.6515 10.4499 70.5248 9.05321 69.0127 8.21629C68.2361 7.70548 67.3581 7.37026 66.4396 7.23385C65.5211 7.09744 64.584 7.16309 63.6933 7.42627C62.8026 7.68945 61.9795 8.14386 61.281 8.75803C60.5825 9.37221 60.0253 10.1315 59.6481 10.9832Z" fill="#3A2542"/>
<path opacity="0.84" d="M71.74 12.5333C71.841 13.9819 62.4474 13.9819 62.8948 11.722C64.1357 5.73905 71.3792 7.65127 71.74 12.5333Z" fill="#B3A8BD"/>
<g style="mix-blend-mode:soft-light" opacity="0.6">
<path d="M71.9563 14.7063C72.3892 17.1256 68.7097 20.3995 66.0547 19.4579C64.0635 18.7481 62.8225 15.1119 63.5873 14.5325C64.6262 13.7502 71.6244 12.9389 71.9563 14.7063Z" fill="#D2FFF1"/>
</g>
<path style="mix-blend-mode:color-dodge" opacity="0.8" d="M60.1555 42.7703C62.6287 27.4731 52.2819 13.0594 37.0451 10.5763C21.8084 8.09319 7.45154 18.4811 4.97826 33.7783C2.50499 49.0755 12.8518 63.4892 28.0886 65.9723C43.3254 68.4554 57.6822 58.0675 60.1555 42.7703Z" fill="url(#paint25_radial_109_2625)"/>
<defs>
<linearGradient id="paint0_linear_109_2625" x1="103.051" y1="14.9959" x2="103.051" y2="140.667" gradientUnits="userSpaceOnUse">
<stop offset="0.02" stop-color="#CD6D22"/>
<stop offset="0.95" stop-color="#C74D3E"/>
</linearGradient>
<radialGradient id="paint1_radial_109_2625" cx="0" cy="0" r="1" gradientUnits="userSpaceOnUse" gradientTransform="translate(123.758 37.5661) scale(16.1176 16.1816)">
<stop offset="0.02" stop-color="#FFA41A"/>
<stop offset="1" stop-color="#FF8836"/>
</radialGradient>
<radialGradient id="paint2_radial_109_2625" cx="0" cy="0" r="1" gradientUnits="userSpaceOnUse" gradientTransform="translate(119.285 60.1072) scale(15.0354 15.0951)">
<stop offset="0.02" stop-color="#FFA41A"/>
<stop offset="1" stop-color="#FF8836"/>
</radialGradient>
<radialGradient id="paint3_radial_109_2625" cx="0" cy="0" r="1" gradientUnits="userSpaceOnUse" gradientTransform="translate(115.576 119.691) scale(12.9287 12.98)">
<stop offset="0.02" stop-color="#FFA41A"/>
<stop offset="1" stop-color="#FF8836"/>
</radialGradient>
<radialGradient id="paint4_radial_109_2625" cx="0" cy="0" r="1" gradientUnits="userSpaceOnUse" gradientTransform="translate(110.67 26.6577) scale(18.4119 18.4849)">
<stop offset="0.02" stop-color="#FFA41A"/>
<stop offset="1" stop-color="#FF8836"/>
</radialGradient>
<radialGradient id="paint5_radial_109_2625" cx="0" cy="0" r="1" gradientUnits="userSpaceOnUse" gradientTransform="translate(106.731 46.8231) scale(10.8653 10.9084)">
<stop offset="0.02" stop-color="#FFA41A"/>
<stop offset="1" stop-color="#FF8836"/>
</radialGradient>
<linearGradient id="paint6_linear_109_2625" x1="112.748" y1="123.515" x2="131.749" y2="109.115" gradientUnits="userSpaceOnUse">
<stop stop-color="#36193B"/>
<stop offset="1" stop-color="#8E37E2"/>
</linearGradient>
<radialGradient id="paint7_radial_109_2625" cx="0" cy="0" r="1" gradientUnits="userSpaceOnUse" gradientTransform="translate(61.495 65.2935) scale(51.7437 51.949)">
<stop stop-color="#6C6178"/>
<stop offset="1" stop-color="#9E84B5"/>
</radialGradient>
<radialGradient id="paint8_radial_109_2625" cx="0" cy="0" r="1" gradientUnits="userSpaceOnUse" gradientTransform="translate(157.638 65.786) scale(46.477 46.6614)">
<stop stop-color="#6C6178"/>
<stop offset="1" stop-color="#9E84B5"/>
</radialGradient>
<linearGradient id="paint9_linear_109_2625" x1="23.5602" y1="85.285" x2="185.01" y2="85.285" gradientUnits="userSpaceOnUse">
<stop stop-color="#1F111F"/>
<stop offset="0.62" stop-color="#2D1C2F"/>
<stop offset="1" stop-color="#38253B"/>
</linearGradient>
<radialGradient id="paint10_radial_109_2625" cx="0" cy="0" r="1" gradientUnits="userSpaceOnUse" gradientTransform="translate(126.745 77.9403) scale(44.7888 44.9664)">
<stop stop-color="#6C6178"/>
<stop offset="1" stop-color="#9E84B5"/>
</radialGradient>
<radialGradient id="paint11_radial_109_2625" cx="0" cy="0" r="1" gradientUnits="userSpaceOnUse" gradientTransform="translate(125.619 93.1368) scale(43.115 43.286)">
<stop stop-color="#6C6178"/>
<stop offset="1" stop-color="#9E84B5"/>
</radialGradient>
<radialGradient id="paint12_radial_109_2625" cx="0" cy="0" r="1" gradientUnits="userSpaceOnUse" gradientTransform="translate(127.25 137.335) scale(36.7083 36.8539)">
<stop stop-color="#6C6178"/>
<stop offset="1" stop-color="#9E84B5"/>
</radialGradient>
<linearGradient id="paint13_linear_109_2625" x1="138.534" y1="11.6641" x2="138.534" y2="95.9762" gradientUnits="userSpaceOnUse">
<stop stop-color="#662D87"/>
<stop offset="1" stop-color="#D01C5C"/>
</linearGradient>
<linearGradient id="paint14_linear_109_2625" x1="118.837" y1="88.9501" x2="152.371" y2="88.9501" gradientUnits="userSpaceOnUse">
<stop stop-color="#A3849F"/>
<stop offset="1" stop-color="#9A95A5"/>
</linearGradient>
<linearGradient id="paint15_linear_109_2625" x1="125.59" y1="106.812" x2="125.59" y2="116.562" gradientUnits="userSpaceOnUse">
<stop stop-color="#705AB6"/>
<stop offset="1" stop-color="white"/>
</linearGradient>
<linearGradient id="paint16_linear_109_2625" x1="134.955" y1="78.7225" x2="134.955" y2="110.752" gradientUnits="userSpaceOnUse">
<stop stop-color="#1F111F"/>
<stop offset="0.62" stop-color="#2D1C2F"/>
<stop offset="1" stop-color="#38253B"/>
</linearGradient>
<linearGradient id="paint17_linear_109_2625" x1="145.734" y1="25.9188" x2="153.8" y2="25.9188" gradientUnits="userSpaceOnUse">
<stop stop-color="#1F111F"/>
<stop offset="0.62" stop-color="#2D1C2F"/>
<stop offset="1" stop-color="#38253B"/>
</linearGradient>
<linearGradient id="paint18_linear_109_2625" x1="125.547" y1="65.8294" x2="125.547" y2="152.952" gradientUnits="userSpaceOnUse">
<stop stop-color="#662D87"/>
<stop offset="1" stop-color="#D01C5C"/>
</linearGradient>
<linearGradient id="paint19_linear_109_2625" x1="17.5431" y1="74.985" x2="97.9003" y2="74.985" gradientUnits="userSpaceOnUse">
<stop stop-color="#662D87"/>
<stop offset="1" stop-color="#D01C5C"/>
</linearGradient>
<linearGradient id="paint20_linear_109_2625" x1="31.5109" y1="107.87" x2="65.9394" y2="107.87" gradientUnits="userSpaceOnUse">
<stop stop-color="#662D87"/>
<stop offset="1" stop-color="#D01C5C"/>
</linearGradient>
<linearGradient id="paint21_linear_109_2625" x1="29.433" y1="43.8244" x2="56.3294" y2="43.8244" gradientUnits="userSpaceOnUse">
<stop stop-color="#662D87"/>
<stop offset="1" stop-color="#D01C5C"/>
</linearGradient>
<linearGradient id="paint22_linear_109_2625" x1="58.5083" y1="39.6377" x2="69.5756" y2="39.6377" gradientUnits="userSpaceOnUse">
<stop stop-color="#1F111F"/>
<stop offset="0.62" stop-color="#2D1C2F"/>
<stop offset="1" stop-color="#38253B"/>
</linearGradient>
<linearGradient id="paint23_linear_109_2625" x1="94.8845" y1="125.746" x2="143.31" y2="125.746" gradientUnits="userSpaceOnUse">
<stop stop-color="#662D87"/>
<stop offset="1" stop-color="#D01C5C"/>
</linearGradient>
<linearGradient id="paint24_linear_109_2625" x1="118.909" y1="101.626" x2="118.909" y2="117.257" gradientUnits="userSpaceOnUse">
<stop stop-color="#662D87"/>
<stop offset="1" stop-color="#D01C5C"/>
</linearGradient>
<radialGradient id="paint25_radial_109_2625" cx="0" cy="0" r="1" gradientUnits="userSpaceOnUse" gradientTransform="translate(32.5599 38.2804) scale(27.9497 28.0606)">
<stop stop-color="#705AB5"/>
<stop offset="0.14" stop-color="#5C4A95"/>
<stop offset="0.44" stop-color="#352A55"/>
<stop offset="0.69" stop-color="#181327"/>
<stop offset="0.89" stop-color="#07050B"/>
<stop offset="1"/>
</radialGradient>
</defs>
</svg>
