<svg width="182" height="182" viewBox="0 0 182 182" fill="none" xmlns="http://www.w3.org/2000/svg">
<g clipPath="url(#clip0_109_1944)">
<g style="mix-blend-mode:multiply" opacity="0.66">
<path d="M110.479 168.599L95.9051 173.66L24.3558 160.11L56.2553 148.707L110.479 168.599Z" fill="#E8DEDC"/>
</g>
<path d="M42.5608 133.134L80.7337 117.524L145.781 129.8L110.023 146.072L42.5608 133.134Z" fill="#827CBB"/>
<path d="M57.5657 131.856L81.1319 121.647L131.113 131.056L108.684 141.583L57.5657 131.856Z" fill="#5C53A2"/>
<path d="M145.782 129.8L145.713 131.219L144.529 131.859L144.985 150.821L145.597 150.542L145.561 151.885L110.479 168.599C110.479 168.599 106.559 167.531 106.327 164.429C106.001 160.038 110.023 146.072 110.023 146.072L145.782 129.8Z" fill="#6F67BB"/>
<g style="mix-blend-mode:multiply" opacity="0.5">
<path d="M42.5608 133.134L80.7337 117.524L137.039 132.612L96.2056 143.422L42.5608 133.134Z" fill="#B89692"/>
</g>
<path d="M110.479 168.599L101.201 166.883L99.0799 166.496L51.0497 157.623L48.9392 157.221L42.6441 156.059C42.6441 156.059 40.7255 153.608 40.7255 144.913C40.7255 135.259 42.5608 133.123 42.5608 133.123L49.4967 134.455L51.5167 134.842L99.3007 144.008L101.324 144.392L110.012 146.061C108.99 149.781 108.48 153.624 108.495 157.482C108.54 161.271 109.21 165.028 110.479 168.599Z" fill="#5C53A2"/>
<path d="M144.985 150.821L111.703 166.709C111.703 166.709 110.309 163.259 110.255 156.595C110.215 149.619 111.435 147.085 111.435 147.085L144.529 131.859L144.985 150.821Z" fill="#FAEBD9"/>
<g style="mix-blend-mode:multiply" opacity="0.5">
<path d="M110.689 150.025C110.859 149.199 111.435 147.085 111.435 147.085L144.529 131.859L144.605 134.451C144.605 134.451 119.67 146.524 110.689 150.025Z" fill="#B89692"/>
</g>
<path d="M101.201 166.883L99.0799 166.496C97.7043 156.092 98.5514 148.24 99.308 144.019L101.332 144.403C100.604 148.569 99.7568 156.497 101.201 166.883Z" fill="#827CBB"/>
<path d="M51.0497 157.623C49.2578 146.658 50.4415 138.567 51.5167 134.853L49.4967 134.466C48.1718 138.223 47.274 146.072 48.9392 157.232L51.0497 157.623Z" fill="#827CBB"/>
<g style="mix-blend-mode:multiply" opacity="0.5">
<g style="mix-blend-mode:multiply" opacity="0.28">
<path d="M42.1771 155.183C42.2974 155.496 42.4541 155.794 42.6441 156.07L48.9393 157.221L51.0497 157.612L99.0799 166.485L101.201 166.872L110.479 168.588C110.479 168.588 110.374 168.313 110.211 167.813C110.211 167.824 42.9156 155.259 42.1771 155.183Z" fill="#88ADC7"/>
</g>
</g>
<path d="M140.25 118.965L110.088 107.044L46.5283 119.037L74.3335 131.61L140.25 118.965Z" fill="#ED604E"/>
<g style="mix-blend-mode:multiply">
<path d="M129.698 114.795L110.088 107.044L46.5283 119.037L63.2491 126.596L101.918 127.696L129.698 114.795Z" fill="#B89692"/>
</g>
<path d="M46.5283 119.041L46.5971 120.427L47.7519 121.054L47.3066 130.238L46.7093 129.963L46.7455 131.277L73.8955 144.276C73.8955 144.276 75.0322 143.726 75.2566 140.692C75.5716 136.403 74.3408 131.61 74.3408 131.61L46.5283 119.041Z" fill="#B04434"/>
<path d="M74.3336 131.61L73.8883 144.276L140.171 132.037L140.25 118.965L74.3336 131.61Z" fill="#D84C3A"/>
<path d="M87.8723 128.985L84.8315 129.568V142.213L87.8723 141.652V128.985Z" fill="#ED7566"/>
<path d="M93.3893 127.928L89.6426 128.645V141.322L93.3893 140.631V127.928Z" fill="#ED7566"/>
<path d="M59.6762 116.518L56.6354 117.101L84.8316 129.506L87.8724 128.945L59.6762 116.518Z" fill="#FFA498"/>
<path d="M65.193 115.461L61.4463 116.178L89.6425 128.62L93.3892 127.928L65.193 115.461Z" fill="#FFA498"/>
<path d="M95.9848 109.582L92.944 110.165L121.14 122.571L124.181 122.009L95.9848 109.582Z" fill="#FFA498"/>
<path d="M101.502 108.525L97.755 109.242L125.951 121.684L129.698 120.992L101.502 108.525Z" fill="#FFA498"/>
<path d="M129.698 120.992L126.657 121.575V134.495L129.698 133.934V120.992Z" fill="#ED7566"/>
<path d="M125.032 121.875L121.285 122.596V135.552L125.032 134.86V121.875Z" fill="#ED7566"/>
<path d="M47.3103 130.238L72.6937 142.43L72.9508 132.602L47.7519 121.054L47.3103 130.238Z" fill="#F1E0CC"/>
<g style="mix-blend-mode:multiply" opacity="0.5">
<path d="M47.5853 124.493L72.8565 136.164L72.9507 132.602L47.7518 121.054L47.5853 124.493Z" fill="#B89692"/>
</g>
<path d="M39.5887 108.601L67.9152 95.4422L127.613 103.33L101.498 116.612L39.5887 108.601Z" fill="#5F9CA4"/>
<g style="mix-blend-mode:multiply" opacity="0.5">
<path d="M43.5454 106.816L67.9152 95.4422L127.613 103.33L103.768 115.461L43.5454 106.816Z" fill="#93BBD7"/>
</g>
<path d="M127.613 103.33L127.548 104.641L126.462 105.289L126.881 113.101L127.443 112.811L127.406 114.049L101.918 127.696C101.918 127.696 98.298 126.925 98.1061 124.076C97.8093 120.065 101.498 116.601 101.498 116.601L127.613 103.33Z" fill="#BFD8DC"/>
<path d="M101.498 116.612C101.498 116.612 99.8509 117.524 99.8943 122.636C99.9014 124.521 100.625 126.332 101.918 127.704L39.6539 119.74C39.6539 119.74 37.7172 117.836 37.6846 114.263C37.652 110.574 39.5779 108.623 39.5779 108.623L101.498 116.612Z" fill="#49848C"/>
<path d="M53.743 114.552L51.9258 116.167L53.743 118.234L55.5566 116.619L53.743 114.552Z" fill="#5F9CA4"/>
<path d="M59.3033 115.247L57.4861 116.862L59.3033 118.925L61.1206 117.314L59.3033 115.247Z" fill="#5F9CA4"/>
<path d="M64.8637 115.939L63.05 117.553L64.8637 119.62L66.6809 118.006L64.8637 115.939Z" fill="#5F9CA4"/>
<path d="M70.4276 116.63L68.6104 118.245L70.4276 120.312L72.2412 118.697L70.4276 116.63Z" fill="#5F9CA4"/>
<path d="M75.9879 117.325L74.1707 118.94L75.9879 121.003L77.8051 119.392L75.9879 117.325Z" fill="#5F9CA4"/>
<path d="M81.5482 118.017L79.7346 119.631L81.5482 121.698L83.3655 120.084L81.5482 118.017Z" fill="#5F9CA4"/>
<path d="M126.881 113.101L103.04 125.901L102.794 117.474L126.462 105.289L126.881 113.101Z" fill="#F1E0CC"/>
<g style="mix-blend-mode:multiply">
<path d="M126.881 107.294L102.935 122.266L102.794 117.474L126.462 105.289L126.881 107.294Z" fill="#D8E2EC"/>
</g>
<path d="M54.0652 91.71L83.2894 80.4229L142.285 91.424L115.236 103.312L54.0652 91.71Z" fill="#436A90"/>
<g style="mix-blend-mode:multiply" opacity="0.5">
<path d="M54.0652 91.71L83.2894 80.4229L137.039 90.4539L133.387 95.3372L108.257 101.933L54.0652 91.71Z" fill="#88ADC7"/>
</g>
<path d="M142.285 91.424L142.125 92.7236L140.989 93.3173L141.05 103.026L141.633 102.769L141.506 104L115.051 116.286C115.051 116.286 111.518 113.155 111.518 110.313C111.518 106.291 115.236 103.312 115.236 103.312L142.285 91.424Z" fill="#A5BDD1"/>
<path d="M115.254 103.312C115.254 103.312 113.766 104.941 113.766 108.829C113.787 111.37 114.227 113.889 115.069 116.286L53.5294 105.064C53.5294 105.064 51.3393 99.4206 51.571 95.8549C51.7918 92.1734 54.076 91.6992 54.076 91.6992L115.254 103.312Z" fill="#2B4C6B"/>
<g style="mix-blend-mode:multiply" opacity="0.5">
<path d="M115.254 103.312L54.0761 91.6992C54.0761 91.6992 51.8027 92.1625 51.5638 95.8477C51.5139 97.2277 51.6938 98.6064 52.0959 99.9274C63.2129 100.094 115.254 103.312 115.254 103.312Z" fill="#88ADC7"/>
</g>
<path d="M141.05 103.026L116.304 114.552C116.304 114.552 115.504 111.186 115.504 108.547C115.504 105.289 116.467 104.235 116.467 104.235L140.989 93.3173L141.05 103.026Z" fill="white"/>
<g style="mix-blend-mode:multiply" opacity="0.5">
<path d="M140.996 94.0015V93.3173L116.474 104.235C116.474 104.235 115.511 105.292 115.511 108.547C115.511 108.847 115.511 109.122 115.54 109.386C118.385 107.562 135.327 97.2631 140.996 94.0015Z" fill="#B89692"/>
</g>
<path d="M135.83 86.4465L107.504 75.2499L47.8062 86.5153L73.9208 98.3201L135.83 86.4465Z" fill="#EDB446"/>
<g style="mix-blend-mode:multiply" opacity="0.5">
<path d="M130.726 86.023L107.504 75.2499L52.8995 85.556L78.2214 95.7174L130.726 86.023Z" fill="#B89692"/>
</g>
<path d="M124.351 86.0194L105.842 78.2834L83.2931 82.5912L100.51 90.6928L124.351 86.0194Z" fill="white"/>
<path d="M47.8062 86.5153L47.8677 87.8185L48.9537 88.4086L48.5338 93.2702L47.9691 93.0132L48.0053 94.2476L73.4973 106.454C73.4973 106.454 77.0956 105.477 77.3055 102.632C77.606 98.5989 73.9172 98.3201 73.9172 98.3201L47.8062 86.5153Z" fill="#F0D29B"/>
<path d="M73.9209 98.3201C73.9209 98.3201 75.3689 99.7392 75.1227 102.961C75.02 104.283 74.4442 105.523 73.501 106.454L135.765 94.9608C135.765 94.9608 137.995 94.4214 138.027 90.8448C138.06 87.1561 135.855 86.4465 135.855 86.4465L73.9209 98.3201Z" fill="#D08819"/>
<path d="M48.5375 93.2702L72.3788 104.731C72.3788 104.731 73.501 104.731 73.501 102.219C73.4823 101.17 73.1782 100.146 72.6213 99.2577L48.9574 88.3977L48.5375 93.2702Z" fill="#FAEBD9"/>
<g style="mix-blend-mode:multiply" opacity="0.5">
<path d="M73.1498 100.326C73.0146 99.9451 72.8373 99.5808 72.6213 99.2396L48.9574 88.3796L48.8488 89.6358C48.8488 89.6358 64.9071 97.1292 73.1498 100.326Z" fill="#B89692"/>
</g>
<path d="M144.587 70.4099L114.425 58.4857L50.8651 70.4823L78.6703 83.051L144.587 70.4099Z" fill="#5C9DBF"/>
<g style="mix-blend-mode:multiply" opacity="0.5">
<path d="M128.145 73.7186L97.983 61.798L50.8651 70.4823L84.5166 81.9288L128.145 73.7186Z" fill="#88ADC7"/>
</g>
<path d="M50.8651 70.4823L50.9303 71.8688L52.0887 72.4951L51.6434 81.679L51.0425 81.4039L51.0823 82.7179L78.2323 95.7174C78.2323 95.7174 79.369 95.1671 79.5934 92.1336C79.912 87.8439 78.6776 83.051 78.6776 83.051L50.8651 70.4823Z" fill="#4581A1"/>
<path d="M78.6703 83.051L78.2214 95.7174L144.504 83.4781L144.587 70.4099L78.6703 83.051Z" fill="#5590B0"/>
<path d="M97.726 79.3694L88.4226 81.0419V93.7191L97.726 92.072V79.3694Z" fill="#41687E"/>
<path d="M135.83 72.0498L125.622 74.0372V86.9932L135.83 85.0347V72.0498Z" fill="#41687E"/>
<path d="M97.726 79.3694L88.4226 81.0419L58.6843 68.723L67.9877 67.0795L97.726 79.3694Z" fill="#41687E"/>
<path d="M135.83 72.0498L125.622 74.0372L95.8834 61.9971L106.088 60.0386L135.83 72.0498Z" fill="#41687E"/>
<path d="M51.6434 81.679L77.0269 93.8712L77.2875 84.0429L52.0887 72.4951L51.6434 81.679Z" fill="#F1E0CC"/>
<g style="mix-blend-mode:multiply" opacity="0.5">
<path d="M51.9221 75.9341L77.1933 87.6049L77.2875 84.0429L52.0886 72.4951L51.9221 75.9341Z" fill="#B89692"/>
</g>
<path d="M43.1798 57.5119L72.8891 46.174L131.298 59.9626L103.717 70.5547L43.1798 57.5119Z" fill="#EDB047"/>
<g style="mix-blend-mode:multiply" opacity="0.5">
<path d="M43.1798 57.5119L72.8891 46.174L126.107 58.7463L96.9622 69.0995L43.1798 57.5119Z" fill="#DBA49E"/>
</g>
<path d="M131.298 59.9626L131.073 61.255L129.915 61.7907L129.615 72.2199L129.589 71.8398L130.212 71.9883L130.027 73.2154L103.018 84.2311L103.717 70.5547L131.298 59.9626Z" fill="#FFD88E"/>
<path d="M103.717 70.5547L103.018 84.2311L42.807 70.4606L43.1799 57.5119L103.717 70.5547Z" fill="#E0A435"/>
<g opacity="0.72">
<path d="M53.1494 67.7854L54.1919 66.9601L53.1276 65.6822L53.1168 64.1944L51.6253 63.8722L50.5611 62.5907L49.5149 63.4161L48.0234 63.0939L48.0379 64.5817L46.9954 65.4035L48.056 66.685L48.0705 68.1728L49.5619 68.495L50.6262 69.7728L51.6688 68.9511L53.1602 69.2696L53.1494 67.7854Z" fill="white"/>
<path d="M67.6402 70.9167L68.6864 70.0914L67.6221 68.8135L67.6076 67.3257L66.1162 67.0035L65.0555 65.7257L64.0093 66.5474L62.5179 66.2252L62.5324 67.713L61.4862 68.5384L62.5505 69.8163L62.565 71.3041L64.0564 71.6263L65.1171 72.9041L66.1632 72.0824L67.6547 72.4046L67.6402 70.9167Z" fill="white"/>
<path d="M82.1347 74.048L83.1809 73.2263L82.1166 71.9448L82.1021 70.457L80.6107 70.1384L79.5464 68.857L78.5039 69.6823L77.0124 69.3565L77.0269 70.8443L75.9807 71.6697L77.045 72.9476L77.0595 74.4354L78.5473 74.7576L79.6116 76.039L80.6578 75.2137L82.1492 75.5359L82.1347 74.048Z" fill="white"/>
<path d="M96.6292 77.183L97.6718 76.3576L96.6075 75.0797L96.5966 73.5919L95.1052 73.2697L94.0409 71.9883L92.9947 72.8136L91.5069 72.4914L91.5178 73.9793L90.4752 74.801L91.5359 76.0825L91.5504 77.5703L93.0418 77.8925L94.1061 79.1703L95.1486 78.3486L96.6401 78.6672L96.6292 77.183Z" fill="white"/>
</g>
<path d="M129.615 72.2199L104.354 82.5587L104.901 71.5358L129.915 61.7907L129.615 72.2199Z" fill="white"/>
<g style="mix-blend-mode:multiply" opacity="0.5">
<path d="M129.89 62.4749L129.915 61.7907L104.901 71.5358L104.774 73.4145C104.774 73.4145 124.072 65.465 129.89 62.4749Z" fill="#B89692"/>
</g>
<path d="M48.1284 43.9224L91.1087 35.162L133.741 46.3514L91.8363 55.3761L48.1284 43.9224Z" fill="#899178"/>
<path d="M64.6283 44.4509L91.1158 38.9702L109.513 43.9224L83.293 49.566L64.6283 44.4509Z" fill="#B9C3AC"/>
<path d="M133.741 46.3514L133.68 47.6257L132.63 48.1976L133.039 56.6141L133.021 56.2521L133.531 56.5526L133.553 57.5553L92.2561 66.9673C92.2561 66.9673 91.2136 66.4641 91.0072 63.684C90.7176 59.749 91.847 55.358 91.847 55.358L133.741 46.3514Z" fill="#B9C3AC"/>
<path d="M91.8363 55.3761L92.2454 66.9854L48.2008 55.5716L48.1284 43.9224L91.8363 55.3761Z" fill="#798268"/>
<path d="M52.8633 47.6076L85.2623 56.3354V63.2532L52.8633 54.2068V47.6076Z" fill="#B9C3AC"/>
<g style="mix-blend-mode:multiply" opacity="0.93">
<path d="M51.0931 43.3179L91.1086 35.162L129.705 45.2944L80.3319 52.3606L51.0931 43.3179Z" fill="#B9C3AC"/>
</g>
<path d="M133.028 56.6141L93.3386 65.2949L93.1033 56.2847L132.619 48.1976L133.028 56.6141Z" fill="white"/>
<g style="mix-blend-mode:multiply" opacity="0.38">
<path d="M132.771 48.8637L93.1033 59.6368V56.2847L132.619 48.1976L132.771 48.8637Z" fill="#B9C3AC"/>
</g>
<path d="M128.145 31.9655L98.9206 20.6748L39.9291 31.6759L66.9741 43.564L128.145 31.9655Z" fill="#DC708A"/>
<path d="M39.9254 31.6759L40.0883 32.9791L41.2214 33.5692L41.1635 41.106L40.577 40.849L40.7073 42.0798L67.1587 54.3697C67.1587 54.3697 69.5587 53.5878 69.3307 49.6239C69.0447 44.8853 66.9813 43.564 66.9813 43.564L39.9254 31.6759Z" fill="#CF6579"/>
<path d="M66.9741 43.5532C66.9741 43.5532 68.4656 45.1858 68.4656 49.07C68.4656 53.1498 67.1587 54.3589 67.1587 54.3589L128.699 43.1369C128.699 43.1369 130.53 41.1133 130.295 37.5476C130.056 33.8769 128.145 31.9692 128.145 31.9692L66.9741 43.5532Z" fill="#BF4E6A"/>
<path d="M41.1635 41.106L65.9061 52.6357C65.9061 52.6357 66.7062 51.4375 66.7062 48.7985C66.7062 45.5405 65.7432 44.4871 65.7432 44.4871L41.2214 33.5692L41.1635 41.106Z" fill="#F1E0CC"/>
<g style="mix-blend-mode:multiply" opacity="0.5">
<path d="M41.2141 34.2534V33.5692L65.736 44.4871C65.736 44.4871 66.46 45.2871 66.6555 47.6293C66.6627 47.6293 46.883 37.515 41.2141 34.2534Z" fill="#B89692"/>
</g>
<path d="M99.288 45.956C108.578 44.2996 115.901 41.7904 115.645 40.3516C115.388 38.9128 107.649 39.0893 98.3589 40.7458C89.0689 42.4023 81.7458 44.9115 82.0024 46.3502C82.2589 47.789 89.9979 47.6125 99.288 45.956Z" fill="#CF6579"/>
<path d="M83.9397 36.1409C95.7159 35.0174 105.072 32.1076 104.836 29.6417C104.601 27.1758 94.8639 26.0876 83.0877 27.2111C71.3115 28.3347 61.9557 31.2445 62.191 33.7104C62.4263 36.1763 72.1635 37.2645 83.9397 36.1409Z" fill="#EB869E"/>
</g>
<defs>
<clipPath id="clip0_109_1944">
<rect width="181" height="181" fill="white" transform="translate(0.5 0.475159)"/>
</clipPath>
</defs>
</svg>
