<svg id="Keyboard" xmlns="http://www.w3.org/2000/svg" width="24" height="16" viewBox="0 0 24 16">
    <defs>
        <style>
            .cls-1{fill:none;stroke:#d6d5dd;stroke-linecap:round;stroke-linejoin:round;stroke-width:2px}
        </style>
    </defs>
    <path id="Path_1006" data-name="Path 1006" class="cls-1" d="M1 8a17.8 17.8 0 0 0 .3 3.989 2.849 2.849 0 0 0 1.142 1.834 7.141 7.141 0 0 0 3.158.927A56.769 56.769 0 0 0 12 15a56.77 56.77 0 0 0 6.4-.25 7.141 7.141 0 0 0 3.163-.927 2.849 2.849 0 0 0 1.137-1.834A17.8 17.8 0 0 0 23 8a17.8 17.8 0 0 0-.3-3.989 2.849 2.849 0 0 0-1.142-1.834A7.14 7.14 0 0 0 18.4 1.25 56.755 56.755 0 0 0 12 1a56.754 56.754 0 0 0-6.4.25 7.14 7.14 0 0 0-3.163.927A2.849 2.849 0 0 0 1.3 4.011 17.8 17.8 0 0 0 1 8z"/>
    <path id="Path_1007" data-name="Path 1007" class="cls-1" d="M17 6h2M8 10h8"/>
    <path id="Path_1008" data-name="Path 1008" d="M5 7a1 1 0 1 0-1-1 1 1 0 0 0 1 1zm0 4a1 1 0 1 0-1-1 1 1 0 0 0 1 1zm4-5a1 1 0 1 1-1-1 1 1 0 0 1 1 1zm2 1a1 1 0 1 0-1-1 1 1 0 0 0 1 1zm4-1a1 1 0 1 1-1-1 1 1 0 0 1 1 1zm4 5a1 1 0 1 0-1-1 1 1 0 0 0 1 1z" style="fill:#d6d5dd;fill-rule:evenodd"/>
</svg>
