<svg xmlns="http://www.w3.org/2000/svg" width="18.359" height="18.359" viewBox="0 0 18.359 18.359">
    <path data-name="Path 1009" d="M1 7.9c0 3.165.429 4.731 1.482 5.609a5.226 5.226 0 0 0 2.455.99 25.633 25.633 0 0 0 4.492.3 25.634 25.634 0 0 0 4.492-.3 5.227 5.227 0 0 0 2.455-.99c1.054-.878 1.482-2.445 1.482-5.609s-.429-4.731-1.482-5.609a5.226 5.226 0 0 0-2.455-.99A25.633 25.633 0 0 0 9.429 1a25.632 25.632 0 0 0-4.492.3 5.225 5.225 0 0 0-2.455.99C1.429 3.166 1 4.732 1 7.9z" fill='none' stroke='#d6d5dd' style="strokeLinecap:round;strokeLinejoin:round;strokeWidth:1.5px" transform="translate(-.25 -.25)"/>
    <path data-name="Path 1010" d="M3 23h13.794" transform="translate(-.717 -5.391)" fill='none' stroke='#d6d5dd' style="strokeLinecap:round;strokeLinejoin:round;strokeWidth:1.5px"/>
</svg>
