<svg width="184" height="184" viewBox="0 0 184 184" fill="none" xmlns="http://www.w3.org/2000/svg">
<g clip-path="url(#clip0_1120_3576)">
<g opacity="0.4">
<path d="M166.891 77.0039L166.586 75.4804C166.398 74.67 166.356 73.8327 166.461 73.0075C166.555 72.3666 166.753 71.7452 167.046 71.1675C167.311 70.6591 167.607 70.1675 167.933 69.6955C168.336 69.1521 168.704 68.5843 169.037 67.9953C169.353 67.3872 169.436 66.684 169.269 66.0191C169.204 65.6364 169.017 65.2851 168.735 65.0182C168.478 64.7802 168.171 64.6018 167.837 64.4956C167.54 64.3952 167.222 64.3724 166.914 64.4294C166.416 64.5108 165.955 64.7449 165.596 65.0991C165.274 65.4351 165.03 65.8369 164.879 66.2767C164.717 66.7279 164.594 67.1921 164.511 67.6641L160.893 66.7809C160.964 66.2903 161.076 65.8065 161.228 65.3347C161.44 64.6825 161.742 64.0632 162.126 63.4947C162.585 62.8113 163.165 62.2176 163.837 61.743C164.664 61.1829 165.601 60.8064 166.586 60.639C167.594 60.4189 168.636 60.4076 169.648 60.6059C170.569 60.7918 171.415 61.2449 172.08 61.9086C172.822 62.7185 173.306 63.7303 173.471 64.8158C173.681 65.6826 173.71 66.5833 173.556 67.4617C173.417 68.1205 173.168 68.7512 172.82 69.3275C172.489 69.8647 172.154 70.3947 171.823 70.9209C171.547 71.3247 171.301 71.7478 171.087 72.1868C170.863 72.6617 170.719 73.1702 170.66 73.6919C170.595 74.3344 170.635 74.9831 170.778 75.6129L170.899 76.2164L166.891 77.0039ZM170.126 82.6638C169.517 82.8125 168.875 82.734 168.319 82.443C168.066 82.3074 167.848 82.1154 167.682 81.8818C167.515 81.6482 167.405 81.3793 167.359 81.0961C167.296 80.8141 167.296 80.5215 167.359 80.2396C167.423 79.9576 167.549 79.6933 167.727 79.4659C168.107 78.9657 168.664 78.6289 169.283 78.5238C169.888 78.3784 170.526 78.4748 171.061 78.7924C171.307 78.9391 171.519 79.1368 171.682 79.3724C171.845 79.6079 171.956 79.8757 172.007 80.1577C172.074 80.4335 172.08 80.721 172.022 80.9991C171.965 81.2773 171.847 81.5392 171.675 81.7659C171.289 82.2479 170.737 82.5682 170.126 82.6638Z" fill="#FFEC7A"/>
<path d="M17.1671 99.1427L16.5783 97.8584C16.2445 97.178 16.0328 96.4444 15.9527 95.6908C15.9023 95.1022 15.9483 94.5093 16.0889 93.9355C16.2185 93.4352 16.3795 92.9435 16.571 92.4635C16.8085 91.8966 17.0137 91.3166 17.1855 90.7265C17.337 90.1215 17.2637 89.4821 16.9795 88.927C16.8424 88.6014 16.6036 88.3289 16.2987 88.1505C16.0211 87.9926 15.7119 87.8983 15.3934 87.8745C15.1082 87.8478 14.8209 87.8933 14.558 88.007C14.1338 88.1827 13.7749 88.4863 13.5313 88.8755C13.3153 89.2411 13.181 89.6491 13.1375 90.0715C13.0896 90.5052 13.0786 90.9423 13.1044 91.3779L9.71147 91.3448C9.6756 90.8953 9.6756 90.4437 9.71147 89.9942C9.76156 89.3649 9.89904 88.7456 10.1199 88.1542C10.3858 87.4526 10.7774 86.8054 11.2755 86.2443C11.8903 85.5692 12.6434 85.0345 13.4835 84.6766C14.3312 84.2709 15.2529 84.043 16.1919 84.0068C17.0477 83.9781 17.8929 84.2035 18.6207 84.6545C19.4478 85.2178 20.0884 86.0147 20.4607 86.9435C20.825 87.6682 21.0378 88.4596 21.0863 89.2692C21.1014 89.8829 21.0144 90.4947 20.8287 91.0798C20.6447 91.6244 20.4607 92.1617 20.2767 92.699C20.1241 93.1142 20.0011 93.5397 19.9087 93.9723C19.8083 94.4401 19.7859 94.9213 19.8425 95.3964C19.9178 95.9796 20.0881 96.5464 20.3467 97.0745L20.5785 97.586L17.1671 99.1427ZM21.2151 103.489C20.705 103.749 20.1177 103.814 19.5628 103.673C19.311 103.603 19.0784 103.477 18.8831 103.304C18.6879 103.13 18.5351 102.914 18.4367 102.672C18.324 102.433 18.2655 102.172 18.2655 101.908C18.2655 101.644 18.324 101.383 18.4367 101.145C18.6715 100.621 19.0964 100.207 19.6254 99.9854C20.1303 99.7281 20.7166 99.6818 21.2556 99.8566C21.5044 99.9358 21.7334 100.067 21.9276 100.241C22.1217 100.416 22.2765 100.63 22.3817 100.869C22.4982 101.099 22.5619 101.353 22.5682 101.611C22.5746 101.87 22.5235 102.126 22.4185 102.363C22.1762 102.877 21.7472 103.279 21.2188 103.489H21.2151Z" fill="#FFEC7A"/>
<path d="M95.1098 18.9261L95.2864 17.7522C95.3645 17.1192 95.5539 16.505 95.8458 15.9379C96.0803 15.5012 96.3849 15.1058 96.7474 14.7677C97.0708 14.4717 97.4125 14.1964 97.7704 13.9434C98.1952 13.6541 98.6031 13.3408 98.9922 13.005C99.3776 12.6494 99.6198 12.1651 99.673 11.6434C99.7258 11.3507 99.6832 11.0488 99.5515 10.7822C99.4287 10.5441 99.2554 10.3356 99.0437 10.1714C98.8543 10.0216 98.6303 9.92165 98.3923 9.88064C98.0187 9.81434 97.6337 9.86311 97.2883 10.0205C96.967 10.1745 96.6831 10.3968 96.4566 10.6718C96.2237 10.956 96.0144 11.2587 95.831 11.5771L93.4722 9.9984C93.6527 9.666 93.8594 9.34851 94.0904 9.04896C94.414 8.62915 94.7957 8.25744 95.2239 7.94496C95.7333 7.57426 96.3055 7.29874 96.913 7.13168C97.656 6.94017 98.4315 6.91006 99.1872 7.04336C99.9683 7.14954 100.72 7.41374 101.395 7.81984C102.01 8.19405 102.501 8.74213 102.805 9.39488C103.127 10.1722 103.211 11.0277 103.048 11.8531C102.972 12.5311 102.758 13.1863 102.418 13.7778C102.148 14.218 101.804 14.6088 101.403 14.9333L100.258 15.8238C99.9591 16.0491 99.6763 16.295 99.4117 16.5598C99.125 16.8437 98.8874 17.1733 98.7088 17.535C98.4937 17.9804 98.352 18.4576 98.2893 18.9482L98.2194 19.4155L95.1098 18.9261ZM95.9599 23.8499C95.4808 23.7978 95.0373 23.5727 94.7123 23.217C94.5676 23.0527 94.4619 22.8577 94.4033 22.6468C94.3447 22.4358 94.3346 22.2143 94.3738 21.9989C94.4033 21.7786 94.4813 21.5676 94.6022 21.3812C94.7231 21.1947 94.8839 21.0374 95.073 20.9206C95.4781 20.6592 95.968 20.5631 96.4419 20.652C96.9155 20.7035 97.3494 20.9403 97.649 21.3107C97.7883 21.4802 97.8893 21.6778 97.9452 21.8899C98.0011 22.102 98.0105 22.3237 97.9728 22.5398C97.9489 22.7559 97.8774 22.964 97.7635 23.1491C97.6496 23.3343 97.4961 23.4919 97.3141 23.6107C96.9085 23.8572 96.4253 23.9426 95.9599 23.8499Z" fill="#FFEC7A"/>
<path d="M84.7207 32.4095L84.5404 31.4601C84.4316 30.9547 84.4117 30.4341 84.4815 29.9219C84.5428 29.5256 84.667 29.1417 84.8495 28.7847C85.0159 28.4722 85.2027 28.171 85.4088 27.8831C85.6635 27.5476 85.8982 27.1974 86.1117 26.8343C86.3112 26.4572 86.3674 26.0206 86.27 25.6052C86.2317 25.3674 86.1182 25.1482 85.9461 24.9796C85.7888 24.8299 85.6003 24.7168 85.3941 24.6484C85.2098 24.5844 85.0124 24.568 84.82 24.6006C84.5099 24.6466 84.2218 24.7881 83.9957 25.0054C83.7914 25.2142 83.6356 25.4655 83.5394 25.7414C83.4357 26.0212 83.3557 26.3093 83.3002 26.6025L81.0591 26.0247C81.1068 25.7209 81.1806 25.4217 81.2799 25.1305C81.4156 24.7224 81.6089 24.3358 81.854 23.9823C82.1427 23.5609 82.507 23.1965 82.9285 22.9078C83.4434 22.5592 84.0268 22.3246 84.6397 22.2196C85.2673 22.0905 85.9147 22.0905 86.5423 22.2196C87.1143 22.3416 87.637 22.6311 88.0437 23.0513C88.5003 23.5593 88.7938 24.1926 88.8864 24.8692C89.01 25.4095 89.0212 25.9694 88.9196 26.5142C88.8291 26.9221 88.6698 27.3116 88.4485 27.666C88.24 27.9972 88.0302 28.3247 87.8192 28.6486C87.6543 28.902 87.5068 29.1664 87.3776 29.4398C87.2342 29.7341 87.1397 30.0498 87.098 30.3745C87.0557 30.7738 87.0755 31.1773 87.1568 31.5705L87.2268 31.9385L84.7207 32.4095ZM86.6858 35.9534C86.3062 36.042 85.9073 35.9897 85.5634 35.8062C85.4076 35.7192 85.2739 35.5977 85.1725 35.451C85.071 35.3043 85.0046 35.1362 84.9783 34.9598C84.942 34.7836 84.945 34.6016 84.9869 34.4267C85.0289 34.2518 85.1089 34.0883 85.2212 33.9478C85.4641 33.6406 85.8134 33.4358 86.2 33.3737C86.5779 33.2873 86.9746 33.3534 87.304 33.5577C87.4559 33.6503 87.5861 33.7744 87.6858 33.9217C87.7855 34.069 87.8524 34.2361 87.8818 34.4115C87.922 34.5836 87.923 34.7626 87.8848 34.9352C87.8465 35.1078 87.7701 35.2696 87.661 35.4087C87.4169 35.7075 87.0682 35.9022 86.6858 35.9534Z" fill="#FFEC7A"/>
<path d="M105.049 32.3359L105.222 31.6441C105.305 31.2712 105.453 30.916 105.66 30.5953C105.824 30.3476 106.028 30.1288 106.264 29.9476C106.474 29.7893 106.694 29.6443 106.923 29.5134C107.194 29.3659 107.457 29.2025 107.71 29.0239C107.961 28.8345 108.134 28.5595 108.196 28.2511C108.245 28.0801 108.236 27.8975 108.17 27.7323C108.112 27.5823 108.02 27.4476 107.901 27.3385C107.798 27.2392 107.672 27.1671 107.533 27.1287C107.313 27.0578 107.076 27.0578 106.856 27.1287C106.656 27.2029 106.475 27.3211 106.326 27.4747C106.172 27.6308 106.03 27.7994 105.903 27.9788L104.578 26.8969C104.704 26.7082 104.845 26.5309 105.002 26.367C105.217 26.134 105.465 25.9333 105.738 25.7708C106.064 25.5847 106.422 25.46 106.794 25.4028C107.248 25.3281 107.713 25.3545 108.155 25.4801C108.616 25.5861 109.049 25.7866 109.429 26.0689C109.77 26.328 110.026 26.6829 110.165 27.0883C110.31 27.5682 110.31 28.0803 110.165 28.5603C110.078 28.957 109.913 29.3324 109.679 29.6643C109.492 29.9103 109.265 30.1241 109.009 30.2972L108.273 30.7609C108.083 30.8708 107.901 30.9937 107.728 31.1289C107.541 31.2809 107.38 31.4639 107.254 31.6699C107.098 31.9229 106.986 32.2003 106.923 32.4905L106.853 32.7628L105.049 32.3359ZM105.278 35.3204C104.995 35.262 104.744 35.1024 104.571 34.8715C104.495 34.7668 104.443 34.6461 104.42 34.5187C104.397 34.3912 104.404 34.2602 104.439 34.1355C104.468 34.0064 104.526 33.8855 104.608 33.7817C104.69 33.6779 104.794 33.5938 104.913 33.5356C105.171 33.4019 105.47 33.3716 105.749 33.451C106.027 33.5088 106.272 33.6741 106.429 33.911C106.5 34.0183 106.548 34.1391 106.569 34.2658C106.591 34.3925 106.586 34.5223 106.555 34.647C106.528 34.7746 106.473 34.8947 106.394 34.9985C106.315 35.1023 106.214 35.1871 106.098 35.2468C105.844 35.3752 105.552 35.4041 105.278 35.3278V35.3204Z" fill="#FFEC7A"/>
<path d="M158.343 96.5887L158.497 95.6356C158.565 95.1211 158.723 94.6226 158.965 94.1636C159.157 93.8116 159.406 93.4933 159.701 93.2215C159.964 92.9861 160.242 92.7673 160.532 92.5665C160.881 92.3388 161.218 92.0932 161.541 91.8305C161.857 91.5438 162.058 91.151 162.104 90.7265C162.151 90.4912 162.12 90.2471 162.015 90.031C161.918 89.836 161.779 89.665 161.607 89.5305C161.455 89.4093 161.276 89.3272 161.084 89.2913C160.777 89.2312 160.459 89.2659 160.172 89.3907C159.912 89.5164 159.682 89.6972 159.498 89.9206C159.304 90.1496 159.132 90.396 158.983 90.6566L157.073 89.3502C157.222 89.0814 157.393 88.8254 157.585 88.5847C157.85 88.2473 158.162 87.9499 158.512 87.7015C158.928 87.4045 159.394 87.1862 159.888 87.0575C160.491 86.9073 161.119 86.8898 161.728 87.006C162.362 87.0962 162.969 87.3167 163.513 87.6537C164.01 87.9605 164.404 88.4091 164.643 88.9417C164.899 89.5729 164.961 90.2662 164.82 90.9326C164.751 91.4815 164.572 92.011 164.293 92.4892C164.07 92.8429 163.789 93.1564 163.462 93.4166C163.153 93.6619 162.843 93.8974 162.534 94.1231C162.291 94.3011 162.06 94.4953 161.843 94.7046C161.608 94.9309 161.413 95.1945 161.265 95.4847C161.086 95.8431 160.968 96.2286 160.915 96.6255L160.853 96.9935L158.343 96.5887ZM158.976 100.582C158.589 100.535 158.231 100.349 157.971 100.059C157.855 99.925 157.77 99.7662 157.724 99.5947C157.678 99.4231 157.672 99.2433 157.706 99.069C157.733 98.8913 157.798 98.7214 157.897 98.5714C157.997 98.4215 158.127 98.2949 158.28 98.2006C158.609 97.9959 159.003 97.9223 159.384 97.9945C159.768 98.0409 160.119 98.2365 160.359 98.5391C160.471 98.6781 160.551 98.8395 160.594 99.0123C160.637 99.185 160.643 99.3651 160.61 99.5401C160.589 99.7152 160.529 99.8834 160.435 100.032C160.341 100.181 160.214 100.307 160.065 100.401C159.737 100.595 159.349 100.66 158.976 100.582Z" fill="#FFEC7A"/>
<g style="mix-blend-mode:multiply">
<path d="M21.4802 77.7288L21.4581 76.7757C21.4288 76.267 21.4911 75.7572 21.6421 75.2706C21.7663 74.8933 21.9515 74.539 22.1904 74.2218C22.4029 73.9438 22.6327 73.6795 22.8786 73.4306C23.1761 73.1433 23.4563 72.8385 23.7176 72.5179C23.9731 72.1838 24.0963 71.7671 24.0635 71.3477C24.0649 71.1109 23.9901 70.88 23.8501 70.689C23.7187 70.5207 23.5515 70.3837 23.3607 70.2879C23.1912 70.1961 23.0014 70.148 22.8087 70.148C22.4997 70.1469 22.1978 70.2407 21.9439 70.4167C21.7139 70.5848 21.5231 70.8007 21.3845 71.0496C21.2396 71.3062 21.1165 71.5746 21.0165 71.8519L18.9263 70.9355C19.0263 70.6477 19.1494 70.3683 19.2943 70.1002C19.4896 69.7247 19.7374 69.379 20.0303 69.0735C20.3801 68.7094 20.7927 68.4115 21.2484 68.1939C21.8091 67.9461 22.4164 67.8206 23.0295 67.8259C23.657 67.8001 24.2831 67.9028 24.8695 68.1277C25.4062 68.3346 25.8689 68.6973 26.198 69.1691C26.5617 69.736 26.7487 70.3983 26.7352 71.0717C26.7703 71.6165 26.6926 72.1627 26.5071 72.6762C26.3554 73.0602 26.1402 73.416 25.8704 73.7287C25.6128 74.0157 25.3589 74.3027 25.1013 74.5861C24.8963 74.8017 24.7069 75.0317 24.5346 75.2743C24.3503 75.5383 24.2099 75.8303 24.1187 76.1391C24.0128 76.5209 23.9681 76.9171 23.9863 77.313V77.681L21.4802 77.7288ZM22.8418 81.4861C22.4577 81.5142 22.0766 81.4003 21.7709 81.1659C21.6348 81.0557 21.5256 80.9159 21.4516 80.7571C21.3776 80.5983 21.3408 80.4248 21.344 80.2496C21.3362 80.0724 21.3678 79.8956 21.4366 79.7321C21.5053 79.5686 21.6094 79.4223 21.7415 79.3039C22.025 79.0422 22.3971 78.8976 22.7829 78.8991C23.1622 78.8768 23.5353 79.0021 23.8243 79.2487C23.9573 79.3635 24.0644 79.5052 24.1386 79.6644C24.2128 79.8236 24.2524 79.9967 24.2549 80.1723C24.2668 80.3462 24.24 80.5206 24.1764 80.6829C24.1127 80.8452 24.0139 80.9913 23.8869 81.1107C23.5987 81.3638 23.2252 81.498 22.8418 81.4861Z" fill="#FFEC7A"/>
</g>
</g>
<path d="M64.0429 44.4029C67.9211 30.6241 59.8951 16.3102 46.1163 12.4319C32.3374 8.55366 18.0235 16.5797 14.1452 30.3585C10.267 44.1374 18.293 58.4513 32.0719 62.3296C45.8507 66.2078 60.1646 58.1818 64.0429 44.4029Z" fill="#55A3F3"/>
<path d="M57.0946 56.0343C68.3756 45.2201 69.4904 28.0767 59.5847 17.7435C49.679 7.41028 32.5038 7.80029 21.2229 18.6146C9.94191 29.4289 8.82704 46.5723 18.7327 56.9054C28.6385 67.2386 45.8136 66.8486 57.0946 56.0343Z" stroke="#55A3F3" stroke-width="1.05" stroke-miterlimit="10"/>
<path d="M36.8662 62.0705L47.5198 71.2779L42.6438 58.5671L36.8662 62.0705Z" fill="#55A3F3"/>
<path d="M38.8201 46.2244L38.1835 43.8287C37.8071 42.5571 37.6576 41.2292 37.7419 39.9058C37.8248 38.8778 38.0733 37.87 38.4779 36.9213C38.8501 36.0897 39.2742 35.2822 39.7475 34.5036C40.3268 33.5966 40.8527 32.6566 41.3225 31.6884C41.7637 30.6897 41.8252 29.5643 41.4955 28.5236C41.3554 27.9217 41.025 27.381 40.5534 26.9816C40.1215 26.6331 39.6194 26.382 39.0814 26.2456C38.5985 26.1226 38.0924 26.1226 37.6094 26.2456C36.8265 26.4238 36.1181 26.8404 35.5817 27.438C35.101 28.003 34.7494 28.6661 34.5513 29.381C34.3416 30.117 34.1927 30.8691 34.106 31.6295L32.8769 31.957L28.2622 30.5439C28.3319 29.7582 28.4635 28.9793 28.656 28.2144C28.9267 27.1464 29.3467 26.1219 29.9035 25.1711C30.5689 24.0428 31.4343 23.0451 32.4574 22.2271C33.7159 21.2417 35.1719 20.5389 36.7262 20.1663C38.3046 19.7196 39.9577 19.6006 41.5838 19.8167C43.0693 20.0189 44.4608 20.6595 45.5803 21.6567C46.7211 22.6601 47.5552 24.1554 48.0827 26.1426C48.4989 27.502 48.6317 28.9324 48.4728 30.3452C48.3222 31.408 47.9912 32.4372 47.4939 33.3885C47.0179 34.2742 46.542 35.1512 46.066 36.0197C45.6766 36.6899 45.336 37.3872 45.0467 38.1063C44.7352 38.8845 44.5548 39.7089 44.5131 40.5461C44.474 41.5749 44.5982 42.6033 44.8811 43.5932L45.135 44.5389L38.8201 46.2244ZM44.5278 54.9165C43.5723 55.2134 42.5414 55.1519 41.628 54.7436C41.2134 54.551 40.8484 54.2662 40.5607 53.9109C40.2731 53.5556 40.0704 53.1393 39.9683 52.6938C39.8431 52.25 39.8174 51.7841 39.8931 51.3292C39.9688 50.8744 40.144 50.4419 40.4062 50.0626C40.9632 49.2282 41.8173 48.6373 42.7945 48.4103C43.7423 48.1199 44.7661 48.2124 45.6465 48.6679C46.0533 48.8763 46.4105 49.1699 46.6937 49.5286C46.9769 49.8874 47.1796 50.303 47.2878 50.7471C47.4202 51.177 47.4559 51.6309 47.3922 52.0763C47.3286 52.5216 47.1673 52.9474 46.9198 53.3231C46.3536 54.1385 45.4984 54.7081 44.5278 54.9165Z" fill="#2C54AC"/>
<path d="M37.5914 46.5519L36.9511 44.1599C36.5737 42.8886 36.4254 41.5602 36.5131 40.237C36.5949 39.2088 36.8435 38.2008 37.2491 37.2525C37.6187 36.4202 38.0416 35.6126 38.5151 34.8348C39.1035 33.928 39.6368 32.9867 40.1122 32.0159C40.5554 31.0177 40.6169 29.8916 40.2851 28.8511C40.1465 28.2486 39.8159 27.7074 39.3431 27.3092C38.9112 26.9606 38.4091 26.7095 37.8711 26.5732C37.3882 26.4495 36.8819 26.4495 36.3991 26.5732C35.6151 26.7513 34.9055 27.1678 34.3677 27.7655C33.8884 28.3314 33.5369 28.9942 33.3373 29.7085C33.1288 30.4447 32.9811 31.1967 32.8957 31.957L27.0298 30.8751C27.0992 30.0891 27.2321 29.3101 27.4272 28.5456C27.698 27.4776 28.118 26.4531 28.6747 25.5023C29.3388 24.3741 30.203 23.3764 31.225 22.5583C32.4843 21.5749 33.94 20.8734 35.4938 20.5012C37.0758 20.0535 38.7327 19.9345 40.3624 20.1516C41.8477 20.3546 43.2389 20.9951 44.3589 21.9916C45.4948 22.995 46.3277 24.4903 46.8576 26.4775C47.2748 27.8367 47.4088 29.267 47.2514 30.68C47.0975 31.7421 46.7666 32.7708 46.2725 33.7234C45.799 34.6091 45.3218 35.4861 44.841 36.3546C44.4543 37.0256 44.1149 37.7228 43.8253 38.4412C43.5126 39.2191 43.331 40.0436 43.288 40.881C43.2471 41.9098 43.3713 42.9386 43.656 43.928L43.9099 44.8738L37.5914 46.5519ZM43.2917 55.244C42.335 55.5408 41.3029 55.4793 40.3882 55.0711C39.9737 54.879 39.6088 54.5942 39.3217 54.2389C39.0346 53.8835 38.8329 53.4669 38.7322 53.0213C38.6064 52.5778 38.5802 52.112 38.6552 51.6572C38.7303 51.2024 38.9048 50.7697 39.1664 50.3901C39.7249 49.5555 40.5801 48.9647 41.5584 48.7378C42.5062 48.4474 43.53 48.5399 44.4104 48.9954C44.8168 49.2044 45.1736 49.4982 45.4568 49.8568C45.7399 50.2155 45.9428 50.6308 46.0517 51.0746C46.1841 51.5045 46.2198 51.9585 46.1561 52.4038C46.0925 52.8492 45.9312 53.2749 45.6837 53.6506C45.1161 54.4647 44.2616 55.0339 43.2917 55.244Z" fill="#FFEC7A"/>
<path d="M150.329 59.1566C164.662 55.1467 173.031 40.2768 169.021 25.9438C165.011 11.6109 150.141 3.2424 135.808 7.25233C121.475 11.2623 113.107 26.1321 117.117 40.4651C121.126 54.798 135.996 63.1665 150.329 59.1566Z" fill="#2C54AC"/>
<path d="M143.159 60.1531C159.406 60.1531 172.577 48.0878 172.577 33.2045C172.577 18.3212 159.406 6.25586 143.159 6.25586C126.912 6.25586 113.741 18.3212 113.741 33.2045C113.741 48.0878 126.912 60.1531 143.159 60.1531Z" stroke="#2C54AC" stroke-width="0.92" stroke-miterlimit="10"/>
<path d="M153.526 56.2339L146.784 69.228L146.597 55.0747L153.526 56.2339Z" fill="#2C54AC"/>
<path d="M140.866 41.216L140.988 38.7394C141.018 37.4135 141.281 36.1031 141.764 34.868C142.162 33.9151 142.712 33.0338 143.395 32.2589C144 31.5785 144.649 30.9381 145.338 30.3416C146.164 29.6512 146.951 28.914 147.693 28.1336C148.42 27.3167 148.822 26.2613 148.823 25.1676C148.876 24.5526 148.726 23.9371 148.396 23.4159C148.089 22.946 147.68 22.5511 147.2 22.2604C146.781 21.9861 146.298 21.8251 145.798 21.793C145.003 21.7282 144.208 21.9094 143.52 22.3119C142.889 22.7026 142.352 23.2263 141.945 23.8464C141.522 24.4837 141.153 25.1544 140.841 25.852L139.571 25.7895L135.597 23.0663C135.899 22.342 136.258 21.643 136.671 20.976C137.255 20.0418 137.967 19.1944 138.787 18.4589C139.763 17.582 140.892 16.8922 142.118 16.4239C143.616 15.8707 145.217 15.6461 146.81 15.7652C148.451 15.8212 150.064 16.2119 151.549 16.9133C152.901 17.5569 154.032 18.5864 154.799 19.872C155.577 21.1748 155.915 22.8541 155.815 24.91C155.794 26.3312 155.485 27.7335 154.906 29.0316C154.438 30.0034 153.809 30.8883 153.044 31.648C152.322 32.3472 151.602 33.0378 150.883 33.7199C150.312 34.2417 149.776 34.8011 149.279 35.3943C148.744 36.0414 148.32 36.7726 148.024 37.5581C147.676 38.5262 147.483 39.5435 147.454 40.572L147.406 41.5546L140.866 41.216ZM143.649 51.2293C142.647 51.2225 141.683 50.8509 140.936 50.1842C140.601 49.8741 140.34 49.4915 140.175 49.0654C140.01 48.6394 139.944 48.1812 139.983 47.726C139.999 47.265 140.116 46.8131 140.327 46.4028C140.537 45.9924 140.836 45.6337 141.201 45.3524C141.986 44.7265 142.98 44.4237 143.98 44.506C144.97 44.5145 145.917 44.9108 146.618 45.61C146.946 45.9319 147.201 46.3208 147.365 46.7501C147.528 47.1795 147.598 47.6391 147.568 48.0976C147.562 48.5501 147.456 48.9956 147.258 49.4022C147.059 49.8088 146.773 50.1664 146.42 50.4492C145.628 51.0503 144.637 51.3279 143.649 51.2256V51.2293Z" fill="#55A3F3"/>
<path d="M139.593 41.1459L139.718 38.673C139.747 37.3468 140.01 36.0362 140.495 34.8016C140.892 33.8482 141.441 32.9658 142.121 32.1888C142.729 31.5102 143.378 30.8699 144.064 30.2715C144.893 29.5821 145.681 28.8448 146.423 28.0635C147.146 27.2523 147.547 26.2056 147.553 25.1195C147.604 24.5043 147.453 23.8893 147.123 23.3678C146.819 22.8987 146.416 22.5028 145.941 22.2086C145.52 21.9356 145.036 21.7747 144.536 21.7413C143.735 21.6706 142.933 21.8506 142.239 22.2565C141.61 22.6506 141.073 23.1751 140.664 23.7947C140.243 24.4327 139.874 25.1034 139.56 25.8003L134.32 22.9998C134.63 22.2719 135 21.5704 135.424 20.9022C135.998 19.9733 136.702 19.1307 137.514 18.3998C138.491 17.5237 139.619 16.8339 140.844 16.3648C142.343 15.8116 143.943 15.587 145.536 15.7061C147.179 15.7621 148.793 16.1528 150.28 16.8542C151.632 17.5008 152.762 18.5344 153.526 19.824C154.306 21.1267 154.644 22.806 154.541 24.8619C154.524 26.2831 154.216 27.6857 153.636 28.9835C153.166 29.9478 152.536 30.8261 151.774 31.5816C151.038 32.2808 150.331 32.969 149.61 33.6534C149.038 34.1744 148.502 34.7338 148.006 35.3278C147.472 35.9758 147.048 36.7068 146.751 37.4917C146.402 38.4598 146.21 39.4771 146.18 40.5056L146.133 41.4845L139.593 41.1459ZM142.375 51.1518C141.376 51.1435 140.413 50.772 139.667 50.1067C139.331 49.7968 139.07 49.4143 138.904 48.9883C138.738 48.5623 138.672 48.104 138.71 47.6485C138.725 47.1874 138.842 46.7355 139.053 46.3251C139.264 45.9147 139.562 45.5561 139.928 45.2749C140.714 44.6488 141.709 44.346 142.71 44.4285C143.699 44.436 144.646 44.8326 145.345 45.5325C145.669 45.8556 145.92 46.2447 146.081 46.6733C146.241 47.1018 146.308 47.5599 146.276 48.0165C146.272 48.4692 146.166 48.9151 145.968 49.3219C145.769 49.7287 145.482 50.0861 145.128 50.368C144.342 50.9663 143.359 51.2462 142.375 51.1518Z" fill="#FFEC7A"/>
<path d="M95.0416 83.219C106.555 81.5373 114.525 70.8406 112.844 59.3272C111.162 47.8139 100.465 39.8437 88.9518 41.5254C77.4384 43.207 69.4682 53.9037 71.1499 65.4171C72.8316 76.9305 83.5283 84.9006 95.0416 83.219Z" fill="#0A2A6B"/>
<path d="M98.3871 82.6313C110.496 78.8898 117.528 66.8446 114.093 55.7276C110.658 44.6107 98.0574 38.6316 85.9482 42.3731C73.8389 46.1146 66.807 58.1598 70.2419 69.2768C73.6768 80.3937 86.2778 86.3728 98.3871 82.6313Z" stroke="#0A2A6B" stroke-width="1.17" stroke-miterlimit="10"/>
<path d="M92.6147 82.4429L98.5948 89.8765L97.8624 80.8237L92.6147 82.4429Z" fill="#0A2A6B"/>
<path d="M90.9362 69.4452L90.686 67.4507C90.5218 66.3873 90.5479 65.3033 90.7633 64.2491C90.9451 63.4307 91.2596 62.6475 91.6943 61.9307C92.0826 61.3022 92.5116 60.6999 92.9786 60.1275C93.5432 59.4611 94.0679 58.7619 94.55 58.0336C95.0175 57.2807 95.1905 56.3817 95.0358 55.5091C94.99 55.0094 94.7834 54.5381 94.447 54.1659C94.1392 53.8351 93.7622 53.5762 93.343 53.4078C92.9684 53.2483 92.5591 53.1874 92.1543 53.2312C91.5049 53.2888 90.8892 53.5459 90.3916 53.9672C89.943 54.3688 89.5875 54.8637 89.3502 55.4171C89.1021 55.9846 88.9015 56.5718 88.7503 57.1724L87.7236 57.3012L84.165 55.6857C84.3042 55.0573 84.4963 54.4418 84.7391 53.8457C85.0721 53.0176 85.5206 52.2408 86.0713 51.5384C86.7282 50.6991 87.534 49.988 88.4486 49.4408C89.5676 48.7883 90.8138 48.3841 92.1028 48.2558C93.4235 48.0687 94.7685 48.1539 96.0551 48.506C97.2271 48.8314 98.276 49.4974 99.069 50.4196C99.8762 51.3494 100.383 52.6436 100.589 54.302C100.775 55.4407 100.726 56.6053 100.445 57.7244C100.207 58.5626 99.8272 59.3541 99.323 60.0649C98.8323 60.7249 98.3539 61.3774 97.8878 62.0227C97.5033 62.519 97.1541 63.0416 96.8426 63.5867C96.5058 64.1791 96.2695 64.8232 96.1434 65.4929C96.0013 66.3152 95.9902 67.1548 96.1103 67.9806L96.2097 68.7718L90.9362 69.4452ZM94.5758 77.0592C93.7756 77.193 92.954 77.0308 92.2647 76.6028C91.9524 76.4008 91.6906 76.1299 91.4992 75.8109C91.3079 75.492 91.1921 75.1335 91.1607 74.7628C91.1089 74.3922 91.1395 74.0148 91.2501 73.6573C91.3608 73.2999 91.5489 72.9712 91.801 72.6947C92.3401 72.0844 93.0916 71.7027 93.9023 71.6275C94.6962 71.4981 95.5092 71.6829 96.1692 72.1427C96.4733 72.3534 96.7291 72.6265 96.9194 72.9437C97.1098 73.261 97.2304 73.6152 97.2732 73.9827C97.332 74.3452 97.31 74.7162 97.2089 75.0693C97.1077 75.4223 96.9299 75.7487 96.6881 76.0251C96.1407 76.6253 95.3856 76.9949 94.5758 77.0592Z" fill="#55A3F3"/>
<path d="M89.9133 69.5739L89.6594 67.5793C89.497 66.5159 89.5232 65.4321 89.7367 64.3777C89.9185 63.5593 90.233 62.7762 90.6677 62.0593C91.0573 61.4317 91.4862 60.8294 91.952 60.2561C92.5166 59.5888 93.0425 58.8897 93.5271 58.1622C93.991 57.408 94.1637 56.5103 94.0128 55.6377C93.9655 55.1385 93.7591 54.6676 93.424 54.2945C93.1159 53.9641 92.7391 53.7053 92.32 53.5365C91.9455 53.3766 91.5362 53.3158 91.1314 53.3598C90.482 53.4175 89.8663 53.6746 89.3687 54.0958C88.9158 54.5041 88.5579 55.0065 88.3199 55.5678C88.0734 56.136 87.8729 56.723 87.72 57.3232L83.1348 55.8512C83.2774 55.2237 83.4694 54.6085 83.7088 54.0112C84.0409 53.1819 84.4908 52.4048 85.0447 51.7038C85.6993 50.8638 86.5041 50.1526 87.4183 49.6062C88.5386 48.9536 89.7861 48.5495 91.0762 48.4213C92.3957 48.2343 93.7395 48.3195 95.0248 48.6715C96.1968 48.9969 97.2458 49.6629 98.0388 50.5851C98.8459 51.5174 99.3525 52.8115 99.5586 54.4675C99.7445 55.6062 99.6957 56.7708 99.4151 57.8899C99.1807 58.7263 98.8075 59.5175 98.3111 60.2304C97.8327 60.8891 97.3506 61.5405 96.8722 62.1881C96.489 62.6853 96.1398 63.2079 95.8271 63.7521C95.4934 64.346 95.2573 64.9896 95.1279 65.6584C94.9853 66.4807 94.9754 67.3206 95.0984 68.1461L95.1978 68.9373L89.9133 69.5739ZM93.5455 77.1878C92.7441 77.3215 91.9214 77.1594 91.2308 76.7315C90.9177 76.5303 90.6553 76.2596 90.4638 75.9405C90.2724 75.6214 90.157 75.2624 90.1268 74.8915C90.0735 74.5211 90.1029 74.1436 90.213 73.786C90.3231 73.4284 90.5111 73.0996 90.7634 72.8233C91.3033 72.2122 92.0563 71.8305 92.8684 71.7561C93.6611 71.6266 94.4731 71.8114 95.1316 72.2713C95.4357 72.4821 95.6914 72.7551 95.8818 73.0724C96.0721 73.3897 96.1927 73.7438 96.2356 74.1113C96.2944 74.4739 96.2724 74.8449 96.1713 75.1979C96.0701 75.551 95.8923 75.8773 95.6504 76.1537C95.1053 76.7529 94.3529 77.1225 93.5455 77.1878Z" fill="#FFEC7A"/>
<path d="M37.4216 176.596L22.1276 166.903L26.6172 157.732L15.706 153.629L8.04053 170.792C8.04053 170.792 18.8781 175.735 26.389 178.576C33.8999 181.417 39.3021 181.575 39.3021 181.575L37.4216 176.596Z" fill="#FF8775"/>
<path d="M84.3418 167.565L86.7816 184H37.3408L41.065 170.652L84.3418 167.565Z" fill="#0A2A6B"/>
<path d="M45.3705 98.8706V116.586L41.0649 118.713C41.0649 118.713 48.8445 132.443 55.5678 128.064C62.2912 123.685 62.1918 116.144 62.1918 116.144L56.9773 115.931L56.5614 109.774L48.1526 97.52L45.3705 98.8706Z" fill="#FF8775"/>
<path d="M45.7128 83.0761C44.8406 85.7183 44.6787 88.5961 44.7597 91.4076C44.9253 96.9901 46.78 102.609 49.2787 107.449C49.8926 108.716 50.6913 109.886 51.6486 110.919C54.3682 113.708 59.3987 114.345 62.5966 112.277C63.7466 111.49 64.7629 110.523 65.6069 109.414C68.032 106.381 68.676 102.289 69.3605 98.0058C70.045 93.7223 70.7736 89.2069 70.1443 85.1921C69.7763 82.9141 68.6944 81.9426 67.48 80.0695C66.6207 78.7897 65.4991 77.7072 64.1896 76.8938C62.8801 76.0805 61.4126 75.5548 59.8845 75.3517C56.8485 74.9249 53.7978 75.7381 50.909 76.7207C48.3992 77.5745 46.5813 80.4522 45.7128 83.0761Z" fill="#FF8775"/>
<path d="M47.4719 83.0832C48.8943 88.338 48.3864 93.9285 46.0404 98.841C43.8378 97.7856 42.0096 96.0833 40.8001 93.9613C39.7124 91.8285 39.0346 89.5104 38.8019 87.1276C38.5958 85.4164 38.5627 83.6168 39.2692 82.0455C39.9758 80.4741 41.5913 79.2082 43.3172 79.3922C43.538 77.3535 45.0321 75.4104 46.6955 74.2144C48.3588 73.0184 50.3755 72.3744 52.4031 72.069C55.3475 71.6245 58.3513 71.7787 61.2347 72.5224C64.118 73.266 66.8218 74.5837 69.1839 76.3967C70.3873 77.3314 71.5207 78.4354 72.1279 79.8375C72.7351 81.2396 72.6689 82.9949 71.6753 84.1504C70.4977 85.5194 68.4663 85.6666 66.6595 85.7071C59.8073 85.869 53.6396 86.0088 47.4719 83.0832Z" fill="#0A2A6B"/>
<path d="M40.351 95.8933C40.4647 96.6578 40.7377 97.39 41.1523 98.0423C41.5669 98.6946 42.1138 99.2526 42.7577 99.6801C43.153 99.9608 43.6122 100.138 44.0936 100.195C45.1976 100.273 46.1617 99.382 46.4929 98.3553C46.8241 97.3285 46.6328 96.1841 46.3053 95.1463C45.8784 93.8068 45.0614 92.3973 43.6925 92.0772C41.4845 91.5546 40.0787 94.0018 40.351 95.8933Z" fill="#FF8775"/>
<g style="mix-blend-mode:multiply">
<path d="M45.3707 98.8704C44.8932 98.7247 44.4662 98.448 44.1379 98.0719C44.068 98.0003 44.0185 97.9114 43.9944 97.8143C43.9958 97.719 44.0191 97.6253 44.0625 97.5404C44.1059 97.4555 44.1682 97.3818 44.2446 97.3248L45.0653 96.5116C45.123 96.4598 45.1683 96.3956 45.1977 96.3239C45.2111 96.2409 45.2023 96.1558 45.172 96.0773C44.8629 95.0432 44.4949 93.9282 43.6043 93.321C43.3694 93.1456 43.0875 93.0444 42.7947 93.0303C42.5799 93.0395 42.3698 93.0957 42.1791 93.1949C41.9883 93.2941 41.8216 93.4339 41.6907 93.6044C41.4298 93.9499 41.2261 94.3351 41.0872 94.7451C41.0872 94.7451 40.859 96.9532 42.3936 98.289C43.9281 99.6248 45.3707 98.8704 45.3707 98.8704Z" fill="#FF8775"/>
</g>
<path d="M41.0762 94.7452C41.1817 94.3011 41.3689 93.8806 41.6282 93.505C41.7712 93.3046 41.9609 93.1419 42.1808 93.031C42.4006 92.9201 42.6442 92.8643 42.8904 92.8684C43.3815 92.9288 43.834 93.1655 44.1637 93.5345C44.4845 93.8801 44.7412 94.2801 44.9218 94.7157C45.0967 95.1347 45.2431 95.565 45.3597 96.0037C45.3814 96.0708 45.3962 96.1398 45.4039 96.2098C45.4107 96.3064 45.3875 96.4028 45.3376 96.4858C45.2616 96.5888 45.1739 96.6827 45.0763 96.7655L44.5869 97.2218C44.4276 97.3527 44.2832 97.5008 44.1563 97.6634C44.1382 97.6941 44.1286 97.729 44.1286 97.7646C44.1286 97.8002 44.1382 97.8352 44.1563 97.8658C44.2046 97.954 44.264 98.0356 44.333 98.1087C44.6188 98.4421 44.9794 98.7032 45.3855 98.8705C44.929 98.7801 44.5055 98.5677 44.16 98.2559C44.0661 98.1751 43.9832 98.0823 43.9135 97.9799C43.8792 97.912 43.8613 97.837 43.8613 97.7609C43.8613 97.6849 43.8792 97.6099 43.9135 97.542C43.9665 97.4246 44.0414 97.3184 44.1343 97.2292L44.3624 96.9826L44.8224 96.4969C44.8903 96.4319 44.9531 96.3618 45.0101 96.2871C45.0101 96.2871 45.0101 96.2356 44.9843 96.1215C44.8588 95.7031 44.7114 95.2916 44.5427 94.8887C44.384 94.4957 44.1601 94.1324 43.8803 93.8141C43.6231 93.5015 43.2678 93.2849 42.872 93.1996C42.6711 93.1861 42.4697 93.219 42.2834 93.2955C42.0971 93.3721 41.9309 93.4903 41.7975 93.6412C41.4993 93.968 41.2557 94.3408 41.0762 94.7452Z" fill="#0A2A6B"/>
<path d="M43.2255 117.646C43.2255 117.646 27.6002 124.884 25.0573 127.328C22.5144 129.772 9.2002 151.281 9.2002 151.281C9.2002 151.281 13.3807 156.065 18.2604 157.986C23.14 159.907 28.465 160.01 28.465 160.01L34.2242 147.77L41.0764 170.653C41.0764 170.653 52.1164 178.749 66.3653 176.824C80.6143 174.899 84.3532 167.565 84.3532 167.565L81.5748 147.936C81.5748 147.936 86.896 146.619 90.4068 143.851C93.9175 141.084 98.0722 135.866 98.0722 135.866C98.0722 135.866 81.1442 119.795 79.341 117.775C77.5378 115.754 60.4994 116.108 60.4994 116.108C60.4994 116.108 61.1397 122.456 56.0319 123.523C50.924 124.59 43.2255 117.646 43.2255 117.646Z" fill="#55A3F3"/>
<path d="M56.812 113.362C54.9239 112.939 53.1702 112.054 51.7079 110.786C50.3831 109.682 49.3232 108.276 48.2744 106.896C48.5949 107.696 48.9775 108.468 49.4189 109.208C50.2393 110.569 51.2702 111.793 52.4733 112.832C53.7243 113.899 55.2588 114.578 56.8893 114.786" fill="#0A2A6B"/>
<path d="M57.9231 93.7444C57.9231 94.4804 57.5072 95.0986 56.9957 95.0986C56.4842 95.0986 56.0684 94.4914 56.0684 93.7444C56.0684 92.9973 56.4842 92.3901 56.9957 92.3901C57.5072 92.3901 57.9231 92.9973 57.9231 93.7444Z" fill="#0A2A6B"/>
<path d="M67.2742 93.7444C67.2742 94.4804 66.8583 95.0986 66.3468 95.0986C65.8353 95.0986 65.4194 94.4914 65.4194 93.7444C65.4194 92.9973 65.8353 92.3901 66.3468 92.3901C66.8583 92.3901 67.2742 92.9973 67.2742 93.7444Z" fill="#0A2A6B"/>
<path d="M62.6813 92C63.0742 92.7066 63.4066 93.4453 63.6749 94.208C63.9456 94.9782 64.162 95.7664 64.3225 96.5669C64.4858 97.3681 64.594 98.1796 64.6464 98.9957C64.696 99.814 64.6776 100.635 64.5912 101.45L64.5728 101.634H64.3998C63.7153 101.634 63.0345 101.597 62.35 101.564C61.6656 101.531 60.9848 101.494 60.3003 101.436C60.9848 101.38 61.6693 101.34 62.35 101.307C63.0309 101.274 63.7153 101.255 64.3998 101.237L64.2011 101.417C64.2919 99.8169 64.1968 98.2115 63.9177 96.6331C63.7853 95.8407 63.616 95.0569 63.4099 94.2816C63.2001 93.5309 62.9646 92.7581 62.6813 92Z" fill="#0A2A6B"/>
<path d="M62.2103 107.386C63.1635 107.386 63.9362 107.057 63.9362 106.65C63.9362 106.244 63.1635 105.914 62.2103 105.914C61.2571 105.914 60.4844 106.244 60.4844 106.65C60.4844 107.057 61.2571 107.386 62.2103 107.386Z" fill="#0A2A6B"/>
<path d="M52.8667 91.4736C53.1487 90.7761 53.565 90.1409 54.0921 89.6042C54.6321 89.0549 55.2618 88.6019 55.9542 88.2646C56.3038 88.0954 56.6571 87.9224 57.0214 87.7826C57.3871 87.644 57.7749 87.5729 58.1659 87.5728C58.9604 87.5546 59.7414 87.7807 60.4033 88.2205V88.3677C59.7396 88.6492 59.0525 88.8721 58.3499 89.0338C58.0317 89.1124 57.7083 89.1678 57.3821 89.1994C57.0511 89.2198 56.7231 89.274 56.4032 89.3613C56.0817 89.4501 55.7679 89.5645 55.4648 89.7035C55.1553 89.8378 54.8563 89.9952 54.5705 90.1746C53.976 90.5399 53.4483 91.0041 53.0102 91.5472L52.8667 91.4736Z" fill="#0A2A6B"/>
<path d="M69.3019 91.54C68.9199 91.0246 68.4592 90.5726 67.9366 90.2005C67.4381 89.8422 66.8902 89.5584 66.3101 89.3577C66.0242 89.2655 65.7294 89.2038 65.4306 89.1737C65.1358 89.1385 64.8443 89.0806 64.5584 89.0008C64.2677 88.9198 63.9733 88.8352 63.6642 88.7321C63.3314 88.6309 63.0056 88.508 62.689 88.3641V88.2243C62.9866 88.0046 63.324 87.8446 63.6826 87.7533C64.0323 87.6564 64.3944 87.6117 64.7571 87.6208C65.1218 87.628 65.4816 87.7055 65.817 87.8489C66.1499 87.9948 66.4742 88.1594 66.7885 88.3421C67.4108 88.6905 67.9655 89.148 68.4261 89.6926C68.872 90.2191 69.2153 90.8245 69.4381 91.4774L69.3019 91.54Z" fill="#0A2A6B"/>
<path d="M41.0649 118.713C41.0649 118.713 49.2934 126.831 56.8889 125.124C64.4845 123.416 62.8027 116.063 62.8027 116.063" stroke="#0A2A6B" stroke-miterlimit="10"/>
<path d="M81.744 148.672C81.549 146.769 81.3503 144.867 81.1111 142.972C80.8719 141.076 80.6253 139.181 80.3162 137.297C80.0071 135.413 79.6943 133.529 79.341 131.652C79.1644 130.713 78.973 129.775 78.7853 128.837L78.2002 126.029C78.4762 126.945 78.7154 127.869 78.962 128.8C79.2085 129.731 79.4072 130.64 79.617 131.593C80.0292 133.466 80.353 135.35 80.6768 137.242C81.0007 139.133 81.2141 141.036 81.3908 142.942C81.5674 144.848 81.6962 146.747 81.744 148.672Z" fill="#0A2A6B"/>
<path d="M96.1512 134.022C96.1512 134.022 93.2771 138.88 89.9909 141.205C86.7046 143.531 81.5269 145.585 81.5269 145.585" stroke="#0A2A6B" stroke-miterlimit="10"/>
<path d="M33.7863 148.455C34.314 146.913 34.7212 145.332 35.0044 143.726C35.2975 142.13 35.4062 140.505 35.3282 138.883C35.2582 137.264 34.9609 135.662 34.445 134.125C34.1868 133.353 33.8668 132.604 33.4882 131.884C33.1183 131.157 32.6874 130.463 32.2002 129.808C32.7469 130.423 33.2313 131.089 33.6464 131.799C34.0581 132.513 34.4113 133.259 34.7026 134.029C35.2735 135.582 35.6085 137.212 35.6962 138.865C35.7669 140.513 35.6334 142.163 35.2988 143.778C34.9596 145.385 34.4526 146.953 33.7863 148.455Z" fill="#0A2A6B"/>
<path d="M10.3408 149.448C10.3408 149.448 12.8653 152.908 18.3411 155.576C23.817 158.244 29.5136 157.784 29.5136 157.784" stroke="#0A2A6B" stroke-miterlimit="10"/>
<g opacity="0.31">
<path d="M43.6045 77.7656C44.7369 78.4177 45.9633 78.8906 47.2403 79.1677C48.512 79.4488 49.8094 79.5968 51.1117 79.6093C53.7171 79.6682 56.3115 79.3149 58.917 79.0426C60.2197 78.9211 61.5334 78.8218 62.8509 78.8181C63.5059 78.8181 64.1683 78.8181 64.8234 78.8843C65.4838 78.9253 66.1398 79.0201 66.7848 79.1677C68.1039 79.4109 69.3164 80.0532 70.2587 81.0077C70.7073 81.5025 71.0403 82.0908 71.2339 82.7299C71.4368 83.3615 71.447 84.0392 71.2634 84.6767C71.3834 84.038 71.3423 83.3795 71.1437 82.7607C70.9452 82.1419 70.5955 81.5824 70.1262 81.1328C69.1918 80.2359 68.0052 79.6464 66.7259 79.4437C64.1757 78.9727 61.5408 79.1456 58.9501 79.4106C56.3594 79.6755 53.7392 80.0104 51.1007 79.8927C49.7833 79.847 48.4745 79.662 47.1962 79.3407C45.9215 79.0137 44.7085 78.4818 43.6045 77.7656Z" fill="white"/>
<path d="M46.2651 74.564C46.6907 74.7028 47.1246 74.8146 47.5642 74.8989C48.0034 74.9778 48.4471 75.0294 48.8927 75.0535C49.7821 75.1008 50.6741 75.065 51.557 74.9467C53.3259 74.6789 55.0799 74.3202 56.812 73.8722C58.5674 73.5042 60.3743 73.173 62.1922 73.3018C63.0997 73.3628 63.9954 73.5422 64.8565 73.8354C65.7107 74.1349 66.5001 74.5945 67.1823 75.1896C66.8216 74.9248 66.4401 74.6898 66.0415 74.4867C65.6403 74.2932 65.2244 74.132 64.7976 74.0047C63.9499 73.7593 63.0744 73.6233 62.1922 73.5999C60.4099 73.5824 58.633 73.8001 56.9077 74.2475C55.156 74.6155 53.408 75.0792 51.6011 75.2411C50.7003 75.3258 49.7935 75.3258 48.8927 75.2411C47.9882 75.1462 47.1028 74.918 46.2651 74.564Z" fill="white"/>
<path d="M45.7243 82.7998C45.8267 83.2445 45.8355 83.7057 45.7501 84.154C45.658 84.602 45.5148 85.0379 45.3232 85.4531C44.5475 87.1197 43.2765 88.5063 41.6837 89.4238C40.9011 89.8831 40.0482 90.2101 39.1592 90.3916C39.5773 90.234 39.9864 90.0534 40.3846 89.8507C40.7822 89.6554 41.1659 89.4328 41.5328 89.1846C42.2674 88.6966 42.9408 88.122 43.5384 87.4734C44.1344 86.8262 44.6485 86.1081 45.0693 85.3353C45.2819 84.9492 45.451 84.5407 45.5734 84.1172C45.7053 83.6913 45.7565 83.2445 45.7243 82.7998Z" fill="white"/>
<path d="M42.3973 80.842C42.2234 81.8518 41.7768 82.7947 41.1057 83.5689C40.4479 84.3571 39.5898 84.9534 38.6217 85.2948L38.5039 85.3353L38.5591 85.2323C38.6217 85.1182 38.6879 85.0078 38.7578 84.8974C38.721 85.0225 38.6879 85.1476 38.6474 85.2654L38.5849 85.2028C39.4246 84.6955 40.1816 84.0626 40.8297 83.326C41.473 82.5807 42.0014 81.7435 42.3973 80.842Z" fill="white"/>
</g>
<path d="M38.7502 181.542C38.7502 181.542 40.6932 181.13 41.5139 180.515C42.3345 179.9 43.0926 178.951 43.2067 177.939C44.2628 178.071 45.0467 178.962 46.0071 179.411C46.0611 179.446 46.1223 179.468 46.1861 179.476C46.2498 179.483 46.3145 179.476 46.3751 179.455C46.5555 179.367 46.5371 179.109 46.4819 178.918C46.1705 177.897 45.5812 176.983 44.7799 176.277C43.9785 175.572 42.9968 175.104 41.9444 174.925C42.9744 175.011 43.9842 175.259 44.9363 175.661C45.5876 175.978 46.1764 176.445 46.8867 176.588C46.9555 176.614 47.0313 176.614 47.1001 176.588C47.1298 176.564 47.1537 176.534 47.1703 176.5C47.1868 176.465 47.1955 176.428 47.1958 176.39C47.1849 176.192 47.1285 175.999 47.0308 175.827C46.9331 175.655 46.7969 175.507 46.6327 175.396C45.0511 173.986 43.0888 173.073 40.9913 172.772C43.1092 172.386 45.2956 172.75 47.1737 173.803C47.3537 173.924 47.5587 174.003 47.7736 174.035C47.8839 174.043 47.9936 174.011 48.0808 173.942C48.168 173.874 48.2265 173.776 48.2446 173.667C48.2436 173.575 48.2196 173.485 48.1747 173.405C47.746 172.602 47.0823 171.948 46.2721 171.532C44.2798 170.35 41.9337 169.909 39.6481 170.288C41.694 169.506 43.9446 169.44 46.0329 170.101C46.59 170.314 47.1635 170.481 47.7478 170.601C47.7808 170.611 47.8157 170.614 47.8499 170.61C47.8842 170.605 47.9171 170.594 47.9465 170.575C48.0422 170.494 47.9833 170.343 47.9171 170.24C47.4487 169.566 46.8485 168.993 46.1528 168.557C45.4571 168.12 44.6803 167.829 43.8691 167.701C42.2572 167.425 40.4135 167.407 39.1403 168.437C38.7042 169.421 38.3938 170.456 38.2166 171.517C37.9443 173.218 37.4143 176.599 37.4143 176.599L35.7988 176.68L38.4227 181.516L38.7502 181.542Z" fill="#FF8775"/>
<path d="M94.2079 140.278C93.0253 141.565 91.7118 142.726 90.2887 143.741C88.9351 144.69 87.5269 145.558 86.0714 146.342L95.1868 158.545L88.1727 170.542C88.1727 170.542 86.9914 167.388 86.3879 165.802C86.0058 164.815 85.5014 163.879 84.8865 163.017C83.455 162.281 81.6849 162.649 80.1834 163.252C79.429 163.537 78.74 163.972 78.1582 164.53C77.5763 165.089 77.1135 165.759 76.7979 166.502C76.75 166.616 76.7242 166.774 76.8346 166.829C76.8513 166.84 76.8702 166.846 76.8899 166.847C77.196 166.846 77.4917 166.736 77.7252 166.538C79.7691 165.087 82.3024 164.5 84.7761 164.904C83.4305 164.964 82.1116 165.3 80.9021 165.893C79.6926 166.486 78.6186 167.322 77.7473 168.349C77.3839 168.741 77.1781 169.253 77.1695 169.788C77.166 169.813 77.166 169.839 77.1695 169.865C77.2106 169.964 77.2867 170.043 77.3833 170.089C77.4799 170.135 77.5899 170.143 77.6921 170.112C77.894 170.04 78.0767 169.923 78.2257 169.769C79.8275 168.389 81.8596 167.608 83.9739 167.561C82.0134 168.27 80.3048 169.539 79.061 171.212C78.9254 171.352 78.8237 171.522 78.7638 171.707C78.7038 171.893 78.6872 172.09 78.7151 172.283C78.7246 172.319 78.7416 172.353 78.7651 172.382C78.7885 172.411 78.8179 172.435 78.8513 172.452C78.9208 172.469 78.9942 172.46 79.0574 172.426C79.7124 172.147 80.1908 171.58 80.7502 171.142C81.5885 170.564 82.5124 170.12 83.4881 169.828C82.5093 170.21 81.6561 170.856 81.0243 171.695C80.3925 172.534 80.007 173.533 79.9111 174.579C79.8927 174.774 79.9111 175.028 80.1172 175.076C80.1771 175.082 80.2376 175.075 80.2947 175.056C80.3518 175.037 80.4042 175.006 80.4484 174.966C81.2874 174.34 81.8615 173.328 82.8514 172.993C83.1642 173.954 84.0806 174.719 84.9969 175.146C85.5755 175.41 86.2012 175.555 86.8369 175.573C88.5898 175.503 90.2596 174.807 91.5436 173.611L107.147 156.374L94.2079 140.278Z" fill="#FF8775"/>
<path d="M93.6338 161.184C94.0874 160.206 94.6062 159.259 95.1867 158.35C95.7589 157.436 96.4103 156.574 97.1335 155.774C97.5033 155.364 97.9153 154.994 98.3626 154.67C98.8073 154.356 99.2747 154.076 99.761 153.831C100.72 153.329 101.748 152.974 102.812 152.775C102.301 152.936 101.801 153.129 101.314 153.353C100.826 153.57 100.352 153.816 99.8935 154.089C98.9652 154.596 98.1231 155.247 97.3984 156.017C96.6761 156.8 96.0131 157.635 95.4149 158.516C95.1021 158.95 94.804 159.395 94.5133 159.844C94.2226 160.293 93.9282 160.724 93.6338 161.184Z" fill="#0A2A6B"/>
<path d="M24.7628 168.573L23.6588 167.955C23.2908 167.749 22.9228 167.543 22.5769 167.344C22.2193 167.138 21.8507 166.951 21.4729 166.785C21.0999 166.624 20.7147 166.492 20.321 166.391C19.5399 166.181 18.742 166.04 17.9364 165.968C17.1114 165.89 16.281 165.89 15.4561 165.968C15.8586 165.855 16.2697 165.775 16.6852 165.729C17.1036 165.691 17.5237 165.675 17.9437 165.681C18.7883 165.704 19.6271 165.827 20.4425 166.049C20.8518 166.162 21.2517 166.307 21.6385 166.483C22.024 166.663 22.3933 166.876 22.7425 167.12C23.4451 167.562 24.1198 168.048 24.7628 168.573Z" fill="#0A2A6B"/>
<path d="M117.157 132.509C117.157 132.509 114.923 127.909 113.407 126.802C111.891 125.694 108.211 124.421 107.519 124.447C106.827 124.472 107.195 125.896 107.497 126.176C107.798 126.456 109.951 127.92 109.951 127.92C109.951 127.92 106.363 126.647 105.535 126.003C104.707 125.359 100.015 120.733 99.4852 120.903C98.9553 121.072 99.43 122.978 100.151 123.795C100.873 124.612 105.163 128.461 105.163 128.461C105.163 128.461 98.0574 122.713 97.5643 122.912C97.0712 123.111 96.6332 126.732 98.6241 128.936C100.615 131.14 103.85 132.984 105.101 133.374C106.352 133.764 110.481 134.434 110.481 134.434L112.001 136.031L117.157 132.509Z" fill="#FF8775"/>
<path d="M109.929 127.898C110.122 129.374 110.705 130.771 111.618 131.946C110.994 131.489 110.511 130.865 110.223 130.147C109.921 129.438 109.82 128.661 109.929 127.898Z" fill="#0A2A6B"/>
<path d="M97.6709 127.173C97.6855 127.08 97.7357 126.995 97.8112 126.938C97.8866 126.88 97.9814 126.854 98.0757 126.864C98.2645 126.891 98.4398 126.978 98.5762 127.111C98.8448 127.346 99.1098 127.578 99.3858 127.803C99.9341 128.255 100.49 128.697 101.049 129.12C101.608 129.543 102.197 129.952 102.782 130.353C103.368 130.754 103.971 131.126 104.575 131.509C103.915 131.232 103.274 130.911 102.657 130.548C101.418 129.827 100.268 128.962 99.2312 127.972C98.9736 127.725 98.7197 127.468 98.4731 127.214C98.3685 127.082 98.2259 126.986 98.0647 126.938C97.9814 126.921 97.8948 126.935 97.8218 126.979C97.7489 127.023 97.695 127.092 97.6709 127.173Z" fill="#0A2A6B"/>
<path d="M97.1924 125.172C97.227 124.976 97.3092 124.791 97.4316 124.634C97.5021 124.551 97.5998 124.495 97.7076 124.476C97.8183 124.459 97.9315 124.481 98.0278 124.539C98.1886 124.65 98.3411 124.773 98.4841 124.907L98.922 125.275C99.5071 125.775 100.1 126.268 100.71 126.747C101.321 127.225 101.929 127.692 102.55 128.16C103.172 128.627 103.783 129.094 104.39 129.588C103.721 129.197 103.069 128.782 102.425 128.347C101.781 127.913 101.159 127.453 100.545 126.986C99.9303 126.518 99.3415 126 98.7858 125.459L98.3737 125.046C98.2462 124.908 98.1111 124.776 97.9689 124.653C97.9024 124.6 97.8188 124.573 97.734 124.578C97.6491 124.583 97.569 124.618 97.5089 124.678C97.3685 124.818 97.2604 124.986 97.1924 125.172Z" fill="#0A2A6B"/>
<path d="M110.481 134.441L121.764 171.444L128.13 158.428L117.156 132.509L110.481 134.441Z" fill="#FF8775"/>
<path d="M143.41 101.612C143.41 101.612 150.332 93.7554 149.795 88.5592C149.562 86.319 148.952 84.1342 147.991 82.0972C147.382 80.6641 146.45 79.3909 145.268 78.3767C143.719 77.1512 141.728 76.6728 139.818 76.1687C137.007 75.4327 134.121 74.5605 131.24 74.9653C129.102 75.2634 127.082 76.1576 125.168 77.1549C122.758 78.4098 121.816 80.8349 120.929 83.4109C120.014 85.9785 119.527 88.6786 119.486 91.4039C119.543 92.4653 119.45 93.5294 119.21 94.565C118.746 96.1879 115.663 98.7087 115.663 98.7087C115.663 98.7087 117.764 99.8127 118.809 100.037C119.21 101.413 119.545 102.595 119.88 103.758H120.005C120.667 103.758 121.602 104.107 121.602 104.534C121.602 104.876 120.848 105.156 120.358 105.252C120.623 106.032 120.921 106.827 121.293 107.703C121.573 108.361 122.541 110.091 123.133 110.496C123.767 110.861 124.499 111.018 125.227 110.945C127.35 110.889 129.437 110.387 131.354 109.473C131.505 110.382 131.494 111.099 131.575 112.016C131.661 112.721 131.661 113.434 131.575 114.139C131.332 115.703 130.375 117.046 129.448 118.327C131.601 119.258 133.985 119.044 136.3 118.695C138.858 118.305 141.596 117.69 143.292 115.751C143.94 115.751 143.737 115.637 143.932 115.015C144.061 114.379 144.109 113.73 144.076 113.083L143.41 101.612Z" fill="#FF8775"/>
<path d="M144.072 113.083C141.884 114.853 139.372 116.178 136.675 116.984C132.517 118.128 130.114 117.392 130.114 117.392C130.114 117.392 123.95 126.688 122.963 139.8C121.977 152.911 120.501 184 120.501 184H163.212L154.273 139.104L162.553 135.325C162.553 135.325 159.086 126.861 155.704 121.44C153.05 117.258 148.882 114.264 144.072 113.083Z" fill="#0A2A6B"/>
<path d="M158.163 137.341L146.74 142.449L152.451 159.933L143.063 184H150.611L162.453 159.164L158.163 137.341Z" fill="#FF8775"/>
<path d="M146.74 142.449L144.326 143.671C143.518 144.078 142.711 144.48 141.904 144.878L141.797 144.929L141.753 144.819C140.947 142.806 140.182 140.771 139.483 138.725C138.784 136.679 138.099 134.611 137.569 132.502C137.289 131.449 137.072 130.38 136.918 129.3C136.777 128.219 136.712 127.13 136.723 126.04C136.73 123.868 136.961 121.702 137.415 119.578C137.079 121.715 136.93 123.877 136.969 126.04C136.995 127.116 137.083 128.19 137.234 129.256C137.392 130.322 137.615 131.376 137.904 132.414C138.46 134.5 139.115 136.565 139.799 138.615C140.141 139.641 140.502 140.664 140.859 141.684C141.216 142.703 141.595 143.726 141.963 144.738L141.816 144.679C142.633 144.301 143.453 143.933 144.278 143.575L146.74 142.449Z" fill="white"/>
<path d="M131.17 109.542C132.731 108.532 134.078 107.225 135.137 105.697C134.353 107.862 133.124 109.838 131.531 111.5L131.17 109.542Z" fill="#0A2A6B"/>
<path d="M123.364 93.9834C123.364 94.6458 122.996 95.1867 122.566 95.1867C122.135 95.1867 121.764 94.6458 121.764 93.9834C121.764 93.321 122.132 92.7837 122.566 92.7837C123 92.7837 123.364 93.321 123.364 93.9834Z" fill="#0A2A6B"/>
<path d="M125.911 92.9569C125.344 91.9436 124.472 91.134 123.42 90.6421C122.905 90.4632 122.381 90.3145 121.849 90.1969C121.322 90.0313 120.789 89.8988 120.152 89.6964L120.134 89.5896C120.691 89.2098 121.365 89.0391 122.036 89.1076C122.7 89.1956 123.328 89.4599 123.854 89.873C124.395 90.2311 124.864 90.6866 125.238 91.2162C125.598 91.7308 125.861 92.3071 126.014 92.9164L125.911 92.9569Z" fill="#0A2A6B"/>
<path d="M146.096 105.303C146.17 105.691 146.308 106.064 146.505 106.407C146.652 106.775 146.674 107.268 146.354 107.511C146.129 107.634 145.867 107.669 145.618 107.611C144.231 107.384 142.951 106.725 141.96 105.729C140.969 104.733 140.317 103.449 140.098 102.061C140.124 102.51 140.149 102.959 140.179 103.408C140.21 103.593 140.175 103.784 140.079 103.945C140.004 104.02 139.91 104.074 139.808 104.103C139.706 104.132 139.598 104.135 139.494 104.111C138.721 103.997 138.195 103.287 137.787 102.639C136.225 100.17 134.264 97.977 131.983 96.151C131.983 96.151 129.757 91.275 133.75 85.6041C132.085 86.858 130.128 87.6661 128.064 87.952C127.822 88.008 127.57 88.008 127.328 87.952C127.205 87.9193 127.095 87.8481 127.015 87.7488C126.935 87.6496 126.889 87.5274 126.883 87.4C126.906 87.2328 126.979 87.0764 127.093 86.951C127.638 86.2208 128.281 85.5684 129.003 85.0117C126.397 86.2997 123.254 86.6897 120.351 86.8001C119.957 86.8001 119.442 86.7229 119.39 86.3328C119.387 86.1501 119.45 85.9724 119.567 85.8323C119.896 85.3509 120.305 84.9301 120.778 84.5885C118.96 85.4238 117.116 86.1598 115.225 85.5011C114.799 85.3824 114.427 85.1229 114.168 84.7651C114.047 84.581 113.992 84.361 114.013 84.1415C114.034 83.922 114.129 83.7162 114.283 83.5581C114.447 83.4379 114.631 83.3482 114.827 83.2931C117.352 82.3547 118.761 79.7493 120.579 77.7731C122.998 75.1489 126.297 73.5042 129.849 73.151C129.261 72.9184 128.719 72.5832 128.248 72.1611C128.13 72.0821 128.032 71.9782 127.958 71.8567C127.885 71.7353 127.84 71.5992 127.825 71.4582C127.825 71.035 128.318 70.8032 128.727 70.6817C132.102 69.6792 135.715 69.8312 138.995 71.1136C142.274 72.3961 145.032 74.7357 146.832 77.7621C146.788 76.912 146.736 76.2091 146.692 75.359C146.667 74.9027 146.725 74.3213 147.16 74.1851C147.31 74.1593 147.464 74.1724 147.608 74.2233C147.752 74.2742 147.88 74.3612 147.98 74.4758C148.978 75.4105 149.084 76.9304 149.121 78.2957C149.929 78.4759 150.695 78.8095 151.377 79.2782C152.096 79.7493 152.605 80.4817 152.794 81.3206C152.816 81.4421 152.816 81.5929 152.713 81.6629C152.637 81.7018 152.548 81.7097 152.466 81.6849C151.58 81.5376 150.705 81.3324 149.846 81.0704C152.003 82.9987 152.838 86.2224 152.606 89.1222C152.374 92.0221 151.193 94.7269 149.846 97.2918C148.499 99.8568 145.967 102.411 146.096 105.303Z" fill="#0A2A6B"/>
<g opacity="0.29">
<path d="M120.41 84.4817C121.173 84.3442 121.876 83.9755 122.423 83.4256C122.999 82.9152 123.546 82.3722 124.06 81.799C125.109 80.6656 126.099 79.4585 127.321 78.4686C128.557 77.4776 130.026 76.8186 131.588 76.554C133.151 76.2893 134.755 76.4277 136.248 76.9561L136.05 77.2321C135.855 76.9828 135.69 76.711 135.56 76.4225C135.495 76.279 135.438 76.1315 135.391 75.9809C135.335 75.8209 135.301 75.6536 135.292 75.4841C135.29 75.3825 135.313 75.282 135.359 75.1911C135.404 75.1002 135.471 75.0215 135.553 74.9616C135.702 74.8589 135.876 74.798 136.057 74.7849C136.375 74.7658 136.694 74.7881 137.006 74.8512C138.243 75.072 139.321 75.6792 140.388 76.2459C142.494 77.4441 144.524 78.7727 146.464 80.224C144.429 78.9176 142.416 77.5854 140.271 76.4777C139.196 75.9405 138.114 75.3737 136.959 75.1713C136.676 75.1189 136.388 75.1003 136.101 75.1161C135.979 75.1242 135.86 75.1648 135.759 75.2339C135.719 75.2625 135.687 75.3008 135.665 75.3452C135.644 75.3896 135.635 75.4387 135.637 75.4878C135.647 75.6224 135.676 75.755 135.722 75.8816C135.768 76.018 135.821 76.1519 135.88 76.2827C136.001 76.5455 136.153 76.7926 136.333 77.0187L136.701 77.4971L136.123 77.2947C134.684 76.7998 133.144 76.6684 131.641 76.912C130.132 77.1531 128.709 77.7764 127.508 78.7225C126.298 79.6573 125.278 80.8312 124.196 81.9462C123.66 82.5082 123.088 83.0355 122.485 83.5249C121.91 84.0527 121.184 84.3873 120.41 84.4817Z" fill="white"/>
<path d="M145.434 81.7843C144.126 80.963 142.614 80.5233 141.069 80.5147C140.308 80.5223 139.55 80.6249 138.813 80.8202C138.074 81.0218 137.351 81.2827 136.653 81.6003C135.24 82.2039 133.875 82.9546 132.451 83.5765C131.739 83.893 131.025 84.1984 130.309 84.4928C129.573 84.7762 128.863 85.0632 128.13 85.3135C128.833 84.9859 129.54 84.6658 130.235 84.3272C130.931 83.9886 131.637 83.6685 132.329 83.3226L134.405 82.2811C135.097 81.9131 135.792 81.5783 136.506 81.2618C137.938 80.6546 139.483 80.1578 141.077 80.2314C141.863 80.2651 142.641 80.4139 143.384 80.673C144.121 80.9353 144.812 81.3102 145.434 81.7843Z" fill="white"/>
<path d="M146.965 83.0171C148.204 84.7158 148.772 86.813 148.558 88.9051C148.327 91.0205 147.326 92.9771 145.747 94.403L145.61 94.0939C145.71 94.0834 145.811 94.0926 145.907 94.121C146.003 94.1494 146.092 94.1965 146.17 94.2595C146.307 94.3787 146.417 94.5254 146.494 94.6901C146.631 94.997 146.688 95.3339 146.659 95.6689C146.624 96.3046 146.471 96.9283 146.21 97.5089C145.725 98.6681 144.985 99.6654 144.591 100.795C144.198 101.94 144.175 103.18 144.525 104.339C144.853 105.519 145.537 106.568 146.483 107.346C145.474 106.617 144.724 105.586 144.341 104.402C143.948 103.208 143.935 101.922 144.304 100.722C144.702 99.5219 145.445 98.5136 145.894 97.4096C146.13 96.8655 146.267 96.2835 146.299 95.691C146.321 95.4128 146.274 95.1335 146.162 94.8777C146.052 94.6312 145.861 94.4545 145.647 94.4803L145.077 94.5502L145.507 94.1822C147.041 92.8082 148.033 90.9314 148.304 88.8904C148.56 86.8361 148.086 84.7574 146.965 83.0171Z" fill="white"/>
<path d="M140.407 102.904C139.862 101.282 139.529 99.598 139.413 97.8917C139.298 96.1778 139.422 94.4562 139.781 92.7764C140.158 91.0905 140.801 89.4755 141.687 87.9924C142.135 87.2599 142.642 86.5657 143.204 85.9169C143.769 85.2768 144.395 84.6927 145.073 84.1726C144.444 84.7433 143.864 85.3662 143.34 86.0347C142.814 86.6956 142.342 87.3983 141.93 88.136C141.103 89.6047 140.499 91.1885 140.138 92.8353C139.77 94.4929 139.621 96.1917 139.697 97.888C139.763 99.5796 140.001 101.26 140.407 102.904Z" fill="white"/>
</g>
<path d="M138.276 94.9844C138.162 95.749 137.889 96.4811 137.475 97.1334C137.06 97.7857 136.513 98.3437 135.869 98.7712C135.474 99.0519 135.015 99.229 134.533 99.2864C133.448 99.3637 132.465 98.4731 132.134 97.4464C131.803 96.4197 131.994 95.2789 132.325 94.2411C132.748 92.8979 133.565 91.4921 134.934 91.172C137.142 90.6421 138.548 93.104 138.276 94.9844Z" fill="#FF8775"/>
<g style="mix-blend-mode:multiply">
<path d="M133.256 97.9615C133.733 97.8129 134.159 97.5367 134.489 97.163C134.56 97.0924 134.61 97.0031 134.633 96.9053C134.666 96.7177 134.519 96.5374 134.382 96.4159C134.11 96.1436 133.838 95.8713 133.562 95.6026C133.504 95.5517 133.46 95.4872 133.433 95.415C133.416 95.3311 133.424 95.2443 133.455 95.1647C133.768 94.1343 134.132 93.0193 135.023 92.4121C135.259 92.2379 135.54 92.1357 135.832 92.1177C136.047 92.1269 136.257 92.1831 136.448 92.2823C136.639 92.3815 136.805 92.5213 136.936 92.6918C137.197 93.039 137.4 93.4252 137.54 93.8362C137.54 93.8362 137.768 96.0442 136.233 97.3801C134.699 98.7159 133.256 97.9615 133.256 97.9615Z" fill="#FF8775"/>
</g>
<path d="M137.551 93.84C137.375 93.4364 137.135 93.0636 136.841 92.736C136.708 92.5845 136.542 92.4658 136.355 92.3891C136.169 92.3125 135.967 92.2801 135.766 92.2944C135.37 92.3783 135.014 92.5951 134.758 92.9089C134.479 93.2257 134.256 93.5879 134.099 93.9798C133.928 94.3835 133.779 94.7963 133.654 95.2163C133.617 95.3304 133.613 95.3635 133.628 95.3819C133.685 95.4566 133.748 95.5267 133.816 95.5916L134.276 96.0774L134.504 96.324C134.597 96.4132 134.672 96.5194 134.725 96.6368C134.756 96.7061 134.771 96.7818 134.768 96.8579C134.764 96.934 134.743 97.0082 134.706 97.0747C134.637 97.1771 134.554 97.2699 134.46 97.3507C134.12 97.659 133.705 97.8711 133.256 97.9652C133.662 97.7979 134.023 97.5369 134.309 97.2035C134.378 97.1304 134.437 97.0488 134.485 96.9606C134.504 96.9293 134.513 96.8937 134.513 96.8576C134.513 96.8214 134.504 96.7859 134.485 96.7545C134.359 96.5924 134.215 96.4454 134.055 96.3166L133.565 95.8603C133.469 95.7765 133.381 95.6828 133.304 95.5806C133.248 95.502 133.218 95.4084 133.216 95.312C133.224 95.2432 133.239 95.1754 133.26 95.1096C133.377 94.6708 133.523 94.2405 133.698 93.8216C133.878 93.3854 134.134 92.9853 134.456 92.6403C134.786 92.2716 135.238 92.0339 135.729 91.9705C135.975 91.9683 136.218 92.0249 136.438 92.1357C136.657 92.2464 136.847 92.4081 136.992 92.6072C137.253 92.98 137.442 93.398 137.551 93.84Z" fill="#0A2A6B"/>
</g>
<defs>
<clipPath id="clip0_1120_3576">
<rect width="184" height="184" fill="white"/>
</clipPath>
</defs>
</svg>
