<svg width="186" height="122" viewBox="0 0 186 122" fill="none" xmlns="http://www.w3.org/2000/svg">
<path d="M182.769 28.7662L179.861 42.8685L177.988 41.0401L174.804 43.3159L172.37 40.2885L166.911 44.2622L162.246 36.4517L157.043 39.5032L154.979 36.6551L148.367 40.3802L146.379 36.1178L151.011 13.6631L175.843 18.7956L182.769 28.7662Z" fill="#EBEBEB"/>
<path d="M175.845 18.7939L182.769 28.7645L174.155 26.9853L175.845 18.7939Z" fill="#DBDBDB"/>
<path d="M179.24 45.684L174.976 66.371L141.527 59.4605L145.762 38.9385L147.75 43.198L154.361 39.4706L156.421 42.3187L161.628 39.2701L166.29 47.0806L171.752 43.1069L174.184 46.1314L177.372 43.859L179.24 45.684Z" fill="#EBEBEB"/>
<path d="M131.367 43.2591L97.2781 45.3705L94.5714 1.57011L119.881 0L129.173 7.80415L131.367 43.2591Z" fill="#EBEBEB"/>
<path d="M119.884 0L129.175 7.80415L120.397 8.34891L119.884 0Z" fill="#DBDBDB"/>
<path d="M110.446 29.473L110.312 28.4844C109.969 26.4365 110.528 24.1458 112.306 21.7514C113.908 19.6216 114.78 18.1002 114.683 16.372C114.574 14.4244 113.282 13.1957 110.878 13.2931C109.504 13.3644 108.184 13.8525 107.093 14.6925L106.045 12.3405C107.619 11.2244 109.483 10.5902 111.41 10.5149C115.795 10.2714 117.929 12.8698 118.096 15.7694C118.242 18.3649 116.899 20.3147 115.191 22.594C113.622 24.6722 113.109 26.385 113.33 28.3222L113.425 29.3144L110.446 29.473ZM109.905 34.8616C109.867 34.5515 109.894 34.2368 109.984 33.9376C110.073 33.6383 110.224 33.3609 110.426 33.123C110.629 32.885 110.878 32.6917 111.159 32.5553C111.44 32.4188 111.746 32.3422 112.058 32.3303C112.531 32.2867 113.006 32.3854 113.423 32.6138C113.84 32.8421 114.179 33.1898 114.398 33.6124C114.616 34.0349 114.703 34.513 114.649 34.9855C114.594 35.458 114.4 35.9035 114.091 36.2649C113.782 36.6263 113.372 36.8872 112.914 37.0142C112.456 37.1412 111.971 37.1286 111.52 36.9779C111.069 36.8272 110.674 36.5453 110.384 36.1683C110.094 35.7913 109.923 35.3363 109.893 34.8616H109.905Z" fill="#DBDBDB"/>
<path d="M25.1846 22.0214L21.7564 20.4668L21.2791 21.5162C21.2087 21.6663 21.0988 21.7943 20.9612 21.8866C20.8236 21.9788 20.6635 22.0318 20.498 22.0398C20.3095 22.0468 20.1216 22.0659 19.9355 22.0971C19.7722 22.1214 19.6053 22.1008 19.4527 22.0375C19.3001 21.9743 19.1675 21.8707 19.0692 21.7379L18.3974 20.7979L15.3365 22.9947L16.0083 23.9347C16.1018 24.0704 16.1568 24.2289 16.1674 24.3934C16.1781 24.5579 16.1441 24.7223 16.0689 24.8689C15.9822 25.0367 15.9041 25.2088 15.8349 25.3845C15.7745 25.5385 15.6733 25.6732 15.5423 25.7741C15.4112 25.875 15.2552 25.9383 15.091 25.9573L13.9465 26.0719L14.3145 29.8233L15.4664 29.7087C15.6316 29.6955 15.7972 29.7276 15.9455 29.8016C16.0938 29.8756 16.2192 29.9887 16.3081 30.1286C16.3568 30.2077 16.4083 30.2839 16.4632 30.3577C16.5182 30.4316 16.5725 30.5067 16.6303 30.58C16.7352 30.7078 16.8026 30.8621 16.8251 31.0259C16.8476 31.1897 16.8244 31.3566 16.7579 31.508L16.2778 32.5666L19.7112 34.1241L20.1885 33.0683C20.2596 32.9185 20.3701 32.7909 20.5083 32.6993C20.6464 32.6076 20.8069 32.5554 20.9724 32.5482C21.1588 32.5397 21.3445 32.5206 21.5286 32.4909C21.692 32.4666 21.8589 32.4872 22.0115 32.5505C22.1641 32.6137 22.2966 32.7173 22.395 32.8501L23.0668 33.7901L26.1305 31.5933L25.4587 30.6533C25.3624 30.5188 25.3057 30.36 25.295 30.1949C25.2843 30.0297 25.32 29.8649 25.3981 29.719C25.4831 29.5528 25.5595 29.3822 25.627 29.2081C25.6857 29.053 25.7864 28.9172 25.9178 28.8161C26.0491 28.7149 26.206 28.6523 26.3709 28.6353L27.5228 28.5207L27.152 24.7693L26.0001 24.8838C25.8359 24.8983 25.6709 24.8669 25.5233 24.7933C25.3758 24.7198 25.2514 24.6068 25.164 24.4668C25.1125 24.3878 25.0605 24.3116 25.0061 24.2377C24.9517 24.1638 24.8968 24.0853 24.839 24.0154C24.7348 23.8861 24.6678 23.7307 24.6453 23.5661C24.6228 23.4014 24.6457 23.2338 24.7114 23.0812L25.1846 22.0214ZM23.239 25.4928C23.5944 25.9893 23.7948 26.5801 23.8147 27.1906C23.8346 27.8011 23.6732 28.4037 23.351 28.9224C23.0287 29.4411 22.56 29.8524 22.0042 30.1044C21.4484 30.3564 20.8304 30.4378 20.2284 30.3382C19.6264 30.2386 19.0674 29.9625 18.6221 29.5449C18.1769 29.1273 17.8653 28.5868 17.7269 27.992C17.5885 27.3971 17.6294 26.7745 17.8445 26.2029C18.0596 25.6313 18.4392 25.1364 18.9353 24.7807C19.6003 24.304 20.4274 24.1111 21.2344 24.2446C22.0415 24.3782 22.7626 24.8271 23.239 25.4928Z" fill="#EBEBEB"/>
<path d="M180.164 71.7979L177.878 73.1182L178.282 73.8182C178.343 73.9186 178.373 74.0344 178.369 74.1516C178.365 74.2687 178.328 74.3823 178.261 74.4787C178.191 74.5881 178.124 74.7009 178.064 74.8195C178.014 74.9244 177.935 75.0128 177.836 75.0742C177.738 75.1356 177.624 75.1675 177.507 75.1661H176.705V77.8102H177.514C177.63 77.8088 177.744 77.8408 177.843 77.9023C177.941 77.9638 178.02 78.0523 178.07 78.1573C178.131 78.2759 178.198 78.3865 178.267 78.4982C178.334 78.5945 178.372 78.7081 178.375 78.8253C178.379 78.9424 178.349 79.0582 178.289 79.1586L177.885 79.8586L180.17 81.179L180.578 80.4761C180.637 80.3765 180.722 80.2953 180.824 80.2416C180.927 80.1879 181.042 80.1638 181.158 80.172H181.547C181.662 80.164 181.778 80.1882 181.88 80.2419C181.983 80.2956 182.068 80.3766 182.128 80.4761L182.535 81.1819L184.818 79.8615L184.414 79.1586C184.356 79.0577 184.328 78.9428 184.332 78.8267C184.337 78.7106 184.373 78.598 184.438 78.5016C184.508 78.3922 184.575 78.2765 184.635 78.1608C184.685 78.0559 184.764 77.9675 184.863 77.906C184.961 77.8446 185.075 77.8128 185.191 77.8142H186V75.1718H185.185C185.069 75.1732 184.955 75.1412 184.856 75.0797C184.758 75.0182 184.679 74.9297 184.629 74.8246C184.568 74.7101 184.501 74.5955 184.431 74.4838C184.367 74.3874 184.33 74.2748 184.326 74.1587C184.322 74.0427 184.35 73.9277 184.407 73.8268L184.811 73.1239L182.529 71.8036L182.121 72.4973C182.062 72.5969 181.977 72.6781 181.874 72.7318C181.772 72.7855 181.657 72.8097 181.541 72.8014H181.152C181.036 72.8096 180.92 72.7855 180.817 72.7318C180.714 72.6781 180.628 72.5969 180.568 72.4973L180.164 71.7979ZM181.346 74.3234C181.346 74.5611 181.251 74.7888 181.083 74.9567C180.915 75.1245 180.687 75.2187 180.45 75.2185C180.212 75.2183 179.985 75.1238 179.817 74.9557C179.649 74.7876 179.555 74.5596 179.555 74.322C179.555 74.0844 179.649 73.8565 179.817 73.6884C179.985 73.5203 180.212 73.4257 180.45 73.4255C180.687 73.4254 180.915 73.5195 181.083 73.6873C181.251 73.8552 181.346 74.0829 181.346 74.3206V74.3234Z" fill="#EBEBEB"/>
<path d="M32.1201 10.7795L30.0257 12.3834L30.5093 13.0256C30.5814 13.117 30.6258 13.2273 30.6372 13.3432C30.6485 13.4592 30.6264 13.576 30.5733 13.6797C30.5151 13.7981 30.4643 13.9199 30.4211 14.0446C30.3837 14.1545 30.3163 14.2518 30.2267 14.3255C30.137 14.3991 30.0286 14.4463 29.9136 14.4616L29.1124 14.5653L29.4529 17.1848L30.254 17.0811C30.3708 17.0649 30.4898 17.0819 30.5973 17.1304C30.7048 17.1788 30.7965 17.2567 30.8617 17.355C30.9349 17.4608 31.014 17.5623 31.0987 17.6591C31.1769 17.7453 31.2288 17.8522 31.2482 17.967C31.2676 18.0819 31.2536 18.1999 31.2079 18.307L30.9041 19.0557L33.3355 20.069L33.6394 19.3203C33.6846 19.213 33.759 19.1204 33.854 19.0532C33.9491 18.986 34.0611 18.9467 34.1773 18.94L34.3718 18.9188L34.5635 18.8884C34.6761 18.8673 34.7922 18.8775 34.8994 18.9179C35.0065 18.9583 35.1006 19.0274 35.1712 19.1175L35.6668 19.7654L37.7612 18.1615L37.2719 17.5194C37.2012 17.4267 37.1578 17.3161 37.1464 17.2C37.1351 17.0839 37.1564 16.967 37.2078 16.8623C37.2655 16.7447 37.3163 16.6238 37.36 16.5003C37.3975 16.3904 37.4648 16.2931 37.5545 16.2194C37.6442 16.1458 37.7526 16.0986 37.8676 16.0833L38.6687 15.9796L38.3283 13.3601L37.5271 13.4638C37.4106 13.4803 37.2918 13.4637 37.1843 13.4158C37.0768 13.3679 36.985 13.2906 36.9194 13.1928C36.8467 13.0858 36.7663 12.9842 36.6791 12.8886C36.6083 12.8006 36.5626 12.6951 36.5466 12.5832C36.5306 12.4713 36.5449 12.3572 36.5881 12.2528L36.8937 11.5036L34.4622 10.4902L34.1584 11.2389C34.1126 11.3458 34.038 11.438 33.9431 11.5051C33.8481 11.5723 33.7365 11.6118 33.6205 11.6193L33.4259 11.6376L33.2468 11.6439C33.1343 11.665 33.0181 11.6548 32.911 11.6144C32.8038 11.574 32.7098 11.5049 32.6391 11.4148L32.1201 10.7795ZM33.6188 13.1315C34.1143 13.0678 34.6166 13.1779 35.0402 13.4432C35.4638 13.7084 35.7824 14.1124 35.9419 14.5864C36.1014 15.0604 36.0919 15.5751 35.9149 16.0428C35.738 16.5106 35.4046 16.9025 34.9715 17.1518C34.5384 17.4012 34.0324 17.4926 33.5395 17.4105C33.0467 17.3284 32.5975 17.0779 32.2684 16.7016C31.9393 16.3252 31.7506 15.8464 31.7346 15.3465C31.7185 14.8466 31.876 14.3566 32.1802 13.9598C32.3535 13.7336 32.5699 13.5438 32.8168 13.4016C33.0637 13.2593 33.3362 13.1674 33.6188 13.131V13.1315Z" fill="#EBEBEB"/>
<path d="M16.4735 79.4251C16.5877 76.4845 16.5472 73.5399 16.3522 70.6036C15.9173 64.5389 14.9934 58.5194 13.5894 52.6038C12.8175 49.2751 11.8693 46.0014 10.8782 42.7306C10.8479 42.6303 10.6899 42.6578 10.7168 42.7609C13.7777 54.2924 16.2881 66.1894 16.1147 78.1763C16.0661 81.5233 15.6769 84.8245 15.3611 88.1589C15.3611 88.2471 15.4978 88.2838 15.519 88.1922C16.0917 85.3032 16.4111 82.3697 16.4735 79.4251Z" fill="#EBEBEB"/>
<path d="M10.7167 42.751C10.7167 42.751 6.08451 54.5254 7.12139 57.2824C8.15828 60.0394 10.2979 60.6294 10.2979 60.6294C10.2979 60.6294 7.46187 64.6821 9.44352 68.4822C11.4252 72.2823 15.8262 72.1025 16.1301 76.4101C16.1209 76.4319 16.3641 58.4171 10.7167 42.751Z" fill="#EBEBEB"/>
<path d="M15.6162 68.9923C15.6237 68.9727 15.6237 68.9511 15.6162 68.9315C15.0083 60.8928 13.5016 52.9477 11.1242 45.2453C11.1242 45.2241 11.0784 45.2298 11.0847 45.2453C12.0026 48.6937 12.813 52.156 13.5161 55.6323C12.8933 55.0418 12.1325 54.6172 11.3033 54.3973C11.3033 54.3973 11.2787 54.4156 11.3033 54.4213C12.1743 54.7409 12.9575 55.2623 13.5888 55.9428C13.7227 56.6301 13.856 57.3089 13.9808 57.9935C12.9445 56.8341 11.5099 56.259 10.0718 55.7113C10.0687 55.7128 10.066 55.7152 10.0641 55.7181C10.0623 55.721 10.0613 55.7245 10.0613 55.7279C10.0613 55.7314 10.0623 55.7349 10.0641 55.7378C10.066 55.7407 10.0687 55.7431 10.0718 55.7446C11.6176 56.2764 12.9982 57.2024 14.0775 58.4311C14.43 60.3844 14.7399 62.3448 15.0074 64.3123C14.259 63.5275 13.2993 62.977 12.2446 62.7273C12.2114 62.7273 12.1931 62.7668 12.2263 62.776C13.3097 63.0954 14.277 63.7233 15.0102 64.5832H15.0285C15.1197 65.2729 15.2069 65.9656 15.2901 66.6614C14.7112 66.171 14.0577 65.7765 13.3542 65.4929C13.3359 65.4929 13.3239 65.5141 13.3542 65.5204C14.0721 65.8317 14.7296 66.2675 15.2963 66.8075H15.3204C15.3965 67.468 15.4726 68.1279 15.539 68.7883C14.4952 67.5253 13.1407 66.5563 11.6089 65.9769C11.6024 65.9769 11.5962 65.9795 11.5917 65.984C11.5871 65.9886 11.5845 65.9948 11.5845 66.0013C11.5845 66.0077 11.5871 66.0139 11.5917 66.0185C11.5962 66.023 11.6024 66.0256 11.6089 66.0256C13.1215 66.693 14.4501 67.7172 15.4812 69.0106C15.4925 69.0248 15.5078 69.0353 15.5252 69.0407C15.5425 69.0461 15.5611 69.0462 15.5785 69.0409C15.6786 70.0543 15.7702 71.067 15.8428 72.0838C15.8428 72.087 15.8441 72.09 15.8464 72.0923C15.8486 72.0945 15.8517 72.0958 15.8548 72.0958C15.858 72.0958 15.8611 72.0945 15.8633 72.0923C15.8656 72.09 15.8669 72.087 15.8669 72.0838C15.7871 71.0634 15.7036 70.0329 15.6162 68.9923Z" fill="white"/>
<path d="M11.8933 53.2383C11.0545 52.7157 10.0962 52.4162 9.10937 52.3682C9.10452 52.3682 9.09986 52.3701 9.09643 52.3735C9.093 52.377 9.09106 52.3816 9.09106 52.3865C9.09106 52.3914 9.093 52.396 9.09643 52.3995C9.09986 52.4029 9.10452 52.4048 9.10937 52.4048C10.0635 52.5859 10.9894 52.8927 11.863 53.3173C11.8996 53.3265 11.9271 53.2629 11.8933 53.2383Z" fill="white"/>
<path d="M12.4552 65.7032C11.8105 65.3328 11.1006 65.0901 10.3643 64.9883C10.3403 64.9883 10.3368 65.0215 10.3643 65.0278C11.0834 65.1722 11.7791 65.4158 12.4312 65.7519C12.4587 65.7673 12.4827 65.7158 12.4552 65.7032Z" fill="white"/>
<path d="M28.6551 57.4867C26.6956 58.8426 24.8958 60.4164 23.2905 62.1781C21.635 64.0435 20.358 66.2136 19.5309 68.5674C17.7698 73.4714 16.8227 78.6309 16.7269 83.8412C16.6678 86.7265 16.9442 89.6088 17.5504 92.4301C17.5547 92.4511 17.5672 92.4696 17.585 92.4816C17.6028 92.4935 17.6246 92.498 17.6457 92.494C17.6668 92.49 17.6854 92.4779 17.6977 92.4603C17.7099 92.4427 17.7148 92.4209 17.7112 92.3998C16.9568 87.421 16.9855 82.3547 17.7964 77.3849C18.593 72.5159 19.8422 67.2167 22.9362 63.2585C24.6203 61.1012 26.7204 59.4068 28.7965 57.654C28.9075 57.5566 28.7679 57.4088 28.6551 57.4867Z" fill="#EBEBEB"/>
<path d="M17.4097 80.3291C18.5252 78.5231 19.836 76.8457 21.3186 75.3272C23.6379 73.0055 25.5892 71.3569 25.893 69.8235C26.1969 68.29 23.5709 67.1581 23.5709 67.1581C23.5709 67.1581 26.7754 67.7361 27.6561 66.3883C28.5368 65.0404 28.9568 57.2334 28.9568 57.2334C28.9568 57.2334 23.12 61.4047 20.4007 67.2527C17.6815 73.1006 17.4097 80.3291 17.4097 80.3291Z" fill="#EBEBEB"/>
<path d="M26.9385 59.2358C24.4825 61.6485 22.0116 64.2228 20.5558 67.3957C20.0612 68.4906 19.63 69.6131 19.2643 70.7576C19.1916 70.9867 19.1155 71.2199 19.0457 71.4513C19.0417 71.4632 19.0417 71.476 19.0457 71.4879C18.359 73.8599 17.805 76.2683 17.3862 78.7021C17.3862 78.7175 17.4074 78.7233 17.4103 78.7021C17.6626 77.4848 17.939 76.2681 18.2492 75.0297C18.2612 75.0325 18.2737 75.0325 18.2858 75.0297C18.7698 74.8238 19.2823 74.6924 19.8056 74.6402C19.8388 74.6402 19.836 74.576 19.8056 74.5795C19.2888 74.6023 18.7775 74.6954 18.2858 74.8561C18.5685 73.7517 18.8752 72.6473 19.222 71.5613C20.3563 71.2859 21.517 71.1339 22.684 71.1082V71.0898C21.5416 71.0358 20.3971 71.1321 19.2798 71.3762C19.3404 71.1906 19.4045 71.005 19.4652 70.8194C20.2238 70.6387 20.9933 70.5077 21.769 70.4271V70.403C21.0099 70.4178 20.2544 70.5096 19.5138 70.6768C19.8177 69.7368 20.1736 68.8088 20.5535 67.9084C20.8699 67.1729 21.2386 66.4612 21.6568 65.7786C22.2716 65.6243 22.8962 65.5126 23.5263 65.4441V65.4137C22.9382 65.3687 22.3468 65.4269 21.7787 65.5855C22.0826 65.0895 22.4082 64.6026 22.7515 64.1311C24.0419 63.759 25.3949 63.6555 26.7268 63.827C26.7308 63.8254 26.7342 63.8227 26.7366 63.8192C26.739 63.8157 26.7403 63.8115 26.7403 63.8072C26.7403 63.8029 26.739 63.7988 26.7366 63.7952C26.7342 63.7917 26.7308 63.789 26.7268 63.7875C25.4671 63.529 24.1648 63.5655 22.9214 63.894C23.0582 63.7113 23.2013 63.5291 23.3438 63.3492C24.1316 63.1049 24.9504 62.9747 25.7752 62.9626V62.9351C25.0092 62.8656 24.2369 62.9347 23.4954 63.139C24.5775 61.794 25.7717 60.5287 26.954 59.2782C27.0387 59.2112 26.9963 59.1779 26.9385 59.2358Z" fill="white"/>
<path d="M26.8623 64.5568C26.4781 64.4995 26.0885 64.4863 25.7013 64.5173C25.6555 64.5173 25.6589 64.5963 25.7013 64.5992C26.0841 64.5992 26.4704 64.5808 26.8532 64.5992C26.8574 64.5979 26.8613 64.5956 26.8643 64.5923C26.8674 64.5891 26.8695 64.5851 26.8704 64.5807C26.8713 64.5764 26.8711 64.5719 26.8697 64.5676C26.8682 64.5634 26.8657 64.5597 26.8623 64.5568Z" fill="white"/>
<path d="M22.6708 72.1289C22.0546 72.1415 21.4456 72.2631 20.8717 72.4881V72.5156C21.4794 72.3724 22.066 72.3145 22.6679 72.2114C22.6757 72.2079 22.6823 72.2022 22.687 72.1952C22.6917 72.1881 22.6944 72.1798 22.6947 72.1713C22.695 72.1628 22.6929 72.1544 22.6887 72.147C22.6845 72.1396 22.6783 72.1336 22.6708 72.1295V72.1289Z" fill="white"/>
<path d="M21.413 69.5138C21.1572 69.5118 20.9018 69.5342 20.6502 69.5808C20.6456 69.5826 20.6417 69.5858 20.6389 69.5899C20.6361 69.5939 20.6346 69.5988 20.6346 69.6037C20.6346 69.6087 20.6361 69.6135 20.6389 69.6176C20.6417 69.6217 20.6456 69.6248 20.6502 69.6266C20.905 69.6415 21.1605 69.6303 21.413 69.5934C21.4235 69.5934 21.4335 69.5892 21.4409 69.5818C21.4483 69.5744 21.4525 69.5644 21.4525 69.5539C21.4525 69.5434 21.4483 69.5334 21.4409 69.5259C21.4335 69.5185 21.4235 69.5144 21.413 69.5144V69.5138Z" fill="white"/>
<path d="M0.300966 65.7683C2.20035 66.4128 4.02046 67.2713 5.72631 68.3271C7.49667 69.4529 9.03193 70.9119 10.247 72.6232C12.8029 76.1846 14.7598 80.1404 16.0403 84.3341C16.7544 86.656 17.1952 89.0535 17.3535 91.4778C17.3503 91.4935 17.3417 91.5077 17.3293 91.5178C17.3168 91.528 17.3012 91.5336 17.2851 91.5336C17.2691 91.5336 17.2535 91.528 17.241 91.5178C17.2286 91.5077 17.22 91.4935 17.2168 91.4778C16.6802 87.2742 15.4885 83.1809 13.6849 79.3471C11.911 75.5893 9.6793 71.5916 6.2625 69.1027C4.36595 67.8362 2.34289 66.7707 0.226001 65.9235C0.11556 65.8868 0.191097 65.7316 0.300966 65.7683Z" fill="#EBEBEB"/>
<path d="M14.6772 81.6531C13.3566 80.4504 11.9082 79.3964 10.358 78.51C7.94485 77.1685 5.98438 76.2857 5.38525 75.1143C4.78612 73.9429 6.64989 72.422 6.64989 72.422C6.64989 72.422 4.18928 73.6393 3.1667 72.7417C2.14412 71.8441 -0.000610352 65.6387 -0.000610352 65.6387C-0.000610352 65.6387 5.68624 67.6619 9.23295 71.7679C12.7797 75.8739 14.6772 81.6531 14.6772 81.6531Z" fill="#EBEBEB"/>
<path d="M14.3796 80.3722C11.5374 75.0295 7.74116 70.1949 2.547 67.0186C3.90444 67.893 5.1783 68.8911 6.35235 70.0001C5.29434 69.943 4.23993 70.1655 3.29491 70.6451C3.29175 70.6466 3.28908 70.6489 3.2872 70.6519C3.28533 70.6548 3.28434 70.6582 3.28434 70.6617C3.28434 70.6652 3.28533 70.6686 3.2872 70.6716C3.28908 70.6745 3.29175 70.6769 3.29491 70.6783C4.30011 70.3002 5.36869 70.1195 6.44219 70.1462C6.45422 70.1492 6.46679 70.1492 6.47882 70.1462C6.66422 70.318 6.84333 70.499 7.02587 70.6783C6.47553 70.703 5.92835 70.7753 5.39043 70.8943V70.9183C5.95831 70.81 6.53604 70.762 7.114 70.7751C8.0657 71.7373 8.96175 72.753 9.79777 73.8174C9.41484 73.762 9.02446 73.7899 8.6533 73.8993C8.64769 73.8993 8.6423 73.9015 8.63833 73.9055C8.63436 73.9095 8.63213 73.9149 8.63213 73.9205C8.63213 73.9261 8.63436 73.9315 8.63833 73.9355C8.6423 73.9395 8.64769 73.9417 8.6533 73.9417C9.05709 73.8957 9.46447 73.8905 9.8693 73.9262C10.0244 74.1239 10.1732 74.3215 10.3345 74.5346C9.17406 74.4612 8.00935 74.5741 6.88453 74.8691C6.86622 74.8691 6.88453 74.8995 6.88453 74.8966C8.0561 74.6518 9.25438 74.5598 10.4495 74.6228C10.5955 74.8147 10.7322 75.0123 10.8753 75.2071C10.1826 75.1903 9.49104 75.2701 8.82039 75.4442C8.81641 75.4458 8.81299 75.4485 8.81058 75.452C8.80817 75.4555 8.80687 75.4597 8.80687 75.464C8.80687 75.4683 8.80817 75.4724 8.81058 75.476C8.81299 75.4795 8.81641 75.4822 8.82039 75.4838C9.51894 75.3333 10.2346 75.2779 10.948 75.3193C11.5557 76.162 12.1456 77.0264 12.7076 77.897C12.4035 77.843 12.0909 77.8626 11.796 77.9543V77.9784C12.1211 77.9552 12.4477 77.9715 12.7688 78.0271C13.2754 78.8141 13.7637 79.6104 14.2337 80.4158C14.3093 80.4942 14.4191 80.4421 14.3796 80.3722Z" fill="white"/>
<path d="M9.95689 75.9373C9.39786 75.8983 8.83657 75.9676 8.30371 76.1412V76.1653C8.84749 76.0715 9.3969 76.0141 9.94831 75.9935C9.98779 75.9946 9.99752 75.9425 9.95689 75.9373Z" fill="white"/>
<path d="M4.99729 69.4283C4.74228 69.4074 4.48562 69.4216 4.2345 69.4707C4.20703 69.4707 4.21619 69.5193 4.2345 69.5165C4.48685 69.489 4.73291 69.4982 4.98241 69.4924C4.99048 69.4934 4.99863 69.4914 5.00531 69.4867C5.01199 69.4821 5.01673 69.4751 5.01863 69.4672C5.02054 69.4593 5.01948 69.451 5.01565 69.4438C5.01182 69.4366 5.00549 69.4311 4.99786 69.4283H4.99729Z" fill="white"/>
<path d="M22.011 99.3255H9.17578L11.0069 85.9048L11.475 82.4639H19.7152L20.1833 85.9048L22.011 99.3255Z" fill="#DBDBDB"/>
<path d="M20.1815 85.9029H11.0057L11.4738 82.4619H19.714L20.1815 85.9029Z" fill="#C7C7C7"/>
<path d="M20.8899 81.2695H10.2944V84.1841H20.8899V81.2695Z" fill="#DBDBDB"/>
<path d="M1.01514 99.3247L24.1179 99.2519L47.2207 99.2244L93.4257 99.1729L139.631 99.2244L162.734 99.2519L185.836 99.3247L162.734 99.4008L139.631 99.4249L93.4257 99.4764L47.2207 99.4249L24.1179 99.3974L1.01514 99.3247Z" fill="#263238"/>
<path d="M94.0335 122.001C142.166 122.001 181.186 117.72 181.186 112.441C181.186 107.161 142.166 102.881 94.0335 102.881C45.9005 102.881 6.8811 107.161 6.8811 112.441C6.8811 117.72 45.9005 122.001 94.0335 122.001Z" fill="#888888"/>
<path d="M73.7461 110.858C73.0376 111.099 52.7313 111.163 51.9537 110.682C51.6498 110.499 51.4764 107.539 51.346 103.955C51.3185 103.182 51.2973 102.382 51.279 101.572L49.6584 90.7288L63.2353 90.6406L64.5148 101.487L64.4633 103.872C64.4633 103.872 72.2502 107.326 73.0468 107.952C73.8433 108.579 74.4539 110.618 73.7461 110.858Z" fill="#EB9481"/>
<path d="M73.7455 110.858C73.0371 111.099 52.7308 111.162 51.9532 110.682C51.5944 110.456 51.3998 106.133 51.2905 101.574L64.5 101.488L64.4485 103.874C64.4485 103.874 72.2354 107.327 73.032 107.954C73.8285 108.58 74.454 110.618 73.7455 110.858Z" fill="white"/>
<path d="M73.7479 110.858C73.0394 111.098 52.7332 111.162 51.9555 110.681C51.6516 110.498 51.4782 107.538 51.3478 103.954L64.4388 103.872C64.4388 103.872 72.2257 107.326 73.0223 107.952C73.8188 108.579 74.4534 110.618 73.7479 110.858Z" fill="#A6A6A6"/>
<path d="M73.4508 110.046C70.0466 109.972 56.3084 110.006 52.938 110.195C52.9105 110.195 52.9105 110.213 52.938 110.216C56.3141 110.359 70.0477 110.216 73.4508 110.101C73.5235 110.097 73.5235 110.046 73.4508 110.046Z" fill="#263238"/>
<path d="M71.7215 107.225C71.343 107.217 70.9668 107.287 70.6169 107.432C70.2669 107.576 69.9507 107.792 69.6883 108.065C69.2101 108.553 68.9399 109.207 68.9347 109.891C68.9347 109.912 68.9713 109.912 68.9742 109.891C69.0872 109.218 69.4146 108.599 69.9076 108.127C70.4005 107.656 71.0326 107.356 71.7095 107.274C71.7128 107.275 71.7163 107.276 71.7198 107.275C71.7233 107.275 71.7267 107.274 71.7298 107.272C71.7329 107.271 71.7357 107.268 71.7378 107.266C71.74 107.263 71.7415 107.26 71.7424 107.256C71.7432 107.253 71.7433 107.249 71.7427 107.246C71.7421 107.242 71.7408 107.239 71.7388 107.236C71.7368 107.233 71.7343 107.231 71.7313 107.229C71.7283 107.227 71.725 107.226 71.7215 107.225Z" fill="#263238"/>
<path d="M65.7669 104.206C64.405 104.191 62.8279 104.678 61.9827 105.798C61.9524 105.84 62.013 105.886 62.0525 105.865C63.2422 105.237 64.4954 104.737 65.7909 104.375C65.8106 104.37 65.8276 104.357 65.8387 104.34C65.8498 104.322 65.8543 104.301 65.8513 104.281C65.8483 104.261 65.8381 104.242 65.8224 104.229C65.8068 104.215 65.7869 104.208 65.7663 104.208L65.7669 104.206Z" fill="#263238"/>
<path d="M66.825 104.611C65.4602 104.611 63.8826 105.086 63.0408 106.203C63.0076 106.248 63.0683 106.294 63.1106 106.273C64.2986 105.642 65.551 105.141 66.8462 104.779C66.8657 104.773 66.8825 104.76 66.8936 104.743C66.9048 104.726 66.9095 104.706 66.9069 104.686C66.9044 104.666 66.8947 104.647 66.8797 104.633C66.8647 104.62 66.8453 104.612 66.825 104.611Z" fill="#263238"/>
<path d="M67.8761 105.02C66.5142 105.02 64.9371 105.491 64.0919 106.611C64.0616 106.653 64.1223 106.699 64.1618 106.678C65.3515 106.05 66.6047 105.551 67.9002 105.189C67.9199 105.183 67.9368 105.17 67.9479 105.153C67.959 105.135 67.9635 105.115 67.9606 105.094C67.9577 105.074 67.9475 105.056 67.932 105.042C67.9165 105.029 67.8967 105.021 67.8761 105.021V105.02Z" fill="#263238"/>
<path d="M68.9308 105.427C67.566 105.412 65.9884 105.899 65.1466 107.018C65.1134 107.061 65.1769 107.107 65.2164 107.085C66.4059 106.457 67.6592 105.958 68.9548 105.596C68.9745 105.59 68.9915 105.578 69.0026 105.56C69.0137 105.543 69.0182 105.522 69.0153 105.502C69.0123 105.482 69.0022 105.463 68.9867 105.45C68.9712 105.436 68.9513 105.429 68.9308 105.429V105.427Z" fill="#263238"/>
<path d="M53.7952 106.954C52.2753 106.954 52.2753 109.343 53.7952 109.334C55.315 109.324 55.327 106.945 53.7952 106.954Z" fill="#263238"/>
<path d="M67.2295 100.562C66.5394 99.9893 65.6702 100.562 65.2479 101.149C64.5443 102.188 64.125 103.392 64.0319 104.643C64.0318 104.649 64.0328 104.654 64.0349 104.659C64.0371 104.664 64.0402 104.669 64.0442 104.673C64.0482 104.676 64.0529 104.679 64.0581 104.681C64.0633 104.683 64.0688 104.683 64.0742 104.683C64.0796 104.709 64.0911 104.733 64.1077 104.753C64.1244 104.773 64.1456 104.79 64.1697 104.8C64.1938 104.81 64.2201 104.815 64.2463 104.813C64.2725 104.811 64.2978 104.803 64.3203 104.79C65.2868 104.117 66.4055 103.515 67.1379 102.562C67.5545 102.007 67.895 101.095 67.2295 100.562ZM65.57 103.465C65.1019 103.808 64.6184 104.128 64.1629 104.49C64.4061 103.808 64.6155 103.121 64.9257 102.464C65.0689 102.149 65.2333 101.844 65.4178 101.551C65.7217 101.098 67.047 99.9538 67.1866 101.437C67.2656 102.248 66.1262 103.057 65.57 103.465V103.465Z" fill="#263238"/>
<path d="M60.6396 105.159C61.8247 105.336 63.0499 104.995 64.2138 104.809C64.2391 104.803 64.2625 104.79 64.2821 104.773C64.3018 104.756 64.3171 104.734 64.3268 104.71C64.3366 104.685 64.3405 104.659 64.3382 104.633C64.336 104.607 64.3277 104.582 64.3139 104.56C64.3182 104.556 64.3217 104.552 64.3241 104.547C64.3265 104.542 64.3277 104.536 64.3277 104.531C64.3277 104.525 64.3265 104.52 64.3241 104.515C64.3217 104.51 64.3182 104.506 64.3139 104.502C63.3786 103.667 62.2403 103.093 61.0133 102.838C60.2957 102.701 59.2806 102.899 59.1896 103.791C59.0803 104.631 59.9466 105.05 60.6396 105.159ZM59.8127 104.387C58.9012 103.218 60.6425 103.118 61.1655 103.241C61.5046 103.326 61.8377 103.434 62.1623 103.563C62.8262 103.839 63.4756 104.149 64.1079 104.491C63.5305 104.549 62.9635 104.653 62.3878 104.732C61.7034 104.821 60.3237 105.029 59.8127 104.387Z" fill="#263238"/>
<path d="M29.6956 40.6084C29.6956 40.6084 45.4612 67.4561 45.8835 69.3424C46.5307 72.2392 49.9624 100.842 49.9624 100.842L66.3752 100.538C66.3752 100.538 63.5483 75.3181 60.8708 67.0087C58.9441 61.0238 45.0297 41.1744 45.0297 41.1744L29.6956 40.6084Z" fill="#37474F"/>
<path d="M64.8828 98.0306C62.5275 98.0123 54.178 97.9161 51.041 98.2099C51.017 98.2099 51.0198 98.2523 51.041 98.2558C52.1203 98.411 62.524 98.1704 64.8793 98.0948C64.8842 98.0963 64.8893 98.0967 64.8944 98.0959C64.8994 98.0952 64.9042 98.0932 64.9083 98.0903C64.9125 98.0874 64.9159 98.0835 64.9184 98.0791C64.9208 98.0746 64.9222 98.0697 64.9224 98.0646C64.9227 98.0595 64.9217 98.0544 64.9197 98.0498C64.9176 98.0451 64.9146 98.041 64.9107 98.0377C64.9068 98.0344 64.9022 98.0321 64.8973 98.0308C64.8923 98.0296 64.8872 98.0296 64.8822 98.0306H64.8828Z" fill="#263238"/>
<path d="M32.385 43.0731C33.4185 44.6948 34.5126 46.2809 35.5644 47.8923C36.6162 49.5036 37.6736 51.1115 38.7162 52.7177C40.7954 55.9637 42.8216 59.2304 44.7951 62.5176C45.7578 64.0418 46.5814 65.6497 47.2557 67.3219C47.8717 68.9949 48.3347 70.7204 48.6388 72.4773C48.9609 74.2387 49.1738 76.0191 49.3712 77.7988C49.5738 79.6914 49.7855 81.585 50.0064 83.4795C50.4379 87.3556 50.8705 91.2317 51.3042 95.1078C51.3557 95.5827 51.4078 96.057 51.4565 96.5347C51.455 96.5506 51.4476 96.5654 51.4358 96.5761C51.424 96.5869 51.4086 96.5928 51.3927 96.5928C51.3767 96.5928 51.3613 96.5869 51.3495 96.5761C51.3377 96.5654 51.3304 96.5506 51.3289 96.5347C50.8453 92.6859 50.4442 88.8217 50.0064 84.9729C49.7874 83.052 49.5696 81.1321 49.3529 79.2131C49.1492 77.4271 48.9524 75.6381 48.6783 73.8641C48.4245 72.1131 48.0385 70.384 47.5235 68.6915C46.9561 66.9391 46.1957 65.2554 45.2563 63.6713C43.3565 60.3884 41.3445 57.1634 39.3325 53.9333C37.3206 50.7031 35.2537 47.4495 33.1324 44.2611C32.8709 43.8687 32.6065 43.4764 32.3313 43.0897C32.3118 43.0702 32.3667 43.0427 32.385 43.0731Z" fill="#263238"/>
<path d="M34.8611 112.44C34.1132 112.394 14.8008 104.563 14.2658 103.821C14.242 103.777 14.2314 103.727 14.2355 103.678C14.2355 103.011 15.5756 100.687 16.6961 97.632C16.7659 97.4372 17.2643 96.5305 17.955 95.3103C19.8731 91.9668 23.2161 86.207 23.2161 86.207L35.839 91.2273L29.7968 100.278L28.8578 102.468C28.8578 102.468 34.7815 108.598 35.2799 109.466C35.7783 110.334 35.605 112.482 34.8611 112.44Z" fill="#EB9481"/>
<path d="M34.8611 112.44C34.1132 112.394 14.8008 104.563 14.2658 103.821C14.242 103.777 14.2314 103.727 14.2355 103.678C14.2355 103.012 15.5756 100.687 16.6961 97.6322C16.7659 97.4374 17.2643 96.5307 17.955 95.3105L29.8088 100.279L28.8698 102.47C28.8698 102.47 34.7935 108.599 35.292 109.467C35.7904 110.336 35.605 112.483 34.8611 112.44Z" fill="white"/>
<path d="M34.86 112.441C34.112 112.395 14.7997 104.564 14.2647 103.821C14.0581 103.538 14.921 100.9 16.6961 97.6348L28.8538 102.476C28.8538 102.476 34.7776 108.6 35.2788 109.473C35.7801 110.346 35.6073 112.483 34.86 112.441Z" fill="#A6A6A6"/>
<path d="M34.8926 111.576C31.7647 110.231 19.0177 105.103 15.8235 104.015C15.796 104.015 15.7903 104.015 15.8235 104.033C18.8964 105.432 31.6829 110.459 34.8789 111.64C34.9412 111.652 34.9595 111.603 34.8926 111.576Z" fill="#263238"/>
<path d="M34.3472 108.311C34.0003 108.159 33.6256 108.08 33.2468 108.08C32.8679 108.08 32.4932 108.159 32.1464 108.311C31.5229 108.585 31.0287 109.088 30.7667 109.717C30.7667 109.735 30.7942 109.75 30.8033 109.733C31.1616 109.149 31.6992 108.698 32.3355 108.446C32.9717 108.194 33.6723 108.156 34.3323 108.336C34.3374 108.335 34.3418 108.331 34.3446 108.327C34.3473 108.322 34.3483 108.317 34.3472 108.311Z" fill="#263238"/>
<path d="M29.9599 103.278C28.7044 102.752 27.0575 102.612 25.8564 103.336C25.8106 103.363 25.8564 103.427 25.8959 103.424C27.2342 103.288 28.5831 103.295 29.9198 103.445C29.9403 103.447 29.9609 103.442 29.9776 103.43C29.9944 103.418 30.0063 103.4 30.0111 103.38C30.0159 103.36 30.0133 103.339 30.0038 103.321C29.9943 103.302 29.9785 103.288 29.9593 103.281L29.9599 103.278Z" fill="#263238"/>
<path d="M30.7834 104.051C29.5279 103.525 27.881 103.385 26.6799 104.108C26.6341 104.136 26.6799 104.199 26.7194 104.196C28.0576 104.059 29.4066 104.066 30.7433 104.218C30.7638 104.22 30.7843 104.214 30.8011 104.202C30.8179 104.19 30.8298 104.173 30.8346 104.153C30.8394 104.133 30.8368 104.111 30.8273 104.093C30.8178 104.075 30.802 104.061 30.7828 104.053L30.7834 104.051Z" fill="#263238"/>
<path d="M31.6103 104.824C30.3514 104.298 28.7045 104.158 27.5068 104.882C27.4582 104.909 27.5068 104.973 27.5434 104.97C28.8816 104.832 30.2307 104.84 31.5674 104.991C31.5882 104.994 31.6095 104.989 31.627 104.978C31.6446 104.966 31.6573 104.948 31.6625 104.928C31.6678 104.908 31.6653 104.886 31.6555 104.867C31.6458 104.848 31.6295 104.834 31.6097 104.827L31.6103 104.824Z" fill="#263238"/>
<path d="M32.4336 105.598C31.1747 105.071 29.5313 104.931 28.3302 105.649C28.2815 105.68 28.3302 105.744 28.3668 105.74C29.705 105.603 31.0541 105.61 32.3907 105.761C32.4116 105.765 32.4328 105.76 32.4504 105.748C32.468 105.737 32.4806 105.719 32.4859 105.698C32.4911 105.678 32.4887 105.656 32.4789 105.638C32.4692 105.619 32.4528 105.604 32.4331 105.597L32.4336 105.598Z" fill="#263238"/>
<path d="M17.8292 101.329C16.41 100.763 15.5282 102.975 16.9536 103.541C18.3791 104.106 19.2638 101.895 17.8292 101.329Z" fill="#263238"/>
<path d="M32.6797 100.45C32.2511 99.6613 31.2388 99.8561 30.6197 100.248C29.5804 100.945 28.742 101.903 28.1882 103.026C28.1859 103.031 28.1846 103.036 28.1846 103.042C28.1845 103.047 28.1857 103.053 28.188 103.058C28.1903 103.063 28.1937 103.067 28.1979 103.07C28.2021 103.074 28.207 103.076 28.2123 103.078C28.2123 103.178 28.2792 103.296 28.3977 103.272C29.5496 103.008 30.8108 102.871 31.8442 102.263C32.4399 101.91 33.0843 101.195 32.6797 100.45ZM30.0509 102.516C29.4884 102.659 28.923 102.774 28.3668 102.938C28.8269 102.384 29.3149 101.852 29.8288 101.347C30.0819 101.106 30.3511 100.883 30.6345 100.678C31.0752 100.374 32.7409 99.8108 32.3152 101.238C32.0812 102.025 30.7227 102.345 30.0509 102.516Z" fill="#263238"/>
<path d="M24.847 102.235C25.8804 102.843 27.1416 102.987 28.2907 103.254C28.4091 103.282 28.4881 103.163 28.4789 103.059C28.4846 103.059 28.4901 103.057 28.4947 103.053C28.4994 103.05 28.5031 103.046 28.5055 103.04C28.5079 103.035 28.509 103.03 28.5085 103.024C28.5081 103.018 28.5062 103.013 28.503 103.008C27.9502 101.883 27.1117 100.923 26.0716 100.224C25.4638 99.8281 24.4453 99.6305 24.0115 100.416C23.5778 101.201 24.2421 101.879 24.847 102.235ZM24.3726 101.204C23.9503 99.7771 25.6126 100.345 26.0532 100.65C26.3358 100.855 26.6035 101.08 26.8544 101.323C27.3672 101.829 27.8541 102.361 28.313 102.917C27.7568 102.752 27.1914 102.634 26.6289 102.491C25.9508 102.311 24.6043 102.007 24.3732 101.207L24.3726 101.204Z" fill="#263238"/>
<path d="M30.777 99.7745L16.6469 94.0634C16.6469 94.0634 34.1658 68.2778 34.2934 66.3582C34.4078 64.6604 26.713 49.8678 26.412 45.5561C26.2893 43.5892 26.6196 41.6204 27.3774 39.8015C28.1352 37.9826 29.3003 36.3622 30.7827 35.0654L45.357 41.2691C44.3354 42.8195 42.9878 44.1277 41.4086 45.1025C41.4086 45.1025 48.8825 62.2018 48.4568 67.4592C48.031 72.7166 30.777 99.7745 30.777 99.7745Z" fill="#37474F"/>
<path d="M31.4037 97.0841C29.3614 96.2048 29.9599 96.4271 27.905 95.5627C26.9019 95.1428 20.3063 92.3955 19.2912 92.167C19.27 92.167 19.2546 92.1974 19.2757 92.2094C20.1541 92.7478 26.8046 95.38 27.8163 95.7815C29.8861 96.5966 29.2996 96.3412 31.3785 97.1322C31.3816 97.1363 31.3857 97.1396 31.3905 97.1417C31.3952 97.1438 31.4004 97.1446 31.4055 97.1441C31.4107 97.1436 31.4156 97.1418 31.4199 97.1389C31.4241 97.136 31.4276 97.132 31.4298 97.1273C31.4321 97.1227 31.4332 97.1176 31.4329 97.1124C31.4327 97.1072 31.4311 97.1022 31.4284 97.0978C31.4256 97.0934 31.4218 97.0898 31.4173 97.0873C31.4128 97.0848 31.4077 97.0835 31.4025 97.0835L31.4037 97.0841Z" fill="#263238"/>
<path d="M43.7948 44.7896C42.2774 45.1437 40.7929 45.6262 39.3571 46.232C39.3513 46.2339 39.346 46.2371 39.3414 46.2411C39.3368 46.2452 39.3331 46.2501 39.3304 46.2556C39.3277 46.2611 39.3261 46.2671 39.3258 46.2732C39.3254 46.2793 39.3262 46.2854 39.3282 46.2912C39.3302 46.297 39.3333 46.3024 39.3374 46.307C39.3414 46.3116 39.3463 46.3153 39.3518 46.318C39.3573 46.3207 39.3633 46.3222 39.3694 46.3226C39.3755 46.323 39.3817 46.3222 39.3874 46.3202C40.8752 45.8848 42.3905 45.4775 43.8554 44.9631C43.9682 44.9236 43.9104 44.7655 43.7948 44.7896Z" fill="#263238"/>
<path d="M42.0598 44.1991C41.9182 44.4512 41.7934 44.7124 41.6861 44.981C41.5811 45.1848 41.516 45.4069 41.4944 45.6352C41.4944 45.681 41.555 45.6925 41.5825 45.6627C41.7349 45.4801 41.8579 45.2749 41.947 45.0543C42.0718 44.8137 42.1994 44.5766 42.3178 44.3303C42.3271 44.3133 42.3328 44.2946 42.3347 44.2753C42.3366 44.256 42.3346 44.2365 42.3288 44.2181C42.3231 44.1996 42.3137 44.1824 42.3012 44.1676C42.2887 44.1528 42.2734 44.1407 42.2561 44.1319C42.2389 44.1231 42.2201 44.1179 42.2008 44.1166C42.1815 44.1152 42.1621 44.1177 42.1438 44.124C42.1255 44.1303 42.1086 44.1401 42.0942 44.153C42.0797 44.1659 42.068 44.1816 42.0598 44.1991Z" fill="#263238"/>
<path d="M42.2424 42.8172C42.3334 42.592 42.4215 42.3698 42.5159 42.1447C42.6103 41.9195 42.7288 41.6864 42.8198 41.451C42.8198 41.4143 42.8924 41.451 42.877 41.4785C42.786 41.7036 42.7282 41.9407 42.6584 42.1722C42.5886 42.4036 42.5096 42.6344 42.4335 42.8658C42.2923 43.2995 42.1249 43.7242 41.9322 44.1375C42.1714 44.1496 42.4103 44.1081 42.6315 44.0161C42.8573 43.8715 43.031 43.6583 43.1271 43.4077C43.2547 43.158 43.3731 42.9025 43.5042 42.6533C43.6649 42.3836 43.8002 42.0994 43.9082 41.8044C43.9082 41.7677 43.9808 41.8044 43.9654 41.8319C43.7673 42.4555 43.5077 43.0578 43.1906 43.63C43.0538 43.8522 42.9474 44.0883 42.6985 44.1713C42.4286 44.2467 42.1463 44.2662 41.8687 44.2286C41.8321 44.2286 41.7897 44.2286 41.8018 44.1713C41.9261 43.7131 42.073 43.2607 42.2424 42.8143V42.8172Z" fill="#263238"/>
<path d="M41.622 45.6585C42.1416 46.7566 42.5976 47.8524 43.0812 48.9476C43.5647 50.0429 43.9927 51.102 44.4276 52.1909C45.2969 54.3877 46.0751 56.6269 46.7589 58.8844C47.0965 60.0043 47.4096 61.1327 47.6888 62.2709C47.9968 63.4052 48.2223 64.5604 48.3635 65.7273C48.4854 66.8923 48.3823 68.0699 48.0596 69.1958C47.7244 70.3087 47.2942 71.3908 46.7738 72.43C46.4545 73.087 46.3481 72.9988 46.5003 72.6671C46.9352 71.7237 48.0745 68.867 47.9927 66.4663C47.9262 65.317 47.7492 64.1767 47.4639 63.0614C47.1969 61.9112 46.898 60.7703 46.5672 59.6388C45.92 57.4048 45.1509 55.2177 44.3607 53.0336C43.9172 51.8163 43.4491 50.5996 42.9931 49.3824C42.537 48.1651 42.0815 47.0458 41.5705 45.7008C41.555 45.6464 41.6065 45.6252 41.622 45.6585Z" fill="#263238"/>
<path d="M30.8961 42.0292C31.1485 41.9346 31.5039 42.0899 31.7591 42.1328C32.0896 42.189 32.4236 42.2224 32.7588 42.2331C33.0905 42.2449 33.4226 42.2338 33.7527 42.1999C34.0853 42.1913 34.4112 42.1048 34.7044 41.9472C35.1852 41.5966 35.5975 41.1603 35.9204 40.6601C36.3051 40.1491 36.6228 39.5908 36.8657 38.9989C36.8657 38.9623 36.9298 38.9989 36.9172 39.023C36.8107 39.3609 36.7318 39.7012 36.6133 40.0329C36.4823 40.3445 36.3257 40.6447 36.1452 40.9305C35.8527 41.5063 35.4197 41.9989 34.8863 42.3625C34.2594 42.6352 33.57 42.7308 32.8927 42.6392C32.5136 42.6172 32.1366 42.5674 31.7648 42.4903C31.4976 42.433 31.0472 42.39 30.8773 42.1558C30.8692 42.1468 30.8632 42.1362 30.8597 42.1246C30.8562 42.1131 30.8553 42.1009 30.8571 42.089C30.8588 42.0771 30.8632 42.0657 30.8698 42.0556C30.8765 42.0456 30.8853 42.0371 30.8956 42.0309L30.8961 42.0292Z" fill="#263238"/>
<path d="M20.6805 91.3586C23.0026 87.8372 25.2822 84.2876 27.5193 80.7098C29.7563 77.1319 31.9629 73.5266 34.1389 69.8937C34.7134 69.0481 35.2002 68.146 35.5918 67.2014C35.8823 66.185 35.8219 65.1002 35.4201 64.1225C34.8004 62.2575 34.0759 60.429 33.2502 58.6457C32.4359 56.8477 31.557 55.0799 30.694 53.3059C29.7879 51.5588 28.9763 49.7642 28.2626 47.9299C27.5982 46.198 27.4659 44.3068 27.8827 42.499C28.4333 40.701 29.3012 39.0163 30.4451 37.5246C30.725 37.1236 31.0134 36.7226 31.296 36.3073C31.3172 36.277 31.363 36.3073 31.3418 36.344C30.1015 37.9057 29.0874 39.6347 28.3296 41.4799C27.9769 42.3992 27.7797 43.3708 27.7459 44.3549C27.7398 45.3539 27.8943 46.3472 28.2037 47.297C28.8407 49.1325 29.6149 50.9175 30.5195 52.6368C31.3613 54.3771 32.2608 56.1786 33.0911 57.9704C33.9472 59.7741 34.7082 61.6215 35.3709 63.505C35.7166 64.3342 35.9142 65.2178 35.9546 66.1154C35.866 67.0824 35.531 68.0106 34.9818 68.8111C32.8542 72.4164 30.6797 75.987 28.4583 79.5229C26.2398 83.0646 23.9571 86.6058 21.6487 90.1109L20.7732 91.4342C20.7229 91.4863 20.6439 91.4221 20.6805 91.3586Z" fill="#263238"/>
<path d="M46.1662 24.8693C47.4823 27.7597 54.1294 31.7432 57.2417 32.1716C59.4786 32.4758 66.283 32.5852 68.612 32.2289C71.3473 31.809 69.2564 24.4311 67.6427 24.6224C63.205 25.1379 59.4363 25.7176 58.2512 25.7176C56.8046 25.7176 48.9781 23.2046 48.0356 22.8483C45.7255 21.988 45.4217 23.2293 46.1662 24.8693Z" fill="#EB9481"/>
<path d="M46.2085 25.6394C47.8742 28.1066 53.4083 32.1404 53.4083 32.1404L54.1774 30.4368L56.7215 24.802C56.7215 24.802 51.6367 23.2044 48.2903 22.4746C47.8964 22.3844 47.4958 22.3269 47.0926 22.3027C44.9564 22.1887 44.771 23.5097 46.2085 25.6394Z" fill="#2CB9A0"/>
<path d="M46.2085 25.6396C47.8743 28.1073 53.409 32.1417 53.409 32.1417L54.178 30.4381C52.1146 28.0374 48.9261 24.4017 47.0932 22.3115C44.9565 22.1895 44.7711 23.5098 46.2085 25.6396Z" fill="#263238"/>
<path d="M52.412 30.9975C52.8343 29.9601 54.713 25.7848 55.1811 24.9124C55.2114 24.8517 55.26 24.8551 55.2326 24.9124C54.4177 26.9899 53.4903 29.0212 52.4544 30.9975C52.4424 31.0342 52.3937 31.0222 52.412 30.9975Z" fill="#263238"/>
<path d="M66.8278 24.6983C69.527 24.3454 72.8671 23.74 75.6974 24.9417C76.0153 25.0664 76.2819 25.2947 76.4544 25.5896C77.7311 26.1052 77.8707 26.8647 77.8707 26.8647C78.151 27.0526 78.3909 27.2948 78.5762 27.577C78.7615 27.8591 78.8886 28.1755 78.95 28.5076C78.95 28.5076 80.4452 29.1159 80.2175 30.096C79.968 31.1792 77.9194 30.096 76.4304 30.1842C73.0113 30.3973 68.224 31.6535 67.2363 31.8122L66.8278 24.6983Z" fill="#EB9481"/>
<path d="M72.6909 27.8879C74.7883 27.6868 76.9046 27.9093 78.9145 28.542C78.918 28.5437 78.9218 28.5446 78.9256 28.5447C78.9294 28.5447 78.9333 28.544 78.9368 28.5426C78.9404 28.5411 78.9436 28.5389 78.9462 28.5361C78.9488 28.5333 78.9509 28.53 78.9522 28.5264C78.9534 28.5228 78.9539 28.5189 78.9537 28.5151C78.9534 28.5112 78.9523 28.5075 78.9505 28.5041C78.9486 28.5007 78.9461 28.4978 78.9431 28.4954C78.9401 28.4931 78.9366 28.4914 78.9328 28.4905C76.9487 27.7122 74.7892 27.4942 72.6898 27.8604C72.6423 27.8512 72.6423 27.8907 72.6909 27.8879Z" fill="#263238"/>
<path d="M72.2623 25.8433C74.1757 25.8551 76.0713 26.2127 77.8577 26.899V26.8807C76.1273 26.0052 74.1879 25.6284 72.2561 25.7923C72.2051 25.8003 72.1983 25.8399 72.2623 25.8433Z" fill="#263238"/>
<path d="M72.0551 24.7263C73.5506 24.81 75.0274 25.0991 76.4442 25.5856V25.5672C75.066 24.9336 73.5622 24.6216 72.046 24.6547C71.991 24.6765 71.991 24.7263 72.0551 24.7263Z" fill="#263238"/>
<path d="M72.3264 30.7021C71.8915 30.9061 71.9979 31.1341 72.8277 31.326C73.6574 31.5179 77.1074 31.5757 76.9855 32.7804C76.8636 33.985 71.9979 33.8332 70.6395 33.407C69.4629 32.9702 68.3243 32.437 67.2352 31.8129C68.1989 31.653 70.4598 31.0401 72.3264 30.7021Z" fill="#EB9481"/>
<path d="M49.7798 29.4757C49.7587 29.9958 49.71 30.5251 49.6368 31.0515C49.6353 31.041 49.6364 31.0302 49.6401 31.0202C49.6438 31.0102 49.6499 31.0013 49.658 30.9943C49.7581 30.7204 49.8588 30.4403 49.9801 30.1757H50.0076C49.9492 30.4658 49.8615 30.7493 49.7461 31.0218C49.6889 31.1524 49.6396 31.2801 49.5819 31.4084C49.5452 31.6427 49.5029 31.8741 49.4571 32.105C49.3661 32.5403 48.9558 34.39 48.8494 34.7033C48.8311 34.7674 48.7521 34.752 48.7584 34.6792C48.7796 34.3384 49.1229 32.4126 49.1933 31.9744C49.3291 31.1284 49.5108 30.2905 49.7375 29.4642C49.7524 29.4488 49.7827 29.4608 49.7798 29.4757Z" fill="#263238"/>
<path d="M46.6188 43.3106C45.8074 43.7276 44.7619 44.3754 40.0507 43.4475C39.7468 43.3867 39.4613 43.3134 39.1631 43.2252C34.7466 41.8985 29.4352 36.699 29.149 36.3307C29.149 36.3307 36.1669 24.9424 45.1424 21.3611C46.252 20.92 48.0877 21.7718 49.0908 22.8338C49.4525 23.2142 50.2399 26.0101 49.9389 28.2756C49.6379 30.5412 47.4273 42.8935 46.6188 43.3106Z" fill="#2CB9A0"/>
<path d="M45.987 28.1709C46.0209 28.6521 45.9537 29.1351 45.7896 29.5886C45.751 29.1073 45.8184 28.6233 45.987 28.1709Z" fill="white"/>
<path d="M42.9261 35.9258C42.9456 36.1654 42.9375 36.4064 42.9021 36.6441C42.8734 36.8835 42.8157 37.1186 42.7304 37.3441C42.7096 37.1036 42.7179 36.8614 42.7551 36.6229C42.7854 36.3848 42.8428 36.1509 42.9261 35.9258Z" fill="white"/>
<path d="M37.7251 30.0635C37.7594 30.5456 37.6921 31.0296 37.5277 31.4841C37.4895 31.0018 37.5569 30.517 37.7251 30.0635Z" fill="white"/>
<path d="M47.9898 35.5303C48.0093 35.7708 48.0013 36.0128 47.9658 36.2515C47.937 36.4909 47.8794 36.7259 47.7941 36.9515C47.7731 36.711 47.7812 36.4688 47.8182 36.2303C47.8484 35.9911 47.906 35.7562 47.9898 35.5303Z" fill="white"/>
<path d="M41.3119 29.0592C41.5511 29.0388 41.7919 29.0459 42.0295 29.0804C42.2688 29.1107 42.5036 29.17 42.7287 29.2568C42.2478 29.2915 41.765 29.2242 41.3119 29.0592Z" fill="white"/>
<path d="M35.4093 34.6609C35.89 34.6269 36.3725 34.6943 36.8256 34.8585C36.3447 34.8971 35.8613 34.8297 35.4093 34.6609Z" fill="white"/>
<path d="M42.3636 40.7237C42.8444 40.6891 43.327 40.7564 43.7799 40.9213C43.2991 40.9592 42.8158 40.8918 42.3636 40.7237Z" fill="white"/>
<path d="M33.589 38.5213C34.0697 38.4873 34.5522 38.5546 35.0053 38.7189C34.5244 38.7568 34.0411 38.6894 33.589 38.5213Z" fill="white"/>
<path d="M45.9413 22.7185C46.422 22.6846 46.9045 22.7519 47.3576 22.9161C46.8769 22.9501 46.3944 22.8828 45.9413 22.7185Z" fill="white"/>
<path d="M44.224 24.6602C44.0703 24.845 43.8946 25.0104 43.701 25.1528C43.5127 25.2986 43.3089 25.423 43.0933 25.524C43.2454 25.3404 43.4182 25.1751 43.6083 25.0313C43.7984 24.885 44.0044 24.7605 44.2223 24.6602H44.224Z" fill="white"/>
<path d="M34.8652 30.1758C34.7096 30.3591 34.5331 30.5234 34.3393 30.6655C34.1529 30.8141 33.9488 30.9388 33.7316 31.0367C33.888 30.8542 34.0644 30.69 34.2574 30.547C34.4443 30.3991 34.6483 30.2744 34.8652 30.1758Z" fill="white"/>
<path d="M46.5518 32.6641C46.3963 32.8482 46.2198 33.0136 46.0259 33.1567C45.8391 33.3046 45.635 33.4292 45.4182 33.5279C45.5737 33.3437 45.7502 33.1784 45.9441 33.0353C46.1319 32.8888 46.3358 32.7643 46.5518 32.6641Z" fill="white"/>
<path d="M38.9834 37.4355C38.8279 37.6197 38.6514 37.785 38.4576 37.9282C38.2705 38.0756 38.0664 38.2003 37.8499 38.2994C38.0054 38.1152 38.1819 37.9499 38.3757 37.8067C38.5636 37.6603 38.7675 37.5358 38.9834 37.4355Z" fill="white"/>
<path d="M49.4513 26.1475C49.2958 26.3316 49.1193 26.497 48.9255 26.6401C48.7372 26.7859 48.5334 26.9103 48.3177 27.0113C48.4733 26.8271 48.6498 26.6618 48.8436 26.5186C49.0308 26.3712 49.2348 26.2466 49.4513 26.1475Z" fill="white"/>
<path d="M49.2933 31.6758C49.1094 31.5201 48.9442 31.3434 48.8012 31.1494C48.6533 30.9625 48.5288 30.7582 48.4304 30.541C48.6151 30.6949 48.7803 30.8707 48.9225 31.0646C49.0677 31.2544 49.192 31.4593 49.2933 31.6758Z" fill="white"/>
<path d="M32.4246 35.4853C32.2406 35.3297 32.0754 35.153 31.9325 34.9589C31.7862 34.7709 31.6618 34.5668 31.5616 34.3506C31.7456 34.5063 31.9108 34.6829 32.0538 34.877C32.2011 35.0643 32.3256 35.2685 32.4246 35.4853Z" fill="white"/>
<path d="M47.2413 40.0157C47.0567 39.8618 46.8915 39.686 46.7492 39.4921C46.6036 39.3037 46.4792 39.0996 46.3784 38.8838C46.5624 39.0395 46.7276 39.2161 46.8705 39.4102C47.0172 39.5969 47.1417 39.8001 47.2413 40.0157Z" fill="white"/>
<path d="M39.8161 27.0997C39.6321 26.945 39.467 26.7693 39.3239 26.5761C39.1789 26.3872 39.0546 26.1833 38.9531 25.9678C39.1378 26.1217 39.303 26.2975 39.4452 26.4913C39.5903 26.6802 39.7146 26.8842 39.8161 27.0997Z" fill="white"/>
<path d="M39.9472 42.5957C39.7632 42.44 39.598 42.2634 39.455 42.0693C39.3092 41.8809 39.1849 41.6769 39.0842 41.4609C39.2689 41.6148 39.4341 41.7907 39.5764 41.9845C39.7226 42.1738 39.847 42.379 39.9472 42.5963V42.5957Z" fill="white"/>
<path d="M41.2083 33.4551C41.026 33.2985 40.8619 33.1219 40.7191 32.9287C40.5707 32.7421 40.4461 32.5377 40.3483 32.3203C40.5314 32.476 40.6956 32.6527 40.8375 32.8467C40.9853 33.0337 41.1098 33.238 41.2083 33.4551Z" fill="white"/>
<path d="M47.4485 25.8669C46.304 25.6538 45.2265 23.2841 45.0897 21.6893C45.0897 21.5799 45.6248 20.7155 46.2342 19.6272C46.605 18.9667 46.997 18.2215 47.31 17.5158C47.3741 17.3725 47.7478 17.8566 47.7478 17.8566L48.562 18.4649L51.2515 20.5305C50.611 21.3 50.0669 22.1451 49.6315 23.0469C49.5886 23.1446 49.5559 23.2466 49.5343 23.3511C49.5331 23.3683 49.5331 23.3855 49.5343 23.4027C49.3695 24.0053 48.5517 26.0737 47.4485 25.8669Z" fill="#EB9481"/>
<path d="M49.5354 23.3666C49.5342 23.3838 49.5342 23.401 49.5354 23.4182C49.3757 23.3714 49.2201 23.3114 49.0702 23.2389C46.1249 21.8578 47.4227 17.9082 47.4227 17.9082L48.5775 18.481L51.267 20.5466C50.6265 21.3161 50.0824 22.1612 49.647 23.063C49.5991 23.16 49.5617 23.2618 49.5354 23.3666Z" fill="#263238"/>
<path d="M54.3451 12.124C54.7384 12.3887 55.0653 12.741 55.2999 13.1532C55.5346 13.5654 55.6708 14.0264 55.6979 14.5001C55.7143 15.5671 55.4614 16.621 54.9625 17.5641C54.8343 17.6191 54.3451 12.124 54.3451 12.124Z" fill="#263238"/>
<path d="M47.6648 12.9153C46.8563 14.5129 46.8986 19.548 47.908 20.8443C49.3729 22.7244 52.1935 23.3728 53.8987 21.514C55.5491 19.713 55.3791 13.1508 54.2026 11.9301C52.4888 10.1222 48.8619 10.5513 47.6648 12.9153Z" fill="#EB9481"/>
<path d="M51.956 16.9463C51.956 16.9463 51.9285 16.9646 51.932 16.9766C51.9503 17.3203 51.9137 17.7162 51.6069 17.8359V17.8542C51.9863 17.7952 52.0287 17.2688 51.956 16.9463Z" fill="#263238"/>
<path d="M51.643 16.5963C51.0897 16.566 51.0708 17.6732 51.5858 17.7007C52.1008 17.7282 52.1048 16.6209 51.643 16.5963Z" fill="#263238"/>
<path d="M53.8313 16.9346C53.8351 16.9346 53.8389 16.9355 53.8424 16.9371C53.8459 16.9387 53.849 16.9409 53.8516 16.9438C53.8541 16.9466 53.8561 16.95 53.8573 16.9536C53.8586 16.9573 53.859 16.9611 53.8587 16.9649C53.8404 17.3086 53.8799 17.7044 54.1901 17.8242V17.8425C53.8067 17.7835 53.7615 17.2571 53.8313 16.9346Z" fill="#263238"/>
<path d="M54.1442 16.5818C54.6941 16.5486 54.7216 17.6558 54.2111 17.6862C53.7007 17.7166 53.6824 16.6093 54.1442 16.5818Z" fill="#263238"/>
<path d="M51.2963 15.7542C51.4415 15.7129 51.5846 15.6641 51.7249 15.6082C51.8842 15.5798 52.0295 15.4992 52.138 15.379C52.1643 15.3348 52.1753 15.2831 52.1693 15.2319C52.1633 15.1808 52.1407 15.133 52.1048 15.0961C52.0226 15.0334 51.9251 14.9939 51.8225 14.9816C51.7199 14.9694 51.6158 14.9847 51.5212 15.0262C51.316 15.081 51.1384 15.21 51.0227 15.3882C50.9996 15.4306 50.9891 15.4787 50.9924 15.5269C50.9958 15.5751 51.0129 15.6213 51.0417 15.6601C51.0704 15.6988 51.1097 15.7285 51.1548 15.7456C51.2 15.7627 51.2491 15.7665 51.2963 15.7565V15.7542Z" fill="#263238"/>
<path d="M54.5213 16.2434C54.3735 16.2104 54.2273 16.1699 54.0836 16.122C53.9235 16.1008 53.775 16.0271 53.6613 15.9123C53.6322 15.87 53.6181 15.819 53.6215 15.7677C53.6248 15.7163 53.6452 15.6676 53.6796 15.6294C53.7579 15.5621 53.8528 15.5173 53.9545 15.4996C54.0561 15.482 54.1606 15.4922 54.257 15.5291C54.4643 15.5726 54.6479 15.6919 54.772 15.8636C54.7979 15.9044 54.8115 15.9519 54.811 16.0002C54.8106 16.0485 54.7961 16.0957 54.7694 16.136C54.7427 16.1762 54.7048 16.2079 54.6605 16.2271C54.6162 16.2462 54.5672 16.2521 54.5196 16.244L54.5213 16.2434Z" fill="#263238"/>
<path d="M51.1778 20.1995C51.2596 20.2814 51.3392 20.3914 51.4639 20.4034C51.5917 20.4033 51.718 20.3764 51.8347 20.3243C51.8347 20.3243 51.8559 20.3243 51.8347 20.3427C51.785 20.4096 51.7179 20.4617 51.6407 20.4933C51.5636 20.5249 51.4793 20.5348 51.3969 20.522C51.3276 20.503 51.2653 20.464 51.2178 20.41C51.1703 20.3559 51.1397 20.2891 51.1297 20.2178C51.1273 20.2113 51.1275 20.2042 51.1304 20.1979C51.1332 20.1916 51.1384 20.1867 51.1449 20.1843C51.1513 20.1819 51.1585 20.1821 51.1648 20.1849C51.171 20.1878 51.1759 20.193 51.1784 20.1995H51.1778Z" fill="#263238"/>
<path d="M53.1658 18.7328C53.1658 18.7328 53.1812 19.2438 53.1658 19.4844C52.6987 19.4348 52.2269 19.4511 51.7644 19.5331C51.6551 19.5571 51.6671 19.4689 51.7918 19.4116C52.1643 19.2413 52.5792 19.1862 52.9832 19.2535C53.0072 19.1894 52.9437 18.4625 52.9832 18.4653C53.167 18.5015 53.345 18.563 53.512 18.6481C53.512 17.5769 53.3403 16.5183 53.3569 15.4471C53.3569 15.4386 53.3603 15.4305 53.3663 15.4244C53.3723 15.4184 53.3804 15.415 53.3889 15.415C53.3974 15.415 53.4056 15.4184 53.4116 15.4244C53.4176 15.4305 53.421 15.4386 53.421 15.4471C53.6369 16.5797 53.7387 17.7311 53.7248 18.8841C53.7283 19.0158 53.2573 18.7815 53.1658 18.7328Z" fill="#263238"/>
<path d="M52.4819 19.3013C52.3607 19.6203 52.136 19.8892 51.8438 20.0649C51.386 20.2505 51.2361 19.8358 51.6979 19.4566C51.9401 19.334 52.2113 19.2803 52.4819 19.3013Z" fill="#263238"/>
<path d="M52.0047 19.9702C51.9561 20.0099 51.9016 20.0417 51.8433 20.0647C51.421 20.2366 51.2539 19.8975 51.5938 19.5566C51.8256 19.575 52.0899 19.6603 52.0047 19.9702Z" fill="#FF99BA"/>
<path d="M47.4336 17.2204C47.9898 17.3923 48.6279 15.7173 48.8104 15.0907C48.9683 14.5247 49.1509 12.7266 49.1783 12.6018C49.2058 12.4769 51.6098 14.1931 53.002 13.7852C54.3943 13.3774 55.3396 12.1149 55.3608 11.5277C55.3819 10.9406 53.6406 9.44951 52.1362 9.37332C50.6318 9.29714 48.5924 11.1989 48.5924 11.1989C48.8388 10.919 49.0625 10.6198 49.2613 10.3042C48.9971 10.3641 48.7516 10.4881 48.5464 10.6653C48.3413 10.8425 48.1827 11.0674 48.0848 11.3203C48.0848 11.3203 48.2794 10.4474 48.2061 10.4319C48.1329 10.4164 47.3764 11.1623 47.5463 11.7282C47.0667 12.1419 46.7322 12.6986 46.5919 13.3166C46.5123 14.1472 46.7801 17.0194 47.4336 17.2204Z" fill="#263238"/>
<path d="M53.9988 13.4694C53.5848 13.6942 53.1388 13.8543 52.6764 13.9442C52.1575 13.9906 51.6351 13.9069 51.1565 13.7008C50.6744 13.5144 50.2266 13.2492 49.8313 12.916C49.4816 12.6296 49.1686 12.2802 48.7949 12.0247C48.7005 11.9577 48.5941 12.0946 48.6519 12.1799C49.2755 13.0619 50.1665 13.7191 51.1926 14.0542C51.6695 14.21 52.1787 14.2391 52.6702 14.1386C53.1617 14.0382 53.6187 13.8118 53.9965 13.4814C53.9965 13.4814 54.0045 13.4694 53.9988 13.4694Z" fill="#263238"/>
<path d="M48.0139 17.0715C48.0139 17.0715 47.151 15.3192 46.3727 15.6022C45.5945 15.8852 46.0689 18.3099 46.8683 18.7527C46.9662 18.8162 47.076 18.8591 47.1909 18.879C47.3059 18.899 47.4236 18.8955 47.5372 18.8687C47.6507 18.842 47.7577 18.7925 47.8517 18.7234C47.9457 18.6543 48.0248 18.5668 48.0843 18.4663L48.0139 17.0715Z" fill="#EB9481"/>
<path d="M46.5278 16.292C46.5278 16.292 46.5095 16.292 46.5278 16.3166C46.7779 16.4919 46.9884 16.718 47.1454 16.9802C47.3025 17.2423 47.4026 17.5346 47.4394 17.838C47.4141 17.7737 47.3753 17.7156 47.3254 17.6677C47.2756 17.6198 47.216 17.5834 47.1507 17.5608C47.0854 17.5383 47.016 17.5302 46.9473 17.5371C46.8786 17.544 46.8122 17.5658 46.7527 17.6009C46.7344 17.6009 46.7527 17.6341 46.7527 17.6341C46.8614 17.6172 46.9726 17.6344 47.0711 17.6835C47.1696 17.7325 47.2505 17.8109 47.3026 17.9079C47.3895 18.0703 47.4588 18.2416 47.5092 18.4189C47.5275 18.4762 47.6276 18.4613 47.6185 18.3977C47.7495 17.6398 47.3238 16.4931 46.5278 16.292Z" fill="#263238"/>
<path d="M42.3151 24.8965C41.7074 28.3438 45.4395 39.9572 47.8314 42.1265C51.3907 45.3515 57.9708 47.4721 60.357 48.1629C61.3968 48.4671 64.2717 41.1435 63.2182 40.6589C60.9659 39.6336 53.9692 37.4431 53.3037 36.8955C52.6382 36.3478 48.6262 30.5457 46.8374 27.205C44.4489 22.7089 42.6161 23.1534 42.3151 24.8965Z" fill="#EB9481"/>
<path d="M61.4483 40.0156C61.4483 40.0156 64.5543 40.8096 66.5577 41.4213C67.6764 41.765 69.5425 42.5229 70.2503 43.1495C71.3078 44.0895 75.1315 48.6899 74.0374 49.6425C73.0463 50.5063 70.2606 46.1345 70.2606 46.1345C70.2606 46.1345 73.4583 50.2967 72.0844 51.1152C70.7104 51.9338 68.1972 46.5756 68.1972 46.5756C68.1972 46.5756 71.3857 50.9291 69.8263 51.5443C68.6469 52.01 66.1182 47.2848 66.1182 47.2848C66.1182 47.2848 68.8352 51.0425 67.6381 51.5746C66.3191 52.1646 63.7143 47.9481 63.7143 47.9481C60.456 48.7907 58.547 47.857 57.2921 47.0356C56.9986 46.8339 61.4483 40.0156 61.4483 40.0156Z" fill="#EB9481"/>
<path d="M69.2472 44.6212C69.6421 45.0961 70.0438 45.5767 70.3917 46.0848C70.7396 46.5928 71.0727 47.1158 71.3736 47.6549C71.7814 48.3514 72.1078 49.0925 72.3465 49.8637C71.7642 48.5714 71.0621 47.3367 70.2492 46.1758C69.8996 45.6677 69.5745 45.1413 69.2278 44.6332C69.2198 44.6212 69.2369 44.6092 69.2472 44.6212Z" fill="#263238"/>
<path d="M67.3903 45.8534C68.4933 46.9708 69.385 48.2788 70.0226 49.7142C70.0466 49.7715 70.0226 49.7658 69.9831 49.7142C69.5573 49.0538 67.8315 46.4984 67.3754 45.8626C67.3663 45.8534 67.3834 45.8442 67.3903 45.8534Z" fill="#263238"/>
<path d="M65.6061 46.6335C66.4445 47.5138 67.1068 48.5467 67.5574 49.6763C67.5786 49.7336 67.5362 49.7221 67.5002 49.6763C66.8707 48.6509 66.3849 47.8507 65.57 46.661C65.5603 46.6335 65.5878 46.606 65.6061 46.6335Z" fill="#263238"/>
<path d="M45.7066 25.1492C42.9318 21.2213 41.2724 22.6757 41.8286 26.941C42.2778 29.8933 42.9186 32.8133 43.7467 35.6823L50.7371 32.2866C50.7371 32.2866 47.4725 27.665 45.7066 25.1492Z" fill="#2CB9A0"/>
<path d="M47.3936 26.6953C47.4857 26.9172 47.5519 27.149 47.591 27.3861C47.6337 27.624 47.6491 27.866 47.6368 28.1073C47.5456 27.8843 47.4803 27.6516 47.4422 27.4136C47.397 27.177 47.3806 26.9358 47.3936 26.6953Z" fill="white"/>
<path d="M43.2512 29.0836C43.6973 28.902 44.1773 28.8189 44.6584 28.8402C44.4366 28.9314 44.205 28.9968 43.9682 29.0349C43.7321 29.0801 43.4913 29.0964 43.2512 29.0836Z" fill="white"/>
<path d="M43.4303 22.9736C43.2421 23.4183 42.9614 23.8176 42.6068 24.1451C42.7949 23.7004 43.0757 23.301 43.4303 22.9736Z" fill="white"/>
<path d="M49.354 30.918C49.2618 31.1406 49.1445 31.352 49.0044 31.5481C48.868 31.7465 48.7088 31.9282 48.53 32.0894C48.7183 31.6447 48.9993 31.2453 49.354 30.918Z" fill="white"/>
<path d="M44.4913 33.2999C44.0471 33.1115 43.6481 32.8305 43.321 32.4756C43.7652 32.6639 44.1642 32.9449 44.4913 33.2999Z" fill="white"/>
<path d="M46.6188 26.333C46.9925 26.8485 47.3787 27.3492 47.7633 27.8544C47.666 27.599 47.5809 27.3404 47.5081 27.0788H47.5264C47.6025 27.2799 47.6906 27.4798 47.7633 27.6872L47.8726 27.9913C47.8821 28.0122 47.8904 28.0336 47.8972 28.0555C48.2011 28.4479 48.5049 28.8403 48.7847 29.2418C49.1281 29.7224 49.4594 30.2093 49.7936 30.6962C50.1278 31.1831 50.4654 31.7886 50.827 32.2783C50.8602 32.3207 50.2193 32.5825 50.1495 32.6163C50.0797 32.6501 50.0431 32.5917 50.11 32.5705C50.177 32.5493 50.6874 32.236 50.6937 32.2297C50.3595 31.737 49.9733 31.2834 49.6236 30.8056C49.274 30.3279 48.9278 29.8502 48.5902 29.3667C47.9035 28.3809 47.2803 27.3584 46.5994 26.3697L46.6188 26.333Z" fill="#263238"/>
<path d="M41.9928 29.7643C42.1051 29.9667 42.2065 30.1749 42.2967 30.3881L42.4111 30.6527C42.2498 29.8949 42.1073 29.1313 41.9402 28.374C42.2624 29.5913 42.5874 30.8372 42.8855 32.0704C43.1682 33.251 43.5115 34.4437 43.6758 35.6483C43.8877 35.5552 44.1073 35.4808 44.3321 35.426C44.1065 35.5723 43.8635 35.6899 43.6088 35.776C43.2425 34.5511 42.9383 33.3084 42.6972 32.0527C42.6211 31.7119 42.5513 31.371 42.4787 31.0302C42.3997 30.8234 42.307 30.6258 42.2114 30.4219C42.1159 30.2179 42.0323 29.99 41.947 29.774C41.9654 29.7614 41.9871 29.7494 41.9928 29.7643Z" fill="#263238"/>
<path d="M43.8498 34.5084C44.8226 33.9608 48.8854 31.8551 49.7947 31.4661C49.8588 31.4386 49.892 31.4661 49.8279 31.5085C47.8989 32.6304 45.9101 33.646 43.8704 34.5508C43.8469 34.5571 43.8229 34.5233 43.8498 34.5084Z" fill="#263238"/>
<path d="M155.222 114.497H62.6178L76.0081 38.4795H168.613L155.222 114.497Z" fill="url(#paint0_linear_1010_2357)"/>
<path d="M107.701 30.6045H77.3952L76.0063 38.4785H108.44L107.701 30.6045Z" fill="url(#paint1_linear_1010_2357)"/>
<g opacity="0.1">
<path opacity="0.1" d="M155.222 114.497H62.6178L76.0081 38.4795H168.613L155.222 114.497Z" fill="black"/>
<path opacity="0.1" d="M107.701 30.6045H77.3952L76.0063 38.4785H108.44L107.701 30.6045Z" fill="black"/>
</g>
<path d="M74.1249 33.8169C73.9222 32.9463 73.9222 32.0406 74.1249 31.1699C74.3276 32.0406 74.3276 32.9463 74.1249 33.8169Z" fill="#263238"/>
<path d="M71.4342 34.596C71.1248 34.2747 70.8582 33.9147 70.6411 33.5249C70.4134 33.1431 70.2348 32.7342 70.1095 32.3076C70.4198 32.6269 70.6865 32.986 70.9026 33.3754C71.1298 33.7585 71.3084 34.1686 71.4342 34.596Z" fill="#263238"/>
<path d="M69.4869 36.6187C68.6328 36.3587 67.8496 35.9058 67.198 35.2949C67.6242 35.4188 68.0328 35.5967 68.414 35.8242C68.8034 36.0429 69.1638 36.3097 69.4869 36.6181V36.6187Z" fill="#263238"/>
<path d="M68.8059 39.3455C67.9361 39.5484 67.0314 39.5484 66.1616 39.3455C67.0314 39.1426 67.9361 39.1426 68.8059 39.3455Z" fill="#263238"/>
<path d="M69.5961 42.041C69.2738 42.3492 68.9143 42.6159 68.5261 42.835C68.1449 43.0625 67.7362 43.2403 67.3101 43.3642C67.631 43.0545 67.9907 42.7876 68.3801 42.5703C68.7608 42.3417 69.1695 42.1638 69.5961 42.041Z" fill="#263238"/>
<path d="M71.6139 43.9854C71.3547 44.8406 70.9022 45.6247 70.2915 46.2766C70.4153 45.8495 70.5942 45.4403 70.8237 45.0594C71.0405 44.6693 71.3061 44.3084 71.6139 43.9854Z" fill="#263238"/>
<path d="M74.3377 44.6582C74.4438 45.0913 74.4949 45.5361 74.4899 45.982C74.4964 46.428 74.4453 46.873 74.3377 47.3058C74.2287 46.8734 74.1775 46.4285 74.1855 45.9826C74.1805 45.5365 74.2316 45.0915 74.3377 44.6582Z" fill="#263238"/>
<path d="M77.0306 43.8945C77.34 44.2158 77.6066 44.5758 77.8237 44.9656C78.0521 45.3467 78.2298 45.7559 78.3525 46.1829C77.7418 45.5309 77.2893 44.7469 77.03 43.8916L77.0306 43.8945Z" fill="#263238"/>
<path d="M78.9728 41.8555C79.3994 41.9782 79.8081 42.1562 80.1888 42.3848C80.5782 42.6021 80.9378 42.8689 81.2588 43.1787C80.8322 43.0559 80.4235 42.878 80.0428 42.6494C79.6534 42.4321 79.2938 42.1652 78.9728 41.8555Z" fill="#263238"/>
<path d="M79.6447 39.1296C80.5154 38.9268 81.4211 38.9268 82.2918 39.1296C81.4211 39.3324 80.5154 39.3324 79.6447 39.1296Z" fill="#263238"/>
<path d="M78.8664 36.4332C79.1882 36.1252 79.5478 35.8594 79.9365 35.6421C80.3163 35.4112 80.7253 35.232 81.1525 35.1094C80.5012 35.7207 79.7179 36.1737 78.8635 36.4332H78.8664Z" fill="#263238"/>
<path d="M76.8452 34.4896C76.9703 34.0634 77.1479 33.6545 77.374 33.2724C77.5911 32.8825 77.8577 32.5225 78.1671 32.2012C78.0444 32.6282 77.8667 33.0374 77.6383 33.4184C77.4212 33.8082 77.1546 34.1683 76.8452 34.4896Z" fill="#263238"/>
<path d="M155.086 114.497H62.2836L49.1045 41.2383H141.91L155.086 114.497Z" fill="url(#paint2_linear_1010_2357)"/>
<path d="M81.2646 86.0215C83.3947 86.0215 85.1214 84.2929 85.1214 82.1606C85.1214 80.0284 83.3947 78.2998 81.2646 78.2998C79.1345 78.2998 77.4077 80.0284 77.4077 82.1606C77.4077 84.2929 79.1345 86.0215 81.2646 86.0215Z" fill="#263238"/>
<path d="M111.756 86.0215C113.886 86.0215 115.612 84.2929 115.612 82.1606C115.612 80.0284 113.886 78.2998 111.756 78.2998C109.625 78.2998 107.899 80.0284 107.899 82.1606C107.899 84.2929 109.625 86.0215 111.756 86.0215Z" fill="#263238"/>
<path d="M102.051 86.6385L101.838 86.2341C101.82 86.1974 99.8261 82.5107 95.817 82.5107C92.1696 82.5107 91.2581 85.982 91.2335 86.1316L91.1242 86.5726L90.2395 86.3595L90.3459 85.915C90.3459 85.8726 91.4332 81.5977 95.817 81.5977C100.376 81.5977 102.556 85.6384 102.647 85.8113L102.86 86.2123L102.051 86.6385Z" fill="#263238"/>
<path d="M148.959 81.8658L148.895 81.5617C149.092 81.5193 149.287 81.4734 149.481 81.4219L149.557 81.7261C149.352 81.7776 149.159 81.8234 148.959 81.8658Z" fill="#263238"/>
<path d="M150.733 81.3749L150.636 81.0885C151.016 80.9579 151.396 80.8147 151.764 80.6594L151.882 80.9395C151.509 81.0999 151.121 81.246 150.733 81.3749ZM152.998 80.4045L152.861 80.137C153.22 79.952 153.57 79.7489 153.909 79.5287L154.067 79.787C153.728 80.0215 153.37 80.2286 152.998 80.4062V80.4045ZM155.088 79.1174L154.909 78.8711C155.238 78.6305 155.554 78.3784 155.852 78.1195L156.052 78.3486C155.733 78.6253 155.429 78.8842 155.086 79.1305L155.088 79.1174ZM156.943 77.4986L156.72 77.2889C157 76.9847 157.265 76.6806 157.508 76.3764L157.748 76.562C157.496 76.8965 157.225 77.2099 156.947 77.5112L156.943 77.4986ZM158.447 75.551L158.189 75.3894C158.399 75.0496 158.586 74.6959 158.748 74.3309L159.028 74.4557C158.856 74.8364 158.661 75.2061 158.444 75.563L158.447 75.551ZM159.453 73.2935L159.149 73.2081C159.26 72.8264 159.342 72.437 159.395 72.043L159.699 72.0825C159.649 72.4962 159.565 72.9052 159.449 73.3055L159.453 73.2935ZM159.791 70.8595H159.487V70.7713C159.487 70.403 159.465 70.0267 159.429 69.6606L159.733 69.6303C159.773 70.0093 159.793 70.3902 159.794 70.7713L159.791 70.8595ZM159.243 68.4772C159.162 68.0849 159.06 67.697 158.94 67.3149L159.243 67.2238C159.369 67.6139 159.47 68.0112 159.547 68.4136L159.243 68.4772ZM158.523 66.1859C158.377 65.8267 158.219 65.459 158.025 65.0878L158.298 64.9509C158.484 65.3284 158.654 65.7053 158.803 66.0707L158.523 66.1859ZM157.459 64.0166C157.271 63.6849 157.064 63.3349 156.852 62.9758L157.11 62.8142C157.332 63.1763 157.541 63.5291 157.717 63.8671L157.459 64.0166ZM156.189 61.9504C155.967 61.6159 155.742 61.2779 155.511 60.9405L155.764 60.7687C155.993 61.1066 156.221 61.444 156.442 61.7849L156.189 61.9504ZM154.821 59.9364C154.592 59.6018 154.363 59.2639 154.135 58.9293L154.387 58.7575C154.612 59.092 154.84 59.43 155.068 59.7617L154.821 59.9364ZM153.463 57.9103C153.241 57.5695 153.025 57.2229 152.812 56.8758L153.07 56.7177C153.283 57.0648 153.499 57.4051 153.717 57.7488L153.463 57.9103ZM152.195 55.8201C151.989 55.4517 151.795 55.0868 151.623 54.7368L151.897 54.5999C152.068 54.9471 152.258 55.3057 152.459 55.6711L152.195 55.8201ZM151.116 53.6296C150.955 53.2492 150.812 52.8631 150.678 52.4839L150.982 52.3865C151.11 52.7549 151.253 53.1352 151.411 53.5093L151.116 53.6296ZM150.326 51.3079C150.226 50.9121 150.138 50.506 150.071 50.0907L150.374 50.042C150.441 50.4315 150.523 50.8267 150.623 51.2163L150.326 51.3079ZM149.918 48.874C149.888 48.4999 149.873 48.1225 149.873 47.745V47.6447H150.176V47.7421C150.169 48.1108 150.184 48.4797 150.222 48.8465L149.918 48.874ZM150.222 46.4401L149.918 46.4097C149.918 46.3278 149.934 46.2424 149.943 46.1542C149.98 45.8289 150.025 45.5029 150.08 45.193L150.384 45.2446C150.332 45.5487 150.286 45.8684 150.25 46.188C150.264 46.2752 150.26 46.3643 150.238 46.4498L150.222 46.4401ZM150.645 44.0732L150.341 43.9912C150.455 43.5903 150.584 43.1973 150.73 42.8227L151.012 42.9321C150.874 43.3089 150.757 43.6928 150.66 44.0823L150.645 44.0732ZM165.79 42.2974C165.616 42.2931 165.442 42.2768 165.27 42.2487C165.033 42.2155 164.796 42.176 164.562 42.1301L164.622 41.826C164.847 41.8684 165.08 41.9079 165.313 41.9405C165.477 41.9617 165.644 41.9772 165.805 41.9864L165.79 42.2974ZM167.039 42.2029L166.975 41.8987C167.356 41.8199 167.722 41.678 168.057 41.4788L168.215 41.7372C167.857 41.959 167.465 42.1195 167.054 42.2121L167.039 42.2029ZM151.52 41.8409L151.249 41.6977C151.443 41.3348 151.657 40.9832 151.891 40.6448L152.14 40.8167C151.918 41.1479 151.716 41.4922 151.535 41.8477L151.52 41.8409ZM163.374 41.8225C162.982 41.6978 162.596 41.5525 162.219 41.3872L162.344 41.1071C162.709 41.2695 163.084 41.4107 163.465 41.5298L163.374 41.8225ZM169.149 40.8734L168.896 40.7015C169.113 40.3872 169.241 40.0204 169.267 39.6395L169.571 39.6607C169.545 40.0972 169.403 40.5186 169.158 40.8808L169.149 40.8734ZM161.125 40.8275C160.769 40.6207 160.426 40.3943 160.095 40.1493L160.274 39.9059C160.596 40.1434 160.931 40.3628 161.277 40.5629L161.125 40.8275ZM152.888 39.8784L152.663 39.6744C152.939 39.368 153.232 39.0784 153.542 38.8072L153.742 39.0363C153.443 39.3044 153.16 39.5899 152.895 39.8915L152.888 39.8784ZM159.146 39.3628C158.844 39.0836 158.558 38.7879 158.288 38.4772L158.517 38.2762C158.78 38.5773 159.059 38.8642 159.353 39.1354L159.146 39.3628ZM169.04 38.5385C168.865 38.1909 168.625 37.8809 168.331 37.626L168.532 37.3969C168.855 37.6764 169.12 38.0164 169.313 38.3976L169.04 38.5385ZM154.687 38.2979L154.516 38.0482C154.856 37.8158 155.208 37.6014 155.57 37.4061L155.713 37.6736C155.364 37.8658 155.025 38.0761 154.698 38.3037L154.687 38.2979ZM157.526 37.5069C157.412 37.3425 157.297 37.1752 157.192 37.0016L156.797 37.1569L156.683 36.8768L157.032 36.737C156.975 36.6459 156.923 36.5543 156.871 36.4632L157.135 36.3143C157.196 36.4208 157.257 36.5274 157.321 36.6184C157.491 36.5577 157.664 36.5004 157.84 36.4466L157.928 36.7508C157.78 36.7966 157.625 36.8453 157.484 36.8968C157.575 37.049 157.677 37.1945 157.788 37.3322L157.526 37.5069ZM167.353 36.9833C167.059 36.8366 166.754 36.7125 166.441 36.6121L166.24 36.548L166.328 36.2438L166.535 36.3108C166.861 36.4148 167.178 36.5441 167.483 36.6975L167.353 36.9833ZM159.091 36.4386L159.027 36.1344C159.419 36.0462 159.828 35.9729 160.243 35.9156L160.289 36.2197C159.888 36.2839 159.488 36.3595 159.1 36.4489L159.091 36.4386ZM165.079 36.2742C164.699 36.2071 164.298 36.1556 163.888 36.1189L163.912 35.8148C164.334 35.8514 164.744 35.903 165.128 35.9729L165.079 36.2742ZM161.478 36.1035L161.457 35.7993C161.819 35.7781 162.18 35.7661 162.539 35.7661H162.688V36.0702H162.542C162.198 36.0794 161.84 36.0886 161.487 36.1126L161.478 36.1035ZM156.341 35.3766C156.177 35.0054 156.037 34.6187 155.9 34.2263L156.204 34.1318C156.332 34.515 156.475 34.8925 156.633 35.2545L156.341 35.3766ZM155.572 33.04C155.481 32.6476 155.405 32.238 155.347 31.8227L155.651 31.7804C155.708 32.1813 155.781 32.5823 155.87 32.9667L155.572 33.04ZM155.232 30.6061C155.216 30.3323 155.207 30.0522 155.207 29.7726V29.3774H155.511V29.7669C155.511 30.0407 155.511 30.3174 155.532 30.582L155.232 30.6061ZM155.593 28.1721L155.289 28.1418C155.332 27.7408 155.389 27.3295 155.461 26.9245L155.765 26.9761C155.684 27.3736 155.624 27.7752 155.586 28.179L155.593 28.1721ZM156.01 25.7961L155.706 25.7233C155.803 25.3309 155.916 24.9351 156.04 24.5399L156.344 24.6344C156.207 25.0354 156.094 25.4192 156.001 25.8029L156.01 25.7961ZM156.739 23.4927L156.457 23.3833C156.605 23.003 156.761 22.6226 156.946 22.2543L157.219 22.3883C157.037 22.7539 156.874 23.1287 156.73 23.5111L156.739 23.4927ZM157.785 21.3235L157.52 21.1682C157.727 20.8182 157.949 20.4682 158.18 20.1337L158.43 20.3056C158.193 20.6401 157.977 20.9809 157.776 21.328L157.785 21.3235ZM159.158 19.3426L158.921 19.1507C159.177 18.8466 159.45 18.5241 159.733 18.2382L159.951 18.4485C159.668 18.734 159.401 19.0346 159.15 19.3489L159.158 19.3426ZM160.811 17.5904L160.608 17.3652C160.912 17.0943 161.215 16.8268 161.541 16.5679L161.729 16.8085C161.404 17.0668 161.094 17.332 160.802 17.5967L160.811 17.5904ZM162.7 16.0873L162.528 15.8347C162.859 15.6055 163.206 15.3816 163.558 15.1685L163.713 15.4268C163.361 15.6428 163.032 15.865 162.692 16.093L162.7 16.0873ZM164.763 14.8305L164.62 14.563C164.979 14.3711 165.35 14.1889 165.721 14.0182L165.848 14.2949C165.463 14.4668 165.104 14.6506 164.754 14.8362L164.763 14.8305ZM166.961 13.8206L166.846 13.5342C167.229 13.3853 167.615 13.23 167.998 13.1172L168.095 13.4214C167.71 13.5359 167.326 13.6768 166.951 13.8258L166.961 13.8206Z" fill="#263238"/>
<path d="M169.302 13.0494L169.226 12.7452C169.603 12.6479 169.833 12.6055 169.833 12.6055L169.891 12.9096C169.891 12.9096 169.669 12.9555 169.302 13.0494Z" fill="#263238"/>
<path d="M174.675 11.084C173.9 8.67812 168.709 9.54423 169.721 12.6879C170.732 15.8315 175.45 13.4904 174.675 11.084Z" fill="#263238"/>
<path d="M166.897 10.1226C166.937 9.06689 168.402 8.25463 170.475 8.62868C171.916 8.95773 173.281 9.56054 174.496 10.4044C173.221 11.1503 171.816 11.6488 170.356 11.8737C168.262 12.1006 166.858 11.1755 166.897 10.1226Z" fill="#EBEBEB"/>
<path d="M174.495 10.3962C173.419 10.3962 172.346 10.3658 171.274 10.332C170.201 10.2982 169.125 10.2438 168.052 10.1602C169.128 10.1602 170.204 10.1876 171.276 10.2209C172.349 10.2541 173.426 10.3079 174.495 10.3962Z" fill="#263238"/>
<path d="M168.979 9.18262C169.589 9.47517 170.165 9.83544 170.696 10.2567C170.39 10.1131 170.093 9.95044 169.808 9.76976C169.52 9.59038 169.244 9.39433 168.979 9.18262Z" fill="#263238"/>
<path d="M171.797 10.2959C171.247 10.742 170.651 11.1276 170.019 11.4461C170.571 10.9995 171.17 10.6138 171.806 10.2959H171.797Z" fill="#263238"/>
<path d="M172.11 9.70306C172.416 9.84973 172.684 10.0654 172.894 10.3332C172.74 10.2607 172.596 10.1697 172.465 10.0622C172.333 9.95552 172.214 9.83405 172.11 9.7002V9.70306Z" fill="#263238"/>
<path d="M168.873 16.3752C169.52 17.2086 171.183 17.0053 172.645 15.493C173.624 14.3815 174.383 13.0941 174.882 11.6992C173.411 11.8347 171.978 12.2477 170.66 12.9165C168.834 13.9504 168.22 15.5383 168.873 16.3752Z" fill="#EBEBEB"/>
<path d="M174.882 11.6992C174.006 12.3076 173.155 12.9829 172.301 13.6371C171.448 14.2912 170.612 14.9666 169.794 15.6632C170.669 15.0548 171.52 14.3823 172.369 13.7282C173.217 13.074 174.051 12.3981 174.882 11.6992Z" fill="#263238"/>
<path d="M171.107 15.904C171.269 15.6085 171.414 15.3038 171.541 14.9915C171.671 14.6782 171.781 14.3572 171.87 14.0303C171.707 14.3255 171.562 14.6302 171.435 14.9428C171.307 15.2565 171.197 15.5774 171.107 15.904Z" fill="#263238"/>
<path d="M172.754 13.3605C172.043 13.3231 171.329 13.3615 170.626 13.4751C170.981 13.4964 171.336 13.4964 171.69 13.4751C172.047 13.457 172.402 13.4188 172.754 13.3605Z" fill="#263238"/>
<path d="M173.34 13.6612C173.422 13.5109 173.485 13.3515 173.529 13.1864C173.574 13.0226 173.6 12.8543 173.608 12.6846C173.446 12.9858 173.355 13.3197 173.34 13.6612Z" fill="#263238"/>
<path d="M174.675 11.084C174.503 11.1399 174.319 11.1435 174.145 11.0943C173.972 11.0452 173.816 10.9456 173.699 10.8081C173.582 10.6705 173.509 10.5013 173.488 10.3219C173.467 10.1424 173.5 9.96081 173.582 9.80003C173.664 9.63925 173.792 9.50655 173.95 9.41874C174.108 9.33093 174.288 9.29197 174.468 9.30679C174.648 9.3216 174.819 9.38954 174.961 9.50198C175.102 9.61442 175.207 9.76631 175.262 9.9384C175.335 10.1682 175.314 10.4177 175.204 10.6324C175.095 10.8471 174.904 11.0095 174.675 11.084Z" fill="#455A64"/>
<path d="M175.234 12.8218C175.063 12.8773 174.878 12.8806 174.705 12.8315C174.532 12.7823 174.377 12.6827 174.26 12.5454C174.143 12.4081 174.069 12.2391 174.048 12.0599C174.027 11.8808 174.06 11.6993 174.142 11.5387C174.224 11.378 174.351 11.2452 174.509 11.1571C174.666 11.069 174.846 11.0296 175.025 11.0439C175.205 11.0581 175.377 11.1253 175.518 11.237C175.66 11.3488 175.765 11.5 175.821 11.6716C175.858 11.7856 175.872 11.9059 175.862 12.0255C175.853 12.145 175.82 12.2616 175.765 12.3684C175.711 12.4752 175.636 12.5703 175.545 12.6481C175.454 12.7259 175.348 12.7849 175.234 12.8218Z" fill="#455A64"/>
<path d="M75.587 12.0454C75.4414 13.4429 74.9107 14.7724 74.0541 15.8856C73.1976 16.9987 72.0489 17.8517 70.7363 18.3493C69.4236 18.847 67.9986 18.9697 66.6204 18.7037C65.2421 18.4378 63.9648 17.7938 62.9309 16.8434L59.141 17.4002L61.0374 14.1202C60.6037 13.053 60.4188 11.9009 60.4965 10.7515C60.5742 9.602 60.9126 8.48539 61.486 7.48643C62.0593 6.48748 62.8525 5.63245 63.8054 4.98631C64.7583 4.34017 65.8457 3.9199 66.9851 3.75742C68.1245 3.59494 69.2859 3.69453 70.3811 4.04862C71.4763 4.40271 72.4765 5.00199 73.3057 5.80094C74.1349 6.59989 74.7714 7.5775 75.1666 8.65951C75.5619 9.74152 75.7057 10.8995 75.587 12.0454Z" fill="white"/>
<path d="M75.587 12.0476C75.4436 13.4427 74.9178 14.7709 74.0677 15.8856C73.6513 16.45 73.1493 16.9458 72.5799 17.3549C72.0233 17.7794 71.4093 18.1226 70.7561 18.3739C70.1026 18.6316 69.416 18.7955 68.7167 18.8608C68.367 18.8922 68.0156 18.8993 67.6649 18.882C67.3132 18.873 66.9627 18.8364 66.6166 18.7726C65.2198 18.5152 63.9221 17.8736 62.869 16.9195L62.9572 16.947L59.173 17.5278L58.8966 17.5702L59.0362 17.3268L60.9206 14.0411V14.1717C60.4756 13.0845 60.2864 11.9095 60.3676 10.7374C60.4487 9.56532 60.7981 8.42765 61.3887 7.41235C61.9667 6.39895 62.7695 5.532 63.7353 4.87841C64.701 4.22481 65.8038 3.80202 66.9587 3.64266C68.1135 3.4833 69.2895 3.59164 70.3958 3.9593C71.5022 4.32696 72.5094 4.94413 73.3398 5.76319C74.167 6.57074 74.7994 7.55649 75.1888 8.64549C75.5782 9.73448 75.7144 10.898 75.587 12.0476ZM75.587 12.0476C75.7097 10.905 75.5686 9.74944 75.1744 8.67011C74.7802 7.59077 74.1435 6.61656 73.3134 5.82267C72.4833 5.02879 71.4821 4.43647 70.3871 4.09145C69.292 3.74642 68.1324 3.65792 66.9977 3.83277C65.8743 3.99908 64.8042 4.42163 63.8699 5.06778C62.9437 5.71915 62.1702 6.5643 61.6027 7.54467C61.0437 8.52743 60.7143 9.62411 60.639 10.7525C60.5651 11.8882 60.748 13.026 61.1741 14.0812L61.2016 14.1482L61.1649 14.2123L59.256 17.486L59.1221 17.285L62.9154 16.7522H62.9669L63.0035 16.7855C64.0175 17.7301 65.2741 18.3737 66.6326 18.6443C66.9721 18.7135 67.3165 18.7553 67.6627 18.7691C68.0077 18.7935 68.354 18.7935 68.699 18.7691C69.3909 18.7133 70.0719 18.5627 70.723 18.3218C71.3756 18.0839 71.99 17.7518 72.5467 17.3359C73.1127 16.9298 73.6143 16.4404 74.0345 15.8844C74.8963 14.7737 75.4337 13.4456 75.587 12.0476Z" fill="#263238"/>
<path d="M64.3506 14.7925C64.3447 14.6916 64.3596 14.5905 64.3945 14.4956C64.4293 14.4007 64.4833 14.314 64.5531 14.2409C64.6229 14.1678 64.707 14.1099 64.8002 14.0707C64.8933 14.0316 64.9935 14.0121 65.0945 14.0135C65.1985 14.0107 65.3019 14.0287 65.3988 14.0666C65.4956 14.1044 65.5839 14.1614 65.6584 14.234C65.7329 14.3065 65.7921 14.3933 65.8326 14.4892C65.873 14.5851 65.8939 14.6881 65.8939 14.7922C65.8939 14.8963 65.873 14.9993 65.8326 15.0952C65.7921 15.1911 65.7329 15.2779 65.6584 15.3505C65.5839 15.4231 65.4956 15.48 65.3988 15.5179C65.3019 15.5558 65.1985 15.5738 65.0945 15.571C64.9935 15.5723 64.8933 15.5528 64.8002 15.5137C64.707 15.4746 64.6229 15.4167 64.5531 15.3436C64.4833 15.2705 64.4293 15.1838 64.3945 15.0889C64.3596 14.994 64.3447 14.8929 64.3506 14.7919V14.7925ZM64.6545 12.9944L64.4782 6.95801H65.6942L65.518 12.9944H64.6545Z" fill="#2CB9A0"/>
<path d="M67.2409 14.7925C67.235 14.692 67.2498 14.5914 67.2843 14.4968C67.3189 14.4023 67.3724 14.3158 67.4417 14.2428C67.5109 14.1698 67.5944 14.1117 67.6869 14.0723C67.7794 14.0329 67.8791 14.0128 67.9796 14.0135C68.1823 14.019 68.3749 14.1034 68.5163 14.2489C68.6577 14.3943 68.7368 14.5893 68.7368 14.7922C68.7368 14.9952 68.6577 15.1901 68.5163 15.3356C68.3749 15.481 68.1823 15.5655 67.9796 15.571C67.8791 15.5716 67.7794 15.5516 67.6869 15.5122C67.5944 15.4727 67.5109 15.4147 67.4417 15.3417C67.3724 15.2687 67.3189 15.1822 67.2843 15.0877C67.2498 14.9931 67.235 14.8925 67.2409 14.7919V14.7925ZM67.5447 12.9944L67.3777 6.95801H68.5937L68.4151 12.9944H67.5447Z" fill="#2CB9A0"/>
<path d="M70.1285 14.7925C70.1225 14.6916 70.1375 14.5905 70.1723 14.4956C70.2072 14.4007 70.2612 14.314 70.331 14.2409C70.4008 14.1678 70.4849 14.1099 70.578 14.0707C70.6712 14.0316 70.7714 14.0121 70.8724 14.0135C71.075 14.019 71.2676 14.1034 71.409 14.2489C71.5504 14.3943 71.6295 14.5893 71.6295 14.7922C71.6295 14.9952 71.5504 15.1901 71.409 15.3356C71.2676 15.481 71.075 15.5655 70.8724 15.571C70.7714 15.5723 70.6712 15.5528 70.578 15.5137C70.4849 15.4746 70.4008 15.4167 70.331 15.3436C70.2612 15.2705 70.2072 15.1838 70.1723 15.0889C70.1375 14.994 70.1225 14.8929 70.1285 14.7919V14.7925ZM70.4323 12.9944L70.2561 6.95801H71.4744L71.3027 12.9944H70.4323Z" fill="#2CB9A0"/>
<defs>
<linearGradient id="paint0_linear_1010_2357" x1="115.615" y1="38.4795" x2="115.615" y2="114.497" gradientUnits="userSpaceOnUse">
<stop stop-color="#22A9C0"/>
<stop offset="1" stop-color="#37CA7E"/>
</linearGradient>
<linearGradient id="paint1_linear_1010_2357" x1="92.2232" y1="30.6045" x2="92.2232" y2="38.4785" gradientUnits="userSpaceOnUse">
<stop stop-color="#22A9C0"/>
<stop offset="1" stop-color="#37CA7E"/>
</linearGradient>
<linearGradient id="paint2_linear_1010_2357" x1="58.5" y1="87.4995" x2="165" y2="63.4995" gradientUnits="userSpaceOnUse">
<stop stop-color="#22A9C0"/>
<stop offset="1" stop-color="#03BD90"/>
</linearGradient>
</defs>
</svg>
