<svg width="161" height="191" viewBox="0 0 161 191" fill="none" xmlns="http://www.w3.org/2000/svg">
<path d="M156.335 22.6103L81.754 0.235365C80.7094 -0.0784549 79.5967 -0.0784549 78.5522 0.235365L3.9684 22.6103C1.6139 23.3169 0 25.4858 0 27.9452V109.986C0 120.658 4.31987 131.58 12.8395 142.453C19.3462 150.757 28.3482 159.095 39.5953 167.237C58.4887 180.914 77.0943 189.303 77.877 189.653C78.6006 189.977 79.3771 190.14 80.1526 190.14C80.9291 190.14 81.7056 189.978 82.4291 189.653C83.211 189.303 101.816 180.914 120.711 167.237C131.957 159.095 140.959 150.757 147.466 142.453C155.985 131.581 160.305 120.658 160.305 109.986V27.9452C160.305 25.4858 158.692 23.3169 156.335 22.6103Z" fill="url(#paint0_linear_934_2731)"/>
<path d="M102.394 78.2151H54.5001C48.0278 78.2151 42.7314 83.5114 42.7314 89.983V121.202C42.7314 127.674 48.0278 132.971 54.5001 132.971H102.394C108.866 132.971 114.163 127.674 114.163 121.202V89.983C114.163 83.5114 108.866 78.2151 102.394 78.2151ZM78.4471 115.335C73.7581 115.335 69.9552 111.532 69.9552 106.842C69.9552 102.152 73.7581 98.3505 78.4471 98.3505C83.1385 98.3505 86.9391 102.152 86.9391 106.842C86.9391 111.532 83.1385 115.335 78.4471 115.335Z" fill="white"/>
<path d="M59.0292 81.6406C57.1573 81.2084 55.7353 79.5592 55.6741 77.5483L55.3382 66.6358C54.9529 54.0466 64.882 43.4911 77.4714 43.105C90.0606 42.7196 100.617 52.6474 101.003 65.2367L101.314 75.4419C101.388 77.8356 99.5069 79.8354 97.1133 79.9085C94.7221 79.9821 92.7214 78.1015 92.6483 75.7079L92.3351 65.5023C92.0954 57.6921 85.5476 51.5321 77.7374 51.771C69.9272 52.0107 63.7668 58.56 64.0057 66.3702L64.3407 77.2832C64.4147 79.6762 62.5335 81.676 60.14 81.7491C59.758 81.7612 59.3853 81.7228 59.0292 81.6406Z" fill="#616161"/>
<defs>
<linearGradient id="paint0_linear_934_2731" x1="80.1526" y1="0" x2="80.1526" y2="190.14" gradientUnits="userSpaceOnUse">
<stop stop-color="#22A9C0"/>
<stop offset="1" stop-color="#36C780"/>
</linearGradient>
</defs>
</svg>
