<svg width="19" height="19" viewBox="0 0 19 19" fill="none" xmlns="http://www.w3.org/2000/svg">
<path fill-rule="evenodd" clip-rule="evenodd" d="M13.6966 0.833008C16.7191 0.833008 18.7499 2.95467 18.7499 6.11217V13.4705C18.7499 16.628 16.7191 18.7497 13.6966 18.7497H5.88659C2.86409 18.7497 0.833252 16.628 0.833252 13.4705V6.11217C0.833252 2.95467 2.86409 0.833008 5.88659 0.833008H13.6966ZM13.6966 2.08301H5.88659C3.57659 2.08301 2.08325 3.66384 2.08325 6.11217V13.4705C2.08325 15.9188 3.57659 17.4997 5.88659 17.4997H13.6966C16.0074 17.4997 17.4999 15.9188 17.4999 13.4705V6.11217C17.4999 3.66384 16.0074 2.08301 13.6966 2.08301ZM9.79159 6.10576C10.1366 6.10576 10.4166 6.38576 10.4166 6.73076V9.15801L12.847 9.15817C13.192 9.15817 13.472 9.43818 13.472 9.78317C13.472 10.1282 13.192 10.4082 12.847 10.4082L10.4166 10.408V12.8366C10.4166 13.1816 10.1366 13.4616 9.79159 13.4616C9.44659 13.4616 9.16659 13.1816 9.16659 12.8366V10.408L6.73617 10.4082C6.39034 10.4082 6.11117 10.1282 6.11117 9.78317C6.11117 9.43818 6.39034 9.15817 6.73617 9.15817L9.16659 9.15801V6.73076C9.16659 6.38576 9.44659 6.10576 9.79159 6.10576Z" fill="white"/>
</svg>
