<svg width="45" height="44" viewBox="0 0 45 44" fill="none" xmlns="http://www.w3.org/2000/svg">
<path d="M22.25 33.3667C26.3 33.3667 29.5833 30.0834 29.5833 26.0333C29.5833 21.9833 26.3 18.7 22.25 18.7C18.1999 18.7 14.9166 21.9833 14.9166 26.0333C14.9166 30.0834 18.1999 33.3667 22.25 33.3667Z" stroke="#292D32" strokeWidth="1.5" strokeMiterlimit="10" strokeLinecap="round" strokeLinejoin="round"/>
<path d="M19.39 26.2166L20.5817 27.4083C20.93 27.7566 21.4983 27.7566 21.8467 27.4266L25.11 24.42" stroke="#292D32" strokeWidth="1.5" strokeLinecap="round" strokeLinejoin="round"/>
<path d="M14.9167 40.3333H29.5833C36.9533 40.3333 38.2733 37.3817 38.6583 33.7883L40.0333 19.1217C40.5283 14.6483 39.245 11 31.4167 11H13.0833C5.25501 11 3.97167 14.6483 4.46667 19.1217L5.84167 33.7883C6.22667 37.3817 7.54667 40.3333 14.9167 40.3333Z" stroke="#292D32" strokeWidth="1.5" strokeMiterlimit="10" strokeLinecap="round" strokeLinejoin="round"/>
<path d="M14.9166 11V9.53335C14.9166 6.28835 14.9166 3.66669 20.7833 3.66669H23.7166C29.5833 3.66669 29.5833 6.28835 29.5833 9.53335V11" stroke="#292D32" strokeWidth="1.5" strokeMiterlimit="10" strokeLinecap="round" strokeLinejoin="round"/>
<path d="M39.9417 20.1667C36.77 22.4767 33.25 24.09 29.6017 25.0067" stroke="#292D32" strokeWidth="1.5" strokeMiterlimit="10" strokeLinecap="round" strokeLinejoin="round"/>
<path d="M5.05334 20.6617C8.11501 22.7517 11.4517 24.2367 14.9167 25.08" stroke="#292D32" strokeWidth="1.5" strokeMiterlimit="10" strokeLinecap="round" strokeLinejoin="round"/>
</svg>
