<svg width="45" height="44" viewBox="0 0 45 44" fill="none" xmlns="http://www.w3.org/2000/svg">
<path d="M31.2916 33.7884H23.9583L15.7999 39.215C14.5899 40.0217 12.9583 39.1601 12.9583 37.6934V33.7884C7.45829 33.7884 3.79163 30.1218 3.79163 24.6218V13.6217C3.79163 8.12165 7.45829 4.45499 12.9583 4.45499H31.2916C36.7916 4.45499 40.4583 8.12165 40.4583 13.6217V24.6218C40.4583 30.1218 36.7916 33.7884 31.2916 33.7884Z" stroke="#292D32" strokeWidth="1.5" strokeMiterlimit="10" strokeLinecap="round" strokeLinejoin="round"/>
<path d="M22.1249 20.8266V20.4417C22.1249 19.195 22.895 18.535 23.665 18.0033C24.4167 17.49 25.1682 16.83 25.1682 15.62C25.1682 13.9334 23.8116 12.5766 22.1249 12.5766C20.4383 12.5766 19.0817 13.9334 19.0817 15.62" stroke="#292D32" strokeWidth="1.5" strokeLinecap="round" strokeLinejoin="round"/>
<path d="M22.1168 25.2083H22.1333" stroke="#292D32" strokeWidth="1.5" strokeLinecap="round" strokeLinejoin="round"/>
</svg>
