<svg xmlns="http://www.w3.org/2000/svg" width="274.198" height="35.099" viewBox="0 0 274.198 35.099">
  <g id="Group_2104" data-name="Group 2104" transform="translate(-107 -361.657)">
    <g id="Group_2103" data-name="Group 2103">
      <g id="Group_2102" data-name="Group 2102">
        <g id="Group_2101" data-name="Group 2101">
          <g id="Group_2100" data-name="Group 2100">
            <g id="Group_2099" data-name="Group 2099">
              <g id="Group_2098" data-name="Group 2098">
                <g id="Group_2097" data-name="Group 2097">
                  <g id="Group_2096" data-name="Group 2096">
                    <path id="Path_1482" data-name="Path 1482" d="M2252.909,6768.249v-21.466L2269.775,6732l17.89,14.782v21.466h-34.756Z" transform="translate(6875.248 -1890.909) rotate(90)" fill="#02c076" opacity="0.25"/>
                    <path id="Path_1483" data-name="Path 1483" d="M2252.909,6766.2v-20.251L2269.775,6732l17.89,13.946V6766.2l-17.89-11.387Z" transform="translate(6901.197 -1890.909) rotate(90)" fill="#2effae" opacity="0.2"/>
                  </g>
                  <path id="Path_1484" data-name="Path 1484" d="M2252.909,6766.2v-20.251L2269.775,6732l17.89,13.946V6766.2l-17.89-11.387Z" transform="translate(6928.197 -1890.909) rotate(90)" fill="#4dffba" opacity="0.18"/>
                </g>
                <path id="Path_1485" data-name="Path 1485" d="M2252.909,6766.2v-20.251L2269.775,6732l17.89,13.946V6766.2l-17.89-11.387Z" transform="translate(6954.197 -1890.909) rotate(90)" fill="#58ffbe" opacity="0.16"/>
              </g>
              <path id="Path_1486" data-name="Path 1486" d="M2252.909,6766.2v-20.251L2269.774,6732l17.89,13.946V6766.2l-17.89-11.387Z" transform="translate(6981.197 -1890.908) rotate(90)" fill="#76ffca" opacity="0.14"/>
            </g>
            <path id="Path_1487" data-name="Path 1487" d="M2252.908,6766.2v-20.251L2269.774,6732l17.89,13.946V6766.2l-17.89-11.387Z" transform="translate(7007.197 -1890.908) rotate(90)" fill="#80facb" opacity="0.14"/>
          </g>
          <path id="Path_1488" data-name="Path 1488" d="M2252.909,6766.2v-20.251L2269.774,6732l17.89,13.946V6766.2l-17.89-11.387Z" transform="translate(7034.197 -1890.908) rotate(90)" fill="#93fad2" opacity="0.12"/>
        </g>
        <path id="Path_1489" data-name="Path 1489" d="M2252.909,6766.2v-20.251L2269.774,6732l17.89,13.946V6766.2l-17.89-11.387Z" transform="translate(7060.197 -1890.908) rotate(90)" fill="#adfcdd" opacity="0.1"/>
      </g>
      <path id="Path_1490" data-name="Path 1490" d="M2252.909,6766.2v-20.251L2269.941,6732l18.067,13.946V6766.2l-18.067-11.387Z" transform="translate(7087.197 -1891.252) rotate(90)" fill="#b6fde2" opacity="0.08"/>
    </g>
    <path id="Path_1491" data-name="Path 1491" d="M2252.909,6766.2v-20.251L2269.941,6732l18.067,13.946V6766.2l-18.067-11.387Z" transform="translate(7113.197 -1891.252) rotate(90)" fill="#ccffeb" opacity="0.08"/>
  </g>
</svg>
