<svg xmlns="http://www.w3.org/2000/svg" width="168.199" height="35.11" viewBox="0 0 168.199 35.11">
  <g id="Group_2110" data-name="Group 2110" transform="translate(-133 0.161)">
    <g id="Group_2109" data-name="Group 2109">
      <g id="Group_2108" data-name="Group 2108">
        <g id="Group_2107" data-name="Group 2107">
          <g id="Group_2106" data-name="Group 2106">
            <path id="Path_1482" data-name="Path 1482" d="M0,0V21.466L16.866,36.248l17.89-14.782V0H0Z" transform="translate(301.199) rotate(90)" fill="#fd2717" opacity="0.25"/>
            <path id="Path_1483" data-name="Path 1483" d="M0,0V20.251L16.866,34.2l17.89-13.946V0L16.866,11.387Z" transform="translate(273.199) rotate(90)" fill="#fc372a" opacity="0.2"/>
          </g>
          <path id="Path_1484" data-name="Path 1484" d="M0,0V20.251L17.038,34.2,35.11,20.251V0L17.038,11.387Z" transform="translate(246.197 -0.161) rotate(90)" fill="#fc4538" opacity="0.18"/>
        </g>
        <path id="Path_1485" data-name="Path 1485" d="M0,0V20.251L17.038,34.2,35.11,20.251V0L17.038,11.387Z" transform="translate(220.197 -0.161) rotate(90)" fill="#fc5f54" opacity="0.16"/>
      </g>
      <path id="Path_1486" data-name="Path 1486" d="M0,0V20.251L17.038,34.2,35.11,20.251V0L17.038,11.387Z" transform="translate(193.198 -0.161) rotate(90)" fill="#fc8077" opacity="0.14"/>
    </g>
    <path id="Path_1487" data-name="Path 1487" d="M0,0V20.251L17.038,34.2,35.11,20.251V0L17.038,11.387Z" transform="translate(167.198 -0.161) rotate(90)" fill="#fd9d95" opacity="0.12"/>
  </g>
</svg>
