<svg width="46" height="50" viewBox="0 0 46 50" fill="none" xmlns="http://www.w3.org/2000/svg">
<g clipPath="url(#clip0_58_1295)">
<path d="M19.7712 28.9763L19.275 35.9563C19.985 35.9563 20.2925 35.6513 20.6612 35.285L23.99 32.1038L30.8875 37.155C32.1525 37.86 33.0437 37.4888 33.385 35.9913L37.9125 14.7763L37.9137 14.775C38.315 12.905 37.2375 12.1738 36.005 12.6325L9.39248 22.8213C7.57623 23.5263 7.60373 24.5388 9.08373 24.9975L15.8875 27.1138L31.6912 17.225C32.435 16.7325 33.1112 17.005 32.555 17.4975L19.7712 28.9763Z" fill="white"/>
</g>
<rect x="0.5" y="0.5" width="45" height="49" rx="7.5" stroke="white"/>
<defs>
<clipPath id="clip0_58_1295">
<rect width="30" height="30" fill="white" transform="translate(8 10)"/>
</clipPath>
</defs>
</svg>
