<svg width="50" height="50" viewBox="0 0 50 50" fill="none" xmlns="http://www.w3.org/2000/svg">
<path d="M36.97 17.56C36.07 17.95 35.14 18.22 34.15 18.34C35.17 17.74 35.95 16.78 36.31 15.61C35.35 16.18 34.3 16.57 33.19 16.81C32.29 15.85 31 15.25 29.59 15.25C26.86 15.25 24.67 17.47 24.67 20.17C24.67 20.56 24.7 20.92 24.79 21.28C20.71 21.1 17.11 19.12 14.68 16.15C12.94 19.27 14.89 21.85 16.18 22.72C15.4 22.72 14.62 22.48 13.96 22.12C13.96 24.55 15.67 26.56 17.89 27.01C17.41 27.16 16.33 27.25 15.67 27.1C16.3 29.05 18.13 30.49 20.26 30.52C18.58 31.84 16.12 32.89 12.97 32.56C15.16 33.97 17.74 34.78 20.53 34.78C29.59 34.78 34.51 27.28 34.51 20.8C34.51 20.59 34.51 20.38 34.48 20.17C35.5 19.42 36.34 18.55 36.97 17.56Z" fill="white"/>
<rect x="0.5" y="0.5" width="49" height="49" rx="7.5" stroke="white"/>
</svg>
