<svg width="21" height="20" viewBox="0 0 21 20" fill="none" xmlns="http://www.w3.org/2000/svg">
<path fill-rule="evenodd" clip-rule="evenodd" d="M14.6416 0C17.9486 0 20.6386 2.69 20.6386 5.998V13.175C20.6386 16.482 17.9486 19.173 14.6416 19.173H5.99763C2.69063 19.173 -0.000366211 16.482 -0.000366211 13.175V5.998C-0.000366211 2.69 2.69063 0 5.99763 0H14.6416ZM14.6416 1.5H5.99763C3.51763 1.5 1.49963 3.518 1.49963 5.998V13.175C1.49963 15.655 3.51763 17.673 5.99763 17.673H14.6416C17.1216 17.673 19.1386 15.655 19.1386 13.175V12.895L15.8407 12.8956C13.9437 12.8956 12.3997 11.3526 12.3987 9.4566C12.3987 7.5586 13.9427 6.0146 15.8407 6.0136L19.1386 6.013V5.998C19.1386 3.518 17.1216 1.5 14.6416 1.5ZM19.1386 7.513L15.8407 7.5136C14.7697 7.5146 13.8987 8.3856 13.8987 9.4556C13.8987 10.5246 14.7707 11.3956 15.8407 11.3956L19.1386 11.395V7.513ZM16.2983 8.6436C16.7123 8.6436 17.0483 8.9796 17.0483 9.3936C17.0483 9.8076 16.7123 10.1436 16.2983 10.1436H15.9863C15.5723 10.1436 15.2363 9.8076 15.2363 9.3936C15.2363 8.9796 15.5723 8.6436 15.9863 8.6436H16.2983ZM10.6846 4.5381C11.0986 4.5381 11.4346 4.8741 11.4346 5.2881C11.4346 5.7021 11.0986 6.0381 10.6846 6.0381H5.28563C4.87163 6.0381 4.53563 5.7021 4.53563 5.2881C4.53563 4.8741 4.87163 4.5381 5.28563 4.5381H10.6846Z" fill="#F7F8FA"/>
</svg>
