<svg width="20" height="26" viewBox="0 0 20 26" fill="none" xmlns="http://www.w3.org/2000/svg">
<path fill-rule="evenodd" clip-rule="evenodd" d="M5.46782 2.96783C5.03893 3.39672 4.85701 3.90154 4.78771 4.40054C6.13966 4.10837 7.84915 4 10 4C12.1508 4 13.8603 4.10837 15.2123 4.40054C15.143 3.90153 14.9611 3.39672 14.5322 2.96783C13.9206 2.35621 12.6566 1.75 10 1.75C7.34342 1.75 6.07944 2.35621 5.46782 2.96783ZM4.40716 1.90717C3.43422 2.88011 3.26501 4.05691 3.25102 4.87857C0.695624 5.98922 0 8.34713 0 13C0 17.6529 0.695625 20.0108 3.25102 21.1214C3.26501 21.9431 3.43422 23.1199 4.40716 24.0928C5.42054 25.1062 7.15657 25.75 10 25.75C12.8434 25.75 14.5795 25.1062 15.5928 24.0928C16.5658 23.1199 16.735 21.9431 16.749 21.1214C19.3044 20.0108 20 17.6529 20 13C20 8.34712 19.3044 5.98922 16.749 4.87857C16.735 4.05692 16.5658 2.88012 15.5928 1.90717C14.5795 0.893789 12.8434 0.25 10 0.25C7.15657 0.25 5.42054 0.893789 4.40716 1.90717ZM15.2123 21.5995C13.8603 21.8916 12.1508 22 10 22C7.84915 22 6.13966 21.8916 4.78771 21.5995C4.85701 22.0985 5.03893 22.6033 5.46782 23.0322C6.07944 23.6438 7.34342 24.25 10 24.25C12.6566 24.25 13.9206 23.6438 14.5322 23.0322C14.9611 22.6033 15.143 22.0985 15.2123 21.5995ZM2.91532 19.1644C1.99012 18.3317 1.5 16.7425 1.5 13C1.5 9.25748 1.99012 7.66831 2.91532 6.83563C3.38161 6.41597 4.08945 6.06852 5.25756 5.83487C6.43463 5.59944 7.97173 5.5 10 5.5C12.0283 5.5 13.5654 5.59944 14.7424 5.83487C15.9105 6.06852 16.6184 6.41597 17.0847 6.83563C18.0099 7.66831 18.5 9.25748 18.5 13C18.5 16.7425 18.0099 18.3317 17.0847 19.1644C16.6184 19.584 15.9105 19.9315 14.7424 20.1651C13.5654 20.4006 12.0283 20.5 10 20.5C7.97173 20.5 6.43463 20.4006 5.25756 20.1651C4.08945 19.9315 3.38161 19.584 2.91532 19.1644Z" fill="#F7F8FA"/>
<path d="M10.75 10C10.75 9.58579 10.4142 9.25 10 9.25C9.58579 9.25 9.25 9.58579 9.25 10H10.75ZM10 13H9.25H10ZM15 14.75C15.4142 14.75 15.75 14.4142 15.75 14C15.75 13.5858 15.4142 13.25 15 13.25V14.75ZM9.25 10V13H10.75V10H9.25ZM9.25 13C9.25 13.2317 9.24889 13.469 9.27021 13.6609C9.29092 13.8473 9.3463 14.157 9.59466 14.4053C9.84304 14.6537 10.1527 14.7091 10.339 14.7298C10.531 14.7511 10.7683 14.75 11 14.75V13.25C10.8727 13.25 10.7717 13.25 10.6852 13.2482C10.5981 13.2464 10.542 13.2431 10.5047 13.239C10.4659 13.2347 10.471 13.2318 10.4982 13.2416C10.5316 13.2536 10.5937 13.2831 10.6553 13.3447C10.7169 13.4063 10.7464 13.4684 10.7584 13.5018C10.7682 13.529 10.7653 13.5341 10.761 13.4953C10.7569 13.458 10.7536 13.4019 10.7518 13.3148C10.75 13.2283 10.75 13.1273 10.75 13H9.25ZM11 14.75H15V13.25H11V14.75Z" fill="#F7F8FA"/>
</svg>
