<svg width="24" height="24" viewBox="0 0 24 24" fill="none" xmlns="http://www.w3.org/2000/svg">
<path fill-rule="evenodd" clip-rule="evenodd" d="M22.8184 15.1911C23.3003 15.2272 23.6608 15.6484 23.6246 16.1302L23.4029 19.0574C23.2198 21.4724 21.1816 23.3636 18.7608 23.3636H5.22744C2.8066 23.3636 0.768435 21.4724 0.585268 19.0574L0.363601 16.1302C0.327435 15.6484 0.689102 15.2272 1.17093 15.1911C1.6551 15.1736 2.07277 15.5154 2.1101 15.9984L2.3306 18.9244C2.44493 20.4317 3.7166 21.6136 5.22744 21.6136H18.7608C20.2716 21.6136 21.5444 20.4317 21.6576 18.9244L21.8793 15.9984C21.9166 15.5154 22.3448 15.1724 22.8184 15.1911ZM13.4993 0.33345C15.2528 0.33345 16.7054 1.64743 16.9242 3.34231L19.222 3.34333C21.6673 3.34333 23.6553 5.33717 23.6553 7.7895V11.8017C23.6553 12.1132 23.4896 12.4002 23.2225 12.5565C20.3428 14.2429 16.6948 15.2266 12.8689 15.3578L12.8693 17.4562C12.8693 17.9392 12.4773 18.3312 11.9943 18.3312C11.5113 18.3312 11.1193 17.9392 11.1193 17.4562L11.1186 15.358C7.2965 15.228 3.6483 14.2442 0.766451 12.5565C0.498118 12.4002 0.333618 12.1132 0.333618 11.8017V7.77783C0.333618 5.3325 2.32745 3.34333 4.77862 3.34333L7.06448 3.34231C7.28327 1.64743 8.73591 0.33345 10.4893 0.33345H13.4993ZM19.222 5.09333H4.77862C3.29228 5.09333 2.08362 6.29733 2.08362 7.77783V11.2918C4.85295 12.7966 8.34422 13.6212 11.9781 13.6228L11.9943 13.6213L12.0073 13.6218L12.5628 13.616C15.9996 13.5341 19.2781 12.7187 21.9053 11.2918V7.7895C21.9053 6.302 20.7025 5.09333 19.222 5.09333ZM13.4993 2.08345H10.4893C9.70377 2.08345 9.04064 2.6181 8.84474 3.34261H15.1439C14.948 2.6181 14.2849 2.08345 13.4993 2.08345Z" fill="#F7F8FA"/>
</svg>
