<svg xmlns="http://www.w3.org/2000/svg" xmlns:xlink="http://www.w3.org/1999/xlink" width="160.904" height="133.957" viewBox="0 0 160.904 133.957">
    <defs>
        <linearGradient id="bnu2rkdz4a" x1="1.226" y1=".933" x2=".129" y2="-.038" gradientUnits="objectBoundingBox">
            <stop offset="0" stop-color="#b27e11"/>
            <stop offset=".341" stop-color="#b48014"/>
            <stop offset=".555" stop-color="#ba881d"/>
            <stop offset=".734" stop-color="#c5962c"/>
            <stop offset=".754" stop-color="#c7982e"/>
            <stop offset=".806" stop-color="#cc9f35"/>
            <stop offset=".888" stop-color="#dbb44d"/>
            <stop offset=".989" stop-color="#f4d876"/>
            <stop offset="1" stop-color="#f7dd7c"/>
        </linearGradient>
        <linearGradient id="qpj4ibun1b" x1="1.058" y1=".983" x2=".159" y2=".205" xlink:href="#bnu2rkdz4a"/>
        <linearGradient id="q4bwrxs5ec" x1="-.001" y1="1.001" x2=".999" y2=".001" gradientUnits="objectBoundingBox">
            <stop offset="0" stop-color="#b27e11"/>
            <stop offset=".229" stop-color="#b7851a"/>
            <stop offset=".568" stop-color="#c6982d"/>
            <stop offset=".575" stop-color="#c7982e"/>
            <stop offset=".665" stop-color="#cc9f35"/>
            <stop offset=".806" stop-color="#dbb44d"/>
            <stop offset=".98" stop-color="#f4d876"/>
            <stop offset="1" stop-color="#f7dd7c"/>
        </linearGradient>
        <linearGradient id="89izr4fdpd" y1=".999" x2="1" gradientUnits="objectBoundingBox">
            <stop offset="0" stop-color="#b27e11"/>
            <stop offset=".33" stop-color="#bd8b21"/>
            <stop offset=".57" stop-color="#c7982e"/>
            <stop offset=".661" stop-color="#cc9f35"/>
            <stop offset=".804" stop-color="#dbb44d"/>
            <stop offset=".98" stop-color="#f4d876"/>
            <stop offset="1" stop-color="#f7dd7c"/>
        </linearGradient>
        <linearGradient id="cz2bw9g78e" x1=".652" y1="1.146" x2="-.194" y2=".081" xlink:href="#bnu2rkdz4a"/>
    </defs>
    <g data-name="FIN_LOGO HAFEZ_M_B-01">
        <g data-name="Group 2018">
            <g data-name="Group 2016" style="opacity:.4">
                <path data-name="Path 1809" d="M506.8 248.881v31.945a19.861 19.861 0 0 0-4.446-4.055v-27.89a11.133 11.133 0 0 0-11.1-11.116h-2.223v-2.223a11.129 11.129 0 0 0-11.111-11.116h-2.24v-4.446h2.242a15.574 15.574 0 0 1 15.414 13.477 15.594 15.594 0 0 1 13.464 15.424z" transform="translate(-392.921 -215.534)" style="fill:url(#bnu2rkdz4a)"/>
            </g>
            <g data-name="Group 2017">
                <path data-name="Path 1810" d="M418.508 275.137v11.14h-4.461v-2.233a11.134 11.134 0 0 0-8.893-10.892v-33.605a6.667 6.667 0 0 1 6.665-6.66h2.223v-2.223A6.672 6.672 0 0 1 420.7 224l2.223-.014v-2.223a6.666 6.666 0 0 1 6.66-6.66h2.247v-4.443h-2.247a11.126 11.126 0 0 0-10.92 9.084 11.137 11.137 0 0 0-8.878 8.883 11.124 11.124 0 0 0-9.06 10.543h-.019v47.111h-8.886v4.446h40.013V264.04h-2.223a11.108 11.108 0 0 0-11.102 11.097zm-13.353 11.14v-8.525a6.683 6.683 0 0 1 4.451 6.293v2.233zm22.237 0h-4.437v-11.14a6.674 6.674 0 0 1 4.437-6.278z" transform="translate(-349.069 -210.66)" style="fill:url(#qpj4ibun1b)"/>
                <path data-name="Rectangle 2805" transform="translate(73.871 40.022)" style="fill:url(#q4bwrxs5ec)" d="M0 0h4.446v4.446H0z"/>
                <path data-name="Rectangle 2806" transform="translate(60.527 53.371)" style="fill:url(#89izr4fdpd)" d="M0 0h4.446v4.451H0z"/>
                <path data-name="Path 1811" d="M511.546 320.46a15.512 15.512 0 0 0-15.338-13.353h-2.3v4.446h2.3a11.06 11.06 0 0 1 10.834 8.907h-17.556v-44.43h-4.446v48.87h35.514v-4.446h-9.007z" transform="translate(-397.816 -244.843)" style="fill:url(#cz2bw9g78e)"/>
            </g>
        </g>
        <g data-name="Group 2031" style="opacity:.7">
            <g data-name="Group 2019">
                <path data-name="Path 1812" d="M129.037 308.492v6.045H109.93V294.7h3.6v16.24h12.07v-1.818a1.963 1.963 0 0 0-.243-.892 2.166 2.166 0 0 0-.7-.682 2.118 2.118 0 0 0-1.1-.262h-6.889v-3.616h1.05l-.019.019h5.911a5.92 5.92 0 0 1 1.99.311 2.517 2.517 0 0 1 .4.157 4.871 4.871 0 0 1 2.724 2.967 6.476 6.476 0 0 1 .313 1.368z" transform="translate(-73.663 -204.606)" style="fill:#fff"/>
            </g>
            <g data-name="Group 2020">
                <path data-name="Rectangle 2807" style="fill:#fff" d="M0 0h3.602v19.985H0z" transform="translate(91.365 90.094)"/>
            </g>
            <g data-name="Group 2021">
                <path data-name="Path 1813" d="M301.88 318.806v.873c0 .305-.01.625-.029.949a28.6 28.6 0 0 1-.219 3.411 15.947 15.947 0 0 1-.525 1.775 5.241 5.241 0 0 1-1.975 2.743 6.409 6.409 0 0 1-1.865.945 8.933 8.933 0 0 1-2.409.391c-.9.029-1.7.038-2.967-.024l.014-3.406c.763.019 1.116.033 1.875.029a8.258 8.258 0 0 0 1.9-.11 3.567 3.567 0 0 0 1.56-.82 2.885 2.885 0 0 0 .859-1.66c.072-.859.124-1.751.162-2.672s.043-1.923.024-3.01v-4.81h3.592z" transform="translate(-168.813 -214.39)" style="fill:#fff"/>
            </g>
            <g data-name="Group 2022">
                <path data-name="Path 1814" d="M206.79 318.811v.873c0 .305-.01.625-.029.949a28.579 28.579 0 0 1-.219 3.411 15.955 15.955 0 0 1-.525 1.775 5.242 5.242 0 0 1-1.975 2.743 6.408 6.408 0 0 1-1.865.945 8.931 8.931 0 0 1-2.409.391c-.9.029-1.7.038-2.967-.024l.014-3.406c.763.019 1.116.033 1.875.029a8.269 8.269 0 0 0 1.9-.11 3.569 3.569 0 0 0 1.56-.821 2.885 2.885 0 0 0 .859-1.66c.072-.859.124-1.751.162-2.672s.043-1.923.024-3.01v-4.8h3.592z" transform="translate(-119.089 -214.396)" style="fill:#fff"/>
            </g>
            <g data-name="Group 2023">
                <path data-name="Path 1815" d="m249.905 294.72.014 3.712-3.65-.019v-3.693z" transform="translate(-144.958 -204.617)" style="fill:#fff"/>
            </g>
            <g data-name="Group 2024">
                <path data-name="Rectangle 2808" style="fill:#fff" d="M0 0h3.645v3.688H0z" transform="translate(26.401 90.084)"/>
            </g>
            <g data-name="Group 2025">
                <path data-name="Rectangle 2809" style="fill:#fff" d="M0 0h3.645v3.688H0z" transform="translate(11.55 90.084)"/>
            </g>
            <g data-name="Group 2026">
                <path data-name="Path 1816" d="M260.694 303.293a3.231 3.231 0 0 1-.124-1.412 4.01 4.01 0 0 1 .253-.949 4.821 4.821 0 0 1 .429-.806 8.051 8.051 0 0 1 .558-.735c.205-.239.415-.491.63-.744l3.23-3.936h2.43z" transform="translate(-152.421 -204.612)" style="fill:#fff"/>
            </g>
            <g data-name="Group 2027">
                <path data-name="Path 1817" d="M343.683 307.109a3.239 3.239 0 0 0-.243-.558 5.234 5.234 0 0 0-.787-1.169 4.978 4.978 0 0 0-1.713-1.221 2.712 2.712 0 0 0-.472-.177 5.609 5.609 0 0 0-1.923-.3h-7.266l8.02-8.988h-5.081l-5.3 6.192c-.21.262-.42.506-.63.749a5.626 5.626 0 0 0-.558.735 4.507 4.507 0 0 0-.439.8 4.974 4.974 0 0 0-.243.945 2.777 2.777 0 0 0 .138 1.4 2.675 2.675 0 0 0 .682 1 2.706 2.706 0 0 0 1.116.592 3.5 3.5 0 0 0 1.155.177h8.368a2.129 2.129 0 0 1 1.1.262 1.836 1.836 0 0 1 .682.682 2.25 2.25 0 0 1 .138.315v2.395h-3.2v-.019h-14.311v-16.2h-3.6v16.2h-.016v3.764h24.717V309.1a6.1 6.1 0 0 0-.334-1.991z" transform="translate(-183.147 -204.606)" style="fill:#fff"/>
            </g>
            <g data-name="Group 2028">
                <path data-name="Path 1818" d="M264.193 309.108a6.049 6.049 0 0 0-.334-1.989 3.237 3.237 0 0 0-.243-.558 5.232 5.232 0 0 0-.787-1.169 4.976 4.976 0 0 0-1.713-1.221 2.711 2.711 0 0 0-.472-.177 5.609 5.609 0 0 0-1.923-.3h-7.266l7.953-8.988h-5.081L249.1 300.9c-.21.262-.42.506-.63.749a5.626 5.626 0 0 0-.558.735 4.5 4.5 0 0 0-.439.8 4.975 4.975 0 0 0-.243.945 2.775 2.775 0 0 0 .138 1.4 2.674 2.674 0 0 0 .682 1 2.708 2.708 0 0 0 1.116.592 3.507 3.507 0 0 0 1.155.177h8.368a2.13 2.13 0 0 1 1.1.262 1.836 1.836 0 0 1 .682.682 2.265 2.265 0 0 1 .138.315v2.395h-3.2v-.019H243.1v-.072c.019-.329.029-.644.029-.949v-6.264h-3.592v4.8c.019 1.083.014 2.09-.024 3.01s-.091 1.813-.162 2.672a2.9 2.9 0 0 1-.859 1.66 3.517 3.517 0 0 1-1.56.821 8.263 8.263 0 0 1-1.9.11c-.759 0-1.116-.01-1.875-.029l-.014 3.406c1.259.062 2.071.052 2.967.024a8.747 8.747 0 0 0 2.409-.391 6.409 6.409 0 0 0 1.865-.945 5.825 5.825 0 0 0 1.336-1.384 7.028 7.028 0 0 0 .744-1.465c.143-.434.229-.735.348-1.24h21.373v-5.591z" transform="translate(-138.092 -204.612)" style="fill:#fff"/>
            </g>
            <g data-name="Group 2029">
                <path data-name="Path 1819" d="M177.117 311.67a4.2 4.2 0 0 0-.487-1.641 4.708 4.708 0 0 0-1.1-1.417 5.1 5.1 0 0 0-1.746-.978 9.227 9.227 0 0 0-1.155-.282c-.386-.052-.768-.086-1.155-.1s-.8-.019-1.188-.019H169.1a9.881 9.881 0 0 1 2.08-2.08 13.9 13.9 0 0 1 2.481-1.45l-2.2-2.848c-.4.262-.854.558-1.326.892-.487.315-.959.663-1.45 1.03a14.5 14.5 0 0 0-1.345 1.188 7.7 7.7 0 0 0-1.083 1.345 5.327 5.327 0 0 0-.644 1.517 4.36 4.36 0 0 0-.033 1.727 2.514 2.514 0 0 0 .386.926 2.205 2.205 0 0 0 .749.749 3.445 3.445 0 0 0 1.155.472 4.8 4.8 0 0 0 1.555.124l1.937-.019a2.13 2.13 0 0 1 1.1.229 2.2 2.2 0 0 1 .735.611 1.911 1.911 0 0 1 .3.821 1.532 1.532 0 0 1-.157.8 1.5 1.5 0 0 1-.611.611 2.237 2.237 0 0 1-1.155.262h-1.431v-.019h-7.08v-4h-3.6v7.619l12.156-.019a5.4 5.4 0 0 0 2.028-.348 5.039 5.039 0 0 0 1.608-.945 4.983 4.983 0 0 0 1.135-1.379 6.556 6.556 0 0 0 .644-1.641 5.278 5.278 0 0 0 .083-1.738z" transform="translate(-99.563 -207.822)" style="fill:#fff"/>
            </g>
            <g data-name="Group 2030">
                <path data-name="Path 1820" d="M66.418 303.688v-.019h-1.05l.019.019h-3.63a5.92 5.92 0 0 0-1.989.315 2.511 2.511 0 0 0-.4.157 4.871 4.871 0 0 0-2.724 2.967 6.344 6.344 0 0 0-.315 1.364v2.447h-3.317v-2.447a6.474 6.474 0 0 0-.315-1.364 4.871 4.871 0 0 0-2.724-2.967 2.7 2.7 0 0 0-.4-.157 5.939 5.939 0 0 0-1.989-.315h-5.515V294.7h-3.674v16.24H33.91v3.6h33.3v-10.852h-.787zm-16.85 7.252h-7.51v-3.65h5.463a1.971 1.971 0 0 1 1.8.945 1.9 1.9 0 0 1 .243.892v1.813zm10.2 0v-1.818a1.963 1.963 0 0 1 .243-.892 2.166 2.166 0 0 1 .7-.682 2.118 2.118 0 0 1 1.1-.262h1.8v3.65h-3.84z" transform="translate(-33.91 -204.606)" style="fill:#fff"/>
            </g>
        </g>
        <g data-name="Group 2058" style="opacity:.4">
            <g data-name="Group 2032">
                <path data-name="Path 1821" d="m56.639 353.909-.949-.949-.94.949.94.949z" transform="translate(-44.545 -231.072)" style="fill:#fff"/>
            </g>
            <g data-name="Group 2033">
                <path data-name="Path 1822" d="m54.646 357.378.93.935.949-.949-.949-.949-.911.911-.93-.935-.945.949.945.949z" transform="translate(-43.52 -232.866)" style="fill:#fff"/>
            </g>
            <g data-name="Group 2034">
                <path data-name="Rectangle 2810" transform="rotate(-45 161.948 31.965)" style="fill:#fff" d="M0 0h1.446v1.446H0z"/>
            </g>
            <g data-name="Group 2035">
                <path data-name="Path 1823" d="m254.446 356.769.926.844.93-.849-.93-.849-.921.835-.926-.84-.935.844.935.849z" transform="translate(-148 -232.615)" style="fill:#fff"/>
            </g>
            <g data-name="Group 2036">
                <path data-name="Path 1824" d="M40.034 363.974a2.2 2.2 0 0 0-.949-.157h-1.641a2.636 2.636 0 0 1 .134-.916 1.123 1.123 0 0 1 .558-.477c.3-.148.906-.391 1.827-.735l-.31-1.269a14.409 14.409 0 0 0-2.295 1.078 1.633 1.633 0 0 0-.7 1.045 15.418 15.418 0 0 0-.138 2.567h3.163v1.2a15.447 15.447 0 0 1-3.177.439 4.307 4.307 0 0 1-1.274-.148 1.179 1.179 0 0 1-.668-.482 1.683 1.683 0 0 1-.205-.9 6.879 6.879 0 0 1 .072-.811c.048-.363.1-.754.177-1.164h-1a17.987 17.987 0 0 0-.243 2.347 2.415 2.415 0 0 0 .687 1.894 3.183 3.183 0 0 0 2.166.615 8.457 8.457 0 0 0 1.083-.076 11.406 11.406 0 0 0 1.221-.229 5.726 5.726 0 0 0 1.269-.439 1.473 1.473 0 0 0 .639-.625 2.282 2.282 0 0 0 .2-1.026 4.068 4.068 0 0 0-.129-1.183.957.957 0 0 0-.467-.548z" transform="translate(-33.36 -234.973)" style="fill:#fff"/>
            </g>
            <g data-name="Group 2037">
                <path data-name="Path 1825" d="m52.673 362.244.553 3.549a3.075 3.075 0 0 1-1.007 1.322 2.52 2.52 0 0 1-1.493.434 4.427 4.427 0 0 1-.706-.062v1.259a3.376 3.376 0 0 0 .968.143 2.946 2.946 0 0 0 1.589-.453 3.152 3.152 0 0 0 1.135-1.245 3.779 3.779 0 0 0 .415-1.779q0-1.424-.2-3.492z" transform="translate(-42.072 -235.757)" style="fill:#fff"/>
            </g>
            <g data-name="Group 2038">
                <path data-name="Path 1826" d="m73.509 360.49-1.269.272.329 3.282a2.947 2.947 0 0 1-.949.315c-.4.072-6.116.11-6.617.11h-1.784l-.272-3.273-1.264.305.553 3.549a3.048 3.048 0 0 1-1.011 1.326 2.531 2.531 0 0 1-1.484.429 4.723 4.723 0 0 1-.711-.062V368a3.646 3.646 0 0 0 .978.143 2.747 2.747 0 0 0 1.326-.329 3.073 3.073 0 0 0 1.05-.94 4.3 4.3 0 0 0 .654-1.417 3.3 3.3 0 0 0 1.465.3H65c.668 0 6.522-.086 7.032-.253a2.776 2.776 0 0 0 1.188-.72 1.555 1.555 0 0 0 .425-1.078c0-.367-.014-.868-.043-1.512s-.059-1.208-.093-1.704z" transform="translate(-46.783 -235.01)" style="fill:#fff"/>
            </g>
            <g data-name="Group 2039">
                <path data-name="Path 1827" d="m92.14 355.717.267 7.3h1.03l-.01-7.461z" transform="translate(-64.097 -232.432)" style="fill:#fff"/>
            </g>
            <g data-name="Group 2040">
                <path data-name="Path 1828" d="m105.713 364.121-.806-.281-.21.606a39.422 39.422 0 0 0-.468 1.374 2.4 2.4 0 0 0-.129.62.864.864 0 0 0 .281.677 2.232 2.232 0 0 0 .93.42l.453-1.288-.682-.177z" transform="translate(-70.351 -236.761)" style="fill:#fff"/>
            </g>
            <g data-name="Group 2041">
                <path data-name="Path 1829" d="M114.674 359.878a7.742 7.742 0 0 0-.635-.72 2.356 2.356 0 0 0 .32-.6 2.429 2.429 0 0 0 .134-.6c.019-.205.029-.458.029-.763v-2.567l-1.288.167.114 3.945-3.578-3.163-.534 1.3 2.891 2.338-1.67 2.362-.749-.009.072 1.355c.754.048 1.374.072 1.865.072a8.653 8.653 0 0 0 2.118-.2 1.657 1.657 0 0 0 .959-.587 1.6 1.6 0 0 0 .315-.988 2.83 2.83 0 0 0-.086-.763 1.749 1.749 0 0 0-.277-.579zm-1.255 1.751a11.293 11.293 0 0 1-1.131.048q-.229 0-.759-.014l1.388-1.946a5.846 5.846 0 0 1 1.064 1.011 1.373 1.373 0 0 1 .3.73 4.264 4.264 0 0 1-.862.171z" transform="translate(-73.039 -231.945)" style="fill:#fff"/>
            </g>
            <g data-name="Group 2042">
                <path data-name="Path 1830" d="m134.762 357.82 2.142.787a2.29 2.29 0 0 1 .563.267.478.478 0 0 1 .167.329c.019.153.029.458.029.93v1.231a8.231 8.231 0 0 1-1.245.2c-.41.029-.945.043-1.593.043h-8.106a1.955 1.955 0 0 1-1.36-.406v-5.921l-1.269.191.124 5.091a2.377 2.377 0 0 0 .639 1.77 2.673 2.673 0 0 0 1.87.568h8.106a12.289 12.289 0 0 0 2.066-.143 2.54 2.54 0 0 0 1.3-.592 1.787 1.787 0 0 0 .51-1.326 18.881 18.881 0 0 0-.086-2.066 1.188 1.188 0 0 0-.358-.763 4.933 4.933 0 0 0-1.169-.592l-1.283-.515 3.487-.573.134-1.307-4.284.868z" transform="translate(-80.805 -232.149)" style="fill:#fff"/>
            </g>
            <g data-name="Group 2043">
                <path data-name="Path 1831" d="m166.432 364.121-.806-.281-.21.606a39.422 39.422 0 0 0-.468 1.374 2.4 2.4 0 0 0-.129.62.864.864 0 0 0 .281.677 2.231 2.231 0 0 0 .93.42l.453-1.288-.682-.177z" transform="translate(-102.103 -236.761)" style="fill:#fff"/>
            </g>
            <g data-name="Group 2044">
                <path data-name="Path 1832" d="m171.973 362.244.553 3.549a3.075 3.075 0 0 1-1.007 1.322 2.52 2.52 0 0 1-1.493.434 4.427 4.427 0 0 1-.706-.062v1.259a3.376 3.376 0 0 0 .968.143 2.946 2.946 0 0 0 1.589-.453 3.151 3.151 0 0 0 1.135-1.245 3.779 3.779 0 0 0 .415-1.779q0-1.424-.2-3.492z" transform="translate(-104.456 -235.757)" style="fill:#fff"/>
            </g>
            <g data-name="Group 2045">
                <path data-name="Path 1833" d="m180.44 355.717.267 7.3h1.03l-.009-7.461z" transform="translate(-110.271 -232.432)" style="fill:#fff"/>
            </g>
            <g data-name="Group 2046">
                <path data-name="Path 1834" d="m189.056 359.26-.821 1.069a6.111 6.111 0 0 1 1.083 1.632 4.711 4.711 0 0 1 .42 1.789 4.231 4.231 0 0 1-.868.2 8.017 8.017 0 0 1-1.054.076 3.256 3.256 0 0 1-1.112-.148v-1.5h-1.05v1.183a2.341 2.341 0 0 0 .2 1.069 1.15 1.15 0 0 0 .654.553 3.8 3.8 0 0 0 1.259.167 4.086 4.086 0 0 0 2.185-.487 1.56 1.56 0 0 0 .763-1.4 6.05 6.05 0 0 0-.434-2.247 6.17 6.17 0 0 0-1.225-1.956z" transform="translate(-112.996 -234.366)" style="fill:#fff"/>
            </g>
            <g data-name="Group 2047">
                <path data-name="Path 1835" d="m217.305 357.928-1.269.272.329 3.282a2.945 2.945 0 0 1-.949.315 7.6 7.6 0 0 1-1.345.11H208.6v.029a4.36 4.36 0 0 0-1.2.2 1.6 1.6 0 0 0-.911.782 3.442 3.442 0 0 0-.291 1.574 2.666 2.666 0 0 1-.854-.2 3 3 0 0 1-.773-.463 1.788 1.788 0 0 1-.5-.63 3.453 3.453 0 0 0 1.517-.372 2.308 2.308 0 0 0 .94-.9 2.536 2.536 0 0 0 .315-1.264 3.9 3.9 0 0 0-.353-1.555 5.6 5.6 0 0 0-1.045-1.546 3.627 3.627 0 0 0-1.412 1.116 5.034 5.034 0 0 0-.844 1.584 5.965 5.965 0 0 0-.305 1.641h-1.474a1.955 1.955 0 0 1-1.36-.406v-5.907l-1.269.191.124 5.09a2.377 2.377 0 0 0 .639 1.77 2.674 2.674 0 0 0 1.87.568h1.612a2.934 2.934 0 0 0 1.427 1.894 5.656 5.656 0 0 0 2.805.615v-2.5h6.827a5.617 5.617 0 0 0 1.76-.253 2.776 2.776 0 0 0 1.188-.72 1.555 1.555 0 0 0 .425-1.078c0-.367-.014-.868-.043-1.512-.043-.655-.076-1.231-.11-1.727zm-13.372 4.127a4.336 4.336 0 0 1 .191-1.321 3.967 3.967 0 0 1 .487-1.04 2.956 2.956 0 0 1 .62-.673 5.893 5.893 0 0 1 .544 1.083 4.487 4.487 0 0 1 .286 1.126 1.651 1.651 0 0 1-.811.606 4.179 4.179 0 0 1-1.317.218z" transform="translate(-119.867 -232.447)" style="fill:#fff"/>
            </g>
            <g data-name="Group 2048">
                <path data-name="Rectangle 2811" transform="rotate(-45 208.007 -48.312)" style="fill:#fff" d="M0 0h1.446v1.446H0z"/>
            </g>
            <g data-name="Group 2049">
                <path data-name="Path 1836" d="M250.619 361.36a1.384 1.384 0 0 0-1.322.782 4.429 4.429 0 0 0-.405 2.042 2.129 2.129 0 0 0 .463 1.508 1.878 1.878 0 0 0 1.436.5 13.409 13.409 0 0 0 1.541-.124l-.057.577a12.749 12.749 0 0 1-1.88.448 11.263 11.263 0 0 1-1.727.158q-1.846 0-1.846-1.469a18.33 18.33 0 0 1 .172-1.975h-1.011c-.072.635-.115 1.1-.138 1.393s-.033.544-.033.754a2.7 2.7 0 0 0 .658 1.975 2.636 2.636 0 0 0 1.951.668 9.307 9.307 0 0 0 1.384-.114 10.477 10.477 0 0 0 1.446-.32 5.584 5.584 0 0 0 1.135-.458 1.5 1.5 0 0 0 .582-.611 2.639 2.639 0 0 0 .267-.868 8.634 8.634 0 0 0 .067-1.131 4.727 4.727 0 0 0-.687-2.772 2.293 2.293 0 0 0-1.996-.963zm.329 3.588a1.271 1.271 0 0 1-.854-.229 1.01 1.01 0 0 1-.253-.773 6.167 6.167 0 0 1 .191-1.388h.477a1.782 1.782 0 0 1 1.021.262 1.546 1.546 0 0 1 .572.787 4.424 4.424 0 0 1 .205 1.341h-1.36z" transform="translate(-144.455 -235.465)" style="fill:#fff"/>
            </g>
            <g data-name="Group 2050">
                <path data-name="Path 1837" d="m265.3 355.56-1.288.157.267 7.3h1.03z" transform="translate(-153.972 -232.432)" style="fill:#fff"/>
            </g>
            <g data-name="Group 2051">
                <path data-name="Path 1838" d="m268.112 362.244.553 3.549a3.075 3.075 0 0 1-1.007 1.322 2.52 2.52 0 0 1-1.493.434 4.426 4.426 0 0 1-.706-.062v1.259a3.376 3.376 0 0 0 .968.143 2.946 2.946 0 0 0 1.589-.453 3.152 3.152 0 0 0 1.135-1.245 3.779 3.779 0 0 0 .415-1.779q0-1.424-.2-3.492z" transform="translate(-154.73 -235.757)" style="fill:#fff"/>
            </g>
            <g data-name="Group 2052">
                <path data-name="Path 1839" d="M278.7 360.59a1.856 1.856 0 0 0-1.274.377 1.831 1.831 0 0 0-.563 1.05 9.5 9.5 0 0 0-.134 1.8 2.809 2.809 0 0 0 .2 1.15 1.284 1.284 0 0 0 .635.644 2.723 2.723 0 0 0 1.159.21 11.841 11.841 0 0 0 1.479-.1 1.019 1.019 0 0 1-.491.725 2.252 2.252 0 0 1-.859.3 7.565 7.565 0 0 1-1.035.062H276.8v1.226a10.4 10.4 0 0 0 1.455.119 3.681 3.681 0 0 0 1.708-.348 2.122 2.122 0 0 0 .964-1.112 5.454 5.454 0 0 0 .31-2.013 6 6 0 0 0-.625-3.087 2.114 2.114 0 0 0-1.912-1.003zm.181 3.936a2.455 2.455 0 0 1-.744-.091.625.625 0 0 1-.367-.305 1.405 1.405 0 0 1-.11-.615 15.221 15.221 0 0 1 .076-1.546 4.01 4.01 0 0 1 .4-.062 3 3 0 0 1 .377-.019 1.669 1.669 0 0 1 .954.239 1.374 1.374 0 0 1 .5.8 6.573 6.573 0 0 1 .172 1.593h-1.255z" transform="translate(-160.624 -235.062)" style="fill:#fff"/>
            </g>
            <g data-name="Group 2053">
                <path data-name="Path 1840" d="m288.19 355.717.262 7.3h1.035l-.014-7.461z" transform="translate(-166.616 -232.432)" style="fill:#fff"/>
            </g>
            <g data-name="Group 2054">
                <path data-name="Path 1841" d="M311.035 364.315v-3.435l-1.264.186.191 3.621h-.2a8.351 8.351 0 0 1-.992-.057 2.687 2.687 0 0 1-.773-.191l-.029-2.81h-1.092v2.839a4.377 4.377 0 0 1-.787.134c-.32.029-.658.043-1.011.043a9.7 9.7 0 0 1-1.054-.052v-3.158l-1.264.191.2 4.733a7.745 7.745 0 0 1-1.35.429 5.582 5.582 0 0 1-1.236.148 2.105 2.105 0 0 1-1.326-.339 1.306 1.306 0 0 1-.42-1.078c0-.181.014-.4.038-.654s.076-.7.162-1.326h-1.018c-.091.735-.143 1.231-.167 1.479s-.033.477-.033.673a2.682 2.682 0 0 0 .635 1.942 2.5 2.5 0 0 0 1.88.654 5.792 5.792 0 0 0 1.164-.129 7.374 7.374 0 0 0 1.255-.377 3.012 3.012 0 0 0 .806-.453 1.614 1.614 0 0 0 .448-.611 2.886 2.886 0 0 0 .191-.883 2.99 2.99 0 0 0 .992.153 5.622 5.622 0 0 0 1.364-.162 3.439 3.439 0 0 0 1.021-.4 4.124 4.124 0 0 0 .964.41 3.8 3.8 0 0 0 1.054.162 1.593 1.593 0 0 0 1.2-.448 1.721 1.721 0 0 0 .451-1.234z" transform="translate(-171.542 -235.214)" style="fill:#fff"/>
            </g>
            <g data-name="Group 2055">
                <path data-name="Path 1842" d="m327.142 362.244.553 3.549a3.075 3.075 0 0 1-1.007 1.322 2.52 2.52 0 0 1-1.493.434 4.426 4.426 0 0 1-.706-.062v1.259a3.375 3.375 0 0 0 .968.143 2.946 2.946 0 0 0 1.589-.453 3.152 3.152 0 0 0 1.135-1.245 3.779 3.779 0 0 0 .415-1.779q0-1.424-.2-3.492z" transform="translate(-185.598 -235.757)" style="fill:#fff"/>
            </g>
            <g data-name="Group 2056">
                <path data-name="Path 1843" d="M352.339 362.193a79.373 79.373 0 0 0-.091-1.713l-1.269.272.329 3.282a2.91 2.91 0 0 1-.949.315 7.6 7.6 0 0 1-1.345.11h-8.75a5.633 5.633 0 0 0-.649-2.963 2.089 2.089 0 0 0-1.875-.964 1.856 1.856 0 0 0-1.274.377 1.831 1.831 0 0 0-.563 1.049 9.509 9.509 0 0 0-.134 1.8 2.81 2.81 0 0 0 .2 1.15 1.284 1.284 0 0 0 .635.644 2.722 2.722 0 0 0 1.159.21 11.991 11.991 0 0 0 1.484-.1 1.034 1.034 0 0 1-.492.725 2.251 2.251 0 0 1-.859.3 7.534 7.534 0 0 1-1.035.062h-1.021v1.226a10.4 10.4 0 0 0 1.455.119 4.009 4.009 0 0 0 1.474-.239 2.02 2.02 0 0 0 .945-.754 3.258 3.258 0 0 0 .482-1.35h8.831a5.615 5.615 0 0 0 1.76-.253 2.774 2.774 0 0 0 1.188-.72 1.555 1.555 0 0 0 .425-1.078c-.023-.358-.032-.863-.061-1.507zm-14.422 2.276a2.451 2.451 0 0 1-.744-.091.624.624 0 0 1-.367-.305 1.407 1.407 0 0 1-.11-.615 15.241 15.241 0 0 1 .076-1.546 4.01 4.01 0 0 1 .4-.062 2.954 2.954 0 0 1 .377-.019 1.669 1.669 0 0 1 .954.239 1.374 1.374 0 0 1 .5.8 6.574 6.574 0 0 1 .172 1.594h-1.255z" transform="translate(-191.497 -235.004)" style="fill:#fff"/>
            </g>
            <g data-name="Group 2057">
                <path data-name="Rectangle 2812" transform="rotate(-45 239.663 -124.731)" style="fill:#fff" d="M0 0h1.446v1.446H0z"/>
            </g>
        </g>
    </g>
</svg>
