<svg xmlns="http://www.w3.org/2000/svg" xmlns:xlink="http://www.w3.org/1999/xlink" width="135.778" height="43.313" viewBox="0 0 135.778 43.313">
  <defs>
    <style>
      .cls-1 {
        opacity: 0.4;
      }

      .cls-2 {
        fill: url(#linear-gradient);
      }

      .cls-3 {
        fill: url(#linear-gradient-2);
      }

      .cls-4 {
        fill: url(#linear-gradient-3);
      }

      .cls-5 {
        fill: url(#linear-gradient-4);
      }

      .cls-6 {
        fill: url(#linear-gradient-5);
      }

      .cls-7 {
        opacity: 0.7;
      }

      .cls-8 {
        fill: #fff;
      }
    </style>
    <linearGradient id="linear-gradient" x1="1.226" y1="0.933" x2="0.129" y2="-0.038" gradientUnits="objectBoundingBox">
      <stop offset="0" stop-color="#b27e11"/>
      <stop offset="0.341" stop-color="#b48014"/>
      <stop offset="0.555" stop-color="#ba881d"/>
      <stop offset="0.734" stop-color="#c5962c"/>
      <stop offset="0.754" stop-color="#c7982e"/>
      <stop offset="0.806" stop-color="#cc9f35"/>
      <stop offset="0.888" stop-color="#dbb44d"/>
      <stop offset="0.989" stop-color="#f4d876"/>
      <stop offset="1" stop-color="#f7dd7c"/>
    </linearGradient>
    <linearGradient id="linear-gradient-2" x1="1.058" y1="0.983" x2="0.159" y2="0.205" xlink:href="#linear-gradient"/>
    <linearGradient id="linear-gradient-3" x1="-0.001" y1="1.001" x2="0.999" y2="0.001" gradientUnits="objectBoundingBox">
      <stop offset="0" stop-color="#b27e11"/>
      <stop offset="0.229" stop-color="#b7851a"/>
      <stop offset="0.568" stop-color="#c6982d"/>
      <stop offset="0.575" stop-color="#c7982e"/>
      <stop offset="0.665" stop-color="#cc9f35"/>
      <stop offset="0.806" stop-color="#dbb44d"/>
      <stop offset="0.98" stop-color="#f4d876"/>
      <stop offset="1" stop-color="#f7dd7c"/>
    </linearGradient>
    <linearGradient id="linear-gradient-4" y1="0.999" x2="1" gradientUnits="objectBoundingBox">
      <stop offset="0" stop-color="#b27e11"/>
      <stop offset="0.33" stop-color="#bd8b21"/>
      <stop offset="0.57" stop-color="#c7982e"/>
      <stop offset="0.661" stop-color="#cc9f35"/>
      <stop offset="0.804" stop-color="#dbb44d"/>
      <stop offset="0.98" stop-color="#f4d876"/>
      <stop offset="1" stop-color="#f7dd7c"/>
    </linearGradient>
    <linearGradient id="linear-gradient-5" x1="0.652" y1="1.146" x2="-0.194" y2="0.081" xlink:href="#linear-gradient"/>
  </defs>
  <g id="FIN_LOGO_HAFEZ_M_B-01" data-name="FIN_LOGO HAFEZ_M_B-01" transform="translate(-33.36 -210.66)">
    <g id="Group_2018" data-name="Group 2018" transform="translate(125.869 210.66)">
      <g id="Group_2016" data-name="Group 2016" class="cls-1" transform="translate(21.642 2.405)">
        <path id="Path_1809" data-name="Path 1809" class="cls-2" d="M492.517,235.614v17.281a10.744,10.744,0,0,0-2.405-2.194V235.614a6.023,6.023,0,0,0-6.005-6.013h-1.2v-1.2a6.02,6.02,0,0,0-6.011-6.013H475.68V219.98h1.213a8.425,8.425,0,0,1,8.338,7.291A8.436,8.436,0,0,1,492.517,235.614Z" transform="translate(-475.68 -219.98)"/>
      </g>
      <g id="Group_2017" data-name="Group 2017">
        <path id="Path_1810" data-name="Path 1810" class="cls-3" d="M406.257,245.539v6.026h-2.413v-1.208a6.023,6.023,0,0,0-4.811-5.892V226.286a3.607,3.607,0,0,1,3.605-3.6h1.2v-1.2a3.609,3.609,0,0,1,3.6-3.6l1.2-.008v-1.2a3.606,3.606,0,0,1,3.6-3.6h1.216V210.66h-1.216a6.019,6.019,0,0,0-5.907,4.914,6.024,6.024,0,0,0-4.8,4.805,6.017,6.017,0,0,0-4.9,5.7h-.01v25.485H391.82v2.405h21.645V239.536h-1.2A6.009,6.009,0,0,0,406.257,245.539Zm-7.223,6.026v-4.612a3.615,3.615,0,0,1,2.408,3.4v1.208Zm12.029,0h-2.4v-6.026a3.61,3.61,0,0,1,2.4-3.4Z" transform="translate(-391.82 -210.66)"/>
        <rect id="Rectangle_2805" data-name="Rectangle 2805" class="cls-4" width="2.405" height="2.405" transform="translate(16.834 21.65)"/>
        <rect id="Rectangle_2806" data-name="Rectangle 2806" class="cls-5" width="2.405" height="2.408" transform="translate(9.616 28.871)"/>
        <path id="Path_1811" data-name="Path 1811" class="cls-6" d="M499.379,300.064a8.391,8.391,0,0,0-8.3-7.223h-1.244v2.405h1.244a5.983,5.983,0,0,1,5.861,4.818h-9.5V276.03H485.04v26.437h19.211v-2.405h-4.872Z" transform="translate(-460.982 -259.16)"/>
      </g>
    </g>
    <g id="Group_2031" data-name="Group 2031" class="cls-7" transform="translate(33.502 232.343)">
      <g id="Group_2019" data-name="Group 2019" transform="translate(19.619 0.005)">
        <path id="Path_1812" data-name="Path 1812" class="cls-8" d="M120.266,302.161v3.27H109.93V294.7h1.946v8.785h6.529V302.5a1.062,1.062,0,0,0-.132-.483,1.171,1.171,0,0,0-.377-.369,1.146,1.146,0,0,0-.6-.142h-3.727v-1.956h.568l-.01.01h3.2a3.2,3.2,0,0,1,1.076.17,1.357,1.357,0,0,1,.217.085,2.635,2.635,0,0,1,1.474,1.605A3.5,3.5,0,0,1,120.266,302.161Z" transform="translate(-109.93 -294.7)"/>
      </g>
      <g id="Group_2020" data-name="Group 2020" transform="translate(49.424 0.005)">
        <rect id="Rectangle_2807" data-name="Rectangle 2807" class="cls-8" width="1.948" height="10.811"/>
      </g>
      <g id="Group_2021" data-name="Group 2021" transform="translate(66.578 4.834)">
        <path id="Path_1813" data-name="Path 1813" class="cls-8" d="M297.294,316.329v.472c0,.165-.005.338-.015.514a15.469,15.469,0,0,1-.119,1.845,8.622,8.622,0,0,1-.284.96,2.835,2.835,0,0,1-1.068,1.484,3.466,3.466,0,0,1-1.009.511,4.832,4.832,0,0,1-1.3.212c-.485.016-.921.021-1.605-.013l.008-1.843c.413.01.6.018,1.014.015a4.468,4.468,0,0,0,1.03-.059,1.93,1.93,0,0,0,.844-.444,1.561,1.561,0,0,0,.465-.9c.039-.465.067-.947.088-1.445s.023-1.04.013-1.628v-2.6h1.943Z" transform="translate(-291.89 -313.41)"/>
      </g>
      <g id="Group_2022" data-name="Group 2022" transform="translate(42.038 4.836)">
        <path id="Path_1814" data-name="Path 1814" class="cls-8" d="M202.2,316.336v.472c0,.165-.005.338-.015.514a15.46,15.46,0,0,1-.119,1.845,8.628,8.628,0,0,1-.284.96,2.835,2.835,0,0,1-1.068,1.484,3.467,3.467,0,0,1-1.009.511,4.832,4.832,0,0,1-1.3.212c-.485.015-.921.021-1.605-.013l.008-1.843c.413.01.6.018,1.014.016a4.472,4.472,0,0,0,1.03-.059,1.93,1.93,0,0,0,.844-.444,1.561,1.561,0,0,0,.465-.9c.039-.465.067-.947.088-1.445s.023-1.04.013-1.628v-2.6H202.2Z" transform="translate(-196.8 -313.42)"/>
      </g>
      <g id="Group_2023" data-name="Group 2023" transform="translate(54.805 0.01)">
        <path id="Path_1815" data-name="Path 1815" class="cls-8" d="M248.237,294.72l.008,2.008-1.974-.01v-2Z" transform="translate(-246.27 -294.72)"/>
      </g>
      <g id="Group_2024" data-name="Group 2024" transform="translate(14.282)">
        <rect id="Rectangle_2808" data-name="Rectangle 2808" class="cls-8" width="1.972" height="1.995"/>
      </g>
      <g id="Group_2025" data-name="Group 2025" transform="translate(6.248)">
        <rect id="Rectangle_2809" data-name="Rectangle 2809" class="cls-8" width="1.972" height="1.995"/>
      </g>
      <g id="Group_2026" data-name="Group 2026" transform="translate(58.488 0.008)">
        <path id="Path_1816" data-name="Path 1816" class="cls-8" d="M260.624,299.353a1.748,1.748,0,0,1-.067-.764,2.169,2.169,0,0,1,.137-.514,2.608,2.608,0,0,1,.232-.436,4.362,4.362,0,0,1,.3-.4c.111-.129.225-.266.341-.4l1.747-2.129h1.314Z" transform="translate(-260.542 -294.71)"/>
      </g>
      <g id="Group_2027" data-name="Group 2027" transform="translate(73.652 0.005)">
        <path id="Path_1817" data-name="Path 1817" class="cls-8" d="M332.49,301.412a1.751,1.751,0,0,0-.132-.3,2.832,2.832,0,0,0-.426-.632,2.693,2.693,0,0,0-.927-.661,1.468,1.468,0,0,0-.255-.1,3.034,3.034,0,0,0-1.04-.16h-3.93l4.338-4.862H327.37l-2.865,3.35c-.114.142-.227.274-.341.405a3.041,3.041,0,0,0-.3.4,2.436,2.436,0,0,0-.237.434,2.691,2.691,0,0,0-.132.511,1.5,1.5,0,0,0,.075.756,1.447,1.447,0,0,0,.369.539,1.464,1.464,0,0,0,.6.32,1.9,1.9,0,0,0,.625.1h4.527a1.152,1.152,0,0,1,.6.142.993.993,0,0,1,.369.369,1.216,1.216,0,0,1,.075.17v1.3H329v-.01h-7.747v-8.762H319.31v8.762h-.01v2.036h13.371v-3.019A3.3,3.3,0,0,0,332.49,301.412Z" transform="translate(-319.3 -294.7)"/>
      </g>
      <g id="Group_2028" data-name="Group 2028" transform="translate(51.416 0.008)">
        <path id="Path_1818" data-name="Path 1818" class="cls-8" d="M249.938,302.5a3.271,3.271,0,0,0-.181-1.076,1.75,1.75,0,0,0-.132-.3,2.831,2.831,0,0,0-.426-.632,2.692,2.692,0,0,0-.927-.661,1.467,1.467,0,0,0-.255-.1,3.034,3.034,0,0,0-1.04-.16h-3.93l4.3-4.862H244.6l-2.828,3.35c-.114.142-.227.274-.341.405a3.043,3.043,0,0,0-.3.4,2.434,2.434,0,0,0-.237.434,2.691,2.691,0,0,0-.132.511,1.5,1.5,0,0,0,.075.756,1.447,1.447,0,0,0,.369.539,1.465,1.465,0,0,0,.6.32,1.9,1.9,0,0,0,.625.1h4.527a1.152,1.152,0,0,1,.6.142.993.993,0,0,1,.369.369,1.223,1.223,0,0,1,.075.17v1.3h-1.729v-.01h-7.742v-.039c.01-.178.016-.348.016-.514v-3.389H236.6v2.6c.01.586.008,1.13-.013,1.628s-.049.981-.088,1.445a1.569,1.569,0,0,1-.465.9,1.9,1.9,0,0,1-.844.444,4.468,4.468,0,0,1-1.03.059c-.41,0-.6-.005-1.014-.015l-.008,1.843c.681.034,1.12.028,1.605.013a4.733,4.733,0,0,0,1.3-.212,3.467,3.467,0,0,0,1.009-.511,3.15,3.15,0,0,0,.723-.748,3.8,3.8,0,0,0,.4-.792c.077-.235.124-.4.188-.671h11.562V302.5Z" transform="translate(-233.14 -294.71)"/>
      </g>
      <g id="Group_2029" data-name="Group 2029" transform="translate(32.401 1.592)">
        <path id="Path_1819" data-name="Path 1819" class="cls-8" d="M169.011,306.7a2.269,2.269,0,0,0-.263-.888,2.547,2.547,0,0,0-.6-.766,2.762,2.762,0,0,0-.945-.529,4.994,4.994,0,0,0-.625-.152c-.209-.028-.415-.046-.625-.057s-.434-.01-.643-.01h-.643a5.345,5.345,0,0,1,1.125-1.125,7.519,7.519,0,0,1,1.342-.785l-1.19-1.541c-.217.142-.462.3-.717.483s-.519.359-.785.557a7.846,7.846,0,0,0-.728.643,4.163,4.163,0,0,0-.586.728,2.882,2.882,0,0,0-.348.821,2.358,2.358,0,0,0-.018.934,1.36,1.36,0,0,0,.209.5,1.193,1.193,0,0,0,.405.405,1.863,1.863,0,0,0,.625.255,2.6,2.6,0,0,0,.841.067l1.048-.01a1.152,1.152,0,0,1,.6.124,1.188,1.188,0,0,1,.4.33,1.034,1.034,0,0,1,.16.444.829.829,0,0,1-.085.434.813.813,0,0,1-.33.33,1.21,1.21,0,0,1-.625.142h-.774v-.01h-3.83v-2.163H159.46v4.121l6.576-.01a2.922,2.922,0,0,0,1.1-.188,2.726,2.726,0,0,0,.87-.511,2.7,2.7,0,0,0,.614-.746,3.547,3.547,0,0,0,.348-.888A2.855,2.855,0,0,0,169.011,306.7Z" transform="translate(-159.46 -300.85)"/>
      </g>
      <g id="Group_2030" data-name="Group 2030" transform="translate(0 0.005)">
        <path id="Path_1820" data-name="Path 1820" class="cls-8" d="M51.5,299.562v-.01h-.568l.01.01H48.974a3.2,3.2,0,0,0-1.076.17,1.354,1.354,0,0,0-.217.085,2.635,2.635,0,0,0-1.474,1.605,3.432,3.432,0,0,0-.17.738v1.324H44.243v-1.324a3.5,3.5,0,0,0-.17-.738,2.635,2.635,0,0,0-1.474-1.605,1.457,1.457,0,0,0-.217-.085,3.213,3.213,0,0,0-1.076-.17l-2.983,0V294.7H36.336v8.785H33.91v1.946H51.921v-5.869H51.5Zm-9.115,3.923H38.318v-1.974h2.955a1.066,1.066,0,0,1,.973.511,1.03,1.03,0,0,1,.132.483v.981Zm5.515,0V302.5a1.062,1.062,0,0,1,.132-.483,1.172,1.172,0,0,1,.377-.369,1.146,1.146,0,0,1,.6-.142h.973v1.974H47.9Z" transform="translate(-33.91 -294.7)"/>
      </g>
    </g>
    <g id="Group_2058" data-name="Group 2058" class="cls-1" transform="translate(33.36 247.384)">
      <g id="Group_2032" data-name="Group 2032" transform="translate(5.52 0)">
        <path id="Path_1821" data-name="Path 1821" class="cls-8" d="M55.772,353.474l-.514-.514-.508.514.508.514Z" transform="translate(-54.75 -352.96)"/>
      </g>
      <g id="Group_2033" data-name="Group 2033" transform="translate(5.014 0.885)">
        <path id="Path_1822" data-name="Path 1822" class="cls-8" d="M53.794,356.924l.5.506.514-.514L54.3,356.4l-.493.493-.5-.506-.511.514.511.514Z" transform="translate(-52.79 -356.39)"/>
      </g>
      <g id="Group_2034" data-name="Group 2034" transform="translate(13.432 0.523)">
        <rect id="Rectangle_2810" data-name="Rectangle 2810" class="cls-8" width="0.782" height="0.782" transform="translate(0 0.553) rotate(-45)"/>
      </g>
      <g id="Group_2035" data-name="Group 2035" transform="translate(56.578 0.761)">
        <path id="Path_1823" data-name="Path 1823" class="cls-8" d="M253.594,356.375l.5.457.5-.459-.5-.459-.5.452-.5-.454-.506.457.506.459Z" transform="translate(-252.59 -355.91)"/>
      </g>
      <g id="Group_2036" data-name="Group 2036" transform="translate(0 1.925)">
        <path id="Path_1824" data-name="Path 1824" class="cls-8" d="M36.97,362.343a1.192,1.192,0,0,0-.514-.085h-.888a1.425,1.425,0,0,1,.072-.5.608.608,0,0,1,.3-.258c.16-.08.49-.212.988-.4l-.168-.686a7.8,7.8,0,0,0-1.241.583.883.883,0,0,0-.379.565,8.34,8.34,0,0,0-.075,1.388h1.711v.648a8.357,8.357,0,0,1-1.719.237,2.329,2.329,0,0,1-.689-.08.638.638,0,0,1-.361-.261.91.91,0,0,1-.111-.488,3.722,3.722,0,0,1,.039-.439c.026-.2.057-.408.1-.63h-.542a9.731,9.731,0,0,0-.132,1.27,1.306,1.306,0,0,0,.372,1.025,1.722,1.722,0,0,0,1.172.333,4.577,4.577,0,0,0,.586-.041,6.17,6.17,0,0,0,.661-.124,3.1,3.1,0,0,0,.686-.237.8.8,0,0,0,.346-.338,1.234,1.234,0,0,0,.106-.555,2.2,2.2,0,0,0-.07-.64A.518.518,0,0,0,36.97,362.343Z" transform="translate(-33.36 -360.42)"/>
      </g>
      <g id="Group_2037" data-name="Group 2037" transform="translate(4.3 2.312)">
        <path id="Path_1825" data-name="Path 1825" class="cls-8" d="M51.455,362.1l.3,1.92a1.663,1.663,0,0,1-.545.715,1.363,1.363,0,0,1-.808.235,2.393,2.393,0,0,1-.382-.034v.681a1.826,1.826,0,0,0,.524.077,1.594,1.594,0,0,0,.859-.245,1.7,1.7,0,0,0,.614-.674,2.044,2.044,0,0,0,.225-.963q0-.77-.108-1.889Z" transform="translate(-50.02 -361.92)"/>
      </g>
      <g id="Group_2038" data-name="Group 2038" transform="translate(6.625 1.943)">
        <path id="Path_1826" data-name="Path 1826" class="cls-8" d="M66.863,360.49l-.686.147.178,1.776a1.594,1.594,0,0,1-.514.17c-.214.039-3.309.059-3.579.059H61.3l-.147-1.77-.684.165.3,1.92a1.649,1.649,0,0,1-.547.717,1.369,1.369,0,0,1-.8.232,2.553,2.553,0,0,1-.385-.034v.681a1.972,1.972,0,0,0,.529.077,1.486,1.486,0,0,0,.717-.178,1.662,1.662,0,0,0,.568-.508,2.326,2.326,0,0,0,.354-.766,1.786,1.786,0,0,0,.792.163h.268c.361,0,3.528-.046,3.8-.137a1.5,1.5,0,0,0,.643-.39.841.841,0,0,0,.23-.583c0-.2-.008-.47-.023-.818S66.881,360.758,66.863,360.49Z" transform="translate(-59.03 -360.49)"/>
      </g>
      <g id="Group_2039" data-name="Group 2039" transform="translate(15.17 0.671)">
        <path id="Path_1827" data-name="Path 1827" class="cls-8" d="M92.14,355.645l.145,3.951h.557l-.005-4.036Z" transform="translate(-92.14 -355.56)"/>
      </g>
      <g id="Group_2040" data-name="Group 2040" transform="translate(18.256 2.808)">
        <path id="Path_1828" data-name="Path 1828" class="cls-8" d="M104.972,363.992l-.436-.152-.114.328c-.121.343-.206.591-.253.743a1.3,1.3,0,0,0-.07.336.467.467,0,0,0,.152.366,1.207,1.207,0,0,0,.5.227l.245-.7-.369-.1Z" transform="translate(-104.1 -363.84)"/>
      </g>
      <g id="Group_2041" data-name="Group 2041" transform="translate(19.583 0.431)">
        <path id="Path_1829" data-name="Path 1829" class="cls-8" d="M112.179,357.469a4.186,4.186,0,0,0-.343-.39,1.274,1.274,0,0,0,.173-.323,1.313,1.313,0,0,0,.072-.325c.01-.111.015-.248.015-.413l0-1.388-.7.09.062,2.134-1.936-1.711-.289.7,1.564,1.265-.9,1.277-.405-.005.039.733c.408.026.743.039,1.009.039a4.681,4.681,0,0,0,1.146-.108.9.9,0,0,0,.519-.317.864.864,0,0,0,.17-.534,1.531,1.531,0,0,0-.046-.413A.946.946,0,0,0,112.179,357.469Zm-.679.947a6.105,6.105,0,0,1-.612.026q-.124,0-.41-.008l.751-1.053a3.163,3.163,0,0,1,.575.547.742.742,0,0,1,.163.395A2.3,2.3,0,0,1,111.5,358.416Z" transform="translate(-109.24 -354.63)"/>
      </g>
      <g id="Group_2042" data-name="Group 2042" transform="translate(23.415 0.532)">
        <path id="Path_1830" data-name="Path 1830" class="cls-8" d="M129.863,356.535l1.159.426a1.239,1.239,0,0,1,.3.145.258.258,0,0,1,.09.178c.01.083.015.248.015.5v.666a4.455,4.455,0,0,1-.674.106c-.222.015-.511.023-.862.023h-4.385a1.058,1.058,0,0,1-.736-.219v-3.2l-.686.1.067,2.754a1.286,1.286,0,0,0,.346.957,1.446,1.446,0,0,0,1.012.307H129.9a6.648,6.648,0,0,0,1.117-.077,1.374,1.374,0,0,0,.7-.32.967.967,0,0,0,.276-.717,10.213,10.213,0,0,0-.046-1.117.643.643,0,0,0-.194-.413,2.669,2.669,0,0,0-.632-.32l-.694-.279,1.887-.31.072-.707-2.317.47Z" transform="translate(-124.09 -355.02)"/>
      </g>
      <g id="Group_2043" data-name="Group 2043" transform="translate(33.926 2.808)">
        <path id="Path_1831" data-name="Path 1831" class="cls-8" d="M165.692,363.992l-.436-.152-.114.328c-.121.343-.206.591-.253.743a1.3,1.3,0,0,0-.07.336.467.467,0,0,0,.152.366,1.207,1.207,0,0,0,.5.227l.245-.7-.369-.1Z" transform="translate(-164.82 -363.84)"/>
      </g>
      <g id="Group_2044" data-name="Group 2044" transform="translate(35.088 2.312)">
        <path id="Path_1832" data-name="Path 1832" class="cls-8" d="M170.755,362.1l.3,1.92a1.663,1.663,0,0,1-.545.715,1.363,1.363,0,0,1-.808.235,2.393,2.393,0,0,1-.382-.034v.681a1.826,1.826,0,0,0,.524.077,1.594,1.594,0,0,0,.859-.245,1.7,1.7,0,0,0,.614-.674,2.044,2.044,0,0,0,.225-.963q0-.77-.108-1.889Z" transform="translate(-169.32 -361.92)"/>
      </g>
      <g id="Group_2045" data-name="Group 2045" transform="translate(37.958 0.671)">
        <path id="Path_1833" data-name="Path 1833" class="cls-8" d="M180.44,355.645l.145,3.951h.557l-.005-4.036Z" transform="translate(-180.44 -355.56)"/>
      </g>
      <g id="Group_2046" data-name="Group 2046" transform="translate(39.302 1.626)">
        <path id="Path_1834" data-name="Path 1834" class="cls-8" d="M187.493,359.26l-.444.578a3.306,3.306,0,0,1,.586.883,2.549,2.549,0,0,1,.227.968,2.29,2.29,0,0,1-.47.106,4.337,4.337,0,0,1-.57.041,1.761,1.761,0,0,1-.6-.08v-.813h-.568l0,.64a1.267,1.267,0,0,0,.108.578.622.622,0,0,0,.354.3,2.057,2.057,0,0,0,.681.09,2.21,2.21,0,0,0,1.182-.263.844.844,0,0,0,.413-.756,3.273,3.273,0,0,0-.235-1.216A3.338,3.338,0,0,0,187.493,359.26Z" transform="translate(-185.65 -359.26)"/>
      </g>
      <g id="Group_2047" data-name="Group 2047" transform="translate(42.693 0.679)">
        <path id="Path_1835" data-name="Path 1835" class="cls-8" d="M208.806,356.855l-.686.147.178,1.776a1.594,1.594,0,0,1-.514.17,4.111,4.111,0,0,1-.728.059H204.1v.015a2.358,2.358,0,0,0-.648.108.864.864,0,0,0-.493.423,1.862,1.862,0,0,0-.157.852,1.442,1.442,0,0,1-.462-.106,1.621,1.621,0,0,1-.418-.25.968.968,0,0,1-.268-.341,1.868,1.868,0,0,0,.821-.2,1.249,1.249,0,0,0,.508-.485,1.372,1.372,0,0,0,.17-.684,2.108,2.108,0,0,0-.191-.841,3.028,3.028,0,0,0-.565-.836,1.962,1.962,0,0,0-.764.6,2.723,2.723,0,0,0-.457.857,3.227,3.227,0,0,0-.165.888l-.8,0a1.058,1.058,0,0,1-.736-.219v-3.2l-.686.1.067,2.754a1.286,1.286,0,0,0,.346.957,1.446,1.446,0,0,0,1.012.307h.271l.6,0a1.587,1.587,0,0,0,.772,1.025,3.06,3.06,0,0,0,1.517.333l0-1.355h3.693a3.039,3.039,0,0,0,.952-.137,1.5,1.5,0,0,0,.643-.39.841.841,0,0,0,.23-.583c0-.2-.008-.47-.023-.818S208.824,357.123,208.806,356.855Zm-7.234,2.232a2.345,2.345,0,0,1,.1-.715,2.146,2.146,0,0,1,.263-.563,1.6,1.6,0,0,1,.336-.364,3.187,3.187,0,0,1,.294.586,2.427,2.427,0,0,1,.155.609.893.893,0,0,1-.439.328A2.26,2.26,0,0,1,201.572,359.087Z" transform="translate(-198.79 -355.59)"/>
      </g>
      <g id="Group_2048" data-name="Group 2048" transform="translate(51.437 5.422)">
        <rect id="Rectangle_2811" data-name="Rectangle 2811" class="cls-8" width="0.782" height="0.782" transform="translate(0 0.553) rotate(-45)"/>
      </g>
      <g id="Group_2049" data-name="Group 2049" transform="translate(54.828 2.168)">
        <path id="Path_1836" data-name="Path 1836" class="cls-8" d="M248.411,361.36a.749.749,0,0,0-.715.423,2.4,2.4,0,0,0-.219,1.1,1.152,1.152,0,0,0,.25.816,1.016,1.016,0,0,0,.777.268,7.249,7.249,0,0,0,.834-.067l-.031.312a6.9,6.9,0,0,1-1.017.243,6.092,6.092,0,0,1-.934.085q-1,0-1-.795a9.917,9.917,0,0,1,.093-1.068H245.9c-.039.343-.062.6-.075.754s-.018.294-.018.408a1.459,1.459,0,0,0,.356,1.068,1.426,1.426,0,0,0,1.056.361,5.036,5.036,0,0,0,.748-.062,5.673,5.673,0,0,0,.782-.173,3.022,3.022,0,0,0,.614-.248.808.808,0,0,0,.315-.33,1.427,1.427,0,0,0,.145-.47,4.671,4.671,0,0,0,.036-.612,2.557,2.557,0,0,0-.372-1.5A1.24,1.24,0,0,0,248.411,361.36Zm.178,1.941a.687.687,0,0,1-.462-.124.546.546,0,0,1-.137-.418,3.336,3.336,0,0,1,.1-.751h.258a.964.964,0,0,1,.552.142.837.837,0,0,1,.31.426,2.393,2.393,0,0,1,.111.725h-.736Z" transform="translate(-245.81 -361.36)"/>
      </g>
      <g id="Group_2050" data-name="Group 2050" transform="translate(59.525 0.671)">
        <path id="Path_1837" data-name="Path 1837" class="cls-8" d="M264.707,355.56l-.7.085.145,3.951h.557Z" transform="translate(-264.01 -355.56)"/>
      </g>
      <g id="Group_2051" data-name="Group 2051" transform="translate(59.899 2.312)">
        <path id="Path_1838" data-name="Path 1838" class="cls-8" d="M266.895,362.1l.3,1.92a1.663,1.663,0,0,1-.545.715,1.363,1.363,0,0,1-.808.235,2.393,2.393,0,0,1-.382-.034v.681a1.826,1.826,0,0,0,.524.077,1.594,1.594,0,0,0,.859-.245,1.7,1.7,0,0,0,.614-.674,2.044,2.044,0,0,0,.225-.963q0-.77-.108-1.889Z" transform="translate(-265.46 -361.92)"/>
      </g>
      <g id="Group_2052" data-name="Group 2052" transform="translate(62.808 1.969)">
        <path id="Path_1839" data-name="Path 1839" class="cls-8" d="M277.8,360.59a1,1,0,0,0-.689.2.991.991,0,0,0-.3.568,5.14,5.14,0,0,0-.072.973,1.519,1.519,0,0,0,.108.622.694.694,0,0,0,.343.348,1.473,1.473,0,0,0,.627.114,6.407,6.407,0,0,0,.8-.052.552.552,0,0,1-.266.392,1.218,1.218,0,0,1-.465.163,4.089,4.089,0,0,1-.56.033h-.552v.663a5.621,5.621,0,0,0,.787.065,1.991,1.991,0,0,0,.924-.188,1.148,1.148,0,0,0,.521-.6,2.95,2.95,0,0,0,.168-1.089,3.246,3.246,0,0,0-.338-1.67A1.143,1.143,0,0,0,277.8,360.59Zm.1,2.129a1.328,1.328,0,0,1-.4-.049.338.338,0,0,1-.2-.165.76.76,0,0,1-.059-.333,8.238,8.238,0,0,1,.041-.836c.083-.016.152-.028.214-.034a1.626,1.626,0,0,1,.2-.01.9.9,0,0,1,.516.129.743.743,0,0,1,.271.434,3.556,3.556,0,0,1,.093.862h-.679Z" transform="translate(-276.73 -360.59)"/>
      </g>
      <g id="Group_2053" data-name="Group 2053" transform="translate(65.765 0.671)">
        <path id="Path_1840" data-name="Path 1840" class="cls-8" d="M288.19,355.645l.142,3.951h.56l-.008-4.036Z" transform="translate(-288.19 -355.56)"/>
      </g>
      <g id="Group_2054" data-name="Group 2054" transform="translate(68.196 2.044)">
        <path id="Path_1841" data-name="Path 1841" class="cls-8" d="M304.872,362.738V360.88l-.684.1.1,1.959h-.108a4.519,4.519,0,0,1-.537-.031,1.454,1.454,0,0,1-.418-.1l-.015-1.52h-.591v1.536a2.366,2.366,0,0,1-.426.072c-.173.016-.356.023-.547.023a5.255,5.255,0,0,1-.57-.028v-1.708l-.684.1.106,2.56a4.189,4.189,0,0,1-.73.232,3.019,3.019,0,0,1-.668.08,1.139,1.139,0,0,1-.717-.183.706.706,0,0,1-.227-.583c0-.1.008-.217.021-.354s.041-.377.088-.717h-.547c-.049.4-.077.666-.09.8s-.018.258-.018.364a1.451,1.451,0,0,0,.343,1.05,1.35,1.35,0,0,0,1.017.354,3.131,3.131,0,0,0,.63-.07,3.988,3.988,0,0,0,.679-.2,1.63,1.63,0,0,0,.436-.245.873.873,0,0,0,.243-.33,1.56,1.56,0,0,0,.1-.477,1.618,1.618,0,0,0,.537.083,3.042,3.042,0,0,0,.738-.088,1.86,1.86,0,0,0,.552-.217,2.231,2.231,0,0,0,.521.222,2.058,2.058,0,0,0,.57.088.862.862,0,0,0,.65-.243A.931.931,0,0,0,304.872,362.738Z" transform="translate(-297.61 -360.88)"/>
      </g>
      <g id="Group_2055" data-name="Group 2055" transform="translate(75.133 2.312)">
        <path id="Path_1842" data-name="Path 1842" class="cls-8" d="M325.925,362.1l.3,1.92a1.663,1.663,0,0,1-.545.715,1.363,1.363,0,0,1-.808.235,2.393,2.393,0,0,1-.382-.034v.681a1.826,1.826,0,0,0,.524.077,1.594,1.594,0,0,0,.859-.245,1.7,1.7,0,0,0,.614-.674,2.044,2.044,0,0,0,.225-.963q0-.77-.108-1.889Z" transform="translate(-324.49 -361.92)"/>
      </g>
      <g id="Group_2056" data-name="Group 2056" transform="translate(78.044 1.941)">
        <path id="Path_1843" data-name="Path 1843" class="cls-8" d="M344.733,361.406c-.016-.346-.031-.655-.049-.926l-.686.147.178,1.776a1.574,1.574,0,0,1-.514.17,4.112,4.112,0,0,1-.728.059H338.2a3.047,3.047,0,0,0-.351-1.6,1.13,1.13,0,0,0-1.014-.521,1,1,0,0,0-.689.2.991.991,0,0,0-.3.568,5.143,5.143,0,0,0-.072.973,1.52,1.52,0,0,0,.108.622.7.7,0,0,0,.343.348,1.473,1.473,0,0,0,.627.114,6.481,6.481,0,0,0,.8-.052.559.559,0,0,1-.266.392,1.217,1.217,0,0,1-.464.163,4.079,4.079,0,0,1-.56.034h-.552v.663a5.621,5.621,0,0,0,.787.065,2.168,2.168,0,0,0,.8-.129,1.092,1.092,0,0,0,.511-.408,1.763,1.763,0,0,0,.261-.73h4.777a3.037,3.037,0,0,0,.952-.137,1.5,1.5,0,0,0,.643-.39.841.841,0,0,0,.23-.583C344.754,362.028,344.748,361.755,344.733,361.406Zm-7.8,1.231a1.326,1.326,0,0,1-.4-.049.338.338,0,0,1-.2-.165.761.761,0,0,1-.059-.333,8.248,8.248,0,0,1,.041-.836c.083-.015.152-.028.214-.034a1.6,1.6,0,0,1,.2-.01.9.9,0,0,1,.516.129.743.743,0,0,1,.271.434,3.558,3.558,0,0,1,.093.862h-.679Z" transform="translate(-335.77 -360.48)"/>
      </g>
      <g id="Group_2057" data-name="Group 2057" transform="translate(85.683 5.422)">
        <rect id="Rectangle_2812" data-name="Rectangle 2812" class="cls-8" width="0.782" height="0.782" transform="translate(0 0.553) rotate(-45)"/>
      </g>
    </g>
  </g>
</svg>
