<svg width="71" height="87" viewBox="0 0 71 87" fill="none" xmlns="http://www.w3.org/2000/svg">
<path d="M5.77 76.68C6.524 76.68 7.22167 76.8707 7.863 77.252C8.513 77.6247 9.02867 78.1317 9.41 78.773C9.79133 79.4143 9.982 80.1077 9.982 80.853C9.982 81.5983 9.79133 82.2917 9.41 82.933C9.02867 83.5657 8.513 84.0683 7.863 84.441C7.22167 84.8137 6.524 85 5.77 85H3.482C3.29133 85 3.12667 84.9307 2.988 84.792C2.84933 84.6533 2.78 84.4887 2.78 84.298V77.369C2.78 77.1783 2.845 77.018 2.975 76.888C3.11367 76.7493 3.28267 76.68 3.482 76.68H5.77ZM5.796 83.7C6.33333 83.7 6.81 83.5743 7.226 83.323C7.65067 83.0717 7.98 82.7293 8.214 82.296C8.448 81.854 8.565 81.3687 8.565 80.84C8.565 80.32 8.448 79.8433 8.214 79.41C7.98 78.968 7.65067 78.6213 7.226 78.37C6.81 78.11 6.33333 77.98 5.796 77.98H4.197V83.7H5.796ZM13.9019 85.078C13.3212 85.078 12.7839 84.9393 12.2899 84.662C11.8046 84.376 11.4189 83.999 11.1329 83.531C10.8556 83.0543 10.7169 82.5343 10.7169 81.971C10.7169 81.4077 10.8556 80.892 11.1329 80.424C11.4189 79.9473 11.8046 79.5703 12.2899 79.293C12.7839 79.0157 13.3212 78.877 13.9019 78.877C14.4826 78.877 15.0156 79.0157 15.5009 79.293C15.9862 79.5703 16.3676 79.9473 16.6449 80.424C16.9309 80.892 17.0739 81.4077 17.0739 81.971C17.0739 82.5343 16.9309 83.0543 16.6449 83.531C16.3676 83.999 15.9862 84.376 15.5009 84.662C15.0156 84.9393 14.4826 85.078 13.9019 85.078ZM13.9019 83.739C14.4046 83.739 14.8206 83.57 15.1499 83.232C15.4879 82.8853 15.6569 82.465 15.6569 81.971C15.6569 81.4683 15.4879 81.0523 15.1499 80.723C14.8206 80.385 14.4046 80.216 13.9019 80.216C13.3992 80.216 12.9789 80.385 12.6409 80.723C12.3029 81.0523 12.1339 81.4683 12.1339 81.971C12.1339 82.465 12.3029 82.8853 12.6409 83.232C12.9789 83.57 13.3992 83.739 13.9019 83.739ZM21.8971 79.618C21.8971 79.8087 21.8321 79.9777 21.7021 80.125C21.5808 80.2637 21.4074 80.333 21.1821 80.333C20.6274 80.333 20.1768 80.4977 19.8301 80.827C19.4834 81.1563 19.3101 81.6243 19.3101 82.231V84.298C19.3101 84.4973 19.2408 84.6663 19.1021 84.805C18.9721 84.935 18.8118 85 18.6211 85C18.4304 85 18.2614 84.9307 18.1141 84.792C17.9754 84.6533 17.9061 84.4887 17.9061 84.298V82.127C17.9061 81.0783 18.1921 80.2853 18.7641 79.748C19.3448 79.202 20.1248 78.929 21.1041 78.929C21.3728 78.929 21.5721 78.9983 21.7021 79.137C21.8321 79.267 21.8971 79.4273 21.8971 79.618ZM23.1403 78.292C22.9323 78.292 22.7503 78.2183 22.5943 78.071C22.447 77.915 22.3733 77.7287 22.3733 77.512C22.3733 77.2953 22.447 77.1133 22.5943 76.966C22.7503 76.8187 22.9323 76.745 23.1403 76.745C23.357 76.745 23.539 76.8187 23.6863 76.966C23.8423 77.1133 23.9203 77.2953 23.9203 77.512C23.9203 77.7287 23.8423 77.915 23.6863 78.071C23.539 78.2183 23.357 78.292 23.1403 78.292ZM23.1533 85C22.954 85 22.785 84.9307 22.6463 84.792C22.5077 84.6533 22.4383 84.4843 22.4383 84.285V79.644C22.4383 79.4533 22.5077 79.2887 22.6463 79.15C22.785 79.0113 22.954 78.942 23.1533 78.942C23.3527 78.942 23.5173 79.0113 23.6473 79.15C23.7773 79.28 23.8423 79.4447 23.8423 79.644V84.285C23.8423 84.4843 23.773 84.6533 23.6343 84.792C23.5043 84.9307 23.344 85 23.1533 85ZM27.7501 78.877C28.2961 78.877 28.7901 79.0113 29.2321 79.28C29.6741 79.54 30.0207 79.8997 30.2721 80.359C30.5321 80.8183 30.6621 81.321 30.6621 81.867V84.324C30.6621 84.5233 30.5971 84.6923 30.4671 84.831C30.3371 84.961 30.1724 85.026 29.9731 85.026C29.7737 85.026 29.6047 84.961 29.4661 84.831C29.3274 84.6923 29.2581 84.5233 29.2581 84.324V81.802C29.2581 81.36 29.1194 80.9873 28.8421 80.684C28.5734 80.372 28.2137 80.216 27.7631 80.216C27.3211 80.216 26.9571 80.3677 26.6711 80.671C26.3851 80.9743 26.2421 81.347 26.2421 81.789V84.324C26.2421 84.5233 26.1727 84.6923 26.0341 84.831C25.9041 84.961 25.7394 85.026 25.5401 85.026C25.3494 85.026 25.1804 84.961 25.0331 84.831C24.8944 84.6923 24.8251 84.5233 24.8251 84.324V81.867C24.8251 81.321 24.9507 80.8183 25.2021 80.359C25.4621 79.8997 25.8174 79.54 26.2681 79.28C26.7187 79.0113 27.2127 78.877 27.7501 78.877ZM40.7106 76.68C40.91 76.68 41.079 76.7493 41.2176 76.888C41.3563 77.018 41.4256 77.1783 41.4256 77.369C41.4256 77.5337 41.3563 77.681 41.2176 77.811C41.079 77.9323 40.91 77.993 40.7106 77.993H38.7736V84.298C38.7736 84.4887 38.7043 84.6533 38.5656 84.792C38.427 84.9307 38.258 85 38.0586 85C37.868 85 37.7033 84.9307 37.5646 84.792C37.426 84.6533 37.3566 84.4887 37.3566 84.298V77.993H35.4066C35.216 77.993 35.0513 77.928 34.9126 77.798C34.774 77.668 34.7046 77.5293 34.7046 77.382C34.7046 77.1827 34.774 77.018 34.9126 76.888C35.0513 76.7493 35.216 76.68 35.4066 76.68H40.7106ZM44.4694 79.618C44.4694 79.8087 44.4044 79.9777 44.2744 80.125C44.153 80.2637 43.9797 80.333 43.7544 80.333C43.1997 80.333 42.749 80.4977 42.4024 80.827C42.0557 81.1563 41.8824 81.6243 41.8824 82.231V84.298C41.8824 84.4973 41.813 84.6663 41.6744 84.805C41.5444 84.935 41.384 85 41.1934 85C41.0027 85 40.8337 84.9307 40.6864 84.792C40.5477 84.6533 40.4784 84.4887 40.4784 84.298V82.127C40.4784 81.0783 40.7644 80.2853 41.3364 79.748C41.917 79.202 42.697 78.929 43.6764 78.929C43.945 78.929 44.1444 78.9983 44.2744 79.137C44.4044 79.267 44.4694 79.4273 44.4694 79.618ZM47.7331 78.877C48.3051 78.877 48.8294 79.0157 49.3061 79.293C49.7914 79.5703 50.1728 79.9473 50.4501 80.424C50.7274 80.9007 50.8661 81.4207 50.8661 81.984V84.298C50.8661 84.506 50.8011 84.675 50.6711 84.805C50.5498 84.935 50.3981 85 50.2161 85C50.0254 85 49.8694 84.9393 49.7481 84.818C49.6354 84.6967 49.5704 84.5407 49.5531 84.35C49.0418 84.844 48.3874 85.091 47.5901 85.091C47.0354 85.091 46.5328 84.9523 46.0821 84.675C45.6314 84.3977 45.2761 84.0207 45.0161 83.544C44.7561 83.0673 44.6261 82.5473 44.6261 81.984C44.6261 81.4207 44.7648 80.9007 45.0421 80.424C45.3281 79.9473 45.7051 79.5703 46.1731 79.293C46.6498 79.0157 47.1698 78.877 47.7331 78.877ZM47.7721 83.739C48.0928 83.739 48.3874 83.661 48.6561 83.505C48.9248 83.349 49.1371 83.1367 49.2931 82.868C49.4491 82.5993 49.5271 82.3047 49.5271 81.984C49.5271 81.6633 49.4491 81.3687 49.2931 81.1C49.1371 80.8227 48.9248 80.606 48.6561 80.45C48.3874 80.294 48.0928 80.216 47.7721 80.216C47.4514 80.216 47.1524 80.294 46.8751 80.45C46.6064 80.606 46.3898 80.8227 46.2251 81.1C46.0691 81.3687 45.9911 81.6633 45.9911 81.984C45.9911 82.3047 46.0691 82.5993 46.2251 82.868C46.3811 83.1367 46.5934 83.349 46.8621 83.505C47.1394 83.661 47.4428 83.739 47.7721 83.739ZM57.2744 76.615C57.465 76.615 57.6297 76.6887 57.7684 76.836C57.907 76.9747 57.9764 77.1437 57.9764 77.343V81.971C57.9764 82.5257 57.8334 83.0413 57.5474 83.518C57.27 83.9947 56.8887 84.376 56.4034 84.662C55.918 84.9393 55.3937 85.078 54.8304 85.078C54.267 85.078 53.7427 84.9393 53.2574 84.662C52.7807 84.376 52.3994 83.9947 52.1134 83.518C51.836 83.0413 51.6974 82.5257 51.6974 81.971C51.6974 81.4077 51.836 80.892 52.1134 80.424C52.3994 79.9473 52.7807 79.5703 53.2574 79.293C53.7427 79.0157 54.267 78.877 54.8304 78.877C55.463 78.877 56.0437 79.0503 56.5724 79.397V77.343C56.5724 77.135 56.6374 76.9617 56.7674 76.823C56.8974 76.6843 57.0664 76.615 57.2744 76.615ZM54.9084 83.739C55.2204 83.739 55.5064 83.661 55.7664 83.505C56.035 83.349 56.2474 83.1367 56.4034 82.868C56.5594 82.5907 56.6374 82.2917 56.6374 81.971C56.6374 81.6417 56.5594 81.3427 56.4034 81.074C56.2474 80.8053 56.035 80.5973 55.7664 80.45C55.5064 80.294 55.2204 80.216 54.9084 80.216C54.397 80.216 53.968 80.385 53.6214 80.723C53.2834 81.0523 53.1144 81.4683 53.1144 81.971C53.1144 82.3003 53.1924 82.5993 53.3484 82.868C53.5044 83.1367 53.7167 83.349 53.9854 83.505C54.2627 83.661 54.5704 83.739 54.9084 83.739ZM64.7218 81.724C64.7218 82.2527 64.5181 82.517 64.1108 82.517H60.2368C60.3494 82.907 60.5574 83.219 60.8608 83.453C61.1728 83.687 61.5281 83.8083 61.9268 83.817C62.1694 83.817 62.3904 83.7867 62.5898 83.726C62.7891 83.6567 62.9841 83.5483 63.1748 83.401C63.3481 83.2883 63.5084 83.232 63.6558 83.232C63.8464 83.232 63.9938 83.31 64.0978 83.466C64.1671 83.5787 64.2018 83.6913 64.2018 83.804C64.2018 84.0207 64.1151 84.2027 63.9418 84.35C63.7164 84.5667 63.4261 84.7443 63.0708 84.883C62.7154 85.0217 62.3038 85.091 61.8358 85.091C61.2551 85.091 60.7351 84.9523 60.2758 84.675C59.8164 84.3977 59.4568 84.0207 59.1968 83.544C58.9368 83.0673 58.8068 82.543 58.8068 81.971C58.8068 81.399 58.9368 80.879 59.1968 80.411C59.4568 79.9343 59.8164 79.5617 60.2758 79.293C60.7438 79.0157 61.2724 78.877 61.8618 78.877C62.4164 78.877 62.9104 79.007 63.3438 79.267C63.7771 79.527 64.1151 79.878 64.3578 80.32C64.6004 80.7533 64.7218 81.2213 64.7218 81.724ZM63.4738 81.438C63.4564 81.074 63.2918 80.7707 62.9798 80.528C62.6764 80.2767 62.3211 80.151 61.9138 80.151C61.5151 80.151 61.1641 80.268 60.8608 80.502C60.5574 80.736 60.3494 81.048 60.2368 81.438H63.4738ZM69.4411 79.618C69.4411 79.8087 69.3761 79.9777 69.2461 80.125C69.1247 80.2637 68.9514 80.333 68.7261 80.333C68.1714 80.333 67.7207 80.4977 67.3741 80.827C67.0274 81.1563 66.8541 81.6243 66.8541 82.231V84.298C66.8541 84.4973 66.7847 84.6663 66.6461 84.805C66.5161 84.935 66.3557 85 66.1651 85C65.9744 85 65.8054 84.9307 65.6581 84.792C65.5194 84.6533 65.4501 84.4887 65.4501 84.298V82.127C65.4501 81.0783 65.7361 80.2853 66.3081 79.748C66.8887 79.202 67.6687 78.929 68.6481 78.929C68.9167 78.929 69.1161 78.9983 69.2461 79.137C69.3761 79.267 69.4411 79.4273 69.4411 79.618Z" fill="url(#paint0_linear_1083_3451)"/>
<path d="M53 0L54.0804 3.28459L57 4.5L54.0804 5.71541L53 9L51.9196 5.71541L49 4.5L51.9196 3.28459L53 0Z" fill="url(#paint1_linear_1083_3451)"/>
<path d="M63.5 9L64.1752 10.4598L66 11L64.1752 11.5402L63.5 13L62.8248 11.5402L61 11L62.8248 10.4598L63.5 9Z" fill="url(#paint2_linear_1083_3451)"/>
<path fill-rule="evenodd" clip-rule="evenodd" d="M9.90022 16.6575C9.83102 16.6575 9.76479 16.6857 9.7168 16.7356L2.27773 24.4635C2.1832 24.5617 2.18278 24.717 2.27679 24.8157L10.6844 33.6437C10.7771 33.7411 10.9296 33.7495 11.0325 33.6631L22.7858 23.7903L24.2051 25.4799L12.4518 35.3526C11.4566 36.1886 9.98291 36.1066 9.08656 35.1655L0.67894 26.3375C-0.229819 25.3833 -0.225814 23.8826 0.688029 22.9333L8.1271 15.2053C8.59106 14.7233 9.23123 14.451 9.90022 14.451H59.5805C60.2495 14.451 60.8897 14.7233 61.3537 15.2053L68.7959 22.9365C69.7074 23.8835 69.714 25.3796 68.8109 26.3345L36.6542 60.3356C35.6843 61.3611 34.0523 61.3624 33.0807 60.3384L14.5821 40.842C13.6233 39.8315 13.6935 38.2275 14.7368 37.3046L20.3033 32.3804L21.7653 34.0331L16.1988 38.9573C16.0909 39.0527 16.0836 39.2187 16.1828 39.3232L34.6814 58.8197C34.7819 58.9256 34.9507 58.9255 35.0511 58.8194L67.2077 24.8183C67.3012 24.7195 67.3005 24.5648 67.2062 24.4668L59.764 16.7356C59.716 16.6857 59.6497 16.6575 59.5805 16.6575H9.90022Z" fill="url(#paint3_linear_1083_3451)"/>
<path d="M26.8674 21.1601C27.3801 21.0584 27.8107 21.5497 27.6425 22.0445L25.987 26.9157C25.8188 27.4106 25.178 27.5378 24.8336 27.1448L21.4427 23.2755C21.0983 22.8824 21.3085 22.2638 21.8211 22.162L26.8674 21.1601Z" fill="url(#paint4_linear_1083_3451)"/>
<path d="M24.1516 29.9863C24.6643 29.8846 25.0948 30.3759 24.9267 30.8707L23.2712 35.7419C23.103 36.2368 22.4622 36.364 22.1177 35.971L18.7269 32.1017C18.3824 31.7086 18.5926 31.09 19.1053 30.9883L24.1516 29.9863Z" fill="url(#paint5_linear_1083_3451)"/>
<defs>
<linearGradient id="paint0_linear_1083_3451" x1="2" y1="81.5" x2="71" y2="81.5" gradientUnits="userSpaceOnUse">
<stop stop-color="#CE970E"/>
<stop offset="0.328125" stop-color="#FFEC7A"/>
<stop offset="0.515625" stop-color="#EAB04C"/>
<stop offset="0.671875" stop-color="#FFEC7A"/>
<stop offset="1" stop-color="#F2B93A"/>
</linearGradient>
<linearGradient id="paint1_linear_1083_3451" x1="49" y1="4.5" x2="57" y2="4.5" gradientUnits="userSpaceOnUse">
<stop stop-color="#CE970E"/>
<stop offset="0.328125" stop-color="#FFEC7A"/>
<stop offset="0.515625" stop-color="#EAB04C"/>
<stop offset="0.671875" stop-color="#FFEC7A"/>
<stop offset="1" stop-color="#F2B93A"/>
</linearGradient>
<linearGradient id="paint2_linear_1083_3451" x1="61" y1="11" x2="66" y2="11" gradientUnits="userSpaceOnUse">
<stop stop-color="#CE970E"/>
<stop offset="0.328125" stop-color="#FFEC7A"/>
<stop offset="0.515625" stop-color="#EAB04C"/>
<stop offset="0.671875" stop-color="#FFEC7A"/>
<stop offset="1" stop-color="#F2B93A"/>
</linearGradient>
<linearGradient id="paint3_linear_1083_3451" x1="0" y1="37.7783" x2="69.4839" y2="37.7783" gradientUnits="userSpaceOnUse">
<stop stop-color="#CE970E"/>
<stop offset="0.166567" stop-color="#CE9728"/>
<stop offset="0.328125" stop-color="#FFEC7A"/>
<stop offset="0.515625" stop-color="#B98120"/>
<stop offset="0.671875" stop-color="#FFEC7A"/>
<stop offset="0.822917" stop-color="#CE9728"/>
<stop offset="1" stop-color="#F2B93A"/>
</linearGradient>
<linearGradient id="paint4_linear_1083_3451" x1="23.1806" y1="20.8483" x2="27.4678" y2="25.7404" gradientUnits="userSpaceOnUse">
<stop stop-color="#CE970E"/>
<stop offset="0.328125" stop-color="#FFEC7A"/>
<stop offset="0.515625" stop-color="#EAB04C"/>
<stop offset="0.671875" stop-color="#FFEC7A"/>
<stop offset="1" stop-color="#F2B93A"/>
</linearGradient>
<linearGradient id="paint5_linear_1083_3451" x1="20.4648" y1="29.6745" x2="24.7519" y2="34.5666" gradientUnits="userSpaceOnUse">
<stop stop-color="#CE970E"/>
<stop offset="0.328125" stop-color="#FFEC7A"/>
<stop offset="0.515625" stop-color="#EAB04C"/>
<stop offset="0.671875" stop-color="#FFEC7A"/>
<stop offset="1" stop-color="#F2B93A"/>
</linearGradient>
</defs>
</svg>
