<svg xmlns="http://www.w3.org/2000/svg" width="17.052" height="19.865" viewBox="0 0 17.052 19.865">
    <g data-name="Group 1616">
        <g data-name="Iconly/Light-outline/Paper Download">
            <path data-name="Paper Download" d="M4.584 19.865A4.561 4.561 0 0 1 0 15.228V4.491a4.388 4.388 0 0 1 1.359-3.163A4.607 4.607 0 0 1 4.584.012h6.257a.756.756 0 0 1 .265 0h.13a.758.758 0 0 1 .542.23l5.065 5.276a.752.752 0 0 1 .21.52v9.19a4.622 4.622 0 0 1-4.48 4.637zm0-18.353A3.073 3.073 0 0 0 1.5 4.491v10.737a3.157 3.157 0 0 0 .887 2.234 3.047 3.047 0 0 0 2.2.9h7.988a2.916 2.916 0 0 0 2.092-.937 3.229 3.229 0 0 0 .887-2.2V6.983h-2.012a3.324 3.324 0 0 1-3.312-3.137l-.005-.188V1.511zm7.14 2.147a1.824 1.824 0 0 0 1.821 1.824h1.187l-3.009-3.13z" style="fill:#d6d5dd"/>
        </g>
        <path data-name="Stroke 3" d="M7.34.22a.75.75 0 0 1 1.133.98l-.073.08-4.746 4.746a.75.75 0 0 1-.976.073l-.084-.073L.22 3.653A.75.75 0 0 1 1.2 2.52l.084.073 1.839 1.842z" transform="translate(4.217 7.868)" style="fill:#d6d5dd"/>
    </g>
</svg>
