<svg width="233" height="233" viewBox="0 0 233 233" fill="none" xmlns="http://www.w3.org/2000/svg">
<g opacity="0.3">
<path d="M77.8182 46.8476C77.7466 46.8909 77.6671 46.9196 77.5844 46.9322C77.5017 46.9448 77.4173 46.9409 77.336 46.9209C77.2547 46.9008 77.1782 46.8649 77.1109 46.8153C77.0435 46.7656 76.9866 46.7032 76.9434 46.6315C76.5898 46.0468 76.2054 45.4684 75.801 44.9126C75.7037 44.778 75.6629 44.6108 75.6872 44.4465C75.7115 44.2823 75.799 44.134 75.931 44.0333L75.941 44.0258C76.0086 43.9765 76.0853 43.941 76.1667 43.9214C76.2481 43.9018 76.3325 43.8984 76.4152 43.9115C76.4978 43.9245 76.5771 43.9538 76.6485 43.9976C76.7198 44.0413 76.7818 44.0987 76.8309 44.1665C77.2567 44.7512 77.6612 45.3598 78.0336 45.9759C78.115 46.1106 78.1436 46.2706 78.114 46.4251C78.0845 46.5797 77.9988 46.7179 77.8735 46.813C77.8559 46.8231 77.8377 46.8356 77.8182 46.8476ZM73.6468 42.3433C73.1708 41.8478 72.669 41.3686 72.1552 40.9177C72.0924 40.8625 72.041 40.7955 72.004 40.7204C71.967 40.6454 71.9451 40.5638 71.9397 40.4803C71.9342 40.3968 71.9453 40.3131 71.9722 40.2339C71.9991 40.1547 72.0413 40.0815 72.0965 40.0187C72.1517 39.9558 72.2187 39.9044 72.2938 39.8674C72.3688 39.8304 72.4504 39.8086 72.5339 39.8031C72.6174 39.7976 72.7011 39.8087 72.7803 39.8356C72.8595 39.8625 72.9327 39.9048 72.9955 39.9599C73.5363 40.4341 74.0632 40.939 74.5656 41.4597C74.6828 41.5815 74.7468 41.7449 74.7435 41.9139C74.7402 42.0829 74.6699 42.2437 74.548 42.3609C74.5297 42.3783 74.5104 42.3946 74.4903 42.4099C74.3658 42.5037 74.2113 42.5488 74.0559 42.5365C73.9005 42.5242 73.755 42.4555 73.6468 42.3433ZM69.488 38.8891C68.9152 38.5123 68.3192 38.1581 67.7163 37.8328C67.64 37.7946 67.5722 37.7414 67.5168 37.6765C67.4614 37.6116 67.4197 37.5362 67.394 37.4548C67.3683 37.3735 67.3592 37.2878 67.3672 37.2028C67.3752 37.1179 67.4002 37.0354 67.4407 36.9603C67.4812 36.8852 67.5364 36.819 67.6029 36.7656C67.6695 36.7122 67.7461 36.6727 67.8282 36.6495C67.9103 36.6263 67.9962 36.6197 68.0809 36.6303C68.1656 36.6409 68.2472 36.6684 68.3211 36.7111C68.9579 37.054 69.586 37.4308 70.187 37.8234C70.3273 37.9162 70.4252 38.0606 70.4596 38.2253C70.4939 38.3899 70.4619 38.5615 70.3704 38.7026C70.3302 38.7635 70.2801 38.8172 70.2222 38.8615C70.1175 38.9412 69.9909 38.9866 69.8594 38.9916C69.728 38.9965 69.5983 38.9607 69.488 38.8891ZM64.6609 36.4517C64.0178 36.2131 63.3571 36.0002 62.6971 35.8174C62.6165 35.7952 62.541 35.7572 62.475 35.7058C62.4091 35.6544 62.3539 35.5905 62.3126 35.5177C62.2293 35.3708 62.2078 35.1968 62.2527 35.034C62.2977 34.8711 62.4055 34.7329 62.5524 34.6495C62.6252 34.6083 62.7054 34.5817 62.7884 34.5715C62.8714 34.5612 62.9556 34.5674 63.0362 34.5896C63.7314 34.7818 64.4273 35.006 65.1037 35.2566C65.1867 35.282 65.2637 35.3242 65.3298 35.3804C65.396 35.4366 65.45 35.5058 65.4884 35.5836C65.5269 35.6614 65.5491 35.7463 65.5536 35.833C65.5581 35.9197 65.5448 36.0064 65.5146 36.0879C65.4844 36.1693 65.4379 36.2436 65.3779 36.3064C65.318 36.3692 65.2458 36.4191 65.1658 36.453C65.0859 36.4869 64.9999 36.5041 64.9131 36.5035C64.8262 36.503 64.7404 36.4847 64.6609 36.4499V36.4517ZM59.4118 35.1505C58.7329 35.0613 58.0415 34.9991 57.3557 34.9677C57.1902 34.9553 57.0361 34.8789 56.9261 34.7547C56.8161 34.6305 56.7588 34.4682 56.7665 34.3025C56.7742 34.1368 56.8462 33.9805 56.9672 33.867C57.0883 33.7535 57.2488 33.6917 57.4147 33.6947C58.1363 33.7286 58.8642 33.7933 59.5783 33.8875C59.6612 33.8984 59.7412 33.9256 59.8136 33.9674C59.886 34.0092 59.9495 34.0649 60.0004 34.1313C60.0513 34.1977 60.0887 34.2734 60.1103 34.3542C60.1319 34.435 60.1375 34.5193 60.1265 34.6022C60.1156 34.6851 60.0885 34.7651 60.0466 34.8375C60.0048 34.9099 59.9491 34.9734 59.8827 35.0243C59.8164 35.0753 59.7406 35.1126 59.6598 35.1342C59.579 35.1559 59.4948 35.1614 59.4118 35.1505ZM54.0051 35.0443C53.3224 35.1071 52.6347 35.2001 51.9596 35.3207C51.793 35.3504 51.6215 35.3127 51.4827 35.216C51.3439 35.1192 51.2492 34.9713 51.2195 34.8047C51.1897 34.6382 51.2274 34.4666 51.3241 34.3278C51.4209 34.189 51.5688 34.0943 51.7354 34.0646C52.4457 33.939 53.1698 33.8398 53.8883 33.7738C54.0568 33.7583 54.2245 33.8104 54.3546 33.9186C54.4847 34.0268 54.5665 34.1822 54.5819 34.3507C54.5974 34.5191 54.5454 34.6869 54.4372 34.817C54.329 34.947 54.1736 35.0288 54.0051 35.0443ZM34.1153 47.8562C33.9667 47.7758 33.8561 47.6396 33.8078 47.4777C33.7595 47.3158 33.7775 47.1413 33.8578 46.9926C34.2014 46.3583 34.5769 45.7309 34.9745 45.1274C35.0205 45.0575 35.0798 44.9974 35.1491 44.9505C35.2183 44.9036 35.2961 44.8707 35.3781 44.8539C35.46 44.837 35.5445 44.8365 35.6266 44.8523C35.7088 44.868 35.787 44.8999 35.8569 44.9459C35.9267 44.9919 35.9868 45.0512 36.0337 45.1205C36.0807 45.1897 36.1135 45.2675 36.1304 45.3495C36.1472 45.4314 36.1478 45.5159 36.132 45.598C36.1162 45.6802 36.0844 45.7584 36.0384 45.8283C35.6615 46.401 35.3048 46.997 34.9789 47.5993C34.9359 47.6792 34.8761 47.7488 34.8036 47.8034C34.7061 47.8773 34.5893 47.9216 34.4672 47.9309C34.3452 47.9403 34.223 47.9143 34.1153 47.8562ZM48.712 36.1365C48.0614 36.3494 47.4114 36.5931 46.7815 36.8612C46.7039 36.8971 46.62 36.917 46.5346 36.9197C46.4493 36.9225 46.3642 36.908 46.2845 36.8772C46.2049 36.8464 46.1322 36.7999 46.0709 36.7404C46.0095 36.681 45.9608 36.6098 45.9276 36.5311C45.8943 36.4524 45.8772 36.3679 45.8773 36.2825C45.8774 36.197 45.8947 36.1125 45.9282 36.0339C45.9616 35.9553 46.0105 35.8842 46.072 35.8249C46.1334 35.7656 46.2062 35.7193 46.286 35.6887C46.9498 35.4067 47.6337 35.1498 48.3195 34.9256C48.4628 34.8785 48.6182 34.8838 48.758 34.9406C48.8977 34.9973 49.0128 35.1019 49.0827 35.2356C49.1526 35.3692 49.1728 35.5234 49.1396 35.6705C49.1065 35.8177 49.0222 35.9483 48.9017 36.0391C48.8446 36.0823 48.7804 36.1152 48.712 36.1365ZM37.1738 43.22C37.0471 43.1083 36.9698 42.9508 36.9591 42.7822C36.9484 42.6136 37.0051 42.4476 37.1167 42.3207C37.5934 41.78 38.0989 41.253 38.6202 40.7506C38.6793 40.6869 38.7509 40.636 38.8304 40.601C38.91 40.566 38.9958 40.5476 39.0827 40.5469C39.1697 40.5463 39.2558 40.5635 39.3358 40.5974C39.4159 40.6312 39.4881 40.6811 39.5482 40.744C39.6082 40.8068 39.6548 40.8813 39.685 40.9628C39.7152 41.0442 39.7285 41.1311 39.7239 41.2179C39.7193 41.3046 39.6971 41.3896 39.6585 41.4675C39.6199 41.5453 39.5657 41.6145 39.4994 41.6707C39.0039 42.1455 38.5228 42.6467 38.0707 43.161C38.0421 43.193 38.0105 43.2222 37.9765 43.2483C37.8597 43.3364 37.7163 43.3816 37.5701 43.3765C37.424 43.3713 37.2841 43.3161 37.1738 43.22ZM43.7971 38.3842C43.2111 38.7372 42.6321 39.1203 42.0763 39.5228C42.009 39.5726 41.9326 39.6087 41.8514 39.629C41.7702 39.6493 41.6858 39.6534 41.603 39.641C41.5202 39.6287 41.4407 39.6002 41.3689 39.5571C41.2972 39.514 41.2346 39.4573 41.1848 39.39C41.135 39.3227 41.0989 39.2463 41.0786 39.1651C41.0583 39.0839 41.0542 38.9995 41.0665 38.9167C41.0789 38.834 41.1074 38.7544 41.1505 38.6827C41.1935 38.6109 41.2503 38.5483 41.3176 38.4985L41.3289 38.491C41.9136 38.067 42.5222 37.6638 43.1401 37.292C43.2798 37.2095 43.4457 37.1833 43.604 37.2188C43.7623 37.2543 43.9011 37.3488 43.9921 37.4831C44.0832 37.6174 44.1196 37.7813 44.094 37.9415C44.0683 38.1017 43.9826 38.2461 43.8542 38.3453C43.8359 38.3595 43.8169 38.3727 43.7971 38.3848V38.3842Z" fill="#91B3FA"/>
<path d="M33.0383 51.9127C33.1421 51.8344 33.2193 51.7261 33.2594 51.6024C33.3612 51.2884 33.4711 50.9744 33.586 50.6648C33.6183 50.5858 33.6344 50.5011 33.6333 50.4157C33.6323 50.3303 33.6141 50.2461 33.5798 50.1679C33.5455 50.0897 33.4958 50.0192 33.4337 49.9606C33.3716 49.902 33.2984 49.8565 33.2184 49.8267C33.1384 49.797 33.0532 49.7837 32.9679 49.7875C32.8826 49.7914 32.799 49.8123 32.7219 49.8491C32.6449 49.8859 32.5761 49.9379 32.5195 50.0018C32.463 50.0658 32.4198 50.1405 32.3927 50.2214C32.2715 50.5474 32.156 50.879 32.0492 51.2074C32.0069 51.3364 32.007 51.4756 32.0495 51.6046C32.0919 51.7335 32.1744 51.8456 32.285 51.9243C32.3956 52.0031 32.5285 52.0444 32.6642 52.0423C32.8 52.0402 32.9315 51.9948 33.0396 51.9127H33.0383Z" fill="#91B3FA"/>
</g>
<g opacity="0.3">
<path d="M34.7103 71.2641C34.8308 71.1725 34.9148 71.041 34.9473 70.8932C34.9797 70.7453 34.9585 70.5907 34.8874 70.4571C34.7329 70.1676 34.5822 69.8692 34.439 69.5716C34.4042 69.4938 34.3542 69.4239 34.2919 69.3658C34.2296 69.3077 34.1563 69.2627 34.0763 69.2334C33.9963 69.2041 33.9113 69.1912 33.8263 69.1953C33.7412 69.1995 33.6578 69.2206 33.5811 69.2575C33.5043 69.2944 33.4357 69.3463 33.3793 69.4101C33.323 69.474 33.28 69.5484 33.2529 69.6292C33.2258 69.7099 33.2151 69.7953 33.2215 69.8802C33.228 69.9651 33.2514 70.0479 33.2903 70.1236C33.4417 70.4376 33.6006 70.7516 33.7626 71.0562C33.8421 71.2054 33.9777 71.3168 34.1394 71.366C34.3011 71.4153 34.4757 71.3983 34.6249 71.3187C34.6548 71.303 34.6834 71.2847 34.7103 71.2641Z" fill="#91B3FA"/>
<path d="M70.5628 80.1484C70.4231 80.2381 70.254 80.2698 70.0913 80.2368C69.9287 80.2038 69.7853 80.1086 69.6917 79.9715C69.5981 79.8344 69.5617 79.6662 69.5902 79.5026C69.6187 79.3391 69.7099 79.1932 69.8443 79.0958C70.3976 78.719 70.9434 78.3108 71.4728 77.8812C71.6044 77.7782 71.7712 77.731 71.9372 77.7497C72.1033 77.7685 72.2554 77.8517 72.3607 77.9815C72.466 78.1112 72.5161 78.2772 72.5003 78.4435C72.4845 78.6099 72.4039 78.7634 72.2761 78.871C72.0462 79.0569 71.8145 79.2384 71.5808 79.4155C71.248 79.6679 70.9051 79.9148 70.5628 80.1484ZM73.9165 76.5341C73.7933 76.4184 73.7211 76.2586 73.7156 76.0897C73.7102 75.9209 73.7721 75.7568 73.8876 75.6335C74.3498 75.1405 74.7964 74.623 75.214 74.0954C75.2659 74.0298 75.3302 73.975 75.4032 73.9343C75.4762 73.8935 75.5566 73.8675 75.6397 73.8578C75.7227 73.8481 75.8069 73.8549 75.8874 73.8777C75.9678 73.9005 76.043 73.939 76.1086 73.9908C76.1742 74.0427 76.229 74.107 76.2697 74.18C76.3105 74.2531 76.3365 74.3334 76.3462 74.4165C76.3559 74.4996 76.3492 74.5837 76.3263 74.6642C76.3035 74.7447 76.2651 74.8199 76.2132 74.8855C75.7736 75.4419 75.3032 75.9864 74.8171 76.5052C74.7924 76.5315 74.7655 76.5557 74.7367 76.5774C74.6171 76.6672 74.4697 76.712 74.3203 76.7041C74.1709 76.6962 74.0291 76.636 73.9196 76.5341H73.9165ZM67.5683 81.905C66.934 82.219 66.2771 82.5142 65.6164 82.7761C65.4593 82.8384 65.284 82.8357 65.1288 82.7687C64.9737 82.7017 64.8516 82.5758 64.7893 82.4187C64.727 82.2616 64.7296 82.0863 64.7967 81.9311C64.8637 81.776 64.9896 81.6539 65.1466 81.5916C65.7747 81.3404 66.3977 81.0647 67.0006 80.7645C67.1426 80.6933 67.3062 80.6778 67.4591 80.721C67.612 80.7642 67.7432 80.863 67.827 80.998C67.9108 81.133 67.9411 81.2945 67.9119 81.4506C67.8828 81.6068 67.7963 81.7465 67.6694 81.8422C67.6379 81.8664 67.604 81.8874 67.5683 81.905ZM77.3028 72.2465C77.1573 72.1609 77.0517 72.0209 77.0093 71.8574C76.9669 71.694 76.9911 71.5203 77.0767 71.3748C77.419 70.7932 77.7406 70.1903 78.032 69.583C78.105 69.4307 78.2356 69.3136 78.3949 69.2575C78.5543 69.2015 78.7294 69.211 78.8817 69.284C79.034 69.3571 79.1511 69.4876 79.2072 69.647C79.2632 69.8064 79.2537 69.9815 79.1806 70.1338C78.8735 70.7737 78.535 71.4087 78.1758 72.0179C78.1334 72.0893 78.0777 72.1519 78.0119 72.2025C77.9115 72.2791 77.7907 72.3242 77.6647 72.332C77.5387 72.3398 77.4132 72.3101 77.3041 72.2465H77.3028ZM62.3111 83.8299C61.6234 83.9989 60.9181 84.1402 60.216 84.2507C60.1312 84.2691 60.0436 84.27 59.9585 84.2533C59.8734 84.2366 59.7926 84.2028 59.7211 84.1538C59.6496 84.1048 59.5888 84.0417 59.5425 83.9684C59.4962 83.8951 59.4653 83.8131 59.4519 83.7274C59.4384 83.6418 59.4425 83.5543 59.464 83.4703C59.4855 83.3863 59.524 83.3076 59.577 83.239C59.63 83.1703 59.6965 83.1133 59.7724 83.0713C59.8482 83.0293 59.9318 83.0032 60.0181 82.9946C60.6851 82.8891 61.3546 82.7553 62.0077 82.5952C62.089 82.5753 62.1733 82.5716 62.256 82.5842C62.3387 82.5969 62.4181 82.6258 62.4896 82.6691C62.5611 82.7125 62.6234 82.7695 62.6729 82.8369C62.7224 82.9044 62.7581 82.9809 62.778 83.0621C62.7979 83.1434 62.8017 83.2277 62.789 83.3104C62.7763 83.3931 62.7474 83.4725 62.7041 83.544C62.6607 83.6155 62.6037 83.6778 62.5363 83.7273C62.4688 83.7768 62.3923 83.8125 62.3111 83.8324V83.8299ZM56.7593 84.5553C56.049 84.5697 55.3305 84.5553 54.624 84.5088C54.4589 84.4934 54.3063 84.4142 54.1987 84.2882C54.091 84.1621 54.0367 83.9991 54.0472 83.8336C54.0577 83.6682 54.1323 83.5133 54.2551 83.4019C54.3779 83.2906 54.5393 83.2314 54.705 83.237C55.3776 83.2798 56.0603 83.2948 56.7348 83.2816C56.8184 83.2799 56.9015 83.2947 56.9795 83.3252C57.0574 83.3556 57.1285 83.4011 57.1888 83.4591C57.2492 83.517 57.2975 83.5862 57.3311 83.6629C57.3646 83.7395 57.3828 83.822 57.3845 83.9056C57.3862 83.9892 57.3714 84.0724 57.3409 84.1503C57.3105 84.2282 57.265 84.2993 57.2071 84.3597C57.1491 84.42 57.0799 84.4683 57.0032 84.5019C56.9266 84.5354 56.8442 84.5536 56.7605 84.5553H56.7593ZM51.1805 84.0529C50.484 83.9122 49.7856 83.7388 49.1079 83.5423C48.9457 83.4951 48.8088 83.3855 48.7275 83.2374C48.6461 83.0894 48.6268 82.9151 48.674 82.7528C48.7211 82.5906 48.8308 82.4537 48.9788 82.3723C49.1269 82.291 49.3012 82.2717 49.4634 82.3189C50.1103 82.5073 50.7741 82.6699 51.4361 82.8037C51.5969 82.8418 51.7367 82.9409 51.8259 83.0801C51.9151 83.2192 51.9467 83.3876 51.9141 83.5497C51.8815 83.7117 51.7873 83.8548 51.6512 83.9487C51.5151 84.0426 51.3479 84.0799 51.1849 84.0529H51.1805ZM45.8422 82.3459C45.1934 82.0563 44.5497 81.7354 43.9286 81.3925C43.8553 81.3521 43.7908 81.2976 43.7386 81.2322C43.6864 81.1668 43.6476 81.0917 43.6244 81.0113C43.6013 80.931 43.5941 80.8468 43.6035 80.7636C43.6128 80.6805 43.6385 80.6 43.6789 80.5268C43.7194 80.4535 43.7739 80.389 43.8393 80.3368C43.9047 80.2846 43.9797 80.2458 44.0601 80.2226C44.1405 80.1995 44.2247 80.1924 44.3078 80.2017C44.3909 80.211 44.4714 80.2367 44.5447 80.2771C45.1344 80.6031 45.7455 80.9052 46.3622 81.1828C46.5164 81.2517 46.637 81.3791 46.6973 81.5369C46.7576 81.6948 46.7527 81.8701 46.6837 82.0243C46.6148 82.1786 46.4874 82.2991 46.3296 82.3594C46.1717 82.4197 45.9964 82.4148 45.8422 82.3459ZM41.0107 79.509C40.4455 79.0845 39.8866 78.6298 39.3552 78.1575C39.229 78.0453 39.1525 77.8874 39.1426 77.7188C39.1327 77.5501 39.1902 77.3844 39.3025 77.2582C39.4147 77.1319 39.5726 77.0554 39.7412 77.0455C39.9099 77.0357 40.0756 77.0932 40.2018 77.2054C40.7042 77.6538 41.2356 78.0847 41.7719 78.4885C41.9072 78.5897 41.9967 78.7405 42.0208 78.9078C42.045 79.075 42.0018 79.2449 41.9006 79.3803C41.8647 79.4277 41.8225 79.47 41.775 79.5059C41.665 79.5888 41.5312 79.6339 41.3934 79.6344C41.2557 79.635 41.1214 79.591 41.0107 79.509ZM36.9241 75.678C36.5844 75.2818 36.2521 74.8698 35.9375 74.454C35.8232 74.3033 35.7114 74.1526 35.6009 73.9999C35.5507 73.9326 35.5146 73.8559 35.4946 73.7743C35.4746 73.6927 35.4712 73.608 35.4845 73.525C35.4979 73.4421 35.5277 73.3627 35.5723 73.2916C35.6169 73.2204 35.6753 73.1589 35.7441 73.1107C35.8118 73.0615 35.8885 73.0263 35.9699 73.0068C36.0513 72.9874 36.1357 72.9842 36.2183 72.9975C36.3009 73.0107 36.38 73.0401 36.4513 73.084C36.5225 73.1279 36.5844 73.1854 36.6333 73.2532C36.7382 73.3977 36.8444 73.5421 36.953 73.6847C37.252 74.0803 37.5679 74.4716 37.8913 74.8484C37.9458 74.9119 37.9873 74.9855 38.0133 75.065C38.0394 75.1445 38.0495 75.2284 38.043 75.3118C38.0366 75.3952 38.0138 75.4766 37.9759 75.5511C37.938 75.6257 37.8858 75.6921 37.8222 75.7465L37.7921 75.7716C37.6626 75.8694 37.5008 75.9141 37.3396 75.8967C37.1783 75.8793 37.0297 75.8011 36.9241 75.678Z" fill="#91B3FA"/>
<path d="M80.2491 67.2046C80.354 67.1257 80.4316 67.0159 80.4708 66.8906C80.5763 66.5621 80.6768 66.2249 80.7691 65.8889C80.814 65.726 80.7924 65.5519 80.7089 65.405C80.6255 65.2581 80.4871 65.1503 80.3242 65.1054C80.1613 65.0605 79.9872 65.0822 79.8403 65.1656C79.6934 65.2491 79.5856 65.3875 79.5407 65.5504C79.4528 65.87 79.3573 66.1897 79.2575 66.5018C79.2161 66.6308 79.217 66.7696 79.2599 66.8981C79.3028 67.0265 79.3855 67.1379 79.4961 67.2162C79.6067 67.2944 79.7393 67.3353 79.8747 67.333C80.0101 67.3307 80.1413 67.2853 80.2491 67.2034V67.2046Z" fill="#91B3FA"/>
</g>
<path d="M75.2605 57.4883C75.2628 57.4267 75.246 57.3658 75.2122 57.3142C75.1785 57.2625 75.1295 57.2226 75.0721 57.2L71.6889 55.895C71.3592 54.2108 70.7572 52.5917 69.9065 51.1012L71.6098 47.9045C71.6388 47.8499 71.6501 47.7876 71.6421 47.7263C71.6341 47.6649 71.6072 47.6076 71.5652 47.5623L68.6046 44.3788C68.5625 44.3334 68.5072 44.3022 68.4465 44.2897C68.3858 44.2773 68.3228 44.284 68.2661 44.309L64.9545 45.7761C63.53 44.8185 61.9587 44.0998 60.3027 43.6484L59.2463 40.1816C59.2284 40.1223 59.1924 40.07 59.1433 40.0322C59.0942 39.9943 59.0344 39.9728 58.9725 39.9706L54.6284 39.8174C54.5667 39.815 54.5057 39.8318 54.454 39.8656C54.4022 39.8993 54.3622 39.9483 54.3395 40.0058L53.0344 43.3865C51.3503 43.7165 49.7312 44.3187 48.2407 45.1694L45.0446 43.4662C44.9899 43.437 44.9275 43.4256 44.866 43.4336C44.8046 43.4416 44.7471 43.4686 44.7017 43.5108L41.5182 46.4714C41.4728 46.5135 41.4417 46.5688 41.4292 46.6295C41.4167 46.6901 41.4235 46.7532 41.4485 46.8099L42.9156 50.1215C41.9587 51.5462 41.2407 53.1174 40.7897 54.7733L37.323 55.8322C37.2638 55.8503 37.2117 55.8864 37.1739 55.9355C37.1361 55.9846 37.1144 56.0441 37.1119 56.106L36.9543 60.4501C36.952 60.5118 36.9689 60.5727 37.0026 60.6245C37.0364 60.6762 37.0853 60.7162 37.1427 60.739L40.524 62.044C40.8538 63.7283 41.456 65.3475 42.307 66.8378L40.6032 70.0339C40.5742 70.0886 40.5629 70.151 40.5709 70.2124C40.5788 70.2739 40.6057 70.3313 40.6478 70.3768L43.6083 73.5603C43.6505 73.6056 43.7058 73.6366 43.7665 73.649C43.8272 73.6613 43.8902 73.6545 43.9468 73.6294L47.2603 72.161C48.6852 73.1175 50.2564 73.8355 51.9122 74.2869L52.9685 77.7505C52.9866 77.8097 53.0227 77.8618 53.0718 77.8995C53.1209 77.9372 53.1805 77.9586 53.2423 77.9609L57.5864 78.1192C57.6482 78.1215 57.7091 78.1047 57.7609 78.0709C57.8126 78.0372 57.8526 77.9882 57.8753 77.9308L59.1804 74.5475C60.8646 74.2178 62.4838 73.6156 63.9741 72.7646L67.1702 74.4684C67.2249 74.4975 67.2874 74.5088 67.3489 74.5007C67.4104 74.4926 67.4678 74.4655 67.5131 74.4232L70.6966 71.4633C70.742 71.421 70.7731 71.3656 70.7855 71.3048C70.798 71.2441 70.7913 71.1809 70.7663 71.1241L69.2992 67.8132C70.2562 66.3885 70.9743 64.8173 71.4251 63.1613L74.8919 62.105C74.9512 62.087 75.0034 62.0509 75.0412 62.0018C75.079 61.9527 75.1006 61.8931 75.1029 61.8311L75.2605 57.4883Z" fill="#91B3FA"/>
<path d="M58.2095 62.7984C57.2181 63.3415 56.0548 63.4791 54.9642 63.1821C53.8736 62.8852 52.9405 62.1769 52.3614 61.2062C51.7822 60.2355 51.602 59.078 51.8587 57.9772C52.1154 56.8764 52.7889 55.918 53.7377 55.3035C54.6865 54.6891 55.8365 54.4665 56.946 54.6826C58.0556 54.8987 59.038 55.5365 59.6869 56.4621C60.3358 57.3876 60.6005 58.5288 60.4253 59.6455C60.2501 60.7621 59.6488 61.7674 58.7477 62.4498C58.5771 62.579 58.3972 62.6955 58.2095 62.7984ZM52.8913 58.0304C52.6745 58.7745 52.7224 59.5707 53.0268 60.2834C53.3312 60.9962 53.8734 61.5813 54.5609 61.9391C55.2483 62.2969 56.0386 62.4053 56.7971 62.2457C57.5555 62.0862 58.2351 61.6686 58.7202 61.0641C59.2052 60.4597 59.4657 59.7057 59.4572 58.9307C59.4487 58.1557 59.1717 57.4077 58.6735 56.814C58.1752 56.2204 57.4866 55.8178 56.7248 55.675C55.9631 55.5322 55.1754 55.6579 54.4959 56.0307C54.3505 56.1104 54.2111 56.2007 54.0789 56.3008C53.5067 56.734 53.0901 57.3408 52.8913 58.0304Z" fill="#BDD0FB"/>
<path d="M62.4895 67.535C62.783 67.3125 63.0651 67.0755 63.3348 66.8247C63.4185 66.7456 63.5023 66.6647 63.586 66.5823C63.994 66.178 64.3691 65.7418 64.7077 65.2778L64.7215 65.259C64.7347 65.2408 64.7472 65.2226 64.7604 65.205L64.8345 65.0995C64.8552 65.0721 64.8701 65.0409 64.8785 65.0076C64.8868 64.9744 64.8883 64.9398 64.883 64.906C64.8776 64.8721 64.8655 64.8397 64.8473 64.8106C64.8291 64.7815 64.8053 64.7564 64.7772 64.7368C64.7491 64.7172 64.7174 64.7034 64.6838 64.6963C64.6503 64.6892 64.6157 64.689 64.582 64.6955C64.5484 64.7021 64.5165 64.7154 64.4881 64.7347C64.4597 64.7539 64.4355 64.7787 64.4169 64.8074C63.2182 66.5245 61.5221 67.8331 59.5571 68.5569C57.5921 69.2807 55.4524 69.385 53.4263 68.8557C51.653 68.3919 50.0369 67.4602 48.7469 66.1581C47.4568 64.856 46.5403 63.2313 46.093 61.4537C45.6457 59.6762 45.6841 57.8111 46.2042 56.0535C46.7243 54.2959 47.707 52.7103 49.0496 51.4624C53.1839 47.6182 59.6709 47.855 63.5138 51.9874C64.7736 53.3428 65.6432 55.0138 66.0303 56.8233C66.0457 56.8881 66.0858 56.9443 66.1421 56.9799C66.1984 57.0156 66.2664 57.0277 66.3315 57.0139C66.3967 57 66.4538 56.9612 66.4907 56.9057C66.5276 56.8503 66.5413 56.7826 66.529 56.7171C66.2013 55.178 65.539 53.7299 64.589 52.4754C64.3696 52.1865 64.1355 51.9079 63.8868 51.6395C59.8524 47.301 53.0395 47.0549 48.7023 51.0881C46.7559 52.8987 45.5496 55.3664 45.3164 58.0144C45.0831 60.6625 45.8395 63.3031 47.4393 65.4261C47.662 65.72 47.8992 66.0025 48.1502 66.2726C49.9608 68.2196 52.4288 69.4263 55.0773 69.6594C57.7257 69.8926 60.3666 69.1357 62.4895 67.535Z" fill="#BDD0FB"/>
<g opacity="0.3">
<path d="M105.342 47.0692C105.41 47.0178 105.459 46.9459 105.482 46.8641C105.506 46.7824 105.502 46.6953 105.472 46.6158C105.353 46.3018 105.221 45.9878 105.087 45.6857C105.067 45.6368 105.037 45.5924 105 45.5551C104.962 45.5179 104.918 45.4886 104.868 45.469C104.819 45.4494 104.767 45.4399 104.714 45.441C104.661 45.4421 104.609 45.4539 104.561 45.4756C104.513 45.4972 104.469 45.5284 104.433 45.5672C104.398 45.606 104.37 45.6516 104.352 45.7013C104.334 45.751 104.326 45.8039 104.329 45.8566C104.332 45.9094 104.346 45.9611 104.369 46.0085C104.5 46.2986 104.623 46.597 104.736 46.8953C104.773 46.9928 104.848 47.0717 104.943 47.1146C105.038 47.1574 105.146 47.1608 105.244 47.1239C105.279 47.1102 105.312 47.0918 105.342 47.0692Z" fill="#91B3FA"/>
<path d="M103.98 44.3725C103.89 44.4267 103.783 44.4432 103.682 44.4185C103.581 44.3938 103.493 44.3298 103.439 44.2406C103.153 43.7702 102.842 43.3145 102.51 42.8753C102.441 42.7828 102.37 42.6911 102.297 42.6002C102.265 42.5598 102.241 42.5135 102.227 42.4638C102.213 42.4142 102.208 42.3622 102.214 42.3109C102.22 42.2595 102.236 42.2099 102.261 42.1647C102.286 42.1195 102.32 42.0797 102.36 42.0476C102.443 41.9859 102.546 41.9581 102.649 41.9698C102.751 41.9815 102.846 42.0317 102.913 42.1104C102.988 42.2058 103.063 42.3019 103.136 42.3986C103.484 42.8588 103.809 43.3365 104.109 43.8299C104.16 43.913 104.178 44.0119 104.16 44.1075C104.142 44.2032 104.089 44.2886 104.011 44.3474C104.002 44.3575 103.991 44.365 103.98 44.3725ZM100.965 41.1112C100.49 40.6424 99.9867 40.2032 99.4579 39.7961C99.3752 39.7323 99.3213 39.6384 99.308 39.535C99.2946 39.4315 99.3229 39.3269 99.3866 39.2443C99.4503 39.1617 99.5442 39.1078 99.6477 39.0944C99.7512 39.0811 99.8557 39.1093 99.9383 39.173C100.492 39.6007 101.018 40.0622 101.515 40.5547C101.551 40.5912 101.58 40.6345 101.6 40.6823C101.62 40.73 101.63 40.7812 101.63 40.8329C101.63 40.8846 101.62 40.9358 101.6 40.9836C101.58 41.0313 101.551 41.0747 101.515 41.1112C101.502 41.1248 101.487 41.1373 101.472 41.1482C101.397 41.2033 101.304 41.2298 101.211 41.223C101.118 41.2162 101.031 41.1766 100.965 41.1112H100.965ZM97.8049 38.6769C97.2302 38.3388 96.6351 38.0366 96.0231 37.7719C95.9277 37.73 95.8528 37.6521 95.8147 37.555C95.7767 37.458 95.7786 37.3499 95.8202 37.2543C95.8617 37.1587 95.9395 37.0835 96.0364 37.0451C96.1333 37.0068 96.2415 37.0084 96.3372 37.0497C96.9783 37.3264 97.6016 37.6425 98.2037 37.9961C98.25 38.0214 98.2907 38.0558 98.3235 38.0971C98.3563 38.1385 98.3804 38.186 98.3944 38.2369C98.4085 38.2878 98.4122 38.341 98.4052 38.3933C98.3983 38.4456 98.3809 38.496 98.3542 38.5415C98.3274 38.587 98.2917 38.6266 98.2493 38.658C98.2069 38.6894 98.1587 38.712 98.1074 38.7244C98.0561 38.7368 98.0028 38.7388 97.9507 38.7302C97.8987 38.7216 97.8488 38.7026 97.8043 38.6744L97.8049 38.6769ZM94.1422 37.0936C93.5029 36.9073 92.8527 36.7605 92.1953 36.654C92.0955 36.6339 92.0074 36.5759 91.9494 36.4922C91.8914 36.4085 91.8681 36.3056 91.8844 36.2052C91.9006 36.1047 91.9552 36.0144 92.0366 35.9532C92.1179 35.892 92.2199 35.8648 92.3209 35.8771C93.0109 35.9897 93.6934 36.1442 94.3645 36.34C94.4175 36.3514 94.4675 36.3735 94.5115 36.4051C94.5555 36.4367 94.5926 36.477 94.6203 36.5235C94.648 36.5701 94.6658 36.6218 94.6726 36.6756C94.6794 36.7293 94.675 36.7839 94.6598 36.8359C94.6446 36.8878 94.6187 36.9361 94.584 36.9777C94.5492 37.0192 94.5063 37.0531 94.4578 37.0773C94.4094 37.1015 94.3564 37.1155 94.3023 37.1183C94.2482 37.1211 94.1942 37.1127 94.1435 37.0936H94.1422ZM90.2051 36.4524C89.5391 36.4267 88.8721 36.4416 88.2079 36.497C88.1063 36.5011 88.007 36.4656 87.9309 36.3981C87.8548 36.3307 87.8078 36.2364 87.7997 36.135C87.7916 36.0336 87.823 35.933 87.8874 35.8543C87.9518 35.7755 88.0441 35.7248 88.1451 35.7126C88.8413 35.6548 89.5403 35.6391 90.2383 35.6655C90.3421 35.6704 90.4397 35.7161 90.5099 35.7927C90.5801 35.8692 90.6173 35.9704 90.6132 36.0742C90.6091 36.178 90.5642 36.276 90.4883 36.3468C90.4123 36.4177 90.3114 36.4556 90.2076 36.4524H90.2051ZM86.2321 36.7859C85.5804 36.9227 84.9377 37.0997 84.3078 37.316C84.259 37.3327 84.2073 37.3397 84.1557 37.3365C84.1041 37.3333 84.0537 37.32 84.0073 37.2973C83.9609 37.2747 83.9194 37.243 83.8852 37.2043C83.851 37.1656 83.8247 37.1205 83.8079 37.0717C83.7911 37.0228 83.7841 36.9711 83.7873 36.9195C83.7905 36.868 83.8039 36.8175 83.8265 36.7711C83.8492 36.7247 83.8808 36.6832 83.9196 36.649C83.9583 36.6148 84.0034 36.5885 84.0522 36.5717C84.7126 36.3447 85.3866 36.1591 86.0701 36.0159C86.1575 35.9978 86.2486 36.0099 86.3283 36.0503C86.4079 36.0907 86.4715 36.157 86.5085 36.2382C86.5455 36.3195 86.5538 36.411 86.532 36.4976C86.5102 36.5842 86.4596 36.6609 86.3885 36.7149C86.3425 36.7499 86.2893 36.7742 86.2328 36.7859H86.2321ZM82.4639 38.0809C81.8653 38.3738 81.2853 38.7036 80.7274 39.0682C80.64 39.1224 80.5348 39.1403 80.4343 39.118C80.3339 39.0957 80.2461 39.035 80.1899 38.9488C80.1337 38.8626 80.1134 38.7578 80.1335 38.6569C80.1535 38.556 80.2123 38.4669 80.2972 38.4087C80.8825 38.0267 81.4908 37.6811 82.1185 37.3737C82.2063 37.3316 82.3065 37.3234 82.3999 37.3508C82.4934 37.3782 82.5733 37.4393 82.6244 37.5222C82.6754 37.6051 82.6939 37.7039 82.6764 37.7997C82.6588 37.8955 82.6064 37.9813 82.5292 38.0407C82.5079 38.0565 82.485 38.0699 82.4608 38.0809H82.4639ZM77.1257 41.6607C77.0877 41.6256 77.0571 41.5834 77.0355 41.5365C77.0139 41.4895 77.0018 41.4388 76.9998 41.3872C76.9978 41.3356 77.006 41.2841 77.024 41.2356C77.0419 41.1872 77.0692 41.1428 77.1043 41.1049C77.517 40.6596 77.9531 40.2366 78.4106 39.8375C78.4797 39.7747 78.5494 39.7169 78.6197 39.6573C78.6996 39.59 78.8029 39.5572 78.907 39.5661C79.0111 39.5749 79.1073 39.6248 79.1746 39.7047C79.2419 39.7845 79.2747 39.8879 79.2658 39.9919C79.2569 40.096 79.2071 40.1923 79.1272 40.2595C79.0606 40.3148 78.9953 40.3713 78.9294 40.4297C78.4925 40.8105 78.0761 41.2143 77.6821 41.6393C77.611 41.7158 77.5126 41.761 77.4083 41.765C77.304 41.769 77.2024 41.7315 77.1257 41.6607Z" fill="#91B3FA"/>
</g>
<g opacity="0.3">
<path d="M99.6496 66.3384C99.0961 66.7458 98.5188 67.1197 97.9207 67.4582C97.8756 67.4848 97.8256 67.5022 97.7738 67.5093C97.7219 67.5163 97.6691 67.513 97.6186 67.4994C97.568 67.4859 97.5206 67.4623 97.4793 67.4303C97.4379 67.3982 97.4033 67.3582 97.3776 67.3126C97.3519 67.267 97.3355 67.2167 97.3294 67.1647C97.3234 67.1127 97.3278 67.06 97.3423 67.0097C97.3568 66.9594 97.3813 66.9125 97.4142 66.8718C97.447 66.831 97.4877 66.7972 97.5338 66.7724C98.1045 66.4501 98.6553 66.0935 99.183 65.7048C99.2666 65.6491 99.3684 65.6276 99.4673 65.6446C99.5663 65.6616 99.655 65.7159 99.7153 65.7962C99.7755 65.8766 99.8028 65.9769 99.7914 66.0767C99.78 66.1765 99.7309 66.2681 99.6541 66.3328L99.6496 66.3384ZM100.674 65.0014C100.639 64.9638 100.611 64.9195 100.593 64.8713C100.574 64.823 100.566 64.7716 100.567 64.7199C100.569 64.6683 100.581 64.6175 100.602 64.5705C100.623 64.5234 100.653 64.4809 100.691 64.4456C101.168 63.9957 101.619 63.5178 102.039 63.0143C102.108 62.9419 102.202 62.8985 102.302 62.8927C102.401 62.8869 102.5 62.9192 102.576 62.983C102.653 63.0469 102.703 63.1375 102.715 63.2366C102.728 63.3357 102.702 63.4358 102.643 63.5167C102.203 64.0443 101.731 64.5451 101.23 65.0164C101.22 65.0265 101.209 65.0353 101.198 65.0441C101.121 65.1028 101.024 65.131 100.928 65.1231C100.831 65.1152 100.741 65.0718 100.674 65.0014ZM96.0655 68.3607C95.4305 68.6225 94.7804 68.8459 94.1186 69.0296C94.0192 69.0535 93.9145 69.038 93.8264 68.9861C93.7383 68.9343 93.6739 68.8502 93.6466 68.7517C93.6194 68.6532 93.6315 68.548 93.6804 68.4583C93.7294 68.3685 93.8113 68.3014 93.9088 68.2709C94.5407 68.0957 95.1615 67.8826 95.7678 67.6328C95.8561 67.5968 95.9546 67.5942 96.0447 67.6253C96.1349 67.6564 96.2107 67.7192 96.2581 67.8021C96.3054 67.8849 96.3211 67.9821 96.3022 68.0756C96.2833 68.1691 96.2311 68.2526 96.1553 68.3105C96.1284 68.3309 96.0988 68.3476 96.0674 68.3601L96.0655 68.3607ZM103.323 61.9742C103.235 61.9176 103.174 61.8286 103.152 61.7266C103.13 61.6246 103.149 61.5181 103.206 61.4304C103.561 60.8792 103.883 60.3068 104.168 59.7165C104.216 59.6263 104.297 59.5582 104.394 59.5264C104.491 59.4947 104.596 59.5017 104.688 59.5462C104.78 59.5906 104.851 59.6689 104.886 59.7647C104.921 59.8604 104.918 59.966 104.877 60.0594C104.577 60.6785 104.24 61.2788 103.867 61.8568C103.842 61.8956 103.811 61.9296 103.774 61.9573C103.71 62.0062 103.632 62.034 103.551 62.037C103.47 62.0401 103.391 62.0181 103.323 61.9742ZM92.1038 69.4554C91.424 69.5568 90.7386 69.617 90.0514 69.6356C89.9988 69.6386 89.9462 69.631 89.8966 69.6132C89.847 69.5955 89.8014 69.568 89.7627 69.5323C89.7239 69.4966 89.6927 69.4536 89.6708 69.4056C89.649 69.3577 89.637 69.3058 89.6356 69.2531C89.6342 69.2005 89.6433 69.1481 89.6625 69.099C89.6817 69.0499 89.7105 69.0052 89.7473 68.9675C89.7841 68.9298 89.8281 68.8999 89.8767 68.8794C89.9252 68.859 89.9774 68.8486 90.0301 68.8487C90.6853 68.8313 91.3388 68.7738 91.987 68.6766C92.0896 68.6627 92.1934 68.6897 92.2762 68.7518C92.359 68.8139 92.414 68.9061 92.4293 69.0084C92.4446 69.1107 92.4191 69.215 92.3582 69.2986C92.2973 69.3823 92.2059 69.4386 92.1038 69.4554ZM87.9921 69.5684C87.3078 69.5042 86.6279 69.3993 85.956 69.2544C85.8541 69.2322 85.7651 69.1705 85.7087 69.0828C85.6523 68.995 85.6331 68.8885 85.6552 68.7865C85.6774 68.6846 85.7391 68.5956 85.8268 68.5392C85.9146 68.4828 86.0212 68.4635 86.1231 68.4857C86.7643 68.6244 87.4131 68.7248 88.0662 68.7865C88.1681 68.7989 88.2612 68.8505 88.3255 68.9305C88.3899 69.0104 88.4205 69.1123 88.4109 69.2145C88.4012 69.3167 88.352 69.4111 88.2738 69.4775C88.1956 69.544 88.0945 69.5773 87.9921 69.5703V69.5684ZM83.9727 68.6936C83.3233 68.4671 82.6882 68.2013 82.071 67.8978C81.9813 67.8496 81.9138 67.7684 81.8826 67.6714C81.8515 67.5744 81.8591 67.4691 81.904 67.3776C81.9489 67.2861 82.0275 67.2156 82.1233 67.1809C82.2191 67.1461 82.3246 67.1499 82.4177 67.1913C83.0063 67.4808 83.612 67.7341 84.2315 67.95C84.2805 67.9669 84.3256 67.9933 84.3644 68.0278C84.4031 68.0623 84.4346 68.1041 84.4571 68.1508C84.4795 68.1975 84.4926 68.2482 84.4953 68.3C84.4981 68.3517 84.4906 68.4035 84.4733 68.4524C84.4483 68.5257 84.4019 68.5898 84.3401 68.6364C84.2882 68.6755 84.2274 68.7011 84.1633 68.7111C84.0991 68.7211 84.0334 68.715 83.9721 68.6936H83.9727Z" fill="#91B3FA"/>
<path d="M105.532 58.3217C105.595 58.2738 105.641 58.2082 105.666 58.1333C105.775 57.8142 105.874 57.4908 105.962 57.1718C105.978 57.1212 105.984 57.068 105.979 57.0153C105.974 56.9625 105.958 56.9113 105.933 56.8647C105.908 56.8181 105.873 56.7771 105.832 56.7442C105.79 56.7112 105.743 56.6869 105.691 56.6729C105.64 56.6588 105.587 56.6551 105.534 56.6622C105.482 56.6692 105.431 56.6868 105.386 56.7139C105.34 56.7409 105.301 56.7769 105.269 56.8196C105.238 56.8624 105.216 56.911 105.203 56.9626C105.119 57.2672 105.024 57.5756 104.921 57.8802C104.894 57.9599 104.893 58.0464 104.919 58.1267C104.945 58.207 104.995 58.2769 105.064 58.3262C105.132 58.3754 105.215 58.4014 105.299 58.4003C105.383 58.3991 105.465 58.3709 105.532 58.3198V58.3217Z" fill="#91B3FA"/>
</g>
<path d="M102.307 51.5615C102.309 51.5202 102.297 51.4794 102.275 51.4448C102.252 51.4101 102.22 51.3833 102.181 51.3681L99.9203 50.4939C99.6999 49.3667 99.2968 48.2831 98.7271 47.2859L99.867 45.1468C99.8865 45.1103 99.8942 45.0686 99.8889 45.0275C99.8836 44.9864 99.8656 44.948 99.8374 44.9176L97.856 42.7873C97.8279 42.7569 97.7909 42.7361 97.7504 42.7278C97.7099 42.7195 97.6677 42.724 97.6299 42.7408L95.4136 43.7224C94.4603 43.0822 93.409 42.6017 92.301 42.2999L91.5945 39.98C91.5823 39.9404 91.5581 39.9056 91.5252 39.8804C91.4924 39.8552 91.4525 39.8409 91.4111 39.8393L88.504 39.7338C88.4627 39.7322 88.4219 39.7434 88.3873 39.7659C88.3526 39.7884 88.3258 39.821 88.3105 39.8594L87.4376 42.1203C86.3105 42.341 85.2269 42.7441 84.2296 43.3136L82.0943 42.1737C82.0575 42.1544 82.0157 42.1469 81.9745 42.1523C81.9334 42.1577 81.8949 42.1757 81.8644 42.2039L79.7341 44.1847C79.7039 44.213 79.6832 44.25 79.6748 44.2906C79.6665 44.3312 79.671 44.3734 79.6876 44.4114L80.6699 46.6271C80.0276 47.5802 79.545 48.6318 79.2411 49.7402L76.9218 50.4468C76.8821 50.4589 76.8472 50.483 76.8219 50.5159C76.7965 50.5488 76.7821 50.5887 76.7805 50.6302L76.675 53.5373C76.6733 53.5785 76.6845 53.6192 76.707 53.6538C76.7295 53.6883 76.7622 53.715 76.8006 53.7301L79.0615 54.6037C79.2821 55.7307 79.6851 56.814 80.2548 57.8111L79.1149 59.9502C79.0953 59.9867 79.0877 60.0284 79.093 60.0695C79.0983 60.1106 79.1162 60.149 79.1444 60.1794L81.1252 62.3097C81.1535 62.34 81.1905 62.3608 81.2311 62.3691C81.2718 62.3774 81.314 62.3729 81.3519 62.3562L83.5676 61.3745C84.521 62.0149 85.5726 62.4954 86.6808 62.797L87.3873 65.117C87.3995 65.1566 87.4237 65.1915 87.4565 65.2168C87.4894 65.2421 87.5293 65.2566 87.5707 65.2583L90.4779 65.3638C90.5191 65.3653 90.5598 65.3541 90.5945 65.3316C90.6291 65.3091 90.6559 65.2765 90.6713 65.2382L91.5443 62.9773C92.6712 62.7562 93.7547 62.3531 94.7523 61.784L96.8876 62.9239C96.9242 62.9434 96.9661 62.951 97.0073 62.9456C97.0485 62.9402 97.087 62.9221 97.1174 62.8938L99.2471 60.9129C99.2776 60.8848 99.2985 60.8477 99.3068 60.8071C99.3151 60.7664 99.3105 60.7241 99.2936 60.6862L98.3182 58.4699C98.9585 57.5166 99.4392 56.4653 99.7413 55.3574L102.061 54.6502C102.1 54.6382 102.135 54.614 102.161 54.5812C102.186 54.5483 102.2 54.5083 102.202 54.4668L102.307 51.5615Z" fill="#91B3FA"/>
<path d="M90.923 55.159C90.2487 55.5283 89.4576 55.6218 88.7158 55.4199C87.9741 55.218 87.3394 54.7364 86.9454 54.0764C86.5513 53.4163 86.4285 52.6292 86.6027 51.8804C86.7769 51.1317 87.2346 50.4796 87.8796 50.0613C88.5246 49.643 89.3066 49.491 90.0613 49.6373C90.816 49.7836 91.4846 50.2168 91.9266 50.8458C92.3685 51.4748 92.5494 52.2506 92.4313 53.0102C92.3131 53.7699 91.9051 54.4541 91.2929 54.9191C91.1757 55.0082 91.0521 55.0884 90.923 55.159ZM87.5712 53.6027C87.7094 53.8549 87.896 54.0774 88.1203 54.2574C88.3446 54.4375 88.6021 54.5715 88.8782 54.652C89.1543 54.7325 89.4435 54.7578 89.7294 54.7265C90.0153 54.6952 90.2922 54.6078 90.5443 54.4694C91.0534 54.1901 91.4307 53.72 91.5932 53.1625C91.7556 52.605 91.69 52.0057 91.4107 51.4966C91.1313 50.9875 90.6612 50.6102 90.1037 50.4478C89.5462 50.2853 88.947 50.3509 88.4379 50.6303C88.3441 50.6821 88.254 50.7404 88.1684 50.8049C87.7505 51.1225 87.4604 51.5796 87.3508 52.093C87.2412 52.6064 87.3194 53.1421 87.5712 53.6027Z" fill="#BDD0FB"/>
<path d="M93.9004 58.4555C94.0988 58.3052 94.2912 58.1436 94.4775 57.9707C94.8471 57.6276 95.1809 57.2478 95.4736 56.8371L95.5125 56.7818C95.5602 56.7137 95.5851 56.6322 95.5836 56.5491C95.5822 56.4659 95.5544 56.3854 95.5044 56.319C95.4791 56.2862 95.449 56.2574 95.4152 56.2336C95.3296 56.1741 95.2239 56.151 95.1213 56.1693C95.0187 56.1875 94.9274 56.2456 94.8675 56.3309C94.5978 56.7189 94.2873 57.0768 93.9412 57.3986L93.884 57.4513C93.0732 58.1925 92.0894 58.7185 91.0227 58.9812C90.4426 59.123 89.8461 59.1864 89.2492 59.1696H89.2341H89.1889C88.1 59.1301 87.0376 58.8226 86.0959 58.2744C85.1542 57.7262 84.3623 56.9543 83.7902 56.0269C83.2181 55.0995 82.8836 54.0454 82.8162 52.9578C82.7489 51.8703 82.9508 50.7829 83.404 49.7921C83.8573 48.8012 84.5479 47.9374 85.4148 47.2772C86.2816 46.617 87.2979 46.1808 88.3736 46.0071C89.4493 45.8335 90.5512 45.9279 91.5818 46.2819C92.6123 46.6359 93.5396 47.2385 94.2816 48.0365C94.4348 48.201 94.5793 48.3737 94.7143 48.5515C95.3002 49.325 95.7087 50.2181 95.9107 51.1672C95.9202 51.219 95.9399 51.2684 95.9688 51.3125C95.9977 51.3565 96.0352 51.3943 96.0789 51.4236C96.1227 51.4529 96.1719 51.4731 96.2236 51.4831C96.2753 51.4931 96.3285 51.4925 96.38 51.4816C96.4316 51.4706 96.4804 51.4494 96.5235 51.4193C96.5667 51.3891 96.6034 51.3506 96.6314 51.306C96.6595 51.2614 96.6783 51.2116 96.6867 51.1596C96.6952 51.1076 96.6931 51.0545 96.6807 51.0033C96.3462 49.4346 95.5119 48.0168 94.303 46.9627C93.0941 45.9087 91.5758 45.2753 89.9762 45.1577C88.3766 45.04 86.782 45.4446 85.4319 46.3105C84.0818 47.1764 83.0491 48.4569 82.4888 49.9598C81.9285 51.4627 81.871 53.1067 82.3248 54.6451C82.7785 56.1835 83.7192 57.5332 85.0054 58.4914C86.2916 59.4496 87.854 59.9647 89.4579 59.9592C91.0618 59.9538 92.6207 59.4281 93.9004 58.4612V58.4555Z" fill="#BDD0FB"/>
<path d="M102.4 163.025L98.5547 189.563H143.17L137.359 163.025H102.4Z" fill="url(#paint0_linear_1120_3710)"/>
<path d="M27.4546 78.0519V157.04C27.4544 160.164 28.6745 163.165 30.8548 165.403C33.0352 167.641 36.0033 168.938 39.1266 169.019C67.9771 169.763 168.882 171.567 196.346 171.162C198.617 171.128 200.788 170.219 202.406 168.623C204.023 167.027 204.962 164.869 205.027 162.598C205.557 144.248 206.417 100.122 203.234 79.6345C202.91 77.5437 201.866 75.6318 200.282 74.2295C198.697 72.8271 196.673 72.0226 194.558 71.9549C170.385 71.1818 63.4201 68.7262 35.9688 69.343C33.693 69.3938 31.5275 70.3338 29.9362 71.9616C28.3448 73.5893 27.454 75.7755 27.4546 78.0519Z" fill="url(#paint1_linear_1120_3710)"/>
<path d="M32.4102 77.6676V152.712C32.4101 154.536 33.1278 156.286 34.4081 157.585C35.6883 158.884 37.4283 159.627 39.2519 159.653L192.398 161.546C193.292 161.559 194.179 161.395 195.009 161.063C195.839 160.731 196.594 160.238 197.232 159.612C197.87 158.986 198.377 158.24 198.725 157.416C199.072 156.593 199.252 155.709 199.256 154.815L199.512 80.4409C199.517 79.148 199.015 77.9047 198.113 76.9777C197.212 76.0508 195.983 75.514 194.691 75.4826L37.8948 72.3148C37.1809 72.2974 36.4707 72.423 35.806 72.6841C35.1414 72.9453 34.5357 73.3368 34.0246 73.8356C33.5136 74.3344 33.1075 74.9303 32.8302 75.5884C32.5529 76.2465 32.4101 76.9534 32.4102 77.6676Z" fill="#91B3FA"/>
<path d="M200.405 164.621L32.4064 161.759C32.3785 161.758 32.351 161.752 32.3254 161.741C32.2998 161.73 32.2767 161.714 32.2572 161.694C32.2378 161.674 32.2225 161.651 32.2122 161.625C32.202 161.599 32.1969 161.571 32.1973 161.543C32.1989 161.487 32.2224 161.434 32.2628 161.395C32.3031 161.356 32.3572 161.334 32.4133 161.334L200.412 164.197C200.44 164.197 200.467 164.203 200.493 164.213C200.519 164.224 200.542 164.24 200.562 164.26C200.581 164.28 200.596 164.303 200.607 164.329C200.617 164.355 200.623 164.383 200.622 164.411C200.622 164.439 200.616 164.466 200.605 164.492C200.595 164.517 200.579 164.541 200.559 164.56C200.539 164.58 200.515 164.595 200.49 164.606C200.464 164.616 200.436 164.621 200.408 164.621H200.405Z" fill="#91B3FA"/>
<path d="M118.066 168.117C117.678 168.118 117.299 168.003 116.976 167.787C116.654 167.572 116.402 167.266 116.254 166.908C116.105 166.549 116.067 166.155 116.142 165.775C116.218 165.394 116.404 165.045 116.679 164.771C116.953 164.496 117.302 164.309 117.682 164.234C118.063 164.158 118.457 164.197 118.815 164.345C119.174 164.494 119.48 164.745 119.695 165.067C119.911 165.39 120.026 165.769 120.026 166.157C120.025 166.677 119.819 167.175 119.451 167.542C119.084 167.91 118.586 168.117 118.066 168.117ZM118.066 164.621C117.762 164.621 117.465 164.711 117.213 164.88C116.96 165.049 116.763 165.289 116.647 165.569C116.531 165.85 116.501 166.158 116.56 166.456C116.619 166.754 116.765 167.028 116.98 167.243C117.195 167.457 117.468 167.604 117.766 167.663C118.064 167.722 118.373 167.692 118.653 167.575C118.934 167.459 119.174 167.262 119.343 167.01C119.511 166.757 119.601 166.46 119.601 166.157C119.601 165.75 119.439 165.359 119.151 165.072C118.863 164.784 118.473 164.622 118.066 164.621Z" fill="#91B3FA"/>
<path d="M152.78 196.619H87.4849C85.7107 196.619 84.3786 195.357 84.7215 194L85.56 190.686C85.8112 189.69 86.9077 188.958 88.2103 188.918L151.159 186.953C152.52 186.911 153.725 187.633 154.021 188.669L155.531 193.944C155.921 195.318 154.583 196.619 152.78 196.619Z" fill="url(#paint2_linear_1120_3710)"/>
<path d="M122.633 189.815C122.605 189.815 122.578 189.81 122.552 189.799C122.526 189.789 122.503 189.773 122.483 189.754C122.463 189.734 122.447 189.711 122.436 189.685C122.425 189.659 122.42 189.632 122.419 189.604C122.419 189.576 122.425 189.548 122.435 189.523C122.445 189.497 122.461 189.473 122.481 189.453C122.5 189.434 122.523 189.418 122.549 189.407C122.575 189.396 122.602 189.39 122.63 189.39L125.331 189.351C125.387 189.351 125.44 189.373 125.48 189.412C125.52 189.451 125.544 189.504 125.546 189.56C125.547 189.588 125.542 189.615 125.531 189.641C125.521 189.667 125.506 189.691 125.486 189.711C125.467 189.731 125.444 189.747 125.418 189.758C125.392 189.769 125.365 189.775 125.337 189.775L122.636 189.815H122.633Z" fill="#91B3FA"/>
<path d="M87.1373 194.792C87.126 194.793 87.1146 194.793 87.1033 194.792C87.0478 194.783 86.998 194.752 86.9649 194.707C86.9319 194.661 86.9182 194.604 86.9269 194.549L87.3119 192.138C87.4111 191.512 87.7284 190.941 88.2077 190.526C88.687 190.112 89.2975 189.879 89.9314 189.871L118.542 189.452H118.546C118.602 189.452 118.656 189.475 118.696 189.515C118.736 189.554 118.758 189.608 118.758 189.665C118.758 189.721 118.736 189.775 118.696 189.815C118.656 189.855 118.602 189.877 118.546 189.877L89.9377 190.294C89.4036 190.3 88.889 190.496 88.4852 190.845C88.0813 191.195 87.8143 191.676 87.7314 192.204L87.3464 194.614C87.3385 194.663 87.3131 194.709 87.2747 194.741C87.2364 194.774 87.1876 194.792 87.1373 194.792Z" fill="#91B3FA"/>
<g opacity="0.53">
<path d="M121.46 82.9128H117.432V153.96H121.46V82.9128Z" fill="white"/>
<path d="M128.191 82.9128H124.163V153.96H128.191V82.9128Z" fill="white"/>
<path d="M134.921 82.9128H130.893V153.96H134.921V82.9128Z" fill="white"/>
<path d="M141.652 82.9128H137.624V153.96H141.652V82.9128Z" fill="white"/>
<path d="M148.382 82.9128H144.354V153.96H148.382V82.9128Z" fill="white"/>
<path d="M155.112 82.9128H151.084V153.96H155.112V82.9128Z" fill="white"/>
<path d="M161.843 82.9128H157.814V153.96H161.843V82.9128Z" fill="white"/>
</g>
<path d="M121.46 116.778H117.432V153.96H121.46V116.778Z" fill="url(#paint3_linear_1120_3710)"/>
<path d="M128.191 129.557H124.163V153.96H128.191V129.557Z" fill="url(#paint4_linear_1120_3710)"/>
<path d="M134.921 97.9751H130.893V153.96H134.921V97.9751Z" fill="url(#paint5_linear_1120_3710)"/>
<path d="M141.652 140.51H137.624V153.96H141.652V140.51Z" fill="url(#paint6_linear_1120_3710)"/>
<path d="M148.382 105.46H144.354V153.96H148.382V105.46Z" fill="url(#paint7_linear_1120_3710)"/>
<path d="M155.112 113.857H151.084V153.96H155.112V113.857Z" fill="url(#paint8_linear_1120_3710)"/>
<path d="M161.843 122.985H157.814V153.96H161.843V122.985Z" fill="url(#paint9_linear_1120_3710)"/>
<path opacity="0.57" d="M50.9962 79.6667C49.0608 79.6669 47.169 80.2409 45.5599 81.3162C43.9508 82.3915 42.6967 83.9198 41.9561 85.7079C41.2156 87.4959 41.0219 89.4634 41.3995 91.3615C41.7772 93.2597 42.7092 95.0032 44.0777 96.3716C45.4463 97.7401 47.1898 98.672 49.088 99.0495C50.9862 99.427 52.9536 99.2332 54.7416 98.4926C56.5297 97.7519 58.0579 96.4977 59.1331 94.8885C60.2083 93.2793 60.7822 91.3875 60.7822 89.4521C60.7822 88.167 60.529 86.8945 60.0372 85.7073C59.5454 84.52 58.8246 83.4413 57.9159 82.5326C57.0072 81.6239 55.9284 80.9032 54.7411 80.4114C53.5538 79.9197 52.2813 79.6667 50.9962 79.6667ZM50.9962 95.0272C49.8935 95.0272 48.8157 94.7002 47.8988 94.0876C46.982 93.475 46.2675 92.6043 45.8455 91.5856C45.4235 90.5669 45.3131 89.4459 45.5283 88.3645C45.7434 87.283 46.2743 86.2897 47.054 85.51C47.8337 84.7303 48.8271 84.1993 49.9085 83.9842C50.99 83.7691 52.1109 83.8795 53.1297 84.3015C54.1484 84.7234 55.0191 85.438 55.6317 86.3548C56.2442 87.2716 56.5712 88.3495 56.5712 89.4521C56.5713 90.1843 56.4272 90.9093 56.147 91.5857C55.8669 92.2621 55.4562 92.8767 54.9385 93.3945C54.4208 93.9122 53.8062 94.3228 53.1297 94.603C52.4533 94.8831 51.7283 95.0272 50.9962 95.0272Z" fill="white"/>
<path opacity="0.57" d="M74.8528 79.6667C72.9174 79.6667 71.0255 80.2406 69.4163 81.3159C67.8071 82.3911 66.5529 83.9194 65.8123 85.7074C65.0716 87.4955 64.8778 89.463 65.2554 91.3612C65.633 93.2593 66.5649 95.0029 67.9335 96.3714C69.302 97.7399 71.0456 98.6719 72.9437 99.0495C74.8419 99.427 76.8094 99.2333 78.5975 98.4926C80.3855 97.752 81.9138 96.4978 82.989 94.8886C84.0642 93.2794 84.6381 91.3875 84.6381 89.4521C84.6381 86.8569 83.6072 84.3679 81.7721 82.5328C79.9369 80.6977 77.448 79.6667 74.8528 79.6667ZM74.8528 95.0272C73.7501 95.0272 72.6722 94.7002 71.7554 94.0876C70.8386 93.475 70.1241 92.6043 69.7021 91.5856C69.2801 90.5669 69.1697 89.4459 69.3848 88.3645C69.6 87.283 70.1309 86.2897 70.9106 85.51C71.6903 84.7303 72.6837 84.1993 73.7651 83.9842C74.8466 83.7691 75.9675 83.8795 76.9862 84.3015C78.0049 84.7234 78.8756 85.438 79.4882 86.3548C80.1008 87.2716 80.4278 88.3495 80.4278 89.4521C80.4278 90.9307 79.8404 92.3487 78.7949 93.3943C77.7494 94.4398 76.3314 95.0272 74.8528 95.0272Z" fill="white"/>
<path opacity="0.57" d="M98.7068 79.6667C96.7714 79.6667 94.8795 80.2406 93.2703 81.3159C91.6611 82.3911 90.4069 83.9194 89.6663 85.7074C88.9256 87.4955 88.7318 89.463 89.1094 91.3612C89.487 93.2593 90.419 95.0029 91.7875 96.3714C93.156 97.7399 94.8996 98.6719 96.7977 99.0495C98.6959 99.427 100.663 99.2333 102.451 98.4926C104.24 97.752 105.768 96.4978 106.843 94.8886C107.918 93.2794 108.492 91.3875 108.492 89.4521C108.492 86.8569 107.461 84.3679 105.626 82.5328C103.791 80.6977 101.302 79.6667 98.7068 79.6667ZM98.7068 95.0272C97.6041 95.0272 96.5262 94.7002 95.6094 94.0876C94.6926 93.475 93.9781 92.6043 93.5561 91.5856C93.1341 90.5669 93.0237 89.4459 93.2388 88.3645C93.454 87.283 93.9849 86.2897 94.7646 85.51C95.5443 84.7303 96.5377 84.1993 97.6191 83.9842C98.7006 83.7691 99.8215 83.8795 100.84 84.3015C101.859 84.7234 102.73 85.438 103.342 86.3548C103.955 87.2716 104.282 88.3495 104.282 89.4521C104.282 90.9307 103.694 92.3487 102.649 93.3943C101.603 94.4398 100.185 95.0272 98.7068 95.0272Z" fill="white"/>
<path opacity="0.44" d="M106.221 154.353L43.4506 153.882C42.8555 153.877 42.2864 153.638 41.8673 153.216C41.4481 152.793 41.2129 152.222 41.2129 151.627V119.377C41.2129 118.779 41.4504 118.206 41.8733 117.783C42.2961 117.36 42.8696 117.123 43.4675 117.123H106.238C106.534 117.123 106.827 117.181 107.101 117.294C107.374 117.408 107.623 117.574 107.832 117.783C108.041 117.992 108.207 118.241 108.321 118.514C108.434 118.788 108.492 119.081 108.492 119.377V152.098C108.492 152.395 108.434 152.69 108.319 152.965C108.205 153.239 108.038 153.489 107.826 153.698C107.615 153.908 107.365 154.074 107.089 154.186C106.814 154.298 106.519 154.355 106.221 154.353Z" fill="white"/>
<path opacity="0.44" d="M96.4847 131.683L88.4132 123.15L76.8392 135.738L68.6748 126.926L61.0128 135.584L55.1413 128.448L43.5654 140.5V149.214C43.5652 149.768 43.7839 150.299 44.1737 150.691C44.5635 151.084 45.0928 151.307 45.6461 151.311L104.027 151.75C104.304 151.752 104.578 151.7 104.835 151.595C105.091 151.491 105.324 151.337 105.52 151.142C105.717 150.947 105.873 150.715 105.979 150.459C106.085 150.204 106.14 149.93 106.14 149.653V125.945L96.4847 131.683Z" fill="white"/>
<path d="M96.7465 131.447H96.5342V151.75H96.7465V131.447Z" fill="white"/>
<path d="M88.5194 123.15H88.3071V151.632H88.5194V123.15Z" fill="white"/>
<path d="M76.9452 135.584H76.7329V151.545H76.9452V135.584Z" fill="white"/>
<path d="M68.9965 127.238H68.7842V151.545H68.9965V127.238Z" fill="white"/>
<path d="M61.1205 135.325H60.9082V151.545H61.1205V135.325Z" fill="white"/>
<path d="M55.3715 127.844H55.1592V151.39H55.3715V127.844Z" fill="white"/>
<path d="M56.9036 128.523C57.2784 127.618 56.8487 126.58 55.9437 126.205C55.0388 125.83 54.0013 126.26 53.6265 127.165C53.2516 128.07 53.6814 129.108 54.5863 129.482C55.4913 129.857 56.5287 129.428 56.9036 128.523Z" fill="#FFEC7A"/>
<path d="M62.1823 135.325C62.1824 135.557 62.1139 135.783 61.9856 135.975C61.8572 136.167 61.6746 136.317 61.4611 136.406C61.2475 136.494 61.0124 136.517 60.7856 136.472C60.5589 136.427 60.3505 136.316 60.1871 136.152C60.0236 135.989 59.9122 135.781 59.8672 135.554C59.8221 135.327 59.8453 135.092 59.9338 134.878C60.0224 134.665 60.1723 134.482 60.3646 134.354C60.5569 134.226 60.7829 134.157 61.0141 134.157C61.3239 134.157 61.6209 134.281 61.8399 134.5C62.059 134.719 62.1821 135.016 62.1823 135.325Z" fill="#FFEC7A"/>
<path d="M70.0582 127.239C70.0584 127.471 69.9899 127.697 69.8615 127.889C69.7332 128.081 69.5506 128.231 69.337 128.32C69.1234 128.408 68.8884 128.431 68.6616 128.386C68.4348 128.341 68.2265 128.23 68.063 128.067C67.8995 127.903 67.7882 127.695 67.7431 127.468C67.6981 127.241 67.7213 127.006 67.8098 126.792C67.8983 126.579 68.0482 126.396 68.2405 126.268C68.4328 126.14 68.6589 126.071 68.8901 126.071C69.1999 126.071 69.4969 126.195 69.7159 126.414C69.9349 126.633 70.0581 126.93 70.0582 127.239Z" fill="#FFEC7A"/>
<path d="M78.0079 135.584C78.0081 135.815 77.9396 136.041 77.8113 136.234C77.6829 136.426 77.5004 136.576 77.2869 136.664C77.0733 136.753 76.8383 136.776 76.6115 136.731C76.3848 136.686 76.1765 136.575 76.013 136.411C75.8494 136.248 75.7381 136.04 75.6929 135.813C75.6478 135.586 75.6709 135.351 75.7593 135.138C75.8478 134.924 75.9976 134.741 76.1898 134.613C76.382 134.485 76.608 134.416 76.8392 134.416C77.149 134.416 77.4462 134.539 77.6654 134.758C77.8846 134.977 78.0078 135.274 78.0079 135.584Z" fill="#FFEC7A"/>
<path d="M89.5817 123.15C89.5818 123.381 89.5133 123.607 89.385 123.799C89.2566 123.992 89.0741 124.142 88.8605 124.23C88.6469 124.319 88.4118 124.342 88.1851 124.297C87.9583 124.252 87.75 124.14 87.5865 123.977C87.423 123.813 87.3116 123.605 87.2666 123.378C87.2215 123.152 87.2447 122.916 87.3332 122.703C87.4218 122.489 87.5717 122.307 87.764 122.178C87.9563 122.05 88.1823 121.982 88.4135 121.982C88.7233 121.982 89.0203 122.105 89.2394 122.324C89.4584 122.543 89.5815 122.84 89.5817 123.15Z" fill="#FFEC7A"/>
<path d="M97.8087 131.447C97.8087 131.679 97.7402 131.905 97.6117 132.097C97.4833 132.289 97.3007 132.439 97.0871 132.527C96.8735 132.616 96.6385 132.639 96.4117 132.594C96.185 132.548 95.9767 132.437 95.8133 132.274C95.6499 132.11 95.5386 131.902 95.4936 131.675C95.4485 131.448 95.4718 131.213 95.5603 131C95.6489 130.786 95.7988 130.604 95.9911 130.475C96.1834 130.347 96.4094 130.278 96.6406 130.279C96.794 130.279 96.946 130.309 97.0878 130.368C97.2295 130.426 97.3583 130.512 97.4668 130.621C97.5753 130.729 97.6613 130.858 97.72 131C97.7787 131.142 97.8088 131.294 97.8087 131.447Z" fill="#FFEC7A"/>
<g opacity="0.48">
<path d="M59.3491 111.753H42.1411C41.4213 111.753 40.8379 112.16 40.8379 112.661C40.8379 113.162 41.4213 113.568 42.1411 113.568H59.3491C60.0695 113.568 60.6529 113.162 60.6529 112.661C60.6529 112.16 60.0708 111.753 59.3491 111.753Z" fill="white"/>
<path d="M59.3491 107.734H42.1411C41.4213 107.734 40.8379 108.141 40.8379 108.642C40.8379 109.143 41.4213 109.55 42.1411 109.55H59.3491C60.0695 109.55 60.6529 109.143 60.6529 108.642C60.6529 108.141 60.0708 107.734 59.3491 107.734Z" fill="white"/>
<path d="M59.3491 103.715H42.1411C41.4213 103.715 40.8379 104.122 40.8379 104.623C40.8379 105.124 41.4213 105.531 42.1411 105.531H59.3491C60.0695 105.531 60.6529 105.125 60.6529 104.623C60.6529 104.121 60.0708 103.715 59.3491 103.715Z" fill="white"/>
</g>
<g opacity="0.48">
<path d="M83.2697 111.753H66.0616C65.3419 111.753 64.7578 112.16 64.7578 112.661C64.7578 113.162 65.3419 113.568 66.0616 113.568H83.2697C83.9894 113.568 84.5735 113.162 84.5735 112.661C84.5735 112.16 83.9894 111.753 83.2697 111.753Z" fill="white"/>
<path d="M83.2697 107.734H66.0616C65.3419 107.734 64.7578 108.141 64.7578 108.642C64.7578 109.143 65.3419 109.55 66.0616 109.55H83.2697C83.9894 109.55 84.5735 109.143 84.5735 108.642C84.5735 108.141 83.9894 107.734 83.2697 107.734Z" fill="white"/>
<path d="M83.2697 103.715H66.0616C65.3419 103.715 64.7578 104.122 64.7578 104.623C64.7578 105.124 65.3419 105.531 66.0616 105.531H83.2697C83.9894 105.531 84.5735 105.125 84.5735 104.623C84.5735 104.121 83.9894 103.715 83.2697 103.715Z" fill="white"/>
</g>
<g opacity="0.48">
<path d="M107.189 111.753H89.981C89.2607 111.753 88.6772 112.16 88.6772 112.661C88.6772 113.162 89.2607 113.568 89.981 113.568H107.189C107.909 113.568 108.492 113.162 108.492 112.661C108.492 112.16 107.909 111.753 107.189 111.753Z" fill="white"/>
<path d="M107.189 107.734H89.981C89.2607 107.734 88.6772 108.141 88.6772 108.642C88.6772 109.143 89.2607 109.55 89.981 109.55H107.189C107.909 109.55 108.492 109.143 108.492 108.642C108.492 108.141 107.909 107.734 107.189 107.734Z" fill="white"/>
<path d="M107.189 103.715H89.981C89.2607 103.715 88.6772 104.122 88.6772 104.623C88.6772 105.124 89.2607 105.531 89.981 105.531H107.189C107.909 105.531 108.492 105.125 108.492 104.623C108.492 104.121 107.909 103.715 107.189 103.715Z" fill="white"/>
</g>
<path d="M185.622 121.16C188.732 118.051 188.732 113.01 185.622 109.9C182.513 106.791 177.471 106.791 174.362 109.9C171.253 113.01 171.253 118.051 174.362 121.16C177.471 124.27 182.513 124.27 185.622 121.16Z" fill="url(#paint10_linear_1120_3710)"/>
<path d="M184.723 113.847C185.139 114.862 185.219 115.983 184.95 117.046C184.681 118.109 184.077 119.057 183.228 119.751C182.379 120.444 181.329 120.847 180.234 120.899C179.138 120.951 178.056 120.649 177.145 120.039C176.234 119.428 175.543 118.541 175.175 117.508C174.807 116.475 174.78 115.352 175.099 114.303C175.418 113.254 176.066 112.335 176.947 111.682C177.828 111.029 178.895 110.676 179.992 110.676C180.078 110.676 180.164 110.676 180.25 110.683V109.387C180.164 109.383 180.078 109.381 179.992 109.381C178.617 109.382 177.28 109.825 176.176 110.645C175.073 111.464 174.262 112.617 173.864 113.932C173.466 115.247 173.502 116.656 173.966 117.95C174.43 119.243 175.297 120.353 176.441 121.116C177.584 121.879 178.942 122.254 180.315 122.185C181.688 122.117 183.002 121.609 184.063 120.736C185.125 119.863 185.878 118.672 186.211 117.339C186.544 116.005 186.439 114.6 185.912 113.331L184.723 113.847Z" fill="#91B3FA"/>
<path opacity="0.5" d="M186.536 126.863H173.561C173.17 126.863 172.794 127.018 172.518 127.295C172.241 127.572 172.085 127.947 172.085 128.338C172.085 128.73 172.241 129.105 172.518 129.382C172.794 129.659 173.17 129.814 173.561 129.814H186.536C186.927 129.814 187.303 129.659 187.579 129.382C187.856 129.105 188.012 128.73 188.012 128.338C188.012 127.947 187.856 127.572 187.579 127.295C187.303 127.018 186.927 126.863 186.536 126.863Z" fill="white"/>
<path d="M185.588 95.5696C188.697 92.4601 188.697 87.4188 185.588 84.3093C182.478 81.1999 177.437 81.1999 174.327 84.3093C171.218 87.4188 171.218 92.4601 174.327 95.5696C177.437 98.679 182.478 98.679 185.588 95.5696Z" fill="url(#paint11_linear_1120_3710)"/>
<path d="M182.664 94.5272C181.993 94.9498 181.233 95.2106 180.444 95.289C179.656 95.3675 178.859 95.2615 178.118 94.9794C177.377 94.6972 176.712 94.2467 176.175 93.6634C175.639 93.0801 175.245 92.38 175.025 91.6183C174.805 90.8566 174.765 90.0542 174.909 89.2745C175.052 88.4948 175.375 87.7592 175.852 87.1256C176.328 86.4921 176.945 85.9781 177.655 85.6241C178.364 85.2701 179.146 85.0859 179.939 85.086C180.026 85.086 180.112 85.086 180.197 85.0929V83.796C180.112 83.796 180.026 83.791 179.939 83.791C178.948 83.791 177.97 84.0209 177.083 84.4625C176.196 84.9042 175.423 85.5456 174.825 86.3364C174.228 87.1272 173.822 88.0458 173.639 89.02C173.456 89.9942 173.502 90.9975 173.773 91.951C174.044 92.9045 174.532 93.7822 175.199 94.5152C175.866 95.2482 176.694 95.8165 177.618 96.1754C178.542 96.5343 179.536 96.6741 180.523 96.5837C181.511 96.4933 182.463 96.1753 183.306 95.6545L182.664 94.5272Z" fill="#91B3FA"/>
<path opacity="0.5" d="M186.57 101.274H173.595C173.204 101.274 172.828 101.43 172.551 101.706C172.275 101.983 172.119 102.359 172.119 102.75C172.119 103.141 172.275 103.517 172.551 103.794C172.828 104.07 173.204 104.226 173.595 104.226H186.57C186.961 104.226 187.336 104.07 187.613 103.794C187.89 103.517 188.045 103.141 188.045 102.75C188.045 102.359 187.89 101.983 187.613 101.706C187.336 101.43 186.961 101.274 186.57 101.274Z" fill="white"/>
<path opacity="0.91" d="M185.65 146.881C188.76 143.772 188.76 138.731 185.65 135.621C182.541 132.512 177.499 132.512 174.39 135.621C171.28 138.731 171.28 143.772 174.39 146.881C177.499 149.991 182.541 149.991 185.65 146.881Z" fill="white"/>
<path d="M184.356 144.127C183.86 144.856 183.184 145.444 182.394 145.835C181.603 146.226 180.725 146.406 179.845 146.357C178.964 146.308 178.112 146.033 177.369 145.557C176.626 145.082 176.019 144.423 175.607 143.643C175.194 142.864 174.99 141.991 175.015 141.11C175.039 140.228 175.291 139.368 175.746 138.613C176.2 137.857 176.843 137.232 177.611 136.799C178.378 136.365 179.245 136.137 180.127 136.137C180.213 136.137 180.299 136.137 180.385 136.143V134.847C180.299 134.844 180.213 134.841 180.127 134.841C179.023 134.841 177.938 135.126 176.977 135.669C176.016 136.211 175.212 136.992 174.641 137.937C174.071 138.881 173.753 139.957 173.721 141.06C173.688 142.163 173.94 143.256 174.454 144.232C174.967 145.209 175.724 146.037 176.651 146.636C177.578 147.234 178.644 147.583 179.745 147.649C180.847 147.715 181.946 147.495 182.938 147.011C183.93 146.527 184.78 145.796 185.406 144.887L184.356 144.127Z" fill="url(#paint12_linear_1120_3710)"/>
<path opacity="0.5" d="M173.533 155.274H186.508C186.899 155.274 187.274 155.119 187.551 154.842C187.828 154.565 187.983 154.19 187.983 153.798C187.983 153.407 187.828 153.032 187.551 152.755C187.274 152.478 186.899 152.323 186.508 152.323H173.533C173.142 152.323 172.766 152.478 172.489 152.755C172.213 153.032 172.057 153.407 172.057 153.798C172.057 154.19 172.213 154.565 172.489 154.842C172.766 155.119 173.142 155.274 173.533 155.274Z" fill="white"/>
<path d="M182.767 198.666C182.767 198.666 183.11 200.612 183.279 202.536C183.294 202.715 183.272 202.894 183.216 203.065C183.16 203.235 183.07 203.392 182.951 203.526C182.832 203.66 182.688 203.769 182.526 203.846C182.364 203.923 182.188 203.966 182.009 203.974C179.445 204.08 173.96 204.288 171.992 204.2C171.923 204.196 171.857 204.176 171.798 204.142C171.738 204.107 171.688 204.059 171.652 204.001C171.615 203.943 171.592 203.878 171.586 203.809C171.579 203.741 171.589 203.672 171.615 203.609C171.707 203.378 171.884 203.192 172.109 203.088L181.17 198.924L182.767 198.666Z" fill="url(#paint13_linear_1120_3710)"/>
<path d="M183.048 197.523L182.772 199.849C182.772 199.849 181.185 200.588 180.101 199.756L180.759 197.163L183.048 197.523Z" fill="url(#paint14_linear_1120_3710)"/>
<path d="M182.841 153.778C182.96 154.385 183.481 184.1 180.305 197.416C180.279 197.521 180.291 197.632 180.34 197.728C180.389 197.825 180.47 197.901 180.57 197.942C181.396 198.261 182.271 198.439 183.157 198.468C183.329 198.473 183.499 198.422 183.638 198.32C183.778 198.219 183.88 198.074 183.929 197.909C184.837 194.82 189.188 179.34 189.755 164.553C190.389 148.029 189.755 163.988 189.755 163.988L189.383 153.774L182.841 153.778Z" fill="url(#paint15_linear_1120_3710)"/>
<path d="M193.189 199.68C193.189 199.68 193.736 200.662 194.266 203.272C194.289 203.383 194.288 203.497 194.264 203.608C194.24 203.719 194.193 203.823 194.126 203.915C194.058 204.006 193.973 204.083 193.874 204.139C193.776 204.195 193.667 204.23 193.554 204.241C192.707 204.324 191.404 204.43 190.359 204.424C190.246 204.424 190.134 204.399 190.03 204.353C189.926 204.306 189.834 204.238 189.758 204.153C189.683 204.068 189.626 203.968 189.592 203.86C189.558 203.751 189.547 203.637 189.561 203.524C189.676 202.571 190.037 201.012 191.15 199.791L193.189 199.68Z" fill="url(#paint16_linear_1120_3710)"/>
<path d="M193.67 196.687L193.025 200.204C193.025 200.204 192.387 200.679 191.125 200.335L191.433 196.549L193.67 196.687Z" fill="url(#paint17_linear_1120_3710)"/>
<path d="M195.413 154.69C198.01 170.367 194.847 193.439 193.783 197.954C193.751 198.089 193.681 198.212 193.579 198.307C193.478 198.402 193.351 198.465 193.214 198.488C192.738 198.568 191.955 198.632 191.183 198.407C191.053 198.37 190.938 198.292 190.855 198.185C190.772 198.079 190.724 197.949 190.719 197.813C190.575 194.163 190.833 171.75 188.413 162.895C188.29 162.446 188.015 162.054 187.636 161.784L182.939 158.445L182.578 153.043L195.413 154.69Z" fill="url(#paint18_linear_1120_3710)"/>
<path d="M178.86 124.983C186.647 124.857 195.235 127.027 195.235 127.027C197.555 140.567 195.641 156.185 195.641 156.185C189.611 157.766 182.814 155.219 182.814 155.219C181.809 149.56 177.139 133.631 177.139 133.631C173.335 133.159 170.202 132.061 167.622 130.611C169.59 128.33 170.517 125.426 170.921 123.71C173.673 124.566 176.459 125.022 178.86 124.983Z" fill="#FFEC7A"/>
<path d="M155.864 113.516C156.628 112.592 157.597 113.03 157.597 113.03C158.742 117.865 164.749 121.793 170.92 123.711C170.517 125.426 169.589 128.33 167.621 130.611C157.379 124.853 155.864 113.516 155.864 113.516Z" fill="url(#paint19_linear_1120_3710)"/>
<path d="M156.049 113.751C155.97 114.003 156.896 114.393 157.442 113.353C157.461 112.854 157.764 110.715 157.466 110.311C155.878 108.147 152.801 105.436 152.801 105.436C152.28 105.949 152.709 106.453 152.709 106.453L154.202 108.007C153.888 108.573 153.511 109.048 153.33 109.73C153.2 110.251 153.274 110.802 153.538 111.27C153.8 111.742 154.158 112.355 154.496 112.836C155.137 113.744 156.049 113.751 156.049 113.751Z" fill="url(#paint20_linear_1120_3710)"/>
<path d="M154.856 109.017L156.216 110.17L156.643 111.318L155.431 112.663C155.431 112.663 155.023 110.385 154.72 109.892C154.416 109.399 154.574 109.16 154.856 109.017Z" fill="url(#paint21_linear_1120_3710)"/>
<path d="M192.249 134.565L195.235 127.029C195.235 127.029 202.506 131.97 203.702 138.234C202.328 138.336 199.828 138.693 197.381 139.93C196.843 136.968 192.249 134.565 192.249 134.565Z" fill="#FFEC7A"/>
<path d="M185.894 141.659C185.894 141.659 194.058 146.273 196.813 142.333C197.384 141.517 197.521 140.7 197.378 139.926C199.828 138.691 202.325 138.334 203.699 138.231C204.06 140.119 203.87 142.128 202.757 144.157C197.931 152.984 184.808 143.669 184.808 143.669L185.894 141.659Z" fill="url(#paint22_linear_1120_3710)"/>
<path d="M186.875 147.496L182.419 131.935C182.394 131.849 182.345 131.772 182.277 131.714C182.208 131.656 182.124 131.619 182.035 131.609C181.228 131.515 178.889 131.25 176.188 131.022C172.935 130.746 169.154 130.524 166.898 130.713C166.824 130.719 166.753 130.743 166.69 130.783C166.627 130.823 166.575 130.877 166.539 130.942C166.502 131.007 166.482 131.079 166.48 131.154C166.478 131.228 166.494 131.302 166.527 131.368C167.81 133.966 173.092 144.531 175.736 147.992C175.779 148.049 175.834 148.094 175.898 148.126C175.962 148.157 176.032 148.173 176.103 148.172L186.441 148.076C186.511 148.076 186.58 148.059 186.643 148.027C186.705 147.996 186.76 147.95 186.802 147.894C186.844 147.838 186.872 147.772 186.885 147.703C186.898 147.635 186.894 147.564 186.875 147.496Z" fill="url(#paint23_linear_1120_3710)"/>
<path d="M175.724 129.672L172.493 129.134C172.454 129.128 172.413 129.131 172.376 129.145C172.338 129.159 172.305 129.182 172.279 129.212C172.253 129.242 172.235 129.279 172.227 129.318C172.22 129.357 172.222 129.398 172.235 129.436L172.555 130.405C172.568 130.446 172.593 130.482 172.626 130.51C172.66 130.538 172.7 130.556 172.743 130.562L175.852 130.977C175.889 130.982 175.927 130.978 175.962 130.965C175.997 130.952 176.029 130.931 176.054 130.903C176.079 130.875 176.097 130.842 176.107 130.805C176.116 130.769 176.117 130.731 176.108 130.694L175.91 129.848C175.9 129.804 175.876 129.764 175.843 129.732C175.81 129.701 175.769 129.68 175.724 129.672Z" fill="url(#paint24_linear_1120_3710)"/>
<path d="M178.145 132.408L177.879 131.021C177.865 130.953 177.831 130.892 177.78 130.845C177.729 130.799 177.665 130.77 177.596 130.763L171.071 130.101C171.02 130.096 170.969 130.103 170.921 130.121C170.874 130.14 170.831 130.17 170.797 130.209C170.764 130.247 170.74 130.293 170.727 130.343C170.715 130.393 170.715 130.445 170.727 130.495L171.142 132.222C171.158 132.289 171.196 132.349 171.249 132.393C171.302 132.437 171.368 132.463 171.438 132.467L177.814 132.788C177.862 132.79 177.911 132.781 177.955 132.762C178 132.743 178.04 132.715 178.072 132.678C178.104 132.641 178.127 132.598 178.139 132.551C178.152 132.504 178.154 132.455 178.145 132.408Z" fill="url(#paint25_linear_1120_3710)"/>
<path d="M185.798 143.737C185.798 143.737 186.419 141.184 186.168 140.279C185.918 139.373 185.433 138.206 183.816 138.467C182.199 138.729 180.292 139.409 180.292 139.409C180.292 139.409 180.388 140.589 181.617 140.208L180.855 140.798C180.855 140.798 180.964 141.74 182.002 141.238L181.293 142.02C181.293 142.02 181.739 142.795 182.503 142.298C183.266 141.8 183.632 144.044 185.798 143.737Z" fill="url(#paint26_linear_1120_3710)"/>
<path d="M186.745 118.663L189.222 125.826C189.243 125.884 189.243 125.948 189.221 126.005C189.2 126.063 189.158 126.111 189.104 126.14C188.429 126.513 185.996 127.592 183.065 125.734C182.913 125.639 182.785 125.512 182.688 125.362C182.591 125.212 182.529 125.043 182.505 124.866L181.703 118.666L186.745 118.663Z" fill="url(#paint27_linear_1120_3710)"/>
<path d="M181.2 111.263C181.125 111.367 178.797 119.481 178.797 119.481L183.458 120.711L186.807 113.349C186.807 113.349 182.449 109.529 181.2 111.263Z" fill="url(#paint28_linear_1120_3710)"/>
<path d="M184.956 113.894C185.012 113.983 185.047 114.085 185.058 114.19C185.069 114.295 185.055 114.402 185.018 114.501L183.58 118.458C183.559 118.517 183.529 118.574 183.492 118.625C183.284 118.91 182.55 119.763 181.702 118.96C180.977 118.276 180.301 117.657 179.67 117.47C179.582 117.445 179.49 117.437 179.399 117.447C179.308 117.458 179.22 117.486 179.141 117.531C179.061 117.575 178.991 117.636 178.934 117.708C178.878 117.78 178.836 117.862 178.812 117.95C178.596 118.712 178.192 120.259 178.027 121.683C178.008 121.856 178.054 122.029 178.157 122.168C178.26 122.308 178.411 122.404 178.581 122.437C179.512 122.619 181.34 122.92 182.894 122.836C183.02 122.829 183.141 122.789 183.245 122.718C183.348 122.648 183.431 122.551 183.484 122.438C183.962 121.419 185.314 118.57 185.819 117.825C186.289 117.134 187.405 117.143 187.916 117.188C188.012 117.196 188.108 117.185 188.199 117.155C188.29 117.124 188.374 117.075 188.445 117.011C188.879 116.62 189.593 115.717 188.568 114.624C188.446 114.491 188.38 114.316 188.386 114.135C188.392 113.955 188.468 113.784 188.598 113.659C189.077 113.192 189.54 112.403 188.761 111.414C187.972 110.415 186.928 110.514 186.249 110.735C186.102 110.785 185.942 110.786 185.794 110.738C185.646 110.689 185.518 110.594 185.429 110.467C185.385 110.4 185.325 110.346 185.254 110.309C185.183 110.273 185.104 110.255 185.024 110.259C184.935 110.26 184.846 110.244 184.763 110.211C184.68 110.178 184.605 110.129 184.541 110.066C184.478 110.004 184.427 109.929 184.392 109.847C184.358 109.765 184.34 109.677 184.34 109.587C184.34 108.935 184.088 108.138 182.981 107.781C180.946 107.127 179.652 109.086 179.514 110.556C179.377 112.027 181.621 112.611 182.947 112.524C183.919 112.457 184.642 113.393 184.956 113.894Z" fill="url(#paint29_linear_1120_3710)"/>
<path d="M185.275 119.28C185.275 119.28 185.629 116.729 186.692 116.613C187.755 116.498 188.782 117.381 187.712 118.805C186.382 120.576 185.275 119.28 185.275 119.28Z" fill="url(#paint30_linear_1120_3710)"/>
<path d="M60.78 89.4549C60.78 91.503 60.1373 93.4995 58.9425 95.1631C57.7477 96.8266 56.0611 98.0733 54.1202 98.7274C52.1794 99.3816 50.0822 99.4102 48.1242 98.8093C46.1662 98.2084 44.4461 97.0083 43.2063 95.378C41.9665 93.7478 41.2696 91.7696 41.2136 89.7222C41.1577 87.6749 41.7456 85.6616 42.8944 83.966C44.0433 82.2705 45.6953 80.9782 47.6176 80.2713C49.5398 79.5643 51.6354 79.4784 53.6091 80.0256L52.5054 84.0066C51.365 83.6904 50.1542 83.7401 49.0435 84.1485C47.9328 84.557 46.9783 85.3037 46.3144 86.2834C45.6506 87.2631 45.3109 88.4264 45.3432 89.6094C45.3756 90.7924 45.7783 91.9354 46.4946 92.8773C47.211 93.8193 48.2049 94.5128 49.3362 94.86C50.4675 95.2072 51.6793 95.1906 52.8008 94.8126C53.9222 94.4347 54.8968 93.7143 55.5871 92.7531C56.2775 91.7919 56.6488 90.6383 56.6488 89.4549H60.78Z" fill="#FFEC7A"/>
<path d="M84.6398 89.4549C84.6398 90.835 84.3479 92.1995 83.7831 93.4588C83.2184 94.7181 82.3937 95.8437 81.3631 96.7616C80.3326 97.6796 79.1195 98.3692 77.8035 98.7851C76.4875 99.201 75.0985 99.3338 73.7276 99.1748L74.2035 95.0711C74.9956 95.163 75.7982 95.0862 76.5586 94.8459C77.319 94.6056 78.0199 94.2072 78.6154 93.6768C79.2108 93.1464 79.6874 92.496 80.0137 91.7684C80.34 91.0408 80.5087 90.2524 80.5087 89.4549H84.6398Z" fill="#FFEC7A"/>
<path d="M94.9344 80.4594C97.1453 79.5131 99.6272 79.414 101.906 80.1811C104.186 80.9483 106.102 82.5279 107.291 84.6184C108.48 86.709 108.857 89.1641 108.351 91.515C107.844 93.866 106.49 95.9482 104.546 97.3641C102.602 98.78 100.205 99.4305 97.8122 99.1914C95.4193 98.9524 93.1982 97.8404 91.5729 96.0679C89.9476 94.2954 89.032 91.9864 89.0008 89.5818C88.9696 87.1771 89.8251 84.8452 91.4039 83.0311L94.5201 85.7432C93.6079 86.7914 93.1136 88.1388 93.1316 89.5282C93.1496 90.9177 93.6787 92.2518 94.6178 93.276C95.5569 94.3001 96.8403 94.9426 98.2229 95.0808C99.6056 95.2189 100.991 94.843 102.114 94.0249C103.237 93.2068 104.02 92.0037 104.312 90.6453C104.605 89.2869 104.387 87.8683 103.7 86.6604C103.013 85.4524 101.906 84.5397 100.589 84.0965C99.2716 83.6532 97.8375 83.7104 96.5601 84.2572L94.9344 80.4594Z" fill="#FFEC7A"/>
<defs>
<linearGradient id="paint0_linear_1120_3710" x1="128.157" y1="153.429" x2="111.332" y2="225.043" gradientUnits="userSpaceOnUse">
<stop stop-color="#09005D"/>
<stop offset="1" stop-color="#1A0F91"/>
</linearGradient>
<linearGradient id="paint1_linear_1120_3710" x1="119.807" y1="35.1993" x2="114.198" y2="168.936" gradientUnits="userSpaceOnUse">
<stop stop-color="#09005D"/>
<stop offset="1" stop-color="#1A0F91"/>
</linearGradient>
<linearGradient id="paint2_linear_1120_3710" x1="119.314" y1="144.542" x2="120.176" y2="197.175" gradientUnits="userSpaceOnUse">
<stop stop-color="#09005D"/>
<stop offset="1" stop-color="#1A0F91"/>
</linearGradient>
<linearGradient id="paint3_linear_1120_3710" x1="126.266" y1="122.058" x2="144.169" y2="87.1145" gradientUnits="userSpaceOnUse">
<stop stop-color="#4F52FF"/>
<stop offset="1" stop-color="#4042E2"/>
</linearGradient>
<linearGradient id="paint4_linear_1120_3710" x1="134.19" y1="126.118" x2="152.093" y2="91.1741" gradientUnits="userSpaceOnUse">
<stop stop-color="#4F52FF"/>
<stop offset="1" stop-color="#4042E2"/>
</linearGradient>
<linearGradient id="paint5_linear_1120_3710" x1="133.113" y1="125.566" x2="151.016" y2="90.6221" gradientUnits="userSpaceOnUse">
<stop stop-color="#4F52FF"/>
<stop offset="1" stop-color="#4042E2"/>
</linearGradient>
<linearGradient id="paint6_linear_1120_3710" x1="147.075" y1="132.72" x2="164.978" y2="97.7754" gradientUnits="userSpaceOnUse">
<stop stop-color="#4F52FF"/>
<stop offset="1" stop-color="#4042E2"/>
</linearGradient>
<linearGradient id="paint7_linear_1120_3710" x1="145.294" y1="131.807" x2="163.197" y2="96.8629" gradientUnits="userSpaceOnUse">
<stop stop-color="#4F52FF"/>
<stop offset="1" stop-color="#4042E2"/>
</linearGradient>
<linearGradient id="paint8_linear_1120_3710" x1="152.328" y1="135.411" x2="170.232" y2="100.468" gradientUnits="userSpaceOnUse">
<stop stop-color="#4F52FF"/>
<stop offset="1" stop-color="#4042E2"/>
</linearGradient>
<linearGradient id="paint9_linear_1120_3710" x1="159.511" y1="139.092" x2="177.415" y2="104.147" gradientUnits="userSpaceOnUse">
<stop stop-color="#4F52FF"/>
<stop offset="1" stop-color="#4042E2"/>
</linearGradient>
<linearGradient id="paint10_linear_1120_3710" x1="172.03" y1="115.53" x2="187.954" y2="115.53" gradientUnits="userSpaceOnUse">
<stop stop-color="#DAE3FE"/>
<stop offset="1" stop-color="#E9EFFD"/>
</linearGradient>
<linearGradient id="paint11_linear_1120_3710" x1="171.995" y1="89.9395" x2="187.919" y2="89.9395" gradientUnits="userSpaceOnUse">
<stop stop-color="#DAE3FE"/>
<stop offset="1" stop-color="#E9EFFD"/>
</linearGradient>
<linearGradient id="paint12_linear_1120_3710" x1="189.23" y1="132.612" x2="164.588" y2="155.998" gradientUnits="userSpaceOnUse">
<stop stop-color="#FDF53F"/>
<stop offset="1" stop-color="#D93C65"/>
</linearGradient>
<linearGradient id="paint13_linear_1120_3710" x1="172.279" y1="195.977" x2="205.458" y2="232.067" gradientUnits="userSpaceOnUse">
<stop stop-color="#09005D"/>
<stop offset="1" stop-color="#1A0F91"/>
</linearGradient>
<linearGradient id="paint14_linear_1120_3710" x1="183.048" y1="198.657" x2="180.101" y2="198.657" gradientUnits="userSpaceOnUse">
<stop stop-color="#FEBBBA"/>
<stop offset="1" stop-color="#FF928E"/>
</linearGradient>
<linearGradient id="paint15_linear_1120_3710" x1="190.037" y1="176.122" x2="180.292" y2="176.122" gradientUnits="userSpaceOnUse">
<stop stop-color="#4F52FF"/>
<stop offset="1" stop-color="#4042E2"/>
</linearGradient>
<linearGradient id="paint16_linear_1120_3710" x1="179.722" y1="189.134" x2="212.902" y2="225.224" gradientUnits="userSpaceOnUse">
<stop stop-color="#09005D"/>
<stop offset="1" stop-color="#1A0F91"/>
</linearGradient>
<linearGradient id="paint17_linear_1120_3710" x1="193.67" y1="198.506" x2="191.125" y2="198.506" gradientUnits="userSpaceOnUse">
<stop stop-color="#FEBBBA"/>
<stop offset="1" stop-color="#FF928E"/>
</linearGradient>
<linearGradient id="paint18_linear_1120_3710" x1="196.413" y1="175.803" x2="182.578" y2="175.803" gradientUnits="userSpaceOnUse">
<stop stop-color="#4F52FF"/>
<stop offset="1" stop-color="#4042E2"/>
</linearGradient>
<linearGradient id="paint19_linear_1120_3710" x1="170.92" y1="121.769" x2="155.864" y2="121.769" gradientUnits="userSpaceOnUse">
<stop stop-color="#FEBBBA"/>
<stop offset="1" stop-color="#FF928E"/>
</linearGradient>
<linearGradient id="paint20_linear_1120_3710" x1="159.218" y1="119.245" x2="169.322" y2="142.233" gradientUnits="userSpaceOnUse">
<stop stop-color="#FEBBBA"/>
<stop offset="1" stop-color="#FF928E"/>
</linearGradient>
<linearGradient id="paint21_linear_1120_3710" x1="155.936" y1="111.589" x2="151.721" y2="105.108" gradientUnits="userSpaceOnUse">
<stop stop-color="#FEBBBA"/>
<stop offset="1" stop-color="#FF928E"/>
</linearGradient>
<linearGradient id="paint22_linear_1120_3710" x1="203.868" y1="143.096" x2="184.814" y2="143.096" gradientUnits="userSpaceOnUse">
<stop stop-color="#FEBBBA"/>
<stop offset="1" stop-color="#FF928E"/>
</linearGradient>
<linearGradient id="paint23_linear_1120_3710" x1="179.049" y1="129.549" x2="168.572" y2="173.205" gradientUnits="userSpaceOnUse">
<stop stop-color="#09005D"/>
<stop offset="1" stop-color="#1A0F91"/>
</linearGradient>
<linearGradient id="paint24_linear_1120_3710" x1="172.489" y1="122.667" x2="174.721" y2="132.467" gradientUnits="userSpaceOnUse">
<stop stop-color="#4F52FF"/>
<stop offset="1" stop-color="#4042E2"/>
</linearGradient>
<linearGradient id="paint25_linear_1120_3710" x1="173.657" y1="126.778" x2="174.724" y2="133.181" gradientUnits="userSpaceOnUse">
<stop stop-color="#4F52FF"/>
<stop offset="1" stop-color="#4042E2"/>
</linearGradient>
<linearGradient id="paint26_linear_1120_3710" x1="186.228" y1="141.098" x2="180.292" y2="141.098" gradientUnits="userSpaceOnUse">
<stop stop-color="#FEBBBA"/>
<stop offset="1" stop-color="#FF928E"/>
</linearGradient>
<linearGradient id="paint27_linear_1120_3710" x1="189.237" y1="122.726" x2="181.703" y2="122.726" gradientUnits="userSpaceOnUse">
<stop stop-color="#FEBBBA"/>
<stop offset="1" stop-color="#FF928E"/>
</linearGradient>
<linearGradient id="paint28_linear_1120_3710" x1="182.48" y1="112.364" x2="182.894" y2="128.356" gradientUnits="userSpaceOnUse">
<stop stop-color="#FEBBBA"/>
<stop offset="1" stop-color="#FF928E"/>
</linearGradient>
<linearGradient id="paint29_linear_1120_3710" x1="186.686" y1="119.145" x2="177.317" y2="112.437" gradientUnits="userSpaceOnUse">
<stop stop-color="#09005D"/>
<stop offset="1" stop-color="#1A0F91"/>
</linearGradient>
<linearGradient id="paint30_linear_1120_3710" x1="188.084" y1="128.807" x2="186.415" y2="117.848" gradientUnits="userSpaceOnUse">
<stop stop-color="#FEBBBA"/>
<stop offset="1" stop-color="#FF928E"/>
</linearGradient>
</defs>
</svg>
