<svg width="63" height="63" viewBox="0 0 63 63" fill="none" xmlns="http://www.w3.org/2000/svg">
<path d="M50.505 14.6475H49.455L40.5825 5.77497C39.8737 5.06622 38.7188 5.06622 37.9837 5.77497C37.275 6.48372 37.275 7.63872 37.9837 8.37372L44.2575 14.6475H18.7425L25.0162 8.37372C25.725 7.66497 25.725 6.50997 25.0162 5.77497C24.3075 5.06622 23.1525 5.06622 22.4175 5.77497L13.5712 14.6475H12.5212C10.1588 14.6475 5.25 14.6475 5.25 21.3675C5.25 23.9137 5.775 25.5937 6.8775 26.6962C7.5075 27.3525 8.26875 27.6937 9.0825 27.8775C9.84375 28.0612 10.6575 28.0875 11.445 28.0875H51.555C52.3687 28.0875 53.13 28.035 53.865 27.8775C56.07 27.3525 57.75 25.7775 57.75 21.3675C57.75 14.6475 52.8412 14.6475 50.505 14.6475Z" fill="#F1D550"/>
<path d="M50.1115 31.5H12.889C11.2615 31.5 10.0277 32.9437 10.2902 34.545L12.4952 48.0375C13.2302 52.5525 15.199 57.75 23.9402 57.75H38.6665C47.5127 57.75 49.0877 53.3137 50.0327 48.3525L52.684 34.6237C52.999 32.9962 51.7652 31.5 50.1115 31.5ZM39.0602 42.1312L30.529 50.0062C30.1615 50.3475 29.689 50.5312 29.1902 50.5312C28.6915 50.5312 28.1927 50.3475 27.799 49.9538L23.8615 46.0163C23.1002 45.255 23.1002 43.995 23.8615 43.2337C24.649 42.4725 25.8827 42.4725 26.6702 43.2337L29.269 45.8325L36.409 39.2437C37.1965 38.5087 38.4565 38.5612 39.1915 39.3487C39.9265 40.1625 39.874 41.3962 39.0602 42.1312Z" fill="#F1D550"/>
</svg>
