<svg width="19" height="20" viewBox="0 0 19 20" fill="none" xmlns="http://www.w3.org/2000/svg">
<path fill-rule="evenodd" clip-rule="evenodd" d="M9.79901 0.833618C12.1951 0.833618 14.1744 2.65931 14.4185 4.9943L14.4866 4.9951C15.8157 4.9951 17.4318 5.87785 17.9772 8.35377L18.7005 13.9519C18.9599 15.7586 18.6354 17.2079 17.7343 18.2474C16.8378 19.2814 15.4188 19.8286 13.6304 19.8286H5.97807C4.01366 19.8286 2.64507 19.3474 1.79349 18.3583C0.938238 17.3664 0.652239 15.8787 0.943738 13.9372L1.65507 8.41335C2.12257 5.8806 3.83216 4.9951 5.15582 4.9951C5.27009 3.94137 5.74523 2.93893 6.49901 2.18753C7.36526 1.32678 8.55968 0.833618 9.77976 0.833618H9.79901ZM14.4866 6.3701H5.15582C4.75157 6.3701 3.40041 6.53327 3.01266 8.62693L2.30499 14.1269C2.07491 15.6697 2.25274 16.7862 2.83482 17.4618C3.40957 18.1291 4.43807 18.4536 5.97807 18.4536H13.6304C14.5911 18.4536 15.9028 18.262 16.6948 17.3472C17.3237 16.6221 17.54 15.5423 17.3383 14.137L16.6242 8.58935C16.3199 7.2226 15.5169 6.3701 14.4866 6.3701ZM12.4725 8.92219C12.852 8.92219 13.1811 9.23019 13.1811 9.60969C13.1811 9.98919 12.8941 10.2972 12.5146 10.2972H12.4725C12.093 10.2972 11.785 9.98919 11.785 9.60969C11.785 9.23019 12.093 8.92219 12.4725 8.92219ZM7.12821 8.92219C7.50771 8.92219 7.8368 9.23019 7.8368 9.60969C7.8368 9.98919 7.54896 10.2972 7.16946 10.2972H7.12821C6.74871 10.2972 6.44071 9.98919 6.44071 9.60969C6.44071 9.23019 6.74871 8.92219 7.12821 8.92219ZM9.79626 2.20862H9.78251C8.91993 2.20862 8.07935 2.55603 7.46976 3.16195C6.97321 3.65628 6.64845 4.30613 6.54339 4.99467L13.0327 4.99493C12.7972 3.41988 11.4352 2.20862 9.79626 2.20862Z" fill="white"/>
</svg>
