<svg xmlns="http://www.w3.org/2000/svg" width="15" height="15" viewBox="0 0 15 15">
  <defs>
    <style>
      .cls-ArrowDown {
        fill: #fff;
      }
    </style>
  </defs>
  <g id="Iconly_Bold_Arrow_-_Down_2" data-name="Iconly/Bold/Arrow - Down 2" transform="translate(15 15) rotate(-180)">
    <g id="Arrow_-_Down_2" data-name="Arrow - Down 2" transform="translate(3.75 4.375)">
      <path id="Arrow_-_Down_2-2" data-name="Arrow - Down 2" class="cls-ArrowDown" d="M3.043,6.019c-.036-.035-.191-.169-.319-.293A13.556,13.556,0,0,1,.209,2.1,2.885,2.885,0,0,1,0,1.368,1.208,1.208,0,0,1,.136.808,1.171,1.171,0,0,1,.7.311a6.15,6.15,0,0,1,.665-.16A14.987,14.987,0,0,1,3.745,0,17.328,17.328,0,0,1,6.051.133,5.309,5.309,0,0,1,6.88.346a1.116,1.116,0,0,1,.62.986v.035a3.049,3.049,0,0,1-.256.826A13.557,13.557,0,0,1,4.766,5.736a3.537,3.537,0,0,1-.346.3,1.115,1.115,0,0,1-.665.213,1.172,1.172,0,0,1-.711-.231"/>
    </g>
  </g>
</svg>
