<svg width="17" height="20" viewBox="0 0 17 20" fill="none" xmlns="http://www.w3.org/2000/svg">
<path fill-rule="evenodd" clip-rule="evenodd" d="M11.4757 0.833344C14.585 0.833344 16.3688 2.37243 16.3688 5.05368V18.3783C16.3688 18.9375 16.081 19.4408 15.597 19.7222C15.1148 20.0045 14.5337 20.01 14.046 19.735L8.58267 16.6486L3.06892 19.7414C2.83059 19.8753 2.56934 19.9431 2.30717 19.9431C2.03676 19.9431 1.76634 19.8707 1.52067 19.7258C1.03759 19.4444 0.749756 18.9412 0.749756 18.3829V4.88593C0.749756 2.31009 2.53451 0.833344 5.64659 0.833344H11.4757ZM11.4757 2.20834H5.64659C3.31001 2.20834 2.12476 3.10851 2.12476 4.88593V18.3829C2.12476 18.4691 2.17426 18.5158 2.21551 18.5397C2.25676 18.5653 2.32184 18.5837 2.39701 18.5415L8.24717 15.2598C8.45617 15.1434 8.71192 15.1425 8.92184 15.2608L14.7216 18.5369C14.7977 18.5809 14.8628 18.5608 14.904 18.536C14.9453 18.5113 14.9938 18.4645 14.9938 18.3783L14.9935 4.94922C14.9866 4.16027 14.8339 2.20834 11.4757 2.20834ZM11.8779 7.00114C12.2574 7.00114 12.5654 7.30914 12.5654 7.68864C12.5654 8.06814 12.2574 8.37614 11.8779 8.37614H5.16974C4.79024 8.37614 4.48224 8.06814 4.48224 7.68864C4.48224 7.30914 4.79024 7.00114 5.16974 7.00114H11.8779Z" fill="#F7F8FA"/>
</svg>
