<svg xmlns="http://www.w3.org/2000/svg" width="337.108" height="214.231" viewBox="0 0 337.108 214.231">
  <defs>
    <style>
      .cls-1 {
        fill: #2c3a64;
      }

      .cls-2 {
        fill: #464541;
      }

      .cls-3 {
        fill: #ed975d;
      }

      .cls-4 {
        fill: #f7c700;
      }

      .cls-5 {
        fill: #ffb27d;
      }

      .cls-6 {
        fill: #2b478b;
      }

      .cls-7 {
        fill: #f8d12f;
      }

      .cls-21, .cls-8 {
        fill: #82b378;
      }

      .cls-9 {
        fill: #a8d29f;
      }

      .cls-10 {
        fill: #ffcd00;
      }

      .cls-11 {
        fill: #fde068;
      }

      .cls-12 {
        fill: #e8bc06;
      }

      .cls-13 {
        fill: #fff9de;
      }

      .cls-14 {
        fill: #c3c2c1;
      }

      .cls-15 {
        fill: #e8c6a7;
      }

      .cls-16 {
        fill: #c69d7b;
      }

      .cls-17 {
        fill: #ebf3fa;
      }

      .cls-18 {
        fill: #ffb93e;
      }

      .cls-19 {
        fill: #ffa412;
      }

      .cls-20 {
        fill: #eac012;
      }

      .cls-21 {
        opacity: 0.5;
      }

      .cls-22 {
        fill: #ed7d2b;
      }

      .cls-23 {
        fill: #d3b32d;
      }

      .cls-24 {
        fill: #e2810e;
      }

      .cls-25 {
        fill: #2e3552;
      }
    </style>
  </defs>
  <g id="_5488" data-name="5488" transform="translate(-223.2 -104.819)">
    <path id="Path_1946" data-name="Path 1946" class="cls-1" d="M1888.574,1767.867a1.08,1.08,0,0,0,.1.044h20.528c-.192-.735-.864-2.062-3.212-2.45-3.185-.517-8.707-2.368-9.938-6.444-.038-.13-.074-.265-.105-.4-.98-4.354-8.085,1.334-8.085,1.334s-.022.173-.052.469C1887.646,1762.023,1887.225,1767.192,1888.574,1767.867Z" transform="translate(-1460.517 -1449.758)"/>
    <path id="Path_1947" data-name="Path 1947" class="cls-2" d="M1910.6,1242.922s-13.353,47.424-17.371,65.763c0,0-9.91,1.988-11.451-1.126,0,0,3.193-51.644,9.065-58.2C1898.153,1241.207,1910.6,1242.922,1910.6,1242.922Z" transform="translate(-1455.394 -998.547)"/>
    <path id="Path_1948" data-name="Path 1948" class="cls-3" d="M2094.4,723.485a9.85,9.85,0,0,1,.2-3.888c.546-1.768,2.833-6.425,2.11-8.045s-3.342-5.976-4.957-5.962,1.7,4.655,1.242,6.114-.605,1.57-1.166,1.442-1.415-2.908-1.7-2.259a15.473,15.473,0,0,0,.415,6.026c.538,1.074-.561,7.132-.561,7.132Z" transform="translate(-1638.088 -527.173)"/>
    <path id="Path_1949" data-name="Path 1949" class="cls-4" d="M1892.553,827.257s-3.575-2.03-6.34-1.175c0,0-5.486,15.8-8.508,27.422a244.191,244.191,0,0,1-9.368-28.584s-7.032,9.711-9.571,16.171,12.633,29.106,18.523,30.881c6.144,1.855,5.023,0,8.492-1.987C1886.894,868.542,1890.46,861.34,1892.553,827.257Z" transform="translate(-1434.951 -631.884)"/>
    <path id="Path_1950" data-name="Path 1950" class="cls-1" d="M2261.741,1773.951a1.089,1.089,0,0,0,.1.043h20.526c-.192-.735-.864-2.062-3.212-2.443-3.185-.518-8.705-2.368-9.937-6.444-.038-.13-.074-.265-.105-.4-.98-4.354-8.085,1.334-8.085,1.334s-.022.173-.051.469C2260.808,1768.106,2260.391,1773.276,2261.741,1773.951Z" transform="translate(-1787.966 -1455.102)"/>
    <path id="Path_1951" data-name="Path 1951" class="cls-2" d="M1593.478,1206.92a26.783,26.783,0,0,0-4.468,2.71,12.529,12.529,0,0,0-.685-2.358c-17.618-4.588-64.774-4.214-64.774-4.214s-10.139,2.54-7.162,17.3c2.741,13.581,48.022,7.292,62.642,3.217.342-.094.672-.195.993-.3-1.163,8.654,6.983,21,14.119,32.357,5.88,9.364,10.886,18.844,10.886,18.844,2.952,1.838,12.863.773,12.863.773C1611.631,1257.548,1593.478,1206.92,1593.478,1206.92Z" transform="translate(-1134.287 -963.691)"/>
    <path id="Path_1952" data-name="Path 1952" class="cls-5" d="M1832.21,730.406s5.058,16.192,12.655,19.813c0,0,.718-4.912-.511-8.649,1-.767,1.891-1.48,2.667-2.122a50.649,50.649,0,0,0,3.879-3.517l-1.13-7.894L1849,722.68a24.456,24.456,0,0,1-3.783,3.524A20.056,20.056,0,0,1,1832.21,730.406Z" transform="translate(-1411.897 -542.169)"/>
    <path id="Path_1953" data-name="Path 1953" class="cls-3" d="M1933.105,751.45s-2.548,7.01,1.8,13.244a50.628,50.628,0,0,0,3.878-3.517l-1.129-7.894A15.926,15.926,0,0,0,1933.105,751.45Z" transform="translate(-1499.781 -567.415)"/>
    <path id="Path_1954" data-name="Path 1954" class="cls-5" d="M1945.826,671.59s-11.2-7.43-6.466-14.333,6.478-12.512,13.83-8.058,6.919,8.029,5.9,10.718S1948.86,673.346,1945.826,671.59Z" transform="translate(-1504.896 -476.294)"/>
    <path id="Path_1955" data-name="Path 1955" class="cls-6" d="M1928.546,592.285c-.049-.189-.259-.424-.826-.735a2.611,2.611,0,0,1,1.242.222c.526-.763,1.671-2.01,3.24-1.681a1.961,1.961,0,0,0-1.47.866c2.442-.893,6.506-.424,15.72,5.044,12.143,7.206,3.951,13.384,1.837,13.561s-4.918-4.525-8.085-5.774-5.94,2.94-7.276,3.049-.4-.779-1.481-2.107-2.372.962-2.717,2.7-3.259,2.807-3.259,2.807l-.9-3.077c-.9-3.076,1.678-12.975,3.5-14.456Z" transform="translate(-1492.78 -425.776)"/>
    <path id="Path_1956" data-name="Path 1956" class="cls-7" d="M1553.909,804.176a110.444,110.444,0,0,1-6.842,13.721c-1.451,2.4-3.006,4.6-4.43,6.516l-.135.182c-2.8,3.771-7.089,4.81-6.956,5.758.267,1.9-4.524,6.449-12.426,8.468-9.168,2.342-19.792,3.469-22.477.368-.9-1.04-1.2-2.954-1.1-5.334.2-5.01,6.505-25.192,6.505-25.192,10.8-32.662,41.7-32.662,41.7-32.662s-.605,7.823,6.983,10.536C1554.732,786.556,1556.5,798.023,1553.909,804.176Z" transform="translate(-1119.967 -588.957)"/>
    <path id="Path_1957" data-name="Path 1957" class="cls-5" d="M2091.6,1195.63a52.747,52.747,0,0,1,5.914,2.438,17.806,17.806,0,0,1,4.533,6.212,25.156,25.156,0,0,1,.475,6.228c-.24.691-3.8-1.96-4.582-4.453a4.21,4.21,0,0,0-2.741-3.032c.077.135,1.116,3.327.9,3.466s-1.164.376-2.021-1.406-2.553-3.086-2.232-4.927A14.951,14.951,0,0,0,2091.6,1195.63Z" transform="translate(-1639.51 -957.18)"/>
    <path id="Path_1958" data-name="Path 1958" class="cls-4" d="M1691,971.684c.268,1.9-4.677,6.185-12.579,8.208-6.591-13.108,5.94-43.122,5.94-43.122l13.576,28.723C1695.071,969.35,1690.863,970.724,1691,971.684Z" transform="translate(-1275.265 -730.032)"/>
    <path id="Path_1959" data-name="Path 1959" class="cls-4" d="M1805.091,989.508c-1.45,2.4-3.006,4.6-4.43,6.516l-.135.182a10.955,10.955,0,0,1-4.642-3.467c-2.139-3.018-2.314-21.17-2.314-21.17S1802.321,982.379,1805.091,989.508Z" transform="translate(-1377.991 -760.569)"/>
    <path id="Path_1960" data-name="Path 1960" class="cls-7" d="M1763.927,853.728s-21.174-5.927-32.041-8.52c.957-12.828,4.093-51.595-15.65-36.072,0,0-1.492,41.545,8.076,49.962,0,0,30.715.651,36.563.292a8.994,8.994,0,0,0,2.145-1.482A5.846,5.846,0,0,0,1763.927,853.728Z" transform="translate(-1310.056 -614.865)"/>
    <path id="Path_1961" data-name="Path 1961" class="cls-8" d="M847.8,1514.432l.78-.07a12.59,12.59,0,0,0-4.6-8.87,14.512,14.512,0,0,1-3.992-5.6s5.085-5.933.314-9.7c0,0-3.485-2.111-6.327-1.939,0,0,4.027,6.753,2.724,7.425s-3.945-7.849-3.945-7.849-7.932-.769-10.484.458c0,0,6.781,5.548,5.354,5.88s-8.753-5.117-8.753-5.117-7.381,1.256-6.983,5.758,2.94,5.894,4.055,5.775,7.658-2.617,7.8-1.7-3.8,3.909-6.55,4.05c0,0,5.2,5.739,8.664,4.083s3.754-4.288,5.911-5.268,4-.98,3.106.022-4.792,1.981-6.025,4.165-2.34,3.653,1.24,3.114,9.4-3.157,9.651-6.156c.011-.131.021-.255.032-.375a1.467,1.467,0,0,1-.032.375c.746.134,2.3,1.507,3.417,2.584.173.19.428.442.793.78.136.137.245.255.336.342C846.558,1509.082,847.8,1514.432,847.8,1514.432Z" transform="translate(-516.557 -1213.371)"/>
    <path id="Path_1962" data-name="Path 1962" class="cls-9" d="M1148.437,1377.051s-8.085-4.533-4.315-10.678c0,0,3.02-3.776,6.255-4.746,0,0-1.725,9.168,0,9.384s1.187-10.354,1.187-10.354,8.52-4.1,11.865-3.776c0,0-5.285,8.953-3.56,8.737s7.658-9.276,7.658-9.276,8.737-1.618,10.139,3.553-.858,7.766-2.156,8.085-9.6.216-9.384,1.294,5.824,2.8,8.952,1.838c0,0-3.451,8.52-7.981,8.085s-5.932-3.235-8.736-3.451-4.854.539-3.452,1.294,6.149.245,8.414,2.173,4.1,3.112-.108,3.975-11.76.323-13.267-2.912Z" transform="translate(-807.224 -1097.994)"/>
    <path id="Path_1963" data-name="Path 1963" class="cls-8" d="M1181.169,1400.32s-22.65,7.334-25.236,15.531a17.2,17.2,0,0,1-2.157,7.873,14.935,14.935,0,0,0-1.5,11.76l.9-.245s-.786-6.406.7-10.116c.06-.136.148-.333.258-.575.268-.526.448-.911.563-1.192.807-1.657,1.974-3.821,2.75-4.274C1157.44,1419.088,1152.37,1411.969,1181.169,1400.32Z" transform="translate(-814.718 -1136.794)"/>
    <path id="Path_1964" data-name="Path 1964" class="cls-9" d="M801.3,1278.337s10.658-5.971,5.688-14.075c0,0-3.981-4.976-8.247-6.256,0,0,2.275,12.085,0,12.373s-1.563-13.648-1.563-13.648-11.233-5.4-15.64-4.976c0,0,6.967,11.8,4.692,11.516s-10.094-12.227-10.094-12.227-11.516-2.131-13.364,4.692,1.137,10.237,2.843,10.658,12.654.284,12.373,1.705-7.677,3.7-11.8,2.417c0,0,4.55,11.233,10.521,10.658s7.821-4.266,11.516-4.55,6.4.711,4.55,1.705-8.1.327-11.09,2.865-5.4,4.1.143,5.24,15.5.426,17.488-3.839Z" transform="translate(-472.959 -1005.527)"/>
    <path id="Path_1965" data-name="Path 1965" class="cls-8" d="M846,1339.851a22.682,22.682,0,0,1-2.845-10.38c-3.412-10.8-33.269-20.471-33.269-20.471,37.961,15.355,31.279,24.739,31.279,24.739,1.023.6,2.557,3.443,3.621,5.625.151.368.391.886.749,1.584.145.316.26.573.339.755,1.96,4.891.919,13.335.919,13.335l1.185.318A19.7,19.7,0,0,0,846,1339.851Z" transform="translate(-514.817 -1056.661)"/>
    <path id="Path_1966" data-name="Path 1966" class="cls-10" d="M913.9,1667.54a20.887,20.887,0,0,0,41.775,0Z" transform="translate(-606.085 -1371.278)"/>
    <path id="Path_1967" data-name="Path 1967" class="cls-11" d="M1026.13,1667.54c0,7.826,1.874,15.8,8.245,19.373,1.058.6,4.6-.049,5.768.356a20.9,20.9,0,0,0,14.013-19.723Z" transform="translate(-704.566 -1371.278)"/>
    <path id="Path_1968" data-name="Path 1968" class="cls-10" d="M1065.3,1688.387a20.267,20.267,0,0,1-2.546,0,20.887,20.887,0,0,0,20.887-20.887h-5.189C1078.45,1678.163,1075.61,1687.114,1065.3,1688.387Z" transform="translate(-736.596 -1371.243)"/>
    <path id="Path_1969" data-name="Path 1969" class="cls-11" d="M911.54,1828.293h42.353a2.581,2.581,0,0,0-2.573-2.573h-37.2a2.573,2.573,0,0,0-2.576,2.573Z" transform="translate(-604.014 -1510.08)"/>
    <path id="Path_1970" data-name="Path 1970" class="cls-10" d="M1073.52,1828.293h22.509a2.581,2.581,0,0,0-2.573-2.573H1076.1a2.573,2.573,0,0,0-2.576,2.573Z" transform="translate(-746.151 -1510.08)"/>
    <rect id="Rectangle_2862" data-name="Rectangle 2862" class="cls-12" width="42.937" height="0.641" transform="translate(350.275 296.902) rotate(180)"/>
    <rect id="Rectangle_2863" data-name="Rectangle 2863" class="cls-13" width="54.415" height="14.299" rx="7.149" transform="translate(381.371 261.299)"/>
    <path id="Path_1971" data-name="Path 1971" class="cls-14" d="M1568.762,1460.823v1.487a3.074,3.074,0,0,1-3.062,3.063h-48.287a3.074,3.074,0,0,1-3.063-3.063v-1.61h53.535a3.2,3.2,0,0,1,.878.123Z" transform="translate(-1132.977 -1189.777)"/>
    <path id="Path_1972" data-name="Path 1972" class="cls-15" d="M1521.864,1498.316l-2.176,8.245h0l-9.065,34.312h-.953l5.237-28.467a.474.474,0,0,1,.018-.087l2.59-14.078Z" transform="translate(-1128.87 -1222.719)"/>
    <path id="Path_1973" data-name="Path 1973" class="cls-16" d="M1559.535,1498.316l-2.176,8.245h0c-.123.061-4.088,2.11-4.759,5.758l2.59-14.078Z" transform="translate(-1166.541 -1222.719)"/>
    <path id="Path_1974" data-name="Path 1974" class="cls-15" d="M1871.191,1540.945h-.952l-7.383-27.951h0l-1.678-6.356h0l-2.177-8.245,4.348-.073,1.482,8.05,1.1,6.029a.5.5,0,0,0,.017.087Z" transform="translate(-1435.405 -1222.789)"/>
    <path id="Path_1975" data-name="Path 1975" class="cls-15" d="M1838.178,1586.755a.014.014,0,0,1-.016-.01C1838.142,1586.707,1838.148,1586.716,1838.178,1586.755Z" transform="translate(-1417.11 -1300.36)"/>
    <path id="Path_1976" data-name="Path 1976" class="cls-16" d="M1864.828,1506.357a12,12,0,0,0-1.972,6.626l-1.678-6.355h0l-2.177-8.245,4.348-.073Z" transform="translate(-1435.405 -1222.78)"/>
    <path id="Path_1977" data-name="Path 1977" class="cls-17" d="M657.274,158.629a80.292,80.292,0,0,1-5.828,17.725c-.114.245-.23.49-.349.726-.059.122-.122.245-.179.368q-.227.458-.459.908-.122.245-.245.483c-.151.289-.305.576-.461.858s-.316.573-.478.858q-.415.735-.85,1.452c-.055.092-.11.184-.168.274-.151.245-.3.49-.459.735-.058.094-.122.189-.179.282q-.227.355-.459.7c-.082.122-.167.245-.245.375q-.227.338-.459.67h0q-.122.18-.254.36h0a.308.308,0,0,1-.026.034q-.224.322-.459.637c-.058.082-.123.164-.179.245q-.228.309-.459.613c-.082.109-.165.217-.245.325-.151.2-.3.392-.461.587s-.321.4-.49.6-.3.368-.459.551q-.169.2-.343.4a.3.3,0,0,1-.027.032l-.064.074c-.151.175-.3.348-.459.521q-.5.564-1.022,1.11-.227.245-.459.478c-.358.368-.724.735-1.1,1.089q-.228.222-.461.439c-.267.252-.539.5-.812.746l-.009.007c-.156.14-.314.279-.472.417s-.305.266-.459.394q-1.246,1.062-2.564,2.032-.228.172-.459.336-.943.679-1.921,1.31-.483.314-.98.613-1.066.654-2.173,1.254-.849.461-1.715.889-1.322.648-2.7,1.225-.228.1-.459.191-.4.163-.806.32-.587.228-1.181.442-1.317.477-2.684.884c-.322.1-.647.191-.973.282q-1.882.529-3.849.933-1.506.311-3.063.548a66.958,66.958,0,0,1-7.42.709c-.418.018-.839.032-1.262.042q-.925.024-1.866.023-1.131,0-2.272-.026a105.108,105.108,0,0,1-19.4-2.249q-.724-.154-1.444-.319a81.437,81.437,0,0,1-16.086-5.39c-.122-.058-.245-.116-.375-.175q-1.867-.88-3.629-1.86c-13.041-7.225-21.26-18.481-17.67-33.982,5.576-24.083,39.236-49.868,69.3-56.192C654.022,97.3,664.037,126.737,657.274,158.629Z" transform="translate(-277.942 0)"/>
    <path id="Path_1978" data-name="Path 1978" class="cls-18" d="M1106.143,868.58q-.483.314-.98.613-1.066.654-2.173,1.254-.849.461-1.715.889-1.322.648-2.695,1.225-.228.1-.459.191-.4.163-.806.32h-16.95a.965.965,0,0,1-.451-.11.98.98,0,0,1-.523-.773v-2.682a.98.98,0,0,1,.98-.927Z" transform="translate(-751.302 -670.196)"/>
    <path id="Path_1979" data-name="Path 1979" class="cls-19" d="M1232.709,868.58v3.984q-.228.1-.459.191V868.58Z" transform="translate(-885.436 -670.196)"/>
    <rect id="Rectangle_2864" data-name="Rectangle 2864" class="cls-19" width="0.459" height="4.496" transform="translate(342.941 198.384)"/>
    <path id="Path_1980" data-name="Path 1980" class="cls-7" d="M1118.924,831.88l-.009.007c-.156.14-.314.279-.472.417s-.3.266-.459.394q-1.246,1.062-2.564,2.032-.228.171-.459.336-.943.679-1.921,1.31h-24.81a.98.98,0,0,1-.98-.929v-2.639a.98.98,0,0,1,.858-.921.913.913,0,0,1,.122-.007Z" transform="translate(-758.199 -637.992)"/>
    <path id="Path_1981" data-name="Path 1981" class="cls-19" d="M1338.589,831.88v.424c-.152.134-.305.266-.459.394v-.818Z" transform="translate(-978.345 -637.992)"/>
    <path id="Path_1982" data-name="Path 1982" class="cls-19" d="M1313.909,831.88v2.851q-.228.172-.459.336v-3.185Z" transform="translate(-956.688 -637.992)"/>
    <rect id="Rectangle_2865" data-name="Rectangle 2865" class="cls-19" width="0.459" height="4.496" transform="translate(352.126 193.888)"/>
    <rect id="Rectangle_2866" data-name="Rectangle 2866" class="cls-19" width="0.459" height="4.496" transform="translate(347.786 193.888)"/>
    <rect id="Rectangle_2867" data-name="Rectangle 2867" class="cls-19" width="0.459" height="4.496" transform="translate(343.91 193.888)"/>
    <path id="Path_1983" data-name="Path 1983" class="cls-7" d="M1100.492,795.25v1.736q.522-.545,1.022-1.11v-.626Zm0,0v1.736q.522-.545,1.022-1.11c.156-.173.309-.345.459-.521l.064-.074a.291.291,0,0,0,.027-.032Zm0,0v1.736q.522-.545,1.022-1.11c.156-.173.309-.345.459-.521l.064-.074a.291.291,0,0,0,.027-.032Zm0,0v1.736q.522-.545,1.022-1.11c.156-.173.309-.345.459-.521l.064-.074a.291.291,0,0,0,.027-.032Zm0,0v1.736q.522-.545,1.022-1.11c.156-.173.309-.345.459-.521l.064-.074a.291.291,0,0,0,.027-.032Zm0,0v1.736q.522-.545,1.022-1.11c.156-.173.309-.345.459-.521l.064-.074a.291.291,0,0,0,.027-.032Zm0,0v1.736q.522-.545,1.022-1.11v-.626Zm-36.495,0a.941.941,0,0,0-.212.023h-.029a.98.98,0,0,0-.723.779c0,.026-.007.051-.01.078v2.691a.62.62,0,0,0,0,.067,1.164,1.164,0,0,0,.026.131.98.98,0,0,0,.946.735h33.658l.009-.007c.273-.245.545-.49.812-.746q.233-.217.461-.439c.367-.355.735-.719,1.1-1.089q.233-.238.459-.478.522-.545,1.022-1.11c.156-.173.309-.345.459-.521l.064-.073a.3.3,0,0,0,.027-.032Z" transform="translate(-736.939 -605.849)"/>
    <path id="Path_1984" data-name="Path 1984" class="cls-19" d="M1085.541,799.789h-21.669a.928.928,0,0,1-.872-.929v-2.679a.955.955,0,0,1,.679-.858l.037-.009a.8.8,0,0,1,.154-.015h19a.052.052,0,0,0,.007.032,8.044,8.044,0,0,0,2.644,4.456Z" transform="translate(-736.92 -605.893)"/>
    <path id="Path_1985" data-name="Path 1985" class="cls-19" d="M1365.589,795.25v1.736q-.227.245-.459.478V795.25Z" transform="translate(-1002.037 -605.849)"/>
    <path id="Path_1986" data-name="Path 1986" class="cls-19" d="M1352.891,795.25v3.308q-.228.222-.461.439V795.25Z" transform="translate(-990.893 -605.849)"/>
    <rect id="Rectangle_2868" data-name="Rectangle 2868" class="cls-19" width="0.459" height="4.496" transform="translate(359.673 189.401)"/>
    <rect id="Rectangle_2869" data-name="Rectangle 2869" class="cls-19" width="0.459" height="4.496" transform="translate(356.812 189.401)"/>
    <rect id="Rectangle_2870" data-name="Rectangle 2870" class="cls-19" width="0.459" height="4.496" transform="translate(353.789 189.401)"/>
    <rect id="Rectangle_2871" data-name="Rectangle 2871" class="cls-19" width="0.459" height="4.496" transform="translate(349.153 189.401)"/>
    <rect id="Rectangle_2872" data-name="Rectangle 2872" class="cls-19" width="0.459" height="4.496" transform="translate(344.813 189.401)"/>
    <rect id="Rectangle_2873" data-name="Rectangle 2873" class="cls-19" width="0.459" height="4.496" transform="translate(340.937 189.401)"/>
    <path id="Path_1987" data-name="Path 1987" class="cls-19" d="M1377.709,795.25v.105c-.151.175-.3.348-.459.521v-.626Z" transform="translate(-1012.672 -605.849)"/>
    <path id="Path_1988" data-name="Path 1988" class="cls-7" d="M1101.394,758.921v-.112h-.148v4.464h.175q.175-.2.343-.4.233-.274.459-.551v-3.4Zm3.124.321a1.086,1.086,0,0,0-.088-.112l-.009-.009-.007-.009-.023-.023-.032-.029-.032-.028c-.022-.018-.045-.036-.07-.053a.819.819,0,0,0-.1-.059h0l-.048-.024-.024-.011-.026-.01a.9.9,0,0,0-.179-.05h-.1a.726.726,0,0,0-.075,0H1063.27a.98.98,0,0,0-.98.929v2.639a.412.412,0,0,0,.007.088.98.98,0,0,0,.8.823l.048.009a1.082,1.082,0,0,0,.122.009h38.124a.321.321,0,0,0,.027-.032q.175-.2.343-.4.233-.274.459-.551c.164-.2.326-.4.49-.6s.31-.39.461-.587c.086-.108.169-.216.245-.325q.231-.3.459-.613c.061-.081.122-.163.179-.245q.235-.316.459-.637a.322.322,0,0,0,.026-.034h0Zm-3.124-.321v-.112h-.148v4.464h.175q.175-.2.343-.4.233-.274.459-.551v-3.4Z" transform="translate(-736.297 -573.873)"/>
    <path id="Path_1989" data-name="Path 1989" class="cls-19" d="M1084.846,763.306h-21.715a.416.416,0,0,1-.055,0,.942.942,0,0,1-.766-.92v-2.647a.927.927,0,0,1,.872-.929h19l.026.112a8.035,8.035,0,0,0,2.6,4.353Z" transform="translate(-736.314 -573.873)"/>
    <rect id="Rectangle_2874" data-name="Rectangle 2874" class="cls-19" width="0.459" height="4.495" transform="translate(363.009 184.937)"/>
    <rect id="Rectangle_2875" data-name="Rectangle 2875" class="cls-19" width="0.459" height="4.495" transform="translate(361.453 184.937)"/>
    <rect id="Rectangle_2876" data-name="Rectangle 2876" class="cls-19" width="0.459" height="4.495" transform="translate(359.587 184.937)"/>
    <rect id="Rectangle_2877" data-name="Rectangle 2877" class="cls-19" width="0.459" height="4.495" transform="translate(356.728 184.937)"/>
    <rect id="Rectangle_2878" data-name="Rectangle 2878" class="cls-19" width="0.459" height="4.495" transform="translate(353.704 184.937)"/>
    <rect id="Rectangle_2879" data-name="Rectangle 2879" class="cls-19" width="0.459" height="4.495" transform="translate(349.069 184.937)"/>
    <rect id="Rectangle_2880" data-name="Rectangle 2880" class="cls-19" width="0.459" height="4.495" transform="translate(344.728 184.937)"/>
    <rect id="Rectangle_2881" data-name="Rectangle 2881" class="cls-19" width="0.459" height="4.495" transform="translate(340.852 184.937)"/>
    <rect id="Rectangle_2882" data-name="Rectangle 2882" class="cls-19" width="0.459" height="4.495" transform="translate(364.49 184.937)"/>
    <path id="Path_1990" data-name="Path 1990" class="cls-19" d="M1384.969,758.81v3.512q-.227.277-.459.551V758.81Z" transform="translate(-1019.043 -573.873)"/>
    <path id="Path_1991" data-name="Path 1991" class="cls-19" d="M1392.7,758.81v2.328c-.151.2-.3.392-.461.587V758.81Z" transform="translate(-1025.826 -573.873)"/>
    <path id="Path_1992" data-name="Path 1992" class="cls-19" d="M1398.49,758.819v1.373q-.228.309-.459.612v-2h.287a.726.726,0,0,1,.075,0h.085Z" transform="translate(-1030.906 -573.866)"/>
    <path id="Path_1993" data-name="Path 1993" class="cls-7" d="M1121.78,724.041v.473c-.055.092-.11.184-.168.274-.151.245-.3.49-.459.735-.058.094-.123.189-.179.282q-.227.355-.459.7c-.082.122-.167.245-.245.375q-.227.338-.459.67h-39.446a.98.98,0,0,1-.9-.605.928.928,0,0,1-.071-.279v-2.678a.959.959,0,0,1,.075-.319.98.98,0,0,1,.9-.6H1120.8a.886.886,0,0,1,.173.016.863.863,0,0,1,.179.05.981.981,0,0,1,.459.367A.961.961,0,0,1,1121.78,724.041Z" transform="translate(-751.302 -542.511)"/>
    <path id="Path_1994" data-name="Path 1994" class="cls-19" d="M1101.922,727.516h-21.664a.791.791,0,0,1-.4-.111.987.987,0,0,1-.467-.773v-2.683a.928.928,0,0,1,.872-.929h19a8.1,8.1,0,0,0,2.527,4.384Z" transform="translate(-751.302 -542.467)"/>
    <rect id="Rectangle_2883" data-name="Rectangle 2883" class="cls-19" width="0.459" height="4.496" transform="translate(365.097 180.552)"/>
    <rect id="Rectangle_2884" data-name="Rectangle 2884" class="cls-19" width="0.459" height="4.496" transform="translate(363.541 180.552)"/>
    <rect id="Rectangle_2885" data-name="Rectangle 2885" class="cls-19" width="0.459" height="4.496" transform="translate(361.677 180.552)"/>
    <rect id="Rectangle_2886" data-name="Rectangle 2886" class="cls-19" width="0.459" height="4.496" transform="translate(358.816 180.552)"/>
    <rect id="Rectangle_2887" data-name="Rectangle 2887" class="cls-19" width="0.459" height="4.496" transform="translate(355.793 180.552)"/>
    <rect id="Rectangle_2888" data-name="Rectangle 2888" class="cls-19" width="0.459" height="4.496" transform="translate(351.157 180.552)"/>
    <rect id="Rectangle_2889" data-name="Rectangle 2889" class="cls-19" width="0.459" height="4.496" transform="translate(346.817 180.552)"/>
    <rect id="Rectangle_2890" data-name="Rectangle 2890" class="cls-19" width="0.459" height="4.496" transform="translate(342.941 180.552)"/>
    <rect id="Rectangle_2891" data-name="Rectangle 2891" class="cls-19" width="0.459" height="4.496" transform="translate(366.578 180.552)"/>
    <rect id="Rectangle_2892" data-name="Rectangle 2892" class="cls-19" width="0.459" height="4.496" transform="translate(367.557 180.552)"/>
    <path id="Path_1995" data-name="Path 1995" class="cls-19" d="M1409.709,723v3.823q-.227.338-.459.67V723Z" transform="translate(-1040.752 -542.45)"/>
    <path id="Path_1996" data-name="Path 1996" class="cls-19" d="M1415.539,723.018v2.728q-.227.355-.459.7V723h.287A.884.884,0,0,1,1415.539,723.018Z" transform="translate(-1045.868 -542.45)"/>
    <path id="Path_1997" data-name="Path 1997" class="cls-19" d="M1420.709,723.926v1.294c-.151.245-.3.49-.459.735V723.56A.981.981,0,0,1,1420.709,723.926Z" transform="translate(-1050.404 -542.941)"/>
    <path id="Path_1998" data-name="Path 1998" class="cls-7" d="M1148.508,686.618c-.114.245-.23.49-.349.726-.059.123-.123.245-.179.368q-.227.458-.459.908-.122.245-.245.483c-.151.289-.305.576-.461.858s-.316.573-.478.858H1107.38a.98.98,0,0,1-.98-.929v-2.64a.98.98,0,0,1,.858-.921.914.914,0,0,1,.123-.007h40.427a.99.99,0,0,1,.352.066l.051.022a.258.258,0,0,1,.037.018.675.675,0,0,1,.1.058l.04.028.013.01.031.025A.865.865,0,0,1,1148.508,686.618Z" transform="translate(-775.003 -510.263)"/>
    <path id="Path_1999" data-name="Path 1999" class="cls-19" d="M1128.876,690.814h-21.664a.927.927,0,0,1-.872-.929v-2.636a.944.944,0,0,1,.769-.921.688.688,0,0,1,.1-.007h19a.018.018,0,0,1,0,.007A8.051,8.051,0,0,0,1128.876,690.814Z" transform="translate(-774.95 -510.264)"/>
    <rect id="Rectangle_2893" data-name="Rectangle 2893" class="cls-19" width="0.459" height="4.496" transform="translate(368.402 176.058)"/>
    <rect id="Rectangle_2894" data-name="Rectangle 2894" class="cls-19" width="0.459" height="4.496" transform="translate(366.847 176.058)"/>
    <rect id="Rectangle_2895" data-name="Rectangle 2895" class="cls-19" width="0.459" height="4.496" transform="translate(364.981 176.058)"/>
    <rect id="Rectangle_2896" data-name="Rectangle 2896" class="cls-19" width="0.459" height="4.496" transform="translate(362.122 176.058)"/>
    <rect id="Rectangle_2897" data-name="Rectangle 2897" class="cls-19" width="0.459" height="4.496" transform="translate(359.098 176.058)"/>
    <rect id="Rectangle_2898" data-name="Rectangle 2898" class="cls-19" width="0.459" height="4.496" transform="translate(354.463 176.058)"/>
    <rect id="Rectangle_2899" data-name="Rectangle 2899" class="cls-19" width="0.459" height="4.496" transform="translate(350.122 176.058)"/>
    <rect id="Rectangle_2900" data-name="Rectangle 2900" class="cls-19" width="0.459" height="4.496" transform="translate(346.246 176.058)"/>
    <rect id="Rectangle_2901" data-name="Rectangle 2901" class="cls-19" width="0.459" height="4.496" transform="translate(369.884 176.058)"/>
    <rect id="Rectangle_2902" data-name="Rectangle 2902" class="cls-19" width="0.459" height="4.496" transform="translate(370.861 176.058)"/>
    <path id="Path_2000" data-name="Path 2000" class="cls-19" d="M1436.7,686.3v2.777c-.151.289-.305.576-.461.858V686.3Z" transform="translate(-1064.436 -510.246)"/>
    <path id="Path_2001" data-name="Path 2001" class="cls-19" d="M1442.52,686.336v1.373q-.227.458-.459.908v-2.3h.287A1,1,0,0,1,1442.52,686.336Z" transform="translate(-1069.543 -510.264)"/>
    <path id="Path_2002" data-name="Path 2002" class="cls-19" d="M1447.619,687.091c-.114.245-.23.49-.349.727v-.958l.052.022a.258.258,0,0,1,.037.018.688.688,0,0,1,.1.058l.04.028.014.01.031.025a.841.841,0,0,1,.077.071Z" transform="translate(-1074.114 -510.737)"/>
    <path id="Path_2003" data-name="Path 2003" class="cls-7" d="M1105.393,650.668v2.539a.96.96,0,0,1-.168.545.979.979,0,0,1-.459.368.823.823,0,0,1-.179.05.454.454,0,0,1-.056.009H1063.98a.98.98,0,0,1-.98-.927v-2.634a.98.98,0,0,1,.98-.927h40.49a.857.857,0,0,1,.123.013,1,1,0,0,1,.179.05l.086.038.05.027h0l.049.031.009.006a.471.471,0,0,1,.044.032.9.9,0,0,1,.1.084c.01.01.018.02.028.028h0l.016.018h0a.374.374,0,0,1,.028.036c.013.017.027.034.039.053A.967.967,0,0,1,1105.393,650.668Z" transform="translate(-736.92 -478.121)"/>
    <path id="Path_2004" data-name="Path 2004" class="cls-19" d="M1085.541,654.185h-21.669a.928.928,0,0,1-.872-.927v-2.64a.928.928,0,0,1,.872-.927h19c.007.033.015.069.024.1a8.007,8.007,0,0,0,2.626,4.384Z" transform="translate(-736.92 -478.121)"/>
    <rect id="Rectangle_2903" data-name="Rectangle 2903" class="cls-19" width="0.459" height="4.496" transform="translate(363.093 171.569)"/>
    <rect id="Rectangle_2904" data-name="Rectangle 2904" class="cls-19" width="0.459" height="4.496" transform="translate(361.537 171.569)"/>
    <rect id="Rectangle_2905" data-name="Rectangle 2905" class="cls-19" width="0.459" height="4.496" transform="translate(359.673 171.569)"/>
    <rect id="Rectangle_2906" data-name="Rectangle 2906" class="cls-19" width="0.459" height="4.496" transform="translate(356.812 171.569)"/>
    <rect id="Rectangle_2907" data-name="Rectangle 2907" class="cls-19" width="0.459" height="4.496" transform="translate(353.789 171.569)"/>
    <rect id="Rectangle_2908" data-name="Rectangle 2908" class="cls-19" width="0.459" height="4.496" transform="translate(349.153 171.569)"/>
    <rect id="Rectangle_2909" data-name="Rectangle 2909" class="cls-19" width="0.459" height="4.496" transform="translate(344.813 171.569)"/>
    <rect id="Rectangle_2910" data-name="Rectangle 2910" class="cls-19" width="0.459" height="4.496" transform="translate(340.937 171.569)"/>
    <rect id="Rectangle_2911" data-name="Rectangle 2911" class="cls-19" width="0.459" height="4.496" transform="translate(364.574 171.569)"/>
    <rect id="Rectangle_2912" data-name="Rectangle 2912" class="cls-19" width="0.459" height="4.496" transform="translate(365.553 171.569)"/>
    <rect id="Rectangle_2913" data-name="Rectangle 2913" class="cls-19" width="0.459" height="4.496" transform="translate(366.497 171.569)"/>
    <path id="Path_2005" data-name="Path 2005" class="cls-19" d="M1399.179,649.7v4.464a.9.9,0,0,1-.173.016h-.287V649.69h.287A1.008,1.008,0,0,1,1399.179,649.7Z" transform="translate(-1031.512 -478.121)"/>
    <path id="Path_2006" data-name="Path 2006" class="cls-19" d="M1404.389,650.586v3.631a.98.98,0,0,1-.459.367V650.22A1,1,0,0,1,1404.389,650.586Z" transform="translate(-1036.084 -478.586)"/>
    <path id="Path_2007" data-name="Path 2007" class="cls-7" d="M1129.681,614.817v2.539a.966.966,0,0,1-.8.962,1,1,0,0,1-.173.015h-40.443a.972.972,0,0,1-.437-.1.986.986,0,0,1-.538-.784v-2.679a.98.98,0,0,1,.858-.92.914.914,0,0,1,.123-.007h40.437a.9.9,0,0,1,.173.016.83.83,0,0,1,.179.05.98.98,0,0,1,.459.367A.97.97,0,0,1,1129.681,614.817Z" transform="translate(-758.234 -446.663)"/>
    <path id="Path_2008" data-name="Path 2008" class="cls-19" d="M1109.824,618.335H1088.16a.79.79,0,0,1-.39-.1.992.992,0,0,1-.48-.784v-2.68a.943.943,0,0,1,.769-.92.7.7,0,0,1,.1-.007h19v.007a8.128,8.128,0,0,0,2.533,4.384A1.6,1.6,0,0,0,1109.824,618.335Z" transform="translate(-758.234 -446.663)"/>
    <rect id="Rectangle_2914" data-name="Rectangle 2914" class="cls-19" width="0.459" height="4.495" transform="translate(366.066 167.177)"/>
    <rect id="Rectangle_2915" data-name="Rectangle 2915" class="cls-19" width="0.459" height="4.495" transform="translate(364.51 167.177)"/>
    <rect id="Rectangle_2916" data-name="Rectangle 2916" class="cls-19" width="0.459" height="4.495" transform="translate(362.645 167.177)"/>
    <rect id="Rectangle_2917" data-name="Rectangle 2917" class="cls-19" width="0.459" height="4.495" transform="translate(359.785 167.177)"/>
    <rect id="Rectangle_2918" data-name="Rectangle 2918" class="cls-19" width="0.459" height="4.495" transform="translate(356.762 167.177)"/>
    <rect id="Rectangle_2919" data-name="Rectangle 2919" class="cls-19" width="0.459" height="4.495" transform="translate(352.126 167.177)"/>
    <rect id="Rectangle_2920" data-name="Rectangle 2920" class="cls-19" width="0.459" height="4.495" transform="translate(347.786 167.177)"/>
    <rect id="Rectangle_2921" data-name="Rectangle 2921" class="cls-19" width="0.459" height="4.495" transform="translate(343.91 167.177)"/>
    <rect id="Rectangle_2922" data-name="Rectangle 2922" class="cls-19" width="0.459" height="4.495" transform="translate(367.547 167.177)"/>
    <rect id="Rectangle_2923" data-name="Rectangle 2923" class="cls-19" width="0.459" height="4.495" transform="translate(368.525 167.177)"/>
    <rect id="Rectangle_2924" data-name="Rectangle 2924" class="cls-19" width="0.459" height="4.495" transform="translate(369.471 167.177)"/>
    <path id="Path_2009" data-name="Path 2009" class="cls-19" d="M1423.458,613.86v4.459a.892.892,0,0,1-.173.016H1423V613.84h.287A.9.9,0,0,1,1423.458,613.86Z" transform="translate(-1052.818 -446.663)"/>
    <path id="Path_2010" data-name="Path 2010" class="cls-19" d="M1428.709,614.745v3.631a.979.979,0,0,1-.459.367V614.38A.98.98,0,0,1,1428.709,614.745Z" transform="translate(-1057.424 -447.137)"/>
    <path id="Path_2011" data-name="Path 2011" class="cls-7" d="M1105.393,578.179v2.538a.967.967,0,0,1-.168.546.98.98,0,0,1-.638.417l-.056.009H1063.98a.98.98,0,0,1-.98-.929v-2.631a.98.98,0,0,1,.98-.929h40.437a.98.98,0,0,1,.811.434A.964.964,0,0,1,1105.393,578.179Z" transform="translate(-736.92 -414.511)"/>
    <path id="Path_2012" data-name="Path 2012" class="cls-19" d="M1085.541,581.7h-21.669a.929.929,0,0,1-.872-.929v-2.639a.928.928,0,0,1,.872-.929h19a8.049,8.049,0,0,0,2.651,4.489Z" transform="translate(-736.92 -414.511)"/>
    <rect id="Rectangle_2925" data-name="Rectangle 2925" class="cls-19" width="0.459" height="4.496" transform="translate(363.093 162.689)"/>
    <rect id="Rectangle_2926" data-name="Rectangle 2926" class="cls-19" width="0.459" height="4.496" transform="translate(361.537 162.689)"/>
    <rect id="Rectangle_2927" data-name="Rectangle 2927" class="cls-19" width="0.459" height="4.496" transform="translate(359.673 162.689)"/>
    <rect id="Rectangle_2928" data-name="Rectangle 2928" class="cls-19" width="0.459" height="4.496" transform="translate(356.812 162.689)"/>
    <rect id="Rectangle_2929" data-name="Rectangle 2929" class="cls-19" width="0.459" height="4.496" transform="translate(353.789 162.689)"/>
    <rect id="Rectangle_2930" data-name="Rectangle 2930" class="cls-19" width="0.459" height="4.496" transform="translate(349.153 162.689)"/>
    <rect id="Rectangle_2931" data-name="Rectangle 2931" class="cls-19" width="0.459" height="4.496" transform="translate(344.813 162.689)"/>
    <rect id="Rectangle_2932" data-name="Rectangle 2932" class="cls-19" width="0.459" height="4.496" transform="translate(340.937 162.689)"/>
    <rect id="Rectangle_2933" data-name="Rectangle 2933" class="cls-19" width="0.459" height="4.496" transform="translate(364.574 162.689)"/>
    <rect id="Rectangle_2934" data-name="Rectangle 2934" class="cls-19" width="0.459" height="4.496" transform="translate(365.553 162.689)"/>
    <rect id="Rectangle_2935" data-name="Rectangle 2935" class="cls-19" width="0.459" height="4.496" transform="translate(366.497 162.689)"/>
    <path id="Path_2013" data-name="Path 2013" class="cls-19" d="M1399.179,577.216v4.464a1,1,0,0,1-.173.016h-.287v-4.5h.287A.893.893,0,0,1,1399.179,577.216Z" transform="translate(-1031.512 -414.511)"/>
    <path id="Path_2014" data-name="Path 2014" class="cls-19" d="M1404.389,578.106v3.631a1,1,0,0,1-.459.367V577.74A.979.979,0,0,1,1404.389,578.106Z" transform="translate(-1036.084 -414.985)"/>
    <path id="Path_2015" data-name="Path 2015" class="cls-20" d="M1105.675,343.385l-19.667-21.949a3.461,3.461,0,0,0-6.038,2.309v55.308s25.705,3.565,25.705,0Z" transform="translate(-751.811 -189.063)"/>
    <path id="Path_2016" data-name="Path 2016" class="cls-8" d="M1005.7,405.62l8.612-1.1a45.478,45.478,0,0,1,.507-12.48,43.792,43.792,0,0,1,6.976-17.55c7-10.131,28.758-16.538,28.758-16.538l-.053-1.272-.794-.054a3.176,3.176,0,0,1,.774-.408l-.125-3a10.584,10.584,0,0,0-2.489.348,17.206,17.206,0,0,1,2.481-.552l-.065-1.58c-31.817,2.168-41.407,21.837-44.051,36.862A59.539,59.539,0,0,0,1005.7,405.62Z" transform="translate(-686.296 -216.399)"/>
    <path id="Path_2017" data-name="Path 2017" class="cls-9" d="M698.73,318.48l37.946,1.234a62.714,62.714,0,0,1,2.508-16.553,77.746,77.746,0,0,1,2.579-7.8c10.29-25.266,39.5-29.839,39.5-29.839L748.133,253.53c-15.681,1.838-26.412,9.848-33.741,19.655C700.043,292.394,698.73,318.48,698.73,318.48Z" transform="translate(-417.275 -130.493)"/>
    <path id="Path_2018" data-name="Path 2018" class="cls-21" d="M698.73,459.292l37.946,1.234,8.612-1.1a45.476,45.476,0,0,1,.507-12.48,51.4,51.4,0,0,0-6.615-2.973q-1.014-.38-1.975-.775c-24.543-10.12-23.014-27.53-22.808-29.194C700.043,433.205,698.73,459.292,698.73,459.292Z" transform="translate(-417.275 -271.304)"/>
    <path id="Path_2019" data-name="Path 2019" class="cls-8" d="M765.233,269.37h-.1c-.285,0-7.066.183-15.608,4.663a49.032,49.032,0,0,0-13.557,10.605,56.384,56.384,0,0,0-4.376,5.513,64.724,64.724,0,0,0-4.288,7.067q-1.039,1.978-1.981,4.081c-.055.122-.111.245-.165.375q-.713,1.617-1.367,3.3a100.329,100.329,0,0,0-4.461,14.578c-.16.756-.3,1.513-.431,2.265-.087.51-.164,1.017-.232,1.518a31.224,31.224,0,0,0-.293,3.723c-.009.621.009,1.225.055,1.795v.01l.3,2.977.064.638.094.949.1.965.034.343.044.441,24.037-1.46,1.985-.122.229-.013,1.3-.08,1.3-.078h0l4.83-.294-.146-.643a44.775,44.775,0,0,1,.273-16.869c.045-.225.093-.451.143-.679q.225-1.04.515-2.108c.148-.549.309-1.1.49-1.661q.281-.9.6-1.773c.026-.071.051-.143.078-.214a41.937,41.937,0,0,1,3.635-7.5c.077-.122.156-.251.234-.376a42.193,42.193,0,0,1,2.923-4.087q.573-.712,1.183-1.4,1.011-1.15,2.114-2.241,1.377-1.362,2.895-2.631l.013-.011a54.189,54.189,0,0,1,8.518-5.79c.263-.147.53-.292.8-.435h.007a74.265,74.265,0,0,1,13.319-5.441l1.638-.5Zm20.227,10.34a70.239,70.239,0,0,0-10.02,4.571,52.772,52.772,0,0,0-11.471,8.515q-.666.662-1.3,1.348-1.388,1.488-2.617,3.075a43.12,43.12,0,0,0-6.881,12.919c-.058.168-.111.337-.164.506-.027.08-.053.159-.077.245-.336,1.076-.622,2.135-.864,3.172q-.122.545-.239,1.082h0c-.087.415-.167.824-.245,1.231a48.852,48.852,0,0,0-.756,9.854,40.3,40.3,0,0,0,.55,5.864l-4.927.3-1.295.078-.277.017-1.942.122-7.073.419h-.009l-15.781.958-.147-1.47-.372-3.765q-.065-.79-.05-1.7a39.627,39.627,0,0,1,.989-7.506c.376-1.746.858-3.625,1.443-5.619,1.394-4.753,2.889-8.506,2.9-8.542q.735-1.9,1.55-3.708.074-.165.151-.331.967-2.13,2.041-4.132,1.5-2.8,3.2-5.349a55.905,55.905,0,0,1,4.993-6.436,47.845,47.845,0,0,1,13.222-10.369,41.271,41.271,0,0,1,12.679-4.3,8.739,8.739,0,0,1,4.241.388l18.535,6.505a1.092,1.092,0,0,1,.01,2.054Z" transform="translate(-434.511 -144.392)"/>
    <path id="Path_2020" data-name="Path 2020" class="cls-8" d="M858.953,417.106c.229,5.554,3.621,8.775,9.176,8.546s11.166-3.823,10.936-9.377-3.442-8.749-9-8.519S858.724,411.553,858.953,417.106Z" transform="translate(-557.864 -265.815)"/>
    <path id="Path_2021" data-name="Path 2021" class="cls-7" d="M764.348,498.151V542.83q-1.066.654-2.173,1.254-.849.461-1.715.889-1.322.648-2.7,1.225-.228.1-.459.191-.4.163-.806.32-.587.228-1.181.442-1.317.477-2.684.885c-.322.1-.647.191-.973.282q-1.882.529-3.849.933a20.053,20.053,0,0,1-3.063.548,66.939,66.939,0,0,1-7.42.709c-.418.018-.839.032-1.262.042q-.925.025-1.866.023-1.131,0-2.273-.026a105.1,105.1,0,0,1-19.4-2.249q-.724-.154-1.444-.318a81.44,81.44,0,0,1-16.086-5.39c-.122-.058-.245-.116-.375-.175q-1.867-.88-3.629-1.86v-42.4a1.5,1.5,0,0,1,1.5-1.5H762.85a1.05,1.05,0,0,1,.165.009,1.508,1.508,0,0,1,1.333,1.492Z" transform="translate(-410.483 -343.829)"/>
    <path id="Path_2022" data-name="Path 2022" class="cls-22" d="M723.34,529.934h-1.247a.189.189,0,0,0,0,.376h1.251a.189.189,0,0,0,0-.376Zm2.5,0h-1.251a.189.189,0,0,0,0,.376h1.251a.189.189,0,1,0,0-.376Zm2.623.045a.185.185,0,0,0-.123-.045h-1.248a.187.187,0,1,0-.007.375h1.254a.189.189,0,0,0,.188-.189.18.18,0,0,0-.065-.14Zm2.381-.045h-1.251a.189.189,0,0,0,0,.376h1.251a.189.189,0,0,0,0-.376Zm2.5,0H732.1a.189.189,0,0,0,0,.376h1.251a.189.189,0,0,0,0-.376Zm2.5,0H734.6a.189.189,0,0,0,0,.376h1.251a.189.189,0,0,0,0-.376Zm2.5,0H737.1a.189.189,0,0,0,0,.376h1.251a.189.189,0,1,0,0-.376Zm2.5,0H739.6a.188.188,0,0,0,0,.376h1.252a.189.189,0,0,0,0-.376Zm2.5,0H742.1a.189.189,0,0,0,0,.376h1.251a.189.189,0,0,0,0-.376Zm2.5,0h-1.253a.189.189,0,0,0,0,.376h1.253a.189.189,0,0,0,0-.376Zm2.5,0h-1.253a.189.189,0,0,0,0,.376h1.251a.189.189,0,0,0,0-.376Zm2.5,0h-1.253a.189.189,0,0,0,0,.376h1.251a.189.189,0,1,0,0-.376Zm2.5,0h-1.258a.189.189,0,0,0,0,.376h1.252a.189.189,0,0,0,0-.376Zm2.5,0h-1.253a.187.187,0,0,0-.187.17h0a.069.069,0,0,0,0,.016.189.189,0,0,0,.189.189h1.251a.189.189,0,0,0,0-.376Zm2.5,0h-1.251a.189.189,0,0,0,0,.376h1.251a.189.189,0,0,0,0-.376Zm2.5,0h-1.253a.189.189,0,0,0,0,.376h1.251a.189.189,0,0,0,0-.376Zm2.5,0H762.12a.189.189,0,0,0,0,.376h1.251a.189.189,0,0,0,0-.376Zm2.5,0h-1.251a.06.06,0,0,0-.021,0,.186.186,0,0,0,0,.367.063.063,0,0,0,.021,0h1.251a.189.189,0,1,0,0-.376Zm2.5,0h-1.251a.189.189,0,1,0,0,.376h1.251a.189.189,0,0,0,0-.376Zm2.5,0h-1.252a.189.189,0,0,0,0,.376h1.251a.189.189,0,0,0,0-.376Zm2.5,0h-1.251a.189.189,0,0,0,0,.376h1.251a.189.189,0,0,0,0-.376Zm2.5,0h-1.251a.189.189,0,0,0,0,.376h1.243a.189.189,0,0,0,0-.376Zm2.5,0h-1.251a.189.189,0,0,0,0,.376h1.251a.189.189,0,1,0,0-.376Zm2.5,0h-1.251a.189.189,0,1,0,0,.376h1.251a.189.189,0,0,0,0-.376Zm2.5,0h-1.253a.189.189,0,0,0,0,.376h1.251a.189.189,0,0,0,0-.376Zm1.235.594a.188.188,0,1,0-.3.227,1.11,1.11,0,0,1,.229.676v.4a.187.187,0,1,0,.375,0v-.4a1.479,1.479,0,0,0-.308-.9Zm-63.495-.021a.19.19,0,0,0-.263.041,1.488,1.488,0,0,0-.289.883v.424a.187.187,0,0,0,.375,0v-.424a1.1,1.1,0,0,1,.217-.66.189.189,0,0,0-.042-.262Zm63.612,2.389a.187.187,0,0,0-.187.189v1.251a.187.187,0,0,0,.375,0v-1.25a.187.187,0,0,0-.19-.189Zm-63.977.022a.187.187,0,0,0-.187.187v1.252a.187.187,0,0,0,.375,0v-1.251a.189.189,0,0,0-.19-.187Zm63.977,2.481a.186.186,0,0,0-.187.187v1.251a.187.187,0,0,0,.375,0v-1.25a.186.186,0,0,0-.19-.187Zm-63.977.022a.186.186,0,0,0-.187.187v1.251a.187.187,0,0,0,.375,0v-1.25a.187.187,0,0,0-.19-.187Zm63.975,2.476a.186.186,0,0,0-.187.187v1.251a.187.187,0,0,0,.375,0v-1.246a.186.186,0,0,0-.187-.192Zm-63.977.022a.186.186,0,0,0-.187.188v1.261a.187.187,0,0,0,.375,0v-1.256a.187.187,0,0,0-.187-.187Zm63.977,2.48a.173.173,0,0,0-.051.007.188.188,0,0,0-.136.18v1.256a.188.188,0,0,0,.136.18.175.175,0,0,0,.051.007.186.186,0,0,0,.187-.187v-1.25a.187.187,0,0,0-.187-.189Zm-63.977.022a.186.186,0,0,0-.187.188v1.251a.187.187,0,0,0,.375,0v-1.246a.187.187,0,0,0-.187-.187Zm63.977,2.48a.171.171,0,0,0-.051.007.188.188,0,0,0-.136.18v1.251a.189.189,0,0,0,.136.181.171.171,0,0,0,.051.007.187.187,0,0,0,.187-.189v-1.246a.187.187,0,0,0-.187-.187Zm-63.977.022a.187.187,0,0,0-.187.187v1.256a.191.191,0,0,0,.187.189.189.189,0,0,0,.187-.189v-1.251a.189.189,0,0,0-.187-.187Zm63.977,2.479a.188.188,0,0,0-.187.187v1.252a.187.187,0,0,0,.375,0v-1.247a.187.187,0,0,0-.187-.187Zm-63.977.022a.187.187,0,0,0-.187.187v1.252a.187.187,0,0,0,.375,0v-1.248a.189.189,0,0,0-.187-.186Zm63.977,2.481a.186.186,0,0,0-.187.187v1.251a.187.187,0,0,0,.375,0V548.1a.186.186,0,0,0-.187-.187Zm-63.977.021a.187.187,0,0,0-.187.189v1.251a.187.187,0,0,0,.375,0v-1.246a.189.189,0,0,0-.187-.189Zm63.977,2.481a.186.186,0,0,0-.187.187v1.251a.187.187,0,0,0,.375,0V550.6a.186.186,0,0,0-.187-.187Zm-63.909.036a.18.18,0,0,0-.069-.013.186.186,0,0,0-.187.187v1.251a.183.183,0,0,0,.024.093.187.187,0,0,0,.35-.093V550.62a.186.186,0,0,0-.119-.174Zm63.909,2.466a.186.186,0,0,0-.187.187v1.251a.185.185,0,0,0,.123.174h0a.177.177,0,0,0,.067.013.186.186,0,0,0,.187-.187V553.1a.186.186,0,0,0-.19-.187Zm-63.977.022a.186.186,0,0,0-.187.187v1.251a.187.187,0,1,0,.375,0v-1.246a.187.187,0,0,0-.187-.187Zm63.977,2.486a.187.187,0,0,0-.187.187v1.251a.187.187,0,0,0,.375,0V555.6A.187.187,0,0,0,784.736,555.415Zm-63.977.022a.187.187,0,0,0-.187.187v1.251a.187.187,0,0,0,.375,0v-1.252a.189.189,0,0,0-.187-.187Zm64.162,2.64a.179.179,0,0,0-.06-.111.184.184,0,0,0-.245,0,.179.179,0,0,0-.06.112.208.208,0,0,0,0,.027v1.252a.187.187,0,0,0,.375,0V558.1a.2.2,0,0,0-.01-.027Zm-64.162-.138a.187.187,0,0,0-.187.187v1.252a.187.187,0,0,0,.375,0v-1.253a.189.189,0,0,0-.187-.187Zm63.977,2.479a.188.188,0,0,0-.187.189v1.251a.187.187,0,0,0,.375,0v-1.252a.187.187,0,0,0-.187-.189Zm-63.977.02a.186.186,0,0,0-.187.189v1.251a.187.187,0,0,0,.187.187.169.169,0,0,0,.056-.01.186.186,0,0,0,.131-.178v-1.25A.189.189,0,0,0,720.759,560.438Zm63.977,2.481a.186.186,0,0,0-.187.188v1.252a.187.187,0,1,0,.375,0v-1.251a.186.186,0,0,0-.187-.187Zm-63.826.1a.187.187,0,0,0-.341.108v1.251a.187.187,0,1,0,.375,0v-1.246a.183.183,0,0,0-.033-.111Zm63.826,2.4a.186.186,0,0,0-.187.187v1.251a.144.144,0,0,0,.01.056.009.009,0,0,0,0,.007.179.179,0,0,0,.122.116.175.175,0,0,0,.051.007.184.184,0,0,0,.175-.123.009.009,0,0,0,0-.007.145.145,0,0,0,.01-.056v-1.251a.186.186,0,0,0-.181-.187Zm-63.977.022a.186.186,0,0,0-.187.187v1.252a.187.187,0,0,0,.375,0v-1.251a.187.187,0,0,0-.187-.187Zm63.977,2.479a.175.175,0,0,0-.051.007.187.187,0,0,0-.136.18v1.251a.187.187,0,0,0,.136.18.175.175,0,0,0,.051.007.186.186,0,0,0,.187-.187v-1.25a.187.187,0,0,0-.187-.187Zm-63.977.022a.187.187,0,0,0-.187.187v1.25a.187.187,0,0,0,.375,0v-1.248a.189.189,0,0,0-.187-.187Zm63.977,2.479a.175.175,0,0,0-.051.007.187.187,0,0,0-.136.18v1.251a.187.187,0,0,0,.375,0v-1.25a.187.187,0,0,0-.187-.187Zm-63.977.022a.187.187,0,0,0-.187.187v.98c.122.059.245.122.375.175v-1.158a.189.189,0,0,0-.187-.184Zm64.16,2.627a.187.187,0,0,0-.368.042v1.251a.187.187,0,0,0,.375,0v-1.25a.157.157,0,0,0-.007-.042Zm-46.524,4.067h-1.251a.185.185,0,0,0-.112.037q.72.165,1.444.318a.184.184,0,0,0,.105-.168.186.186,0,0,0-.187-.186Zm2.5,0h-1.251a.187.187,0,0,0,0,.375H740.9a.187.187,0,1,0,0-.375Zm2.5,0h-1.251a.187.187,0,0,0,0,.375H743.4a.187.187,0,0,0,0-.375Zm2.5,0h-1.252a.187.187,0,0,0,0,.375H745.9a.187.187,0,0,0,0-.375Zm2.5,0h-1.251a.187.187,0,0,0,0,.375H748.4a.187.187,0,1,0,0-.375Zm2.5,0h-1.247a.187.187,0,0,0,0,.375h1.251a.187.187,0,1,0,0-.375Zm2.5,0h-1.251a.187.187,0,0,0,0,.375h1.251a.187.187,0,1,0,0-.375Zm2.5,0h-1.251a.187.187,0,1,0,0,.375H755.9a.187.187,0,1,0,0-.375Zm2.5,0h-1.252a.185.185,0,0,0-.122.048.181.181,0,0,0-.064.14.187.187,0,0,0,.187.187h1.252a.187.187,0,0,0,0-.375Zm2.5,0H759.66a.187.187,0,0,0,0,.375h1.251a.187.187,0,0,0,0-.375Zm2.5,0h-1.251a.187.187,0,0,0,0,.375h1.251a.187.187,0,0,0,0-.375Zm2.5,0h-1.251a.187.187,0,0,0,0,.375h1.251a.187.187,0,1,0,0-.375Zm2.5,0h-1.251a.187.187,0,0,0,0,.375h1.251a.187.187,0,1,0,0-.375Zm2.5,0h-1.251a.187.187,0,0,0,0,.375h1.251a.187.187,0,1,0,0-.375Zm2.5,0h-1.251a.187.187,0,1,0,0,.375h1.253a.187.187,0,1,0,0-.375Zm2.5,0h-1.251a.187.187,0,1,0,0,.375h1.251a.187.187,0,1,0,0-.375Zm2.5,0h-1.251a.185.185,0,0,0-.186.174.05.05,0,0,0,0,.013.186.186,0,0,0,.187.187h.44c.326-.091.651-.184.973-.282a.184.184,0,0,0-.163-.092Z" transform="translate(-436.439 -373.028)"/>
    <rect id="Rectangle_2936" data-name="Rectangle 2936" class="cls-23" width="17.012" height="7.506" rx="3.753" transform="translate(272.743 175.154)"/>
    <path id="Path_2023" data-name="Path 2023" class="cls-24" d="M980.2,584.469v.112a23.778,23.778,0,0,1-.524,4.353v.026h0q-.162.751-.374,1.49a23.6,23.6,0,0,1-1.06,2.966.009.009,0,0,1,0,.007,23.641,23.641,0,0,1-1.885,3.513q-.321.5-.67.98a23.174,23.174,0,0,1-1.5,1.871q-.849.461-1.715.889-1.322.648-2.7,1.225-.228.1-.459.191-.4.163-.806.32-.587.228-1.181.442-1.317.477-2.684.885c-.322.1-.647.191-.973.282q-1.882.529-3.849.933a20.046,20.046,0,0,1-3.063.548,66.942,66.942,0,0,1-7.42.709c-.418.018-.839.032-1.262.042a23.742,23.742,0,0,1-4.485-2.232c-.169-.105-.336-.216-.5-.327a23.888,23.888,0,0,1-10.022-14.963c-.018-.088-.037-.176-.053-.266q-.083-.423-.148-.846a23.882,23.882,0,0,1,4.812-18.4,23.523,23.523,0,0,1,3.314-3.43q.772-.654,1.608-1.247.682-.49,1.406-.926h0q.245-.151.49-.294.2-.114.4-.224a23.859,23.859,0,0,1,3.354-1.526,23.406,23.406,0,0,1,2.4-.735,23.81,23.81,0,0,1,15.515,1.4q.576.257,1.138.546l.459.245q.578.312,1.139.659.871.535,1.7,1.149c.122.092.245.188.375.283.225.174.448.354.669.538q.232.191.459.392.377.331.742.679l.007.007a23.553,23.553,0,0,1,1.764,1.882c.157.185.31.375.459.566q.676.857,1.279,1.782c.033.051.066.1.1.154s.045.069.065.1c.076.122.15.235.221.354q.266.435.515.886a24.109,24.109,0,0,1,1.45,3.134.019.019,0,0,1,0,.007,23.628,23.628,0,0,1,1.5,8.873Z" transform="translate(-622.482 -399.533)"/>
    <path id="Path_2024" data-name="Path 2024" class="cls-18" d="M964.843,596.062v.032a23.88,23.88,0,0,1-1.225,4.456.016.016,0,0,1,0,.007q-.22.582-.473,1.153a23.5,23.5,0,0,1-1.279,2.489q-.222.379-.459.746c-.021.034-.043.067-.065.1a23.479,23.479,0,0,1-2.095,2.76q-1.322.648-2.7,1.225-.228.1-.459.191-.4.163-.806.32-.587.228-1.181.442-1.317.477-2.684.884c-.322.1-.647.191-.973.282q-1.882.529-3.849.934a20.06,20.06,0,0,1-3.063.548,66.986,66.986,0,0,1-7.42.709c-.418.018-.839.032-1.262.042q-.925.024-1.866.023-1.131,0-2.273-.026a23.859,23.859,0,0,1-12.855-17.4c-.026-.149-.049-.3-.07-.451q-.049-.331-.088-.664a23.793,23.793,0,0,1,9.734-22.114q.245-.179.5-.35.735-.5,1.523-.956c.134-.078.27-.154.406-.229q.458-.254.922-.483h0c.157-.078.314-.154.472-.229s.287-.132.43-.2a23.656,23.656,0,0,1,2.836-1.052l.272-.08a23.367,23.367,0,0,1,2.641-.6q.7-.122,1.409-.192a23.818,23.818,0,0,1,9.645.964q.873.274,1.724.613c.154.061.307.122.459.19q.594.245,1.174.534a23.557,23.557,0,0,1,2.243,1.252q.231.143.459.3a23.249,23.249,0,0,1,2.143,1.6l.009.007c.123.1.245.206.368.311s.217.191.323.288l.136.123.245.223q.67.636,1.3,1.332a23.649,23.649,0,0,1,1.688,2.1h0c.022.032.045.062.066.094a23.9,23.9,0,0,1,1.4,2.243q.459.834.845,1.688c.026.056.051.113.076.169.042.094.083.19.122.284v.007q.252.591.47,1.186c.169.459.321.921.459,1.385q.285.953.49,1.917a23.568,23.568,0,0,1,.386,2.532c.061.612.1,1.236.108,1.852v.112A23.8,23.8,0,0,1,964.843,596.062Z" transform="translate(-609.278 -406.661)"/>
    <path id="Path_2025" data-name="Path 2025" class="cls-19" d="M979.356,608.6v-.112c-.009-.334-.028-.668-.054-1a21.559,21.559,0,0,0-.543-3.384c-.064-.26-.132-.517-.2-.774a21.757,21.757,0,0,0-1.433-3.714v-.007c-.145-.294-.3-.584-.456-.873a21.958,21.958,0,0,0-1.612-2.508c-.149-.2-.3-.4-.459-.6-.11-.137-.222-.274-.334-.408l-.087-.1-.245-.287c-.081-.094-.158-.179-.245-.267-.044-.05-.091-.1-.136-.148-.107-.114-.213-.228-.323-.339a21.26,21.26,0,0,0-3.417-2.862q-.228-.154-.459-.3l-.287-.18-.012-.007a21.672,21.672,0,0,0-2.215-1.187c-.152-.071-.305-.14-.459-.207a22.039,22.039,0,0,0-2.684-.968,21.8,21.8,0,0,0-6.114-.865,21.473,21.473,0,0,0-6.059.891q-.926.274-1.83.635h0a21.975,21.975,0,0,0-2.5,1.181c-.254.14-.5.284-.751.434a21.848,21.848,0,0,0-1.975,1.348q-.763.581-1.47,1.225-.428.388-.831.8a21.806,21.806,0,0,0-6.082,17.605q.048.437.115.872c.012.081.024.163.038.245a21.824,21.824,0,0,0,9.993,14.929q.312.192.632.375a21.813,21.813,0,0,0,4.767,2.014q.323.093.649.176a66.955,66.955,0,0,0,7.42-.709,20.572,20.572,0,0,1-9.894-1.482q-.43-.179-.849-.375a20.479,20.479,0,0,1-11.414-15.008c-.007-.04-.014-.081-.02-.122-.055-.33-.1-.662-.14-.994a20.517,20.517,0,0,1,5.133-16.014q.434-.478.9-.929.262-.255.535-.5a20.654,20.654,0,0,1,3.865-2.751q.625-.343,1.264-.642a20.248,20.248,0,0,1,14.255-1.089,20.684,20.684,0,0,1,2.988,1.118l.016.007a20.211,20.211,0,0,1,3.014,1.736q.232.162.459.33a20.225,20.225,0,0,1,2.623,2.319l.1.1q.532.566,1.019,1.174c.123.158.245.318.375.481q.347.459.669.941c.158.235.312.474.459.718q.245.4.479.822l.135.245h0c.122.228.239.458.352.691a20.343,20.343,0,0,1,1.4,3.8,20.049,20.049,0,0,1,.638,4.385v.111a20.291,20.291,0,0,1-.344,4.353.062.062,0,0,1-.006.032q-.173.914-.431,1.818l-.022.077a20.8,20.8,0,0,1-.926,2.56v.007a20.184,20.184,0,0,1-2.408,4.1c-.078.1-.158.206-.245.307l-.061.077-.075.094q-.4.49-.833.964c-.148.165-.3.327-.459.49a20.343,20.343,0,0,1-3.407,2.8c-.078.053-.158.1-.238.152q-.533.34-1.09.647t-1.147.587c-.123.06-.245.122-.379.174a20.234,20.234,0,0,1-3.223,1.134q1.969-.4,3.849-.934c.326-.091.651-.184.973-.282q1.365-.41,2.684-.884.3-.217.6-.442.72-.55,1.388-1.154c.156-.141.309-.283.459-.429q.428-.41.833-.843.188-.2.368-.408.706-.8,1.33-1.661a21.464,21.464,0,0,0,2.317-4.079c.059-.135.122-.272.173-.409v-.007a22.211,22.211,0,0,0,.765-2.205c.088-.306.17-.612.245-.921q.162-.665.282-1.334v-.032c.039-.222.075-.445.107-.666q.1-.717.161-1.436A21.236,21.236,0,0,0,979.356,608.6Z" transform="translate(-625.434 -423.549)"/>
    <path id="Path_2027" data-name="Path 2027" class="cls-18" d="M639.21,696.133a1.773,1.773,0,1,1,1.773,1.773A1.773,1.773,0,0,1,639.21,696.133Z" transform="translate(-365.046 -517.319)"/>
    <rect id="Rectangle_2937" data-name="Rectangle 2937" class="cls-25" width="337.108" height="0.894" rx="0.447" transform="translate(223.2 318.156)"/>
  </g>
</svg>
