<svg width="204" height="204" viewBox="0 0 204 204" fill="none" xmlns="http://www.w3.org/2000/svg">
<path d="M64.5579 112.974C64.5579 112.974 64.8663 93.9026 56.0449 88.8663C47.2234 83.8301 30.5014 80.7663 29.6673 53.3918C29.1784 37.3654 28.7287 30.3607 28.4394 27.3067C28.4128 27.0292 28.4507 26.7494 28.5503 26.489C28.6499 26.2286 28.8085 25.9949 29.0136 25.8061C29.2186 25.6172 29.4647 25.4785 29.7323 25.4007C30 25.3228 30.2821 25.308 30.5564 25.3575C38.8858 26.8613 65.9551 33.1051 71.7606 51.5041C78.6427 73.3172 64.5579 112.974 64.5579 112.974Z" fill="#BDD0FB"/>
<path d="M37.0472 32.927C46.2393 41.0002 56.9061 55.3313 62.6428 69.6993C63.3835 72.0692 65.5346 77.1038 66.5205 86.0704C67.397 93.5486 67.05 101.461 66.096 106.704C66.0816 106.782 66.0519 106.858 66.0085 106.925C65.965 106.992 65.9088 107.05 65.8429 107.096C65.777 107.141 65.7029 107.173 65.6246 107.19C65.5463 107.207 65.4655 107.208 65.3867 107.194C64.817 107.091 64.8879 106.479 64.8918 106.497C65.9585 97.5439 65.4032 86.4146 62.7259 76.3895C59.3101 64.0808 51.8094 52.1784 44.0678 42.0944L43.2716 41.1046C37.277 33.5214 36.0261 33.4747 36.5776 32.9369C36.6404 32.8768 36.7235 32.8425 36.8104 32.8407C36.8974 32.8388 36.9818 32.8696 37.0472 32.927Z" fill="url(#paint0_linear_1120_3658)"/>
<path d="M81.3665 148.189C82.5592 148.762 70.003 133.217 65.9202 108.684C63.9957 97.1231 63.8616 82.6204 57.2258 77.0827C51.7029 72.4732 33.0515 75.5519 26.9502 76.7143C26.7793 76.7468 26.6212 76.8271 26.4943 76.9461C26.3675 77.065 26.277 77.2176 26.2336 77.386C26.1902 77.5544 26.1956 77.7317 26.2492 77.8972C26.3027 78.0627 26.4023 78.2095 26.5362 78.3205C29.4851 80.7591 35.797 86.5135 37.4746 92.3525C39.6862 100.047 47.0538 104.895 53.6264 106.172C60.1989 107.45 63.8594 108.71 67.1365 119.18C70.4137 129.651 77.9777 146.56 81.3665 148.189Z" fill="#91B3FA"/>
<path d="M35.5686 79.908C43.3668 80.1746 51.7616 83.6668 56.0582 90.3048L56.464 90.9383C57.3988 92.4229 62.7281 102.994 65.7089 111.766C65.7266 111.819 65.7227 111.876 65.6982 111.926C65.6737 111.976 65.6305 112.014 65.578 112.032C65.5268 112.048 65.4713 112.044 65.4226 112.021C65.3739 111.998 65.3356 111.958 65.3152 111.908C63.2472 106.955 60.2839 100.679 57.9256 95.9855C55.3962 90.8646 53.6273 87.3966 47.9213 84.1084C41.572 80.565 35.529 80.2417 35.5494 80.245C35.505 80.2422 35.4636 80.2218 35.4343 80.1885C35.405 80.1551 35.3901 80.1115 35.3929 80.0671C35.3958 80.0228 35.4161 79.9814 35.4495 79.9521C35.4828 79.9227 35.5265 79.9079 35.5708 79.9107L35.5686 79.908Z" fill="#BDD0FB"/>
<path d="M83.324 143.051C84.1054 143.211 77.364 136.789 75.037 130.08C72.71 123.371 67.7892 112.196 59.8926 106.954C51.996 101.711 45.3806 102.95 39.1181 111.628C33.8994 118.862 30.4622 122.746 28.1351 123.96C27.5589 124.26 27.4478 125.042 27.9053 125.503C30.339 127.96 36.7697 133.357 44.1533 130.695C53.5713 127.3 63.382 117.678 68.4408 121.849C73.4996 126.02 73.8916 129.063 74.7186 131.497C75.5456 133.931 78.1558 141.993 83.324 143.051Z" fill="#BDD0FB"/>
<path d="M39.661 120.527C42.3322 116.692 47.2134 112.268 52.3337 111.337C59.0553 110.33 64.4214 112.711 68.3463 117.437C69.9338 119.467 70.669 120.583 72.0304 123.241C72.1404 123.453 71.7648 123.635 71.6356 123.434C70.8554 122.225 70.0608 120.956 69.0579 119.695C62.9588 111.447 55.3206 112.32 54.9813 112.214C54.4446 112.419 50.4983 111.289 43.6288 117.177C42.3532 118.277 41.152 119.461 40.0332 120.721L40.0272 120.728C39.9879 120.772 39.9348 120.802 39.8765 120.812C39.8183 120.822 39.7583 120.811 39.7066 120.783C39.6854 120.77 39.6671 120.753 39.6531 120.733C39.6391 120.712 39.6296 120.689 39.6252 120.665C39.6209 120.641 39.6218 120.616 39.628 120.592C39.6342 120.568 39.6454 120.546 39.661 120.527Z" fill="url(#paint1_linear_1120_3658)"/>
<path d="M154.847 136.21C178.981 112.076 178.981 72.9475 154.847 48.8138C130.713 24.68 91.5846 24.68 67.4509 48.8138C43.3172 72.9475 43.3172 112.076 67.4509 136.21C91.5846 160.343 130.713 160.343 154.847 136.21Z" fill="white"/>
<path d="M111.148 145.254C140.277 145.254 163.891 121.64 163.891 92.5116C163.891 63.3827 140.277 39.769 111.148 39.769C82.0194 39.769 58.4058 63.3827 58.4058 92.5116C58.4058 121.64 82.0194 145.254 111.148 145.254Z" fill="#FFEC7A"/>
<path d="M133.886 115.248C146.443 102.691 146.443 82.3322 133.886 69.7751C121.329 57.218 100.97 57.218 88.4124 69.7751C75.8553 82.3322 75.8553 102.691 88.4124 115.248C100.97 127.805 121.329 127.805 133.886 115.248Z" fill="#FFE12C"/>
<path d="M111.148 125.579C92.9148 125.579 78.0811 110.744 78.0811 92.5114C78.0811 74.2784 92.9148 59.4436 111.148 59.4436C129.382 59.4436 144.216 74.2779 144.216 92.5114C144.216 110.745 129.383 125.579 111.148 125.579ZM111.148 61.2697C93.9221 61.2697 79.9072 75.2847 79.9072 92.5114C79.9072 109.738 93.9221 123.752 111.148 123.752C128.374 123.752 142.389 109.738 142.389 92.5114C142.389 75.2852 128.375 61.2697 111.148 61.2697Z" fill="white"/>
<path d="M119.958 101.321C124.823 96.4556 124.823 88.5678 119.958 83.7028C115.093 78.8377 107.205 78.8377 102.34 83.7028C97.4747 88.5678 97.4747 96.4556 102.34 101.321C107.205 106.186 115.093 106.186 119.958 101.321Z" fill="#E1C100"/>
<path d="M111.148 105.882C103.776 105.882 97.7778 99.8835 97.7778 92.5114C97.7778 85.1394 103.776 79.1404 111.148 79.1404C118.521 79.1404 124.519 85.1389 124.519 92.5114C124.519 99.884 118.521 105.882 111.148 105.882ZM111.148 80.9665C104.783 80.9665 99.6012 86.1457 99.6012 92.5137C99.6012 98.8816 104.78 104.058 111.148 104.058C117.516 104.058 122.693 98.8789 122.693 92.5137C122.693 86.1484 117.514 80.9665 111.148 80.9665Z" fill="white"/>
<path d="M72.2852 140.106C72.2852 140.106 91.6283 168.685 96.9367 174.326C103.099 180.874 114.706 173.022 112.569 166.826C110.432 160.631 89.32 137.934 89.32 137.934L72.2852 140.106Z" fill="url(#paint2_linear_1120_3658)"/>
<path d="M82.9541 113.424L150.875 70.2402L166.544 139.854L87.3233 140.889L82.9541 113.424Z" fill="url(#paint3_linear_1120_3658)"/>
<path d="M167.674 140.807C171.688 139.856 171.158 123.11 166.489 103.405C161.82 83.6993 154.78 68.4961 150.765 69.4474C146.75 70.3987 147.281 87.1443 151.95 106.85C156.619 126.555 163.659 141.758 167.674 140.807Z" fill="#91B3FA"/>
<path d="M167.641 138.25C166.825 137.738 164.781 135.501 161.977 129.123C159.265 122.961 156.632 114.76 154.564 106.028C152.496 97.2969 151.171 88.7866 150.831 82.0634C150.479 75.106 151.299 72.1889 151.798 71.3652C152.613 71.8777 154.657 74.1146 157.462 80.493C160.174 86.6548 162.806 94.856 164.874 103.587C166.942 112.319 168.268 120.829 168.608 127.552C168.96 134.509 168.139 137.426 167.641 138.25Z" fill="url(#paint4_linear_1120_3658)"/>
<path d="M168.974 102.335C170.41 108.398 168.308 114.086 161.844 115.617C155.38 117.149 148.977 113.473 147.54 107.412C146.102 101.352 150.179 95.1943 156.643 93.6657C163.108 92.137 167.539 96.2731 168.974 102.335Z" fill="url(#paint5_linear_1120_3658)"/>
<path d="M70.6658 114.757C74.0508 113.528 79.0083 112.2 84.6978 112.158C85.1201 121.867 87.6814 131.485 92.1127 141.023L76.8903 144.629C75.7155 144.908 74.4798 144.758 73.4055 144.207C72.3312 143.656 71.4887 142.74 71.0298 141.623C69.1328 136.998 66.2922 129.141 65.7445 122.42C65.6109 120.78 66.0203 119.141 66.9095 117.756C67.7988 116.372 69.1187 115.318 70.6658 114.757Z" fill="url(#paint6_linear_1120_3658)"/>
<path d="M69.3014 122.494C69.1381 122.483 68.9797 122.434 68.8383 122.352C68.697 122.269 68.5767 122.155 68.4868 122.018C68.397 121.882 68.3399 121.726 68.3202 121.563C68.3005 121.401 68.3187 121.236 68.3732 121.082C68.3847 121.05 68.4023 121.02 68.4252 120.995C68.4481 120.97 68.4757 120.949 68.5065 120.934C68.5374 120.92 68.5707 120.911 68.6048 120.91C68.6389 120.908 68.673 120.913 68.7051 120.924C68.7372 120.936 68.7668 120.954 68.7921 120.976C68.8174 120.999 68.838 121.027 68.8526 121.058C68.8672 121.089 68.8756 121.122 68.8773 121.156C68.8791 121.19 68.8741 121.224 68.8626 121.256C68.8302 121.348 68.823 121.446 68.8418 121.541C68.8606 121.636 68.9046 121.724 68.9693 121.796C69.034 121.868 69.1169 121.921 69.2093 121.95C69.3017 121.979 69.4002 121.983 69.4944 121.96L81.3545 119.151C81.4933 119.118 81.6134 119.031 81.6883 118.91C81.7632 118.788 81.7869 118.642 81.7542 118.503L81.5541 117.659C81.521 117.52 81.4343 117.4 81.3128 117.325C81.1914 117.25 81.0452 117.227 80.9063 117.259L68.9583 120.091C68.9251 120.098 68.8907 120.1 68.857 120.094C68.8234 120.089 68.7911 120.077 68.7621 120.059C68.7331 120.041 68.7078 120.018 68.6879 119.99C68.6679 119.962 68.6536 119.931 68.6457 119.898C68.6378 119.865 68.6366 119.83 68.642 119.797C68.6474 119.763 68.6594 119.731 68.6773 119.702C68.6952 119.673 68.7187 119.647 68.7463 119.627C68.7739 119.607 68.8053 119.593 68.8384 119.585L80.7864 116.755C80.9217 116.723 81.0619 116.718 81.199 116.74C81.3362 116.762 81.4677 116.811 81.586 116.884C81.7042 116.957 81.807 117.053 81.8883 117.165C81.9696 117.278 82.0279 117.406 82.0599 117.541L82.2595 118.386C82.3241 118.659 82.2776 118.947 82.1303 119.185C81.9829 119.424 81.7468 119.595 81.4738 119.659L69.6126 122.466C69.5108 122.49 69.406 122.5 69.3014 122.494Z" fill="#BDD0FB"/>
<path d="M69.4888 127.997C69.3255 127.986 69.167 127.937 69.0257 127.855C68.8843 127.772 68.764 127.658 68.6741 127.521C68.5842 127.385 68.5271 127.229 68.5073 127.066C68.4875 126.904 68.5056 126.739 68.56 126.585C68.5844 126.522 68.6325 126.47 68.6941 126.442C68.7558 126.413 68.8261 126.41 68.89 126.433C68.954 126.456 69.0065 126.503 69.0364 126.564C69.0662 126.625 69.0711 126.695 69.05 126.759C69.0175 126.85 69.0102 126.949 69.0289 127.044C69.0476 127.139 69.0916 127.227 69.1562 127.299C69.2208 127.371 69.3037 127.425 69.3961 127.453C69.4885 127.482 69.587 127.486 69.6812 127.464L81.5413 124.654C81.6801 124.621 81.8002 124.534 81.8751 124.413C81.95 124.291 81.9737 124.145 81.941 124.006L81.7414 123.163C81.7251 123.094 81.6954 123.029 81.654 122.971C81.6126 122.914 81.5603 122.865 81.5001 122.828C81.4399 122.791 81.373 122.766 81.3031 122.755C81.2333 122.744 81.1619 122.746 81.0931 122.763L69.1451 125.592C69.1119 125.6 69.0775 125.602 69.0438 125.596C69.0102 125.591 68.9779 125.579 68.9489 125.561C68.9198 125.543 68.8946 125.519 68.8747 125.492C68.8547 125.464 68.8404 125.433 68.8325 125.4C68.8246 125.366 68.8234 125.332 68.8288 125.298C68.8342 125.265 68.8462 125.232 68.8641 125.203C68.882 125.174 68.9054 125.149 68.9331 125.129C68.9607 125.109 68.992 125.095 69.0252 125.087L80.9738 122.257C81.2468 122.192 81.5342 122.239 81.773 122.386C82.0117 122.534 82.1821 122.77 82.2467 123.043L82.4469 123.887C82.5111 124.16 82.4645 124.447 82.3172 124.686C82.1699 124.924 81.9339 125.095 81.6611 125.16L69.8011 127.969C69.6989 127.994 69.5937 128.003 69.4888 127.997Z" fill="#BDD0FB"/>
<path d="M93.1741 108.953C93.1187 108.95 93.0659 108.929 93.0232 108.893C92.9806 108.858 92.9505 108.809 92.9372 108.756C92.924 108.702 92.9283 108.645 92.9495 108.594C92.9708 108.543 93.0078 108.499 93.0553 108.471L144.876 77.361C144.906 77.3417 144.938 77.3284 144.973 77.3221C145.007 77.3158 145.043 77.3165 145.077 77.3243C145.111 77.332 145.144 77.3466 145.172 77.3672C145.201 77.3878 145.225 77.4139 145.243 77.4439C145.261 77.474 145.272 77.5074 145.277 77.5422C145.282 77.577 145.28 77.6123 145.271 77.6462C145.261 77.6801 145.245 77.7117 145.224 77.7393C145.202 77.7668 145.175 77.7896 145.144 77.8064L93.3231 108.916C93.2782 108.943 93.2263 108.956 93.1741 108.953Z" fill="#BDD0FB"/>
<path d="M86.3285 113.846C86.2748 113.843 86.2233 113.824 86.1813 113.79C86.1392 113.757 86.1086 113.711 86.0937 113.659C86.0788 113.607 86.0803 113.552 86.098 113.502C86.1158 113.451 86.1488 113.407 86.1927 113.376L88.7979 111.513C88.8257 111.493 88.8571 111.479 88.8903 111.472C88.9236 111.464 88.958 111.463 88.9917 111.468C89.0253 111.474 89.0575 111.486 89.0865 111.504C89.1154 111.522 89.1405 111.546 89.1603 111.574C89.1801 111.601 89.1943 111.633 89.202 111.666C89.2097 111.699 89.2107 111.734 89.2051 111.767C89.1995 111.801 89.1873 111.833 89.1692 111.862C89.1512 111.891 89.1276 111.916 89.0998 111.936L86.4935 113.798C86.4457 113.832 86.3874 113.85 86.3285 113.846Z" fill="#BDD0FB"/>
<path d="M72.0031 133.898C71.8398 133.887 71.6813 133.838 71.54 133.756C71.3987 133.673 71.2784 133.559 71.1885 133.423C71.0986 133.286 71.0416 133.13 71.0219 132.968C71.0022 132.805 71.0203 132.64 71.0749 132.486C71.098 132.421 71.146 132.368 71.2082 132.339C71.2704 132.309 71.3418 132.306 71.4067 132.329C71.4716 132.352 71.5247 132.4 71.5542 132.462C71.5838 132.524 71.5874 132.596 71.5643 132.661C71.5318 132.752 71.5245 132.85 71.5432 132.945C71.5619 133.04 71.6059 133.128 71.6705 133.2C71.7351 133.272 71.818 133.326 71.9104 133.355C72.0028 133.384 72.1013 133.387 72.1955 133.365L84.0556 130.556C84.1945 130.523 84.3146 130.436 84.3896 130.314C84.4646 130.193 84.4882 130.046 84.4553 129.907L84.2557 129.064C84.2227 128.925 84.1359 128.805 84.0145 128.73C83.8931 128.655 83.7469 128.631 83.608 128.664L71.6594 131.494C71.5935 131.507 71.5251 131.494 71.4687 131.457C71.4123 131.421 71.3721 131.364 71.3567 131.299C71.3413 131.233 71.3518 131.164 71.386 131.107C71.4201 131.049 71.4754 131.006 71.5401 130.988L83.4881 128.158C83.7611 128.094 84.0485 128.14 84.2872 128.287C84.526 128.435 84.6966 128.671 84.7616 128.943L84.9612 129.787C85.0255 130.06 84.9788 130.347 84.8315 130.586C84.6842 130.825 84.4483 130.995 84.1754 131.06L72.3154 133.87C72.2132 133.894 72.108 133.904 72.0031 133.898Z" fill="#BDD0FB"/>
<path d="M74.7308 140.463C74.5676 140.452 74.409 140.404 74.2676 140.321C74.1262 140.239 74.0059 140.125 73.916 139.988C73.826 139.851 73.769 139.696 73.7494 139.533C73.7297 139.371 73.748 139.206 73.8027 139.052C73.8257 138.987 73.8736 138.934 73.9358 138.904C73.998 138.874 74.0693 138.871 74.1342 138.894C74.1991 138.917 74.2522 138.965 74.2818 139.027C74.3114 139.089 74.3151 139.16 74.2921 139.225C74.2596 139.317 74.2523 139.415 74.271 139.51C74.2897 139.605 74.3337 139.693 74.3983 139.765C74.4629 139.837 74.5458 139.891 74.6382 139.92C74.7306 139.949 74.8291 139.952 74.9233 139.93L86.7833 137.12C86.8522 137.104 86.9172 137.075 86.9745 137.033C87.0319 136.992 87.0806 136.94 87.1177 136.88C87.1549 136.819 87.1798 136.753 87.191 136.683C87.2022 136.613 87.1995 136.542 87.1831 136.473L86.9835 135.629C86.9503 135.49 86.8636 135.37 86.7422 135.295C86.6208 135.22 86.4746 135.196 86.3358 135.229L74.3872 138.059C74.354 138.067 74.3196 138.068 74.2859 138.063C74.2523 138.057 74.22 138.045 74.191 138.027C74.1619 138.01 74.1367 137.986 74.1167 137.958C74.0968 137.931 74.0825 137.9 74.0746 137.866C74.0667 137.833 74.0655 137.799 74.0709 137.765C74.0763 137.731 74.0883 137.699 74.1062 137.67C74.1241 137.641 74.1475 137.616 74.1752 137.596C74.2028 137.576 74.2341 137.562 74.2673 137.554L86.2159 134.724C86.4889 134.659 86.7764 134.705 87.0152 134.852C87.2541 135 87.4246 135.236 87.4894 135.509L87.689 136.353C87.7535 136.626 87.707 136.913 87.5597 137.152C87.4124 137.391 87.1762 137.562 86.9032 137.626L75.0432 140.436C74.9409 140.46 74.8357 140.469 74.7308 140.463Z" fill="#BDD0FB"/>
<path d="M103.985 172.438C102.862 172.375 101.767 172.069 100.774 171.542C99.7811 171.015 98.9142 170.279 98.2331 169.385L83.7716 150.58C83.7296 150.525 83.711 150.456 83.72 150.388C83.7289 150.319 83.7646 150.257 83.8192 150.215C83.8738 150.173 83.9429 150.155 84.0112 150.164C84.0795 150.172 84.1415 150.208 84.1835 150.263L98.6449 169.068C99.3407 169.982 100.243 170.717 101.278 171.215C102.313 171.713 103.451 171.958 104.599 171.931C106.908 171.889 109.001 170.793 110.334 168.924C110.405 168.825 110.476 168.722 110.547 168.618C110.586 168.563 110.646 168.525 110.713 168.513C110.78 168.501 110.849 168.516 110.905 168.554C110.961 168.592 111 168.651 111.014 168.718C111.027 168.785 111.014 168.854 110.977 168.911C110.903 169.018 110.83 169.123 110.757 169.226C109.327 171.23 107.086 172.406 104.608 172.45C104.399 172.456 104.191 172.451 103.985 172.438Z" fill="#BDD0FB"/>
<path d="M81.8238 147.9C81.7866 147.898 81.7503 147.888 81.7174 147.87C81.6845 147.853 81.6557 147.828 81.633 147.799L80.0197 145.701C79.9989 145.674 79.9836 145.643 79.9747 145.61C79.9659 145.577 79.9636 145.543 79.968 145.509C79.9724 145.475 79.9835 145.443 80.0005 145.413C80.0175 145.384 80.0402 145.358 80.0672 145.337C80.0943 145.316 80.1251 145.301 80.1581 145.292C80.191 145.283 80.2254 145.281 80.2592 145.285C80.2931 145.29 80.3257 145.301 80.3552 145.318C80.3848 145.335 80.4107 145.357 80.4315 145.384L82.0448 147.482C82.075 147.522 82.0933 147.569 82.0975 147.618C82.1017 147.668 82.0916 147.717 82.0685 147.761C82.0454 147.805 82.0101 147.842 81.967 147.866C81.9238 147.891 81.8745 147.903 81.8249 147.9H81.8238Z" fill="#BDD0FB"/>
<path d="M167.08 102.385C167.027 102.382 166.977 102.363 166.935 102.33C166.893 102.298 166.863 102.253 166.847 102.203C165.928 99.2672 164.364 97.2855 162.198 96.3128C158.459 94.6324 154.142 96.536 154.098 96.5558C154.036 96.581 153.966 96.5811 153.904 96.5561C153.842 96.531 153.791 96.4828 153.764 96.4214C153.736 96.3601 153.733 96.2905 153.756 96.2272C153.779 96.1639 153.825 96.1118 153.885 96.0818C154.07 95.9982 158.459 94.0633 162.411 95.8388C164.721 96.8747 166.377 98.9637 167.343 102.048C167.363 102.114 167.357 102.185 167.325 102.246C167.293 102.307 167.238 102.353 167.172 102.373C167.142 102.383 167.111 102.387 167.08 102.385Z" fill="#BDD0FB"/>
<path d="M47.1884 173.993C47.1884 173.993 46.754 174.677 46.6445 176.595C46.6422 176.637 46.6484 176.679 46.6629 176.719C46.6774 176.759 46.6998 176.795 46.7288 176.826C46.7578 176.857 46.7928 176.882 46.8316 176.899C46.8704 176.915 46.9123 176.924 46.9547 176.924H50.3523C50.384 176.925 50.4153 176.917 50.4436 176.903C50.4719 176.888 50.4963 176.867 50.5149 176.842C50.5335 176.816 50.5457 176.786 50.5505 176.755C50.5553 176.723 50.5526 176.691 50.5425 176.661C50.3435 176.072 49.7414 174.635 48.3981 173.814L47.1884 173.993Z" fill="url(#paint7_linear_1120_3658)"/>
<path d="M47.04 172.694L47.233 174.307C47.2407 174.375 47.271 174.438 47.319 174.486C47.367 174.535 47.4299 174.565 47.4975 174.573C47.7361 174.604 47.9777 174.601 48.2157 174.567C48.3316 174.546 48.4364 174.485 48.5116 174.395C48.5868 174.304 48.6274 174.19 48.6264 174.072V172.516L47.04 172.694Z" fill="url(#paint8_linear_1120_3658)"/>
<path d="M55.5913 173.815C55.1704 174.544 54.9509 175.372 54.9551 176.213C54.9585 176.371 55.0238 176.521 55.137 176.631C55.2502 176.741 55.4022 176.802 55.56 176.8H60.8387C60.8918 176.799 60.9431 176.781 60.9854 176.749C61.0277 176.717 61.0589 176.673 61.0746 176.622C61.0902 176.571 61.0895 176.517 61.0725 176.467C61.0555 176.416 61.0232 176.373 60.98 176.342C59.9815 175.641 58.0195 174.331 56.5998 173.816L55.5913 173.815Z" fill="url(#paint9_linear_1120_3658)"/>
<path d="M55.0503 172.075L55.4599 174.065C55.4704 174.118 55.4914 174.169 55.5215 174.214C55.5516 174.259 55.5904 174.298 55.6355 174.328C55.6807 174.358 55.7313 174.378 55.7845 174.389C55.8377 174.399 55.8924 174.399 55.9455 174.388C56.1099 174.35 56.2667 174.285 56.409 174.194C56.4879 174.144 56.5501 174.071 56.5876 173.985C56.6251 173.9 56.6362 173.805 56.6196 173.713L56.1957 171.302L55.0503 172.075Z" fill="url(#paint10_linear_1120_3658)"/>
<path d="M47.7929 144.409C47.7929 144.409 46.3682 145.666 46.0998 147.177C45.8315 148.689 46.8598 173.257 46.8598 173.257C46.8598 173.257 48.2845 173.494 49.0191 173.049C49.0191 173.049 49.8906 157.103 50.5527 153.418C50.5527 153.418 54.0256 169.935 54.9879 172.919C54.9879 172.919 56.3625 173.084 56.8024 172.825C56.8024 172.825 55.8929 151.415 54.7498 147.609L47.7929 144.409Z" fill="url(#paint11_linear_1120_3658)"/>
<path d="M50.5118 152.923C50.4727 152.923 50.4347 152.91 50.4038 152.887C50.3729 152.863 50.3507 152.829 50.3407 152.791L49.7529 150.537L48.5036 149.735C48.483 149.723 48.465 149.707 48.4507 149.688C48.4364 149.669 48.4261 149.647 48.4205 149.624C48.4149 149.601 48.414 149.577 48.4179 149.553C48.4219 149.53 48.4305 149.507 48.4434 149.487C48.4563 149.467 48.4731 149.45 48.4928 149.437C48.5125 149.423 48.5348 149.414 48.5582 149.409C48.5816 149.405 48.6057 149.405 48.629 149.41C48.6524 149.415 48.6744 149.425 48.6939 149.438L50.0015 150.278C50.0388 150.302 50.0658 150.339 50.0774 150.382L50.6822 152.704C50.6881 152.726 50.6895 152.75 50.6864 152.773C50.6832 152.796 50.6756 152.818 50.6639 152.838C50.6522 152.858 50.6367 152.875 50.6182 152.889C50.5998 152.903 50.5787 152.914 50.5563 152.92C50.5417 152.923 50.5267 152.924 50.5118 152.923Z" fill="url(#paint12_linear_1120_3658)"/>
<path d="M60.2008 129.15C54.3612 130.611 53.2769 132.292 53.2769 132.292L57.4729 135.672C57.4729 135.672 63.0144 133.662 65.9644 129.218C64.9417 128.668 64.1191 127.954 63.55 127.374C62.5932 128.227 61.4441 128.836 60.2008 129.15Z" fill="url(#paint13_linear_1120_3658)"/>
<path d="M66.2587 117.787C66.2437 117.748 66.2164 117.716 66.1809 117.695C66.1455 117.674 66.1041 117.665 66.0633 117.671C66.0224 117.676 65.9846 117.695 65.9557 117.724C65.9268 117.754 65.9086 117.792 65.904 117.833L65.7061 119.626C65.6678 119.972 65.7367 120.322 65.9035 120.628L66.4643 121.441C66.5759 121.645 66.6429 121.871 66.6608 122.102C66.6788 122.334 66.6472 122.567 66.5683 122.786C66.1833 123.845 65.2854 125.848 63.5522 127.374C64.1214 127.954 64.944 128.668 65.9667 129.219C67.0488 127.588 67.7813 125.631 67.7642 123.325C67.9077 123.221 68.0129 123.073 68.0634 122.904C68.114 122.734 68.107 122.552 68.0435 122.387L66.2587 117.787Z" fill="url(#paint14_linear_1120_3658)"/>
<path d="M63.8305 132.852C61.7191 130.577 57.6963 129.549 55.3676 129.127C54.8736 129.036 54.3635 129.122 53.9268 129.37C53.4901 129.619 53.1548 130.012 52.9795 130.483C51.9315 133.301 49.081 140.63 48.5289 141.89C48.0753 142.924 47.6024 143.933 47.3016 144.564C47.2148 144.745 47.2033 144.953 47.2696 145.142C47.3359 145.331 47.4746 145.486 47.6552 145.574C49.6143 146.518 53.1401 147.587 54.5697 148.003C54.6429 148.025 54.72 148.029 54.7949 148.015C54.8698 148.001 54.9405 147.97 55.0014 147.924C55.0623 147.879 55.1117 147.819 55.1457 147.751C55.1796 147.683 55.1972 147.608 55.1971 147.532C55.1976 147.254 55.2736 146.981 55.4171 146.743L60.831 137.721C64.205 141.461 67.16 141.805 69.4298 140.986C69.0545 139.834 68.8027 138.646 68.6787 137.441C65.324 136.865 63.8305 132.852 63.8305 132.852Z" fill="url(#paint15_linear_1120_3658)"/>
<path d="M74.2194 136.811L73.6146 136.004C71.6548 137.35 70.0173 137.669 68.6768 137.439C68.8007 138.644 69.0525 139.833 69.4279 140.984C72.4169 139.905 74.2194 136.811 74.2194 136.811Z" fill="url(#paint16_linear_1120_3658)"/>
<path d="M73.7916 136.826L77.2008 136.959L80.34 135.205C79.8891 134.923 77.341 135.501 77.341 135.501C77.341 135.501 74.6775 135.098 73.9566 135.096C73.3578 135.096 73.443 135.957 73.4892 136.251C73.4986 136.311 73.5068 136.346 73.5068 136.346L73.7916 136.826Z" fill="url(#paint17_linear_1120_3658)"/>
<path d="M58.5706 124.948L56.772 129.337C56.772 129.337 58.8389 130.767 60.5017 130.631L61.3996 126.685L58.5706 124.948Z" fill="url(#paint18_linear_1120_3658)"/>
<path d="M61.6095 121.955C61.6508 122.013 62.9111 126.566 62.9111 126.566L60.2959 127.23L58.4604 123.092C58.4604 123.092 60.9194 120.978 61.6095 121.955Z" fill="url(#paint19_linear_1120_3658)"/>
<path d="M59.4453 123.72L60.2409 125.974C60.2509 126.003 60.2648 126.03 60.2822 126.055C60.3921 126.208 60.8007 126.709 61.2873 126.258C61.7272 125.849 62.1374 125.482 62.5152 125.416C62.597 125.401 62.6813 125.418 62.7515 125.462C62.8218 125.506 62.873 125.575 62.8951 125.655C63.0095 126.069 63.2503 127.006 63.335 127.852C63.3435 127.935 63.3203 128.018 63.27 128.085C63.2197 128.151 63.1461 128.196 63.0639 128.21C62.5537 128.308 61.4693 128.482 60.5664 128.418C60.5064 128.415 60.4485 128.395 60.399 128.361C60.3495 128.327 60.3102 128.28 60.2855 128.225C60.0358 127.68 59.2726 126.029 58.9889 125.601C58.7222 125.2 58.069 125.212 57.7951 125.236C57.7508 125.239 57.7062 125.234 57.664 125.22C57.6217 125.206 57.5827 125.184 57.5493 125.155C57.3096 124.945 56.8538 124.409 57.4944 123.766C57.5262 123.735 57.5514 123.697 57.5683 123.655C57.5853 123.614 57.5936 123.569 57.5929 123.524C57.5922 123.479 57.5824 123.435 57.5642 123.394C57.5459 123.353 57.5195 123.316 57.4867 123.285C57.2117 123.026 56.9164 122.567 57.3767 121.997C57.8435 121.418 58.4594 121.51 58.8366 121.648C58.9104 121.674 58.9912 121.674 59.0647 121.647C59.1383 121.619 59.2 121.567 59.2391 121.499C59.2662 121.452 59.3071 121.415 59.3564 121.392C59.4056 121.369 59.4606 121.362 59.514 121.372C59.5597 121.375 59.6054 121.368 59.6484 121.352C59.6914 121.337 59.7306 121.312 59.7636 121.28C59.7966 121.249 59.8226 121.211 59.84 121.168C59.8575 121.126 59.8659 121.08 59.8648 121.035C59.8582 120.664 59.9907 120.195 60.6346 119.994C61.7767 119.639 62.4893 120.742 62.5592 121.566C62.629 122.39 61.3693 122.704 60.6286 122.649C60.065 122.606 59.6465 123.165 59.4783 123.435C59.4517 123.477 59.4349 123.524 59.4292 123.574C59.4235 123.623 59.429 123.673 59.4453 123.72Z" fill="url(#paint20_linear_1120_3658)"/>
<path d="M59.287 126.419C59.287 126.419 59.1022 124.99 58.5078 124.92C57.9134 124.85 57.3344 125.338 57.9255 126.141C58.6607 127.139 59.287 126.419 59.287 126.419Z" fill="url(#paint21_linear_1120_3658)"/>
<path d="M118.386 81.8714L119.71 83.1953L169.847 33.0586L168.523 31.7347L118.386 81.8714Z" fill="url(#paint22_linear_1120_3658)"/>
<path d="M119.32 78.6768C120.08 77.9175 123.661 81.4982 122.902 82.2581L109.621 92.6989C109.13 93.0838 108.494 92.4493 108.88 91.9583L119.32 78.6768Z" fill="url(#paint23_linear_1120_3658)"/>
<path d="M169.816 33.0876L176.562 33.7585L167.301 43.0177C165.803 44.5161 163.991 45.6633 161.996 46.3765C160.001 47.0896 157.872 47.351 155.764 47.1417L169.816 33.0876Z" fill="url(#paint24_linear_1120_3658)"/>
<path d="M168.492 31.764L167.821 25.0188L158.562 34.2785C157.063 35.7765 155.916 37.5884 155.203 39.5836C154.49 41.5788 154.228 43.7074 154.438 45.8158L168.492 31.764Z" fill="url(#paint25_linear_1120_3658)"/>
<defs>
<linearGradient id="paint0_linear_1120_3658" x1="36.4599" y1="70.0226" x2="67.0247" y2="70.0226" gradientUnits="userSpaceOnUse">
<stop stop-color="#DAE3FE"/>
<stop offset="1" stop-color="#E9EFFD"/>
</linearGradient>
<linearGradient id="paint1_linear_1120_3658" x1="39.6252" y1="117.315" x2="72.0513" y2="117.315" gradientUnits="userSpaceOnUse">
<stop stop-color="#DAE3FE"/>
<stop offset="1" stop-color="#E9EFFD"/>
</linearGradient>
<linearGradient id="paint2_linear_1120_3658" x1="80.0411" y1="183.769" x2="97.7866" y2="142.709" gradientUnits="userSpaceOnUse">
<stop stop-color="#09005D"/>
<stop offset="1" stop-color="#1A0F91"/>
</linearGradient>
<linearGradient id="paint3_linear_1120_3658" x1="103.856" y1="88.9968" x2="171.19" y2="162.111" gradientUnits="userSpaceOnUse">
<stop stop-color="#4F52FF"/>
<stop offset="1" stop-color="#4042E2"/>
</linearGradient>
<linearGradient id="paint4_linear_1120_3658" x1="151.315" y1="107.606" x2="170.039" y2="101.332" gradientUnits="userSpaceOnUse">
<stop stop-color="#4F52FF"/>
<stop offset="1" stop-color="#4042E2"/>
</linearGradient>
<linearGradient id="paint5_linear_1120_3658" x1="174.993" y1="99.9231" x2="124.086" y2="115.112" gradientUnits="userSpaceOnUse">
<stop stop-color="#09005D"/>
<stop offset="1" stop-color="#1A0F91"/>
</linearGradient>
<linearGradient id="paint6_linear_1120_3658" x1="81.5772" y1="141.422" x2="68.3235" y2="93.9685" gradientUnits="userSpaceOnUse">
<stop stop-color="#09005D"/>
<stop offset="1" stop-color="#1A0F91"/>
</linearGradient>
<linearGradient id="paint7_linear_1120_3658" x1="46.644" y1="175.37" x2="50.553" y2="175.37" gradientUnits="userSpaceOnUse">
<stop stop-color="#09005D"/>
<stop offset="1" stop-color="#1A0F91"/>
</linearGradient>
<linearGradient id="paint8_linear_1120_3658" x1="47.04" y1="173.554" x2="48.6253" y2="173.554" gradientUnits="userSpaceOnUse">
<stop stop-color="#FEBBBA"/>
<stop offset="1" stop-color="#FF928E"/>
</linearGradient>
<linearGradient id="paint9_linear_1120_3658" x1="54.9568" y1="175.308" x2="61.09" y2="175.308" gradientUnits="userSpaceOnUse">
<stop stop-color="#09005D"/>
<stop offset="1" stop-color="#1A0F91"/>
</linearGradient>
<linearGradient id="paint10_linear_1120_3658" x1="55.0503" y1="172.85" x2="56.6268" y2="172.85" gradientUnits="userSpaceOnUse">
<stop stop-color="#FEBBBA"/>
<stop offset="1" stop-color="#FF928E"/>
</linearGradient>
<linearGradient id="paint11_linear_1120_3658" x1="46.0553" y1="158.865" x2="56.8035" y2="158.865" gradientUnits="userSpaceOnUse">
<stop stop-color="#09005D"/>
<stop offset="1" stop-color="#1A0F91"/>
</linearGradient>
<linearGradient id="paint12_linear_1120_3658" x1="48.4223" y1="151.167" x2="50.6883" y2="151.167" gradientUnits="userSpaceOnUse">
<stop stop-color="#4F52FF"/>
<stop offset="1" stop-color="#4042E2"/>
</linearGradient>
<linearGradient id="paint13_linear_1120_3658" x1="60.9227" y1="107.08" x2="59.0185" y2="141.71" gradientUnits="userSpaceOnUse">
<stop stop-color="#4F52FF"/>
<stop offset="1" stop-color="#4042E2"/>
</linearGradient>
<linearGradient id="paint14_linear_1120_3658" x1="70.1429" y1="118.385" x2="82.0129" y2="103.958" gradientUnits="userSpaceOnUse">
<stop stop-color="#FEBBBA"/>
<stop offset="1" stop-color="#FF928E"/>
</linearGradient>
<linearGradient id="paint15_linear_1120_3658" x1="59.3673" y1="133.069" x2="56.1599" y2="163.445" gradientUnits="userSpaceOnUse">
<stop stop-color="#4F52FF"/>
<stop offset="1" stop-color="#4042E2"/>
</linearGradient>
<linearGradient id="paint16_linear_1120_3658" x1="78.8663" y1="127.962" x2="66.2057" y2="143.713" gradientUnits="userSpaceOnUse">
<stop stop-color="#FEBBBA"/>
<stop offset="1" stop-color="#FF928E"/>
</linearGradient>
<linearGradient id="paint17_linear_1120_3658" x1="81.2665" y1="129.891" x2="68.6058" y2="145.643" gradientUnits="userSpaceOnUse">
<stop stop-color="#FEBBBA"/>
<stop offset="1" stop-color="#FF928E"/>
</linearGradient>
<linearGradient id="paint18_linear_1120_3658" x1="64.623" y1="118.443" x2="52.361" y2="140.973" gradientUnits="userSpaceOnUse">
<stop stop-color="#FEBBBA"/>
<stop offset="1" stop-color="#FF928E"/>
</linearGradient>
<linearGradient id="paint19_linear_1120_3658" x1="60.7639" y1="122.581" x2="60.4715" y2="131.563" gradientUnits="userSpaceOnUse">
<stop stop-color="#FEBBBA"/>
<stop offset="1" stop-color="#FF928E"/>
</linearGradient>
<linearGradient id="paint20_linear_1120_3658" x1="60.484" y1="116.093" x2="59.8791" y2="138.476" gradientUnits="userSpaceOnUse">
<stop stop-color="#09005D"/>
<stop offset="1" stop-color="#1A0F91"/>
</linearGradient>
<linearGradient id="paint21_linear_1120_3658" x1="57.5543" y1="131.796" x2="58.5335" y2="125.646" gradientUnits="userSpaceOnUse">
<stop stop-color="#FEBBBA"/>
<stop offset="1" stop-color="#FF928E"/>
</linearGradient>
<linearGradient id="paint22_linear_1120_3658" x1="94.8613" y1="87.2558" x2="148.484" y2="54.8175" gradientUnits="userSpaceOnUse">
<stop stop-color="#09005D"/>
<stop offset="1" stop-color="#1A0F91"/>
</linearGradient>
<linearGradient id="paint23_linear_1120_3658" x1="112.938" y1="87.2458" x2="150.895" y2="55.7621" gradientUnits="userSpaceOnUse">
<stop stop-color="#4F52FF"/>
<stop offset="1" stop-color="#4042E2"/>
</linearGradient>
<linearGradient id="paint24_linear_1120_3658" x1="163.405" y1="42.3672" x2="215.155" y2="-0.557039" gradientUnits="userSpaceOnUse">
<stop stop-color="#4F52FF"/>
<stop offset="1" stop-color="#4042E2"/>
</linearGradient>
<linearGradient id="paint25_linear_1120_3658" x1="160.242" y1="37.3988" x2="203.342" y2="-14.5633" gradientUnits="userSpaceOnUse">
<stop stop-color="#4F52FF"/>
<stop offset="1" stop-color="#4042E2"/>
</linearGradient>
</defs>
</svg>
