<svg xmlns="http://www.w3.org/2000/svg" width="12.011" height="19.518" viewBox="0 0 12.011 19.518">
    <path d="M7.154.025A1.34 1.34 0 0 0 6 .389a5.074 5.074 0 0 0-.79.928c-.518.739-1.166 1.852-1.991 3.269L.857 8.645a12.332 12.332 0 0 0-.665 1.238 1.7 1.7 0 0 0-.067 1.4 1.393 1.393 0 0 0 1.128.773 8.9 8.9 0 0 0 1.271.054h2.261l-.295 1.622c-.277 1.525-.5 2.737-.568 3.583a4.042 4.042 0 0 0 .037 1.192 1.217 1.217 0 0 0 .9.986 1.34 1.34 0 0 0 1.153-.364A5.076 5.076 0 0 0 6.8 18.2c.518-.739 1.166-1.852 1.991-3.269l2.363-4.059a12.348 12.348 0 0 0 .666-1.238 1.7 1.7 0 0 0 .067-1.4 1.393 1.393 0 0 0-1.128-.773 8.9 8.9 0 0 0-1.271-.054H7.226l.295-1.624c.277-1.525.5-2.737.568-3.583a4.04 4.04 0 0 0-.037-1.192 1.217 1.217 0 0 0-.898-.983z" style="fill:#fe4335;fill-rule:evenodd"/>
</svg>
