<svg width="20" height="21" viewBox="0 0 20 21" fill="none" xmlns="http://www.w3.org/2000/svg">
<path fill-rule="evenodd" clip-rule="evenodd" d="M8.30182 4.76987C8.69874 5.08154 8.92699 5.54629 8.92699 6.04496C8.92699 10.0645 9.06266 11.1462 9.61724 11.5578C9.98116 11.8264 10.4798 11.8236 12.1601 11.7769C12.9411 11.754 13.9412 11.7246 15.2511 11.7246C15.7736 11.7246 16.2658 11.9483 16.5995 12.3379C16.9093 12.7 17.045 13.173 16.9735 13.6386C16.3612 17.6032 12.9878 20.4825 8.95266 20.4825C4.47566 20.4825 0.83374 16.8405 0.83374 12.3645C0.83374 8.81512 3.51774 5.26579 6.81682 4.45362C7.33199 4.32804 7.88566 4.44537 8.30182 4.76987ZM7.23391 5.77821C7.20457 5.77821 7.17524 5.78187 7.14591 5.78921C4.42341 6.45929 2.20874 9.40912 2.20874 12.3645C2.20874 16.0825 5.23374 19.1075 8.95266 19.1075C12.3049 19.1075 15.1062 16.7195 15.6141 13.4287C15.6177 13.4012 15.6306 13.3215 15.5554 13.2325C15.4839 13.1491 15.3702 13.0996 15.2511 13.0996C13.9577 13.0996 12.9704 13.129 12.1995 13.151C10.3332 13.2069 9.56132 13.228 8.79866 12.6624C7.70811 11.8545 7.56472 10.4962 7.55289 6.68483L7.55199 6.04496C7.55199 5.96796 7.51899 5.90379 7.45299 5.85246C7.39157 5.80387 7.31366 5.77821 7.23391 5.77821ZM17.3799 3.42265C18.9914 5.03323 20.0144 7.14981 19.9851 8.8154C19.9741 9.46531 19.502 10.008 18.864 10.1042C17.6192 10.2921 16.1617 10.349 14.8719 10.349C13.6711 10.349 12.6142 10.3004 12.0064 10.2656C11.2419 10.2206 10.6333 9.61106 10.5893 8.84656C10.5178 7.63473 10.3629 4.55565 10.4729 2.17415C10.5031 1.48206 11.0623 0.931147 11.7461 0.919231C13.705 0.862397 15.7263 1.77173 17.3799 3.42265ZM11.8634 2.29331H11.8433C11.7424 4.6024 11.8919 7.58523 11.9615 8.76681C11.9652 8.8374 12.0165 8.88873 12.0862 8.8924C13.0285 8.94648 16.2754 9.09681 18.6101 8.75306C18.6156 7.46606 17.7347 5.72073 16.4083 4.39523C15.0479 3.03673 13.4383 2.29331 11.8634 2.29331Z" fill="white"/>
</svg>
