<svg width="20" height="21" viewBox="0 0 20 21" fill="none" xmlns="http://www.w3.org/2000/svg">
<path fill-rule="evenodd" clip-rule="evenodd" d="M11.5737 14.017C12.6774 14.017 13.5757 14.9089 13.5757 16.0053V18.825C13.5757 19.0605 13.7645 19.2494 14.0065 19.2549H15.7537C17.1305 19.2549 18.2498 18.1494 18.2498 16.7909V8.79386C18.2434 8.32636 18.0206 7.88636 17.6384 7.59395L11.5948 2.77411C10.7835 2.13153 9.64871 2.13153 8.83471 2.77595L2.83238 7.59211C2.43546 7.8937 2.21271 8.3337 2.20813 8.80945V16.7909C2.20813 18.1494 3.32738 19.2549 4.70421 19.2549H6.46788C6.7163 19.2549 6.91796 19.0578 6.91796 18.8158C6.91796 18.7626 6.92438 18.7094 6.93538 18.659V16.0053C6.93538 14.9154 7.82821 14.0244 8.92363 14.017H11.5737ZM15.7537 20.6299H13.99C12.9799 20.606 12.2007 19.8131 12.2007 18.825V16.0053C12.2007 15.667 11.9193 15.392 11.5737 15.392H8.92821C8.58996 15.3939 8.31038 15.6698 8.31038 16.0053V18.8158C8.31038 18.8845 8.30121 18.9505 8.28196 19.0129C8.18296 19.9204 7.40746 20.6299 6.46788 20.6299H4.70421C2.5693 20.6299 0.83313 18.9074 0.83313 16.7909V8.80303C0.842297 7.89186 1.26213 7.0577 1.98721 6.50861L7.97763 1.7007C9.29671 0.655697 11.1346 0.655697 12.451 1.69886L18.4845 6.51136C19.193 7.05128 19.6129 7.88362 19.6248 8.78378V16.7909C19.6248 18.9074 17.8886 20.6299 15.7537 20.6299Z" fill="white"/>
</svg>
