<svg data-name="Iconly/Bold/Arrow - Down 2" xmlns="http://www.w3.org/2000/svg" width="15" height="15" viewBox="0 0 15 15">
    <path data-name="Arrow - Down 2" d="M3.043 6.019c-.036-.035-.191-.169-.319-.293A13.556 13.556 0 0 1 .209 2.1 2.885 2.885 0 0 1 0 1.368a1.208 1.208 0 0 1 .136-.56A1.171 1.171 0 0 1 .7.311a6.15 6.15 0 0 1 .665-.16A14.987 14.987 0 0 1 3.745 0a17.328 17.328 0 0 1 2.306.133 5.309 5.309 0 0 1 .829.213 1.116 1.116 0 0 1 .62.986v.035a3.049 3.049 0 0 1-.256.826 13.557 13.557 0 0 1-2.478 3.543 3.537 3.537 0 0 1-.346.3 1.115 1.115 0 0 1-.665.213 1.172 1.172 0 0 1-.711-.231" style="fill:#d6d5dd" transform="translate(3.75 4.375)"/>
</svg>
