<svg data-name="Iconly/Light-outline/Arrow - Right Square" xmlns="http://www.w3.org/2000/svg" width="18" height="18" viewBox="0 0 18 18">
    <path data-name="Arrow - Right Square" d="M5.1 18a4.952 4.952 0 0 1-3.7-1.486A5.437 5.437 0 0 1 0 12.676V5.324a5.437 5.437 0 0 1 1.4-3.838A4.952 4.952 0 0 1 5.1 0h7.8a4.949 4.949 0 0 1 3.7 1.486A5.439 5.439 0 0 1 18 5.324v7.352a5.438 5.438 0 0 1-1.4 3.838A4.95 4.95 0 0 1 12.9 18zM2.364 2.432A4.121 4.121 0 0 0 1.35 5.324v7.352a3.623 3.623 0 0 0 3.75 3.975h7.8a3.623 3.623 0 0 0 3.749-3.975V5.324A3.623 3.623 0 0 0 12.9 1.35H5.1a3.636 3.636 0 0 0-2.736 1.082zM8.6 13.22l-.008-.007a.679.679 0 0 1-.078-.07L5.148 9.766a.675.675 0 0 1 .882-1.018l.075.066 2.22 2.23V5.323a.675.675 0 0 1 1.344-.092l.006.092v5.72l2.22-2.229a.676.676 0 0 1 .879-.067l.076.066a.676.676 0 0 1 .067.879l-.066.075-3.372 3.387a.676.676 0 0 1-.881.066z" style="fill:#d6d5dd" transform="rotate(-90 9 9)"/>
</svg>
