<svg data-name="Iconly/Light-outline/Calendar" xmlns="http://www.w3.org/2000/svg" width="15" height="17" viewBox="0 0 15 17">
    <path data-name="Calendar" d="M4.247 17a4.237 4.237 0 0 1-3.1-1.151A4.408 4.408 0 0 1 0 12.669V5.513A4.3 4.3 0 0 1 1.143 2.38 4.111 4.111 0 0 1 3.82 1.263v-.67a.576.576 0 0 1 1.148-.08l.005.08v.656h5.06V.593a.576.576 0 0 1 1.149-.08l.005.08v.67A4.086 4.086 0 0 1 13.9 2.41a4.3 4.3 0 0 1 1.1 3.1v7.216a4.312 4.312 0 0 1-1.141 3.138A4.272 4.272 0 0 1 10.753 17zm-3.094-4.331a2.814 2.814 0 0 0 3.094 3.146h6.505a2.787 2.787 0 0 0 3.093-3.086V7.04H1.153zm12.693-6.814v-.344a3.106 3.106 0 0 0-.768-2.264 2.886 2.886 0 0 0-1.89-.795V3.2a.576.576 0 0 1-1.149.08l-.005-.08v-.766H4.973V3.2a.576.576 0 0 1-1.148.08L3.82 3.2v-.748a2.73 2.73 0 0 0-2.667 3.061v.342zm-3.506 6.754a.587.587 0 0 1 .5-.588l.085-.005A.594.594 0 0 1 11 13.2l-.079.005a.586.586 0 0 1-.581-.596zm-3.414 0a.588.588 0 0 1 .5-.588l.085-.005a.594.594 0 0 1 .079 1.18l-.08.004a.587.587 0 0 1-.584-.591zm-3.42 0a.587.587 0 0 1 .5-.588l.085-.005a.594.594 0 0 1 .079 1.18l-.085.005a.585.585 0 0 1-.579-.592zm6.834-3.073a.587.587 0 0 1 .5-.588l.085-.005a.594.594 0 0 1 .075 1.18l-.079.005a.586.586 0 0 1-.581-.592zm-3.414 0a.588.588 0 0 1 .5-.588l.085-.005a.594.594 0 0 1 .079 1.18l-.079.005a.587.587 0 0 1-.585-.592zm-3.42 0A.587.587 0 0 1 4 8.948l.085-.005a.594.594 0 0 1 .079 1.18l-.085.005a.585.585 0 0 1-.573-.592z" style="fill:#fff"/>
</svg>
