<svg data-name="Iconly/Light-outline/Message" xmlns="http://www.w3.org/2000/svg" width="40" height="40" viewBox="0 0 40 40">
    <path data-name="Message" d="M9.093 30a8.749 8.749 0 0 1-6.527-2.822A10.183 10.183 0 0 1 0 20.235V9.765a10.183 10.183 0 0 1 2.567-6.943A8.749 8.749 0 0 1 9.093 0h15.115a9.26 9.26 0 0 1 9.11 9.765v10.4a9.372 9.372 0 0 1-2.46 6.885A9.263 9.263 0 0 1 24.2 30zM2.529 9.765v10.47c0 4.182 2.76 7.218 6.564 7.218H24.18A6.7 6.7 0 0 0 29 25.308a6.818 6.818 0 0 0 1.785-5.073V9.69a6.8 6.8 0 0 0-1.786-5 6.7 6.7 0 0 0-4.819-2.143H9.093c-3.804 0-6.564 3.036-6.564 7.218zM13.971 16.9l-.268-.2-6.891-5.509a1.282 1.282 0 0 1-.2-1.789 1.258 1.258 0 0 1 1.617-.312l.156.105 6.882 5.5a2.3 2.3 0 0 0 2.634.147l.2-.137L24.93 9.2a1.257 1.257 0 0 1 1.776.2 1.281 1.281 0 0 1-.058 1.662l-.138.127-6.844 5.519a4.818 4.818 0 0 1-5.694.191z" style="fill:#d6d5dd" transform="translate(3.333 5)"/>
</svg>
