<svg xmlns="http://www.w3.org/2000/svg" width="17.066" height="17.066" viewBox="0 0 17.066 17.066">
    <g data-name="Iconly/Light-outline/Swap">
        <path data-name="Swap" d="M13.152 17.851a.716.716 0 0 1-.071-.067l-3.755-4.142a.811.811 0 0 1 0-1.071.644.644 0 0 1 .9-.071l.077.074 2.57 2.836V3.5a.725.725 0 0 1 .689-.757.715.715 0 0 1 .683.654l.006.1v11.911l2.57-2.834a.646.646 0 0 1 .975 0 .814.814 0 0 1 .069.986l-.067.085-3.735 4.12a.716.716 0 0 1-.106.1l-.008.006-.01.007a.639.639 0 0 1-.782-.03z" fill="rgb(214, 213, 221)" transform="rotate(45 13.265 3.381)"/>
    </g>
</svg>
