<svg data-name="Iconly/Light-outline/Logout" xmlns="http://www.w3.org/2000/svg" width="18" height="18" viewBox="0 0 18 18">
    <path data-name="Logout" d="M3.326 15A3.326 3.326 0 0 1 0 11.83V3.326A3.327 3.327 0 0 1 3.169 0h3.813A3.327 3.327 0 0 1 10.3 3.17v.857a.563.563 0 0 1-1.12.077l-.005-.077v-.7a2.2 2.2 0 0 0-2.072-2.2H3.326A2.2 2.2 0 0 0 1.129 3.2v8.477a2.2 2.2 0 0 0 2.071 2.2H6.989a2.194 2.194 0 0 0 2.19-2.064v-.836A.563.563 0 0 1 10.3 10.9V11.683A3.319 3.319 0 0 1 7.15 15h-.161zm8.92-4.916a.562.562 0 0 1-.053-.732l.054-.063 1.23-1.226H5.81a.563.563 0 0 1-.076-1.12H13.479l-1.231-1.23a.563.563 0 0 1-.057-.732l.055-.063a.563.563 0 0 1 .732-.056l.063.054 2.2 2.186a.56.56 0 0 1 .161.327v.131a.56.56 0 0 1-.055.189V7.767l-.006.01-.006.01-.006.01-.006.009-.006.008-.017.016a.565.565 0 0 1-.068.076l-2.183 2.174a.562.562 0 0 1-.8 0z" style="fill:#d6d5dd" transform="translate(1.516 1.516)"/>
</svg>
