<svg data-name="Iconly/Light-outline/Notification" xmlns="http://www.w3.org/2000/svg" width="28.925" height="34.404" viewBox="0 0 28.925 34.404">
    <path data-name="Notification" d="M13.688 34.362a5.928 5.928 0 0 1-3.965-2.248 1.219 1.219 0 0 1 .185-1.686 1.154 1.154 0 0 1 1.648.19 3.6 3.6 0 0 0 5.089.593 3.269 3.269 0 0 0 .6-.6 1.157 1.157 0 0 1 1.649-.183 1.219 1.219 0 0 1 .179 1.688 5.628 5.628 0 0 1-1.015 1 5.889 5.889 0 0 1-4.375 1.24zm-6.86-7.1a8.305 8.305 0 0 1-5.251-2.621A7.032 7.032 0 0 1 0 20.061v-.409a7.1 7.1 0 0 1 1.136-3.517l.113-.149a6.664 6.664 0 0 0 1.58-3.132l-.026.105v-.92l.02-1.025c.015-.451.04-.858.072-1.243a10.319 10.319 0 0 1 3.8-6.971A12.051 12.051 0 0 1 14.4 0h.123a12.065 12.065 0 0 1 7.707 2.8 10.389 10.389 0 0 1 3.809 6.98c.029.341.043.652.047 1.113v1.158c0 .189 0 .358.008.529l.015.338.077.322a6.734 6.734 0 0 0 1.235 2.46l.256.3.106.136a7.006 7.006 0 0 1 1.142 3.569v.694A7.033 7.033 0 0 1 27.28 24.7a8.109 8.109 0 0 1-5.18 2.557 70.077 70.077 0 0 1-7.644.42 70.015 70.015 0 0 1-7.628-.418zM3.04 17.546l-.132.221a4.652 4.652 0 0 0-.533 1.615l-.029.328v.376a4.6 4.6 0 0 0 .979 2.951 5.917 5.917 0 0 0 3.739 1.833 68.084 68.084 0 0 0 7.389.4 68.229 68.229 0 0 0 7.413-.406 5.818 5.818 0 0 0 3.67-1.764 4.618 4.618 0 0 0 1.043-3.051v-.28a4.476 4.476 0 0 0-.74-2.276l.026.043-.234-.279a9.155 9.155 0 0 1-1.724-3.434l-.11-.475-.021-.159a12.184 12.184 0 0 1-.032-.689v-1.556c0-.392-.014-.656-.037-.941-.4-4.191-4.514-7.6-9.179-7.6H14.4C9.735 2.4 5.625 5.8 5.24 9.989c-.018.209-.034.44-.049.726l-.026.8-.012 1.585-.025.245a9.085 9.085 0 0 1-2.076 4.188z" style="fill:#d6d5dd"/>
</svg>
