<svg width="18" height="18" viewBox="0 0 18 18" fill="none" xmlns="http://www.w3.org/2000/svg">
<path fill-rule="evenodd" clip-rule="evenodd" d="M12.6116 0.666504C15.4358 0.666504 17.3333 2.64817 17.3333 5.5965V12.4032C17.3333 15.3515 15.4358 17.3332 12.61 17.3332H5.38663C2.56329 17.3332 0.666626 15.3515 0.666626 12.4032V5.5965C0.666626 2.64817 2.56329 0.666504 5.38663 0.666504H12.6116ZM12.6116 1.9165H5.38663C3.27913 1.9165 1.91663 3.36067 1.91663 5.5965V12.4032C1.91663 14.639 3.27913 16.0832 5.38663 16.0832H12.61C14.72 16.0832 16.0833 14.639 16.0833 12.4032V5.5965C16.0833 3.36067 14.72 1.9165 12.6116 1.9165ZM8.99496 8.37484C9.33996 8.37484 9.61996 8.65484 9.61996 8.99984V12.3332C9.61996 12.6782 9.33996 12.9582 8.99496 12.9582C8.64996 12.9582 8.36996 12.6782 8.36996 12.3332V8.99984C8.36996 8.65484 8.64996 8.37484 8.99496 8.37484ZM8.99904 5.00325C9.45988 5.00325 9.83238 5.37575 9.83238 5.83659C9.83238 6.29742 9.45988 6.66992 8.99904 6.66992C8.53821 6.66992 8.16154 6.29742 8.16154 5.83659C8.16154 5.37575 8.53071 5.00325 8.99071 5.00325H8.99904Z" fill="#F7F8FA"/>
</svg>
