<svg width="202" height="203" viewBox="0 0 202 203" fill="none" xmlns="http://www.w3.org/2000/svg">
<path d="M195.801 99.0517C199.059 115.673 205.661 149.36 189.862 171.896C161.63 212.166 64.8758 210.437 22.4809 158.347C19.5201 154.709 -5.31141 123.192 2.2521 83.1088C11.9986 31.4575 70.159 -5.91218 116.318 4.21466C145.519 10.6211 164.212 34.7801 171.797 44.5959C175.025 48.7727 189.807 68.4642 195.801 99.0517Z" fill="#F4F7FA"/>
<path d="M43.9961 100.78C44.0521 100.822 44.1082 100.863 44.1646 100.905C47.4991 103.358 51.5766 105.451 56.5945 106.821C57.5915 107.019 58.5885 107.217 59.5855 107.415C60.9635 105.26 61.8884 102.964 59.0907 101.347C54.7459 98.8362 56.5883 90.5828 58.5623 87.9774C61.0057 84.7526 66.5407 77.1271 59.885 73.1395C54.3442 69.8198 50.0902 68.8101 51.5046 60.9962C52.9189 53.1823 49.8525 47.3684 42.7474 46.164C35.2704 44.8966 31.5631 33.6613 24.7523 35.5053C12.8847 38.7185 18.3646 57.982 29.9754 65.9455C41.5861 73.9091 33.1593 76.7718 31.3137 83.0028C28.7941 91.5094 40.8834 92.438 43.1561 96.5556C43.926 97.9502 44.1155 99.4058 43.9961 100.78Z" fill="url(#paint0_linear_933_2473)"/>
<g style="mix-blend-mode:soft-light">
<g style="mix-blend-mode:soft-light">
<g style="mix-blend-mode:soft-light">
<path d="M50.6749 104.657L51.0321 104.668C51.8462 78.558 39.9842 52.1805 20.0752 35.8295L19.8485 36.1057C39.6736 52.3878 51.4856 78.6552 50.6749 104.657Z" fill="#FCFDFE"/>
</g>
</g>
<g style="mix-blend-mode:soft-light">
<g style="mix-blend-mode:soft-light">
<path d="M49.8992 90.3837L50.2471 90.4652C52.587 80.4692 62.9684 74.6806 63.0731 74.6233L62.9014 74.3099C62.7954 74.3679 52.2761 80.2301 49.8992 90.3837Z" fill="#FCFDFE"/>
</g>
</g>
<g style="mix-blend-mode:soft-light">
<g style="mix-blend-mode:soft-light">
<path d="M50.6937 99.8499L51.0386 99.7563C48.3144 89.711 30.1964 84.1382 30.0136 84.0831L29.9104 84.4252C30.0911 84.4798 48.0214 89.9955 50.6937 99.8499Z" fill="#FCFDFE"/>
</g>
</g>
<g style="mix-blend-mode:soft-light">
<g style="mix-blend-mode:soft-light">
<path d="M42.6118 65.8382L42.9634 65.7746C41.4906 57.6502 48.9611 47.428 49.0367 47.3257L48.7495 47.1132C48.6729 47.2167 41.1116 57.5637 42.6118 65.8382Z" fill="#FCFDFE"/>
</g>
</g>
<g style="mix-blend-mode:soft-light">
<g style="mix-blend-mode:soft-light">
<path d="M34.2619 51.5019L34.5136 51.2482C27.8321 44.6246 15.1241 44.4449 14.9963 44.444L14.9934 44.8013C15.1196 44.8021 27.6846 44.9814 34.2619 51.5019Z" fill="#FCFDFE"/>
</g>
</g>
</g>
<path d="M63.233 114.194L45.5227 114.738C45.5227 114.738 41.9098 105.756 46.053 99.2107C54.5063 85.8573 42.2211 79.3856 37.481 75.9052C30.3325 70.6565 27.0396 63.6923 35.2936 58.8557C44.6325 53.3832 35.8369 39.8505 23.0706 33.0377C10.5779 26.3709 15.22 0.316623 43.584 12.2633C60.5228 19.3979 58.4506 37.1885 59.5399 46.4214C60.6292 55.6543 74.4213 55.9974 70.0565 67.4513C66.3281 77.2351 58.8969 84.5138 64.9372 90.9759C70.9775 97.438 71.8099 104.866 63.233 114.194Z" fill="url(#paint1_linear_933_2473)"/>
<g style="mix-blend-mode:soft-light">
<g style="mix-blend-mode:soft-light">
<g style="mix-blend-mode:soft-light">
<path d="M55.6182 116.073L55.2484 116.017C55.2831 115.788 58.6802 92.8426 55.189 69.0803C51.9729 47.1889 42.0819 20.1047 13.2264 15.3938L13.2865 15.0246C26.1317 17.1216 36.3512 23.7494 43.6613 34.7237C49.5008 43.4903 53.5042 55.0337 55.5603 69.0335C59.0579 92.8501 55.6529 115.844 55.6182 116.073Z" fill="#BEB8F2"/>
</g>
</g>
<g style="mix-blend-mode:soft-light">
<g style="mix-blend-mode:soft-light">
<path d="M46.5179 39.4416L46.1454 39.4066C47.3035 27.0108 42.0602 9.61424 42.0072 9.43997L42.365 9.33082C42.4182 9.5059 47.6829 26.9731 46.5179 39.4416Z" fill="#BEB8F2"/>
</g>
</g>
<g style="mix-blend-mode:soft-light">
<g style="mix-blend-mode:soft-light">
<path d="M41.4468 32.2629C28.6201 24.8079 16.9766 28.9317 16.8606 28.9742L16.7319 28.6231C16.8497 28.5798 28.6508 24.3932 41.6348 31.9394L41.4468 32.2629Z" fill="#BEB8F2"/>
</g>
</g>
<g style="mix-blend-mode:soft-light">
<g style="mix-blend-mode:soft-light">
<path d="M56.6251 84.7396C51.9033 67.2407 27.7959 63.6538 27.5581 63.6385L27.5577 63.2648C27.7925 63.2577 52.2225 66.9878 56.9861 84.6422L56.6251 84.7396Z" fill="#BEB8F2"/>
</g>
</g>
<g style="mix-blend-mode:soft-light">
<g style="mix-blend-mode:soft-light">
<path d="M56.5112 77.2667L56.1426 77.2017C58.149 65.8113 70.1869 57.6466 70.3084 57.5654L70.5163 57.8763C70.3961 57.9566 58.4892 66.0353 56.5112 77.2667Z" fill="#BEB8F2"/>
</g>
</g>
<g style="mix-blend-mode:soft-light">
<g style="mix-blend-mode:soft-light">
<path d="M55.7035 112.395C54.9536 105.55 44.9912 100.419 44.8908 100.368L45.0601 100.034C45.4779 100.246 55.3035 105.308 56.0753 112.354L55.7035 112.395Z" fill="#BEB8F2"/>
</g>
</g>
<g style="mix-blend-mode:soft-light">
<g style="mix-blend-mode:soft-light">
<path d="M56.5811 106.972L56.2106 106.92C56.9617 101.528 64.8859 95.3039 67.49 93.2585C67.858 92.9694 68.1756 92.7199 68.2235 92.6643L68.5104 92.9043C68.444 92.9836 68.2334 93.1501 67.7211 93.5526C65.1465 95.575 57.3113 101.729 56.5811 106.972Z" fill="#BEB8F2"/>
</g>
</g>
</g>
<path d="M143.648 105.309C145.688 109.478 143.919 113.73 142.196 116.602C141.771 116.614 141.526 116.737 141.099 116.851C137.241 117.877 135.411 117.435 131.475 117.805C130.628 117.884 128.093 117.305 127.073 116.997L125.181 116.389C125.181 116.389 121.63 106.218 126.808 103.278C131.985 100.337 129.763 90.1869 129.205 84.6372C127.693 69.5793 144.022 70.6036 143.626 51.0984C143.52 45.9106 141.584 36.0524 145.87 31.8275C150.753 27.0141 154.489 31.5545 157.609 27.5498C162.486 21.2907 170.565 18.9107 175.544 25.1396C180.457 31.2872 174.913 43.8509 160.685 54.1565C151.315 62.706 151.219 65.2079 152.1 71.2769C152.717 75.5279 157.019 86.5445 151.328 91.1012C145.637 95.6579 141.317 100.543 143.648 105.309Z" fill="url(#paint2_linear_933_2473)"/>
<g style="mix-blend-mode:soft-light">
<g style="mix-blend-mode:soft-light">
<g style="mix-blend-mode:soft-light">
<path d="M133.531 117.92L133.243 117.89C133.42 116.17 133.62 114.438 133.837 112.742C135.446 100.182 138.17 88.2266 141.932 77.2079C145.12 67.8716 149.097 59.0756 153.752 51.0643C157.495 44.6216 161.695 38.6491 166.236 33.3127C169.428 29.5613 172.754 26.1606 176.121 23.2052C176.708 22.6901 177.337 22.1961 177.945 21.7184C178.755 21.0819 179.593 20.4237 180.338 19.7103L180.539 19.9199C179.784 20.6432 178.94 21.3057 178.124 21.9466C177.519 22.4219 176.893 22.9135 176.313 23.4234C172.956 26.3695 169.64 29.76 166.457 33.5008C161.927 38.8239 157.737 44.7823 154.002 51.2101C149.357 59.2049 145.389 67.9834 142.207 77.3018C138.451 88.3017 135.732 100.238 134.125 112.779C133.908 114.473 133.708 116.202 133.531 117.92Z" fill="#FCFDFE"/>
</g>
</g>
<g style="mix-blend-mode:soft-light">
<g style="mix-blend-mode:soft-light">
<path d="M148.743 61.1896L148.478 61.072C153.526 49.6881 148.44 28.9628 148.388 28.7548L148.669 28.6844C148.721 28.8934 153.832 49.7146 148.743 61.1896Z" fill="#FCFDFE"/>
</g>
</g>
<g style="mix-blend-mode:soft-light">
<g style="mix-blend-mode:soft-light">
<path d="M137.411 94.2731L137.134 94.1871C139.66 86.0492 154.655 79.49 154.806 79.4246L154.921 79.6911C154.771 79.7558 139.898 86.2623 137.411 94.2731Z" fill="#FCFDFE"/>
</g>
</g>
<g style="mix-blend-mode:soft-light">
<g style="mix-blend-mode:soft-light">
<path d="M136.377 99.0145L136.089 98.9788C136.773 93.4586 134.755 85.5655 130.409 76.7537C130.19 76.3106 130.19 76.3106 130.196 76.2558L130.485 76.288L130.341 76.2719L130.48 76.2329C130.491 76.2641 130.573 76.4314 130.669 76.6253C135.04 85.4874 137.068 93.4387 136.377 99.0145Z" fill="#FCFDFE"/>
</g>
</g>
<g style="mix-blend-mode:soft-light">
<g style="mix-blend-mode:soft-light">
<path d="M133.899 114.786L133.634 114.669C136.095 109.059 144.864 106.679 144.952 106.656L145.027 106.936C144.94 106.959 136.304 109.304 133.899 114.786Z" fill="#FCFDFE"/>
</g>
</g>
<g style="mix-blend-mode:soft-light">
<g style="mix-blend-mode:soft-light">
<path d="M133.093 117.952C131.897 113.158 129.286 108.551 125.111 103.868L125.328 103.675C129.535 108.394 132.167 113.041 133.375 117.881L133.093 117.952Z" fill="#FCFDFE"/>
</g>
</g>
<g style="mix-blend-mode:soft-light">
<g style="mix-blend-mode:soft-light">
<path d="M163.834 36.6874L163.576 36.5551C166.736 30.3823 168.624 23.1648 169.245 20.7931C169.395 20.219 169.449 20.0171 169.48 19.95L169.743 20.0713C169.72 20.1229 169.634 20.4511 169.526 20.8666C168.903 23.2459 167.008 30.4863 163.834 36.6874Z" fill="#FCFDFE"/>
</g>
</g>
<g style="mix-blend-mode:soft-light">
<g style="mix-blend-mode:soft-light">
<path d="M157.212 45.964L157.004 45.7616C161.541 41.1023 174.545 40.9717 175.096 40.9684L175.098 41.2586C174.964 41.2594 161.664 41.3918 157.212 45.964Z" fill="#FCFDFE"/>
</g>
</g>
</g>
<path d="M120.582 141.125L137.65 145.883C137.65 145.883 143.304 138.023 140.843 130.678C135.823 115.693 149.299 112.342 154.733 110.094C162.928 106.704 167.789 100.728 160.928 94.0603C153.167 86.516 164.939 75.4752 178.963 71.9082C192.687 68.4177 194.401 42.0086 164.004 46.8362C145.852 49.7192 143.616 67.49 140.353 76.1956C137.09 84.9012 123.615 81.9407 125.119 94.1056C126.403 104.497 131.881 113.339 124.472 118.172C117.063 123.005 114.481 130.019 120.582 141.125Z" fill="url(#paint3_linear_933_2473)"/>
<g style="mix-blend-mode:soft-light">
<g style="mix-blend-mode:soft-light">
<g style="mix-blend-mode:soft-light">
<path d="M127.528 144.769L127.9 144.803C127.921 144.572 130.102 121.479 139.167 99.2379C147.517 78.748 163.59 54.8094 192.736 57.1257L192.766 56.7528C179.791 55.7216 168.285 59.7172 158.565 68.6283C150.801 75.7467 144.157 86 138.817 99.1037C129.733 121.396 127.549 144.538 127.528 144.769Z" fill="#BEB8F2"/>
</g>
</g>
<g style="mix-blend-mode:soft-light">
<g style="mix-blend-mode:soft-light">
<path d="M154.665 72.5274L155.035 72.5824C156.87 60.2687 166.116 44.6275 166.21 44.4709L165.888 44.2795C165.795 44.4369 156.511 60.1415 154.665 72.5274Z" fill="#BEB8F2"/>
</g>
</g>
<g style="mix-blend-mode:soft-light">
<g style="mix-blend-mode:soft-light">
<path d="M161.303 66.7675C175.539 62.5913 185.861 69.3763 185.964 69.4453L186.172 69.1351C186.068 69.0648 175.609 62.1812 161.198 66.4085L161.303 66.7675Z" fill="#BEB8F2"/>
</g>
</g>
<g style="mix-blend-mode:soft-light">
<g style="mix-blend-mode:soft-light">
<path d="M134.032 114.101C142.796 98.2362 167.063 100.51 167.297 100.552L167.387 100.189C167.161 100.126 142.547 97.9144 133.705 113.92L134.032 114.101Z" fill="#BEB8F2"/>
</g>
</g>
<g style="mix-blend-mode:soft-light">
<g style="mix-blend-mode:soft-light">
<path d="M135.928 106.872L136.301 106.897C137.073 95.3568 127.333 84.5534 127.235 84.4455L126.958 84.6978C127.056 84.8045 136.689 95.4929 135.928 106.872Z" fill="#BEB8F2"/>
</g>
</g>
<g style="mix-blend-mode:soft-light">
<g style="mix-blend-mode:soft-light">
<path d="M128.323 141.176C130.686 134.709 141.585 132.105 141.695 132.079L141.611 131.715C141.154 131.821 130.404 134.39 127.972 141.048L128.323 141.176Z" fill="#BEB8F2"/>
</g>
</g>
<g style="mix-blend-mode:soft-light">
<g style="mix-blend-mode:soft-light">
<path d="M128.766 135.701L129.138 135.739C129.696 130.324 123.488 122.387 121.448 119.779C121.159 119.41 120.91 119.092 120.877 119.027L120.541 119.191C120.587 119.284 120.752 119.496 121.153 120.009C123.17 122.588 129.309 130.435 128.766 135.701Z" fill="#BEB8F2"/>
</g>
</g>
</g>
<path d="M136.525 145.637C136.464 145.67 136.402 145.702 136.34 145.735C132.677 147.664 128.333 149.125 123.167 149.731C122.151 149.778 121.136 149.825 120.121 149.873C119.079 147.537 118.507 145.128 121.515 143.947C126.186 142.112 125.595 133.676 124.031 130.805C122.096 127.252 117.76 118.886 124.936 115.936C130.91 113.48 135.267 113.116 135.034 105.178C134.801 97.2407 138.7 91.9493 145.905 91.8179C153.487 91.6797 158.829 81.123 165.289 83.9621C176.544 88.9092 168.253 107.14 155.584 113.283C142.916 119.426 150.821 123.513 151.717 129.95C152.94 138.737 140.847 137.852 137.986 141.585C137.017 142.849 136.612 144.26 136.525 145.637Z" fill="url(#paint4_linear_933_2473)"/>
<g style="mix-blend-mode:soft-light">
<g style="mix-blend-mode:soft-light">
<g style="mix-blend-mode:soft-light">
<path d="M129.343 148.475L128.988 148.432C132.077 122.493 147.74 98.1793 169.865 84.9803L170.048 85.2871C148.016 98.4306 132.419 122.643 129.343 148.475Z" fill="#FCFDFE"/>
</g>
</g>
<g style="mix-blend-mode:soft-light">
<g style="mix-blend-mode:soft-light">
<path d="M132.239 134.476L131.882 134.505C131.059 124.272 121.657 117 121.562 116.928L121.779 116.643C121.875 116.716 131.403 124.082 132.239 134.476Z" fill="#FCFDFE"/>
</g>
</g>
<g style="mix-blend-mode:soft-light">
<g style="mix-blend-mode:soft-light">
<path d="M130.041 143.718L129.714 143.574C133.906 134.048 152.653 131.239 152.841 131.212L152.892 131.566C152.706 131.593 134.153 134.373 130.041 143.718Z" fill="#FCFDFE"/>
</g>
</g>
<g style="mix-blend-mode:soft-light">
<g style="mix-blend-mode:soft-light">
<path d="M143.105 111.292L142.767 111.177C145.435 103.363 139.572 92.141 139.513 92.0286L139.829 91.8612C139.889 91.975 145.823 103.334 143.105 111.292Z" fill="#FCFDFE"/>
</g>
</g>
<g style="mix-blend-mode:soft-light">
<g style="mix-blend-mode:soft-light">
<path d="M153.5 98.3615L153.288 98.073C160.883 92.5199 173.476 94.2375 173.602 94.2556L173.552 94.6094C173.427 94.5914 160.976 92.8948 153.5 98.3615Z" fill="#FCFDFE"/>
</g>
</g>
</g>
<path d="M144.144 8.61318V182.179C144.144 184.775 141.927 185.333 139.413 185.416L53.2293 189.873L51.9237 189.915C49.2445 190.003 47.0488 187.878 47.0488 185.192V5.60054C47.0488 2.91491 49.2445 0.789362 51.9237 0.877006L53.6955 0.934948L140.194 7.66253C142.709 7.74479 144.144 6.0176 144.144 8.61318Z" fill="#3B407A"/>
<path d="M146.829 8.61318V182.179C146.829 184.775 144.775 186.966 142.261 187.048L54.6085 189.915C51.9293 190.003 49.7336 187.878 49.7336 185.192V5.60054C49.7336 2.91491 51.9293 0.789362 54.6085 0.877006L142.261 3.74448C144.775 3.82674 146.829 6.0176 146.829 8.61318Z" fill="#3B407A"/>
<path d="M143.992 18.1549V178.943C143.992 181.367 142.073 183.41 139.723 183.483L57.3023 186.073C54.8084 186.151 52.7646 184.168 52.7646 181.666V15.6382C52.7646 13.1359 54.8084 11.1482 57.3023 11.2209L139.723 13.6245C142.073 13.693 143.992 15.7317 143.992 18.1549Z" fill="url(#paint5_linear_933_2473)"/>
<path d="M100.737 7.71277C100.737 8.62737 100.009 9.34672 99.1098 9.31951C98.2101 9.2923 97.4802 8.52799 97.4802 7.61236C97.4802 6.69673 98.2101 5.97744 99.1098 6.00569C100.009 6.03393 100.737 6.79818 100.737 7.71277Z" fill="#DE8BDF"/>
<path d="M131.202 115.799L65.3762 116.682C64.5439 116.693 63.8687 116.026 63.8687 115.193V100.78C63.8687 99.9465 64.5439 99.2666 65.3762 99.261L131.202 98.8158C131.993 98.8105 132.633 99.4638 132.633 100.275V114.311C132.633 115.122 131.993 115.788 131.202 115.799Z" fill="#F4F7FA"/>
<path d="M107.768 109.668L71.8426 110.06C70.6204 110.073 69.6196 109.08 69.6196 107.854C69.6196 106.628 70.6204 105.615 71.8426 105.604L107.768 105.273C108.956 105.262 109.927 106.241 109.927 107.449C109.927 108.656 108.956 109.655 107.768 109.668Z" fill="url(#paint6_linear_933_2473)"/>
<path d="M131.053 142.349L65.5335 143.908C64.6143 143.93 63.8687 143.202 63.8687 142.282V128.183C63.8687 127.263 64.6143 126.504 65.5335 126.489L131.053 125.365C131.926 125.35 132.633 126.064 132.633 126.96V140.689C132.633 141.585 131.926 142.328 131.053 142.349Z" fill="#F4F7FA"/>
<path d="M74.9947 134.966C74.9947 136.533 73.7293 137.83 72.1665 137.864C70.602 137.898 69.3323 136.652 69.3323 135.082C69.3323 133.512 70.602 132.214 72.1665 132.184C73.7293 132.153 74.9947 133.399 74.9947 134.966Z" fill="url(#paint7_linear_933_2473)"/>
<path d="M85.4679 134.752C85.4679 136.246 84.266 137.483 82.7818 137.515C81.2958 137.547 80.0898 136.359 80.0898 134.862C80.0898 133.364 81.2958 132.127 82.7818 132.098C84.266 132.069 85.4679 133.257 85.4679 134.752Z" fill="url(#paint8_linear_933_2473)"/>
<path d="M95.919 134.538C95.919 135.994 94.7522 137.2 93.3114 137.231C91.8688 137.262 90.6982 136.104 90.6982 134.645C90.6982 133.185 91.8688 131.979 93.3114 131.951C94.7522 131.923 95.919 133.082 95.919 134.538Z" fill="url(#paint9_linear_933_2473)"/>
<path d="M106.792 134.315C106.792 136.018 105.434 137.427 103.757 137.463C102.077 137.499 100.715 136.146 100.715 134.44C100.715 132.734 102.077 131.325 103.757 131.292C105.434 131.26 106.792 132.613 106.792 134.315Z" fill="url(#paint10_linear_933_2473)"/>
<path d="M124.555 51.8105C124.555 66.278 113.047 78.008 98.7076 78.0103C84.2075 78.0126 72.333 66.0471 72.333 51.2848C72.333 36.5224 84.2075 24.7961 98.7076 25.0903C113.047 25.3812 124.555 37.343 124.555 51.8105Z" fill="white"/>
<path d="M109.365 43.7089C109.365 49.6701 104.605 54.4579 98.7145 54.4027C92.8023 54.3472 87.9937 49.4376 87.9937 43.4369C87.9937 37.4363 92.8023 32.649 98.7145 32.7441C104.605 32.8388 109.365 37.7477 109.365 43.7089Z" fill="url(#paint11_linear_933_2473)"/>
<path d="M98.7074 78.0102C105.046 78.0092 110.828 75.7176 115.305 71.9214C113.781 64.0404 106.952 58.0469 98.7074 57.9844C90.41 57.9215 83.4559 63.8806 81.8943 71.8476C86.4724 75.6999 92.3376 78.0113 98.7074 78.0102Z" fill="url(#paint12_linear_933_2473)"/>
<path d="M98.7033 78.6525C91.5114 78.6525 84.7366 75.8057 79.6259 70.6358C74.5088 65.4595 71.6907 58.5872 71.6907 51.2847C71.6907 43.9205 74.5498 37.0631 79.7414 31.9759C84.843 26.9768 91.5812 24.3016 98.7205 24.4481C105.819 24.5922 112.478 27.5185 117.471 32.688C122.453 37.8476 125.197 44.6388 125.197 51.8105C125.197 58.9845 122.452 65.7233 117.466 70.7854C112.471 75.8573 105.809 78.6514 98.7076 78.6525C98.7062 78.6525 98.7045 78.6525 98.7033 78.6525ZM98.1706 25.7271C91.5756 25.7271 85.3687 28.2599 80.6403 32.8933C75.6973 37.737 72.9751 44.2685 72.9751 51.2847C72.9751 58.2469 75.6615 64.7986 80.5394 69.7328C85.4067 74.6563 91.8579 77.3678 98.7033 77.3681C98.705 77.3681 98.7056 77.3681 98.7073 77.3681C112.606 77.3658 123.913 65.9007 123.913 51.8105C123.913 37.7131 112.6 26.0146 98.6944 25.7323C98.5199 25.7288 98.3446 25.7271 98.1706 25.7271Z" fill="white"/>
<path d="M160.442 154.116C163.317 152.379 162.112 143.177 157.886 136.837C151.886 127.835 139.327 123.9 136.888 126.739C134.393 129.645 142.273 139.907 143.553 141.573C148.197 147.62 157.041 156.17 160.442 154.116Z" fill="url(#paint13_linear_933_2473)"/>
<path d="M193.087 192.18C192.594 192.832 192.568 193.955 193.092 194.46C193.607 194.956 194.274 194.49 196.271 194.372C198.41 194.246 199.012 194.7 200.426 194.171C200.998 193.957 201.997 193.472 201.941 193.056C201.901 192.763 201.36 192.658 199.549 192.225C196.977 191.611 196.984 191.564 196.446 191.524C195.094 191.422 193.738 191.319 193.087 192.18Z" fill="url(#paint14_linear_933_2473)"/>
<path d="M193.046 188.652L195.293 191.632C195.283 191.84 194.48 192.819 193.461 192.764L190.761 190.063L193.046 188.652Z" fill="url(#paint15_linear_933_2473)"/>
<path d="M181.479 199.766C181 200.428 180.998 201.551 181.532 202.045C182.058 202.531 182.714 202.051 184.708 201.891C186.845 201.719 187.456 202.161 188.859 201.602C189.426 201.376 190.415 200.87 190.349 200.455C190.303 200.163 189.76 200.069 187.94 199.675C185.356 199.115 185.362 199.068 184.823 199.039C183.47 198.965 182.111 198.892 181.479 199.766Z" fill="url(#paint16_linear_933_2473)"/>
<path d="M181.392 196.308L183.639 199.288C183.629 199.496 182.827 200.475 181.807 200.42L179.108 197.719L181.392 196.308Z" fill="url(#paint17_linear_933_2473)"/>
<path d="M113.364 128.217C116.726 126.929 121.881 125.386 128.293 125.147C135.512 124.877 141.309 124.661 145.44 127.923C159.182 138.776 152.446 167.377 151.452 170.559C150.271 174.343 148.024 176.914 148.024 176.914C146.676 178.455 145.353 179.356 144.637 179.83C134.3 186.67 127.874 190.922 121.089 189.185C120.186 188.954 116.083 187.531 113.819 184.118C113.415 183.51 113.163 182.73 113.099 181.641C112.045 163.637 114.169 145.559 113.364 128.217Z" fill="url(#paint18_linear_933_2473)"/>
<g style="mix-blend-mode:multiply" opacity="0.3">
<path style="mix-blend-mode:multiply" d="M119.291 149.677C117.912 145.907 119.337 141.591 116.266 139.708C115.14 139.018 113.742 138.726 112.219 138.761C112.407 152.013 112.674 165.253 113.003 179.083C113.112 183.651 113.683 183.877 118.113 187.878C123.246 192.514 127.47 191.019 135.052 189.498C125.118 183.395 122.647 180.076 123.659 174.652C124.838 168.336 136.403 166.465 135.936 161.975C135.44 157.216 122.305 157.917 119.291 149.677Z" fill="url(#paint19_linear_933_2473)"/>
</g>
<path d="M122.73 187.01C123.149 194.51 125.969 190.356 132.352 183.626C139.075 176.539 154.892 164.083 165.449 168.838C173.312 172.38 172.549 182.857 185.119 189.433C187.333 190.592 189.272 191.256 190.463 191.617C191.825 190.357 193.186 189.098 194.548 187.838C193.817 183.922 190.555 168.988 176.917 159.574C173.62 157.298 167.328 152.914 159.371 153.016C137.86 153.294 122.342 180.093 122.73 187.01Z" fill="url(#paint20_linear_933_2473)"/>
<path d="M112.819 183.531C112.909 187.895 115.758 191.895 118.968 193.848C126.095 198.184 136.767 193.506 142.744 188.722C150.018 182.902 150.015 177.2 153.732 177.228C159.507 177.272 160.514 191.081 173.402 197.824C175.616 198.982 177.554 199.646 178.745 200.007C180.107 198.747 181.469 197.488 182.83 196.228C180.595 187.772 177.135 181.627 174.584 177.802C171.401 173.032 168.338 168.44 162.405 165.113C156.158 161.609 150.19 161.446 147.654 161.407C131.658 161.157 112.584 172.146 112.819 183.531Z" fill="url(#paint21_linear_933_2473)"/>
<path d="M156.243 157.317L116.644 164.458L128.135 167.47L156.848 159.872L156.243 157.317Z" fill="url(#paint22_linear_933_2473)"/>
<path d="M115.456 165.78L115.456 165.781C115.601 166.519 116.192 167.089 116.936 167.206L130.521 169.681L129.907 166.241L116.644 164.458C115.907 164.394 115.314 165.054 115.456 165.78Z" fill="url(#paint23_linear_933_2473)"/>
<path d="M128.598 115.259C128.721 117.934 128.502 120.068 128.274 121.532C128.012 123.209 127.795 123.648 127.511 124.008C127.511 124.008 127.421 124.123 127.318 124.225C127.057 124.486 123.775 125.125 122.807 125.351C122.705 125.375 120.81 125.835 120.266 126.854C120.263 126.861 120.252 126.881 120.246 126.911C120.059 127.93 125.878 131.16 131.726 130.111C135.305 129.468 138.502 127.293 138.261 126.222C138.018 125.145 134.446 125.862 133.301 123.939C132.505 122.602 133.268 120.632 134.195 118.99C133.172 117.234 129.622 117.015 128.598 115.259Z" fill="url(#paint24_linear_933_2473)"/>
<path d="M123.093 154.721C117.642 153.992 115.467 156.125 113.994 154.83C113.684 154.558 113.521 154.23 113.466 153.835C113.456 153.763 113.422 153.695 113.367 153.633C112.666 148.463 107.958 144.777 102.748 145.368C97.4678 145.966 93.6723 150.732 94.2709 156.013C94.3112 156.369 94.371 156.717 94.4481 157.059C94.43 157.088 94.4127 157.117 94.3963 157.146C94.4763 157.378 94.6006 157.741 94.7796 158.196C94.8935 158.513 95.0235 158.821 95.1681 159.12C96.4173 161.902 99.2111 166.49 104.935 168.425C111.706 170.714 120.061 168.597 126.16 162.979C126.976 162.095 127.793 161.212 128.609 160.328C129.388 159.3 130.166 158.271 130.945 157.243C129.346 156.383 126.671 155.199 123.093 154.721Z" fill="url(#paint25_linear_933_2473)"/>
<path d="M122.784 160.769C122.54 160.833 122.504 157.601 123.669 157.375C124.833 157.15 131.259 157.466 132.318 158.415C133.377 159.364 133.377 159.364 133.377 159.364C133.377 159.364 131.305 160.645 129.735 160.886C128.164 161.126 124.774 160.246 122.784 160.769Z" fill="url(#paint26_linear_933_2473)"/>
<path d="M116.534 128.457C113.121 126.551 105.274 131.973 100.986 136.649C98.993 138.821 92.0544 146.386 94.2128 156.119C94.2238 156.169 94.2534 156.215 94.3003 156.258C94.9253 160.968 98.9571 164.603 103.838 164.603C109.136 164.603 113.434 160.321 113.461 155.029C113.509 155.01 114.402 149.774 116.89 143.283C117.656 141.286 120.346 130.586 116.534 128.457Z" fill="url(#paint27_linear_933_2473)"/>
<path d="M128.693 141.53L127.824 167.492C127.794 168.388 129.139 169.617 130.028 169.507L171.318 163.804C171.997 163.72 172.526 163.175 172.591 162.494L175.906 137.231C175.992 136.314 174.294 135.503 173.378 135.598L130 140.128C129.275 140.204 128.718 140.802 128.693 141.53Z" fill="url(#paint28_linear_933_2473)"/>
<path d="M129.699 142.208L128.829 168.171C128.8 169.067 129.577 169.777 130.467 169.667L172.323 164.483C173.002 164.399 173.532 163.854 173.596 163.172L175.987 137.865C176.074 136.948 175.3 136.181 174.384 136.277L131.005 140.807C130.281 140.882 129.723 141.481 129.699 142.208Z" fill="url(#paint29_linear_933_2473)"/>
<g style="mix-blend-mode:multiply" opacity="0.3">
<path style="mix-blend-mode:multiply" d="M155.837 159.669C152.05 158.393 153.12 155.33 148.507 151.966C142.422 147.527 136.759 150.083 134.432 146.461C133.708 145.333 133.265 143.526 134.146 140.479L131.005 140.807C130.281 140.882 129.723 141.481 129.699 142.208L128.829 168.171C128.8 169.067 129.577 169.777 130.467 169.667L172.323 164.483C173.002 164.399 173.532 163.854 173.596 163.173L173.926 159.68C172.597 159.068 171.025 158.539 169.221 158.313C162.963 157.532 160.196 161.137 155.837 159.669Z" fill="url(#paint30_linear_933_2473)"/>
</g>
<path d="M136.614 119.469C138.971 119.13 141.528 111.537 139.755 110.327C138.907 109.748 138.005 111.268 134.171 112.202C131.102 112.95 129.926 112.404 128.942 113.566C127.97 114.715 128.202 116.608 128.271 117.937C128.3 118.514 128.627 118.83 128.847 119.34C129.153 120.047 129.626 121.166 130.387 123.027C130.638 122.655 130.978 122.206 131.422 121.747C131.593 121.571 132.271 120.885 134.119 119.976C135.3 119.395 136.345 119.508 136.614 119.469Z" fill="url(#paint31_linear_933_2473)"/>
<path d="M129 121.183C129 121.183 129.549 124.036 132.439 124.905C135.026 125.683 137.508 120.157 136.343 118.353C135.955 117.751 134.939 117.183 133.971 117.101C133.399 117.053 133.144 117.203 132.211 117.106C131.351 117.017 131.162 116.848 130.85 116.959C130.461 117.097 130.016 117.628 129.893 119.468C129.593 118.8 129.085 118.397 128.603 118.438C128.526 118.444 128.309 118.498 128.144 118.64C127.55 119.155 127.833 120.202 129 121.183Z" fill="url(#paint32_linear_933_2473)"/>
<path d="M130.863 116.577C130.951 116.713 130.409 117.029 130.141 117.662C129.621 118.89 130.326 120.86 131.568 121.468C132.302 121.828 132.683 121.446 133.993 121.783C134.803 121.992 135.416 122.333 135.791 122.575C135.676 124.092 134.794 125.318 133.643 125.61C132.403 125.924 131.299 125.041 130.837 124.672C130.528 124.425 129.538 123.636 129.334 122.381C129.122 121.074 129.967 120.649 129.534 119.657C129.316 119.157 128.908 118.823 128.719 117.942C128.668 117.702 128.65 117.5 128.642 117.367C129.551 116.919 130.735 116.38 130.863 116.577Z" fill="url(#paint33_linear_933_2473)"/>
<path d="M134.685 122.74C134.685 122.74 134.033 122.822 133.11 122.417C133.065 122.397 133.01 122.392 132.995 122.414C132.94 122.495 133.395 123.121 134.011 123.173C134.448 123.209 134.895 122.949 134.878 122.834C134.87 122.786 134.778 122.757 134.685 122.74Z" fill="url(#paint34_linear_933_2473)"/>
<path d="M25.059 184.153C25.3504 184.775 25.6797 185.686 25.7667 186.82C25.8048 187.317 25.7895 187.768 25.7498 188.159C25.4293 188.631 23.9307 190.253 21.907 190.654C20.655 190.901 18.6255 189.84 20.9246 188.404C23.2238 186.967 23.5674 186.621 22.8916 182.949C22.7177 182.005 22.7861 181.659 22.9344 181.592C23.281 181.437 24.2685 182.886 25.059 184.153Z" fill="url(#paint35_linear_933_2473)"/>
<path d="M35.6623 186.958C35.9537 187.58 36.2829 188.491 36.3699 189.625C36.408 190.122 36.3927 190.573 36.3531 190.963C36.0326 191.436 34.534 193.058 32.5103 193.459C31.2583 193.706 29.2287 192.645 31.5279 191.208C33.8271 189.772 34.1707 189.426 33.4949 185.754C33.321 184.809 33.3894 184.464 33.5377 184.397C33.8843 184.242 34.8718 185.691 35.6623 186.958Z" fill="url(#paint36_linear_933_2473)"/>
<path d="M46.6892 110.242C47.4493 114.871 48.2095 119.5 48.9697 124.129C47.3049 128.509 45.7566 133.28 44.4448 138.433C39.7063 157.047 36.7516 174.975 36.5355 187.817C35.4924 188.195 34.4494 188.572 33.4063 188.949C31.5373 181.892 32.1021 171.221 30.4405 158.638C28.4774 143.772 29.8122 132.15 29.1289 132.109C28.4739 132.07 26.6394 142.71 26.6361 154.86C26.6326 167.704 25.1552 178.045 26.1074 185.469C24.8577 185.543 23.608 185.618 22.3582 185.692C18.8974 175.875 17.3852 164.178 15.6331 148.712C14.4163 137.971 12.9803 123.703 20.1558 108.982C20.8724 107.512 23.3739 104.249 23.8429 103.442C32.0714 105.017 38.4607 108.668 46.6892 110.242Z" fill="url(#paint37_linear_933_2473)"/>
<g style="mix-blend-mode:multiply" opacity="0.25">
<path style="mix-blend-mode:multiply" d="M44.4448 138.433C45.7566 133.28 47.3049 128.509 48.9697 124.129C48.2095 119.5 47.4493 114.871 46.6892 110.242C38.4607 108.668 32.0715 105.017 23.8429 103.442C23.3739 104.249 20.8724 107.512 20.1559 108.982C17.7371 113.944 16.2995 118.855 15.4995 123.596C31.4191 123.422 36.0262 126.737 37.2945 129.793C39.3136 134.657 33.1729 139.59 35.3455 149.435C35.9989 152.396 36.9747 153.855 37.0893 157.563C37.2396 162.43 35.6512 162.902 35.4024 167.853C35.1303 173.27 33.254 178.565 34.1337 182.405C34.6807 184.792 35.3211 186.733 35.8133 188.078C36.054 187.991 36.2947 187.904 36.5355 187.817C36.7516 174.975 39.7063 157.047 44.4448 138.433Z" fill="url(#paint38_linear_933_2473)"/>
</g>
<path d="M38.4205 45.6515C38.9995 46.2766 38.341 47.266 38.5387 50.5953C38.6291 52.1181 38.8541 53.3793 39.0511 54.2713C39.1657 55.0849 39.2914 55.8373 39.4255 56.4995C39.5238 56.9854 39.6142 57.3637 39.7276 57.7645C39.9377 58.508 40.2039 59.2393 40.5183 59.938C40.5391 59.9842 40.5208 60.038 40.4775 60.0624C40.4749 60.0638 40.4723 60.0651 40.4696 60.0663C40.4207 60.0885 40.3631 60.0666 40.3411 60.0176C40.0228 59.3103 39.7534 58.5701 39.5405 57.8176C39.4257 57.4117 39.3343 57.029 39.2349 56.538C39.1643 56.189 39.0962 55.8136 39.0304 55.4196C39.0318 56.4754 39.1308 57.6315 39.6641 59.133C41.2825 63.6903 37.9767 67.1494 35.1293 67.5739C31.8455 68.0633 30.8013 65.1754 30.0198 64.3927C26.8702 61.2378 25.8222 55.4643 28.0117 51.0794C30.88 45.335 37.0017 44.1197 38.4205 45.6515Z" fill="url(#paint39_linear_933_2473)"/>
<path d="M30.552 51.0297C30.6383 50.4922 31.2126 48.4294 32.8628 46.7531C35.9055 43.7204 41.8672 45.3003 45.5821 47.9278C49.4694 50.6771 49.0715 52.7346 52.9345 55.835C57.1301 59.2026 59.3441 57.4755 65.0078 60.5592C67.2356 61.7721 72.4488 64.8424 73.4554 70.8202C74.3252 75.9857 71.2744 81.036 67.295 83.6445C60.2657 88.3134 50.0642 83.3801 44.9192 78.2104C39.9846 73.2521 42.7907 71.6165 35.4847 61.8066C32.8432 58.2597 29.9079 55.046 30.552 51.0297Z" fill="url(#paint40_linear_933_2473)"/>
<path d="M4.10632 90.6971C3.00892 87.4734 3.77751 83.7675 5.47113 81.1771C8.33315 76.8001 12.0634 78.3214 15.7996 73.4675C18.2165 70.3277 20.416 67.6463 23.0995 65.6381C25.0736 64.1608 29.745 62.4874 31.57 63.6489C37.0302 67.1247 27.0119 96.7192 15.9664 98.4039C11.5469 99.0779 5.75595 95.5428 4.10632 90.6971Z" fill="url(#paint41_linear_933_2473)"/>
<path d="M25.8989 65.777C23.0696 68.6411 22.3078 72.0846 22.0849 73.6236C21.3914 78.4112 23.2718 82.3161 23.7134 83.3419C25.7998 88.1885 25.0312 97.7413 12.8694 118.312C14.0254 119.276 18.0114 126.409 19.8966 122.988C22.4668 118.325 34.1272 85.512 22.8811 124.397C22.7329 124.909 23.8789 124.806 24.3999 125.001C28.1353 126.395 32.6213 127.411 37.7184 127.347C45.7072 127.248 51.7945 124.54 55.0126 122.8C52.8305 117.712 50.5459 110.826 49.5685 102.469C47.704 86.527 51.5838 73.6698 54.2877 66.7368C51.822 65.0324 44.0128 60.0963 34.7731 61.6915C32.4709 62.089 28.879 62.7602 25.8989 65.777Z" fill="url(#paint42_linear_933_2473)"/>
<g style="mix-blend-mode:multiply" opacity="0.3">
<path style="mix-blend-mode:multiply" d="M49.5686 102.47C47.7041 86.5271 51.5837 73.6699 54.2877 66.7368C51.8221 65.0324 44.0128 60.0963 34.7731 61.6915C32.471 62.0891 28.879 62.7603 25.899 65.7771C23.6463 68.0575 22.7061 70.702 22.3032 72.4634C22.3722 72.4517 22.4673 72.4365 22.5806 72.4208C28.271 71.6349 34.843 76.2127 37.0897 80.5433C40.8391 87.7703 32.214 93.6752 32.4297 105.128C32.5464 111.32 35.2373 118.641 43.4638 126.816C48.6348 125.923 52.6187 124.095 55.0126 122.8C52.8305 117.712 50.546 110.826 49.5686 102.47Z" fill="url(#paint43_linear_933_2473)"/>
</g>
<path d="M35.6559 57.5808C35.4433 59.4727 35.4384 59.6614 36.331 61.0419C36.8748 61.883 37.775 62.3516 38.6638 62.7931C40.7644 63.8366 41.7392 63.4128 42.1539 64.0459C43.0665 65.4393 40.4824 70.7568 36.2673 71.2185C32.0725 71.678 28.2763 67.1077 28.9077 65.1773C29.4774 63.4354 33.6069 63.9815 34.3451 61.7803C34.7168 60.672 34.0364 59.4414 33.4393 58.608L32.9453 58.6512L35.6559 57.5808Z" fill="url(#paint44_linear_933_2473)"/>
<g style="mix-blend-mode:multiply" opacity="0.4">
<path style="mix-blend-mode:multiply" d="M42.1537 64.0459C41.739 63.4129 40.7642 63.8365 38.6636 62.793C37.7747 62.3516 36.8747 61.8829 36.3309 61.0418C35.4383 59.6613 35.2013 59.5417 35.6557 57.5808L32.9451 58.6511L33.4391 58.608C33.913 59.2695 34.4305 60.1809 34.4417 61.0832C34.7316 61.2836 34.9764 61.5037 35.1499 61.7172C34.5997 62.9039 34.4131 63.9284 34.3416 64.591C34.23 65.6241 34.1472 66.3915 34.5904 67.1165C35.0739 67.9074 35.9002 68.1845 36.6226 68.4269C38.2278 68.9653 39.7278 68.7865 40.7132 68.5504C42.0755 66.8479 42.6661 64.8283 42.1537 64.0459Z" fill="url(#paint45_linear_933_2473)"/>
</g>
<path d="M35.9763 57.5134C35.9763 57.5134 36.3358 59.5999 34.328 60.1666C31.8541 60.8648 29.7711 54.4034 30.2702 53.8632C30.849 53.2368 31.7535 54.1288 33.2773 53.309C33.919 52.9639 34.2673 51.9196 34.8768 52.7726C35.5702 53.7431 35.7653 55.7466 35.7653 55.7466C35.7653 55.7466 36.2197 55.0984 36.4716 55.6575C36.8012 56.3892 36.3599 57.0254 35.9763 57.5134Z" fill="url(#paint46_linear_933_2473)"/>
<path d="M31.4128 50.2561C30.5982 51.0892 30.1507 52.7039 30.7173 53.5144C31.5313 54.6787 33.9319 53.4582 34.9165 54.8826C35.3482 55.507 35.3244 56.3747 35.5477 56.3602C35.7327 56.3482 35.8411 55.747 35.9469 55.2522C36.5303 52.5247 37.2095 52.2176 37.0012 51.4372C36.578 49.851 33.0853 48.5455 31.4128 50.2561Z" fill="url(#paint47_linear_933_2473)"/>
<path d="M30.6325 86.4125L30.0014 85.5467C30.0014 85.5467 29.196 83.8414 28.5118 82.959C27.8277 82.0765 27.0493 81.7755 26.041 82.3041C25.0327 82.8326 25.5538 84.1279 25.9923 85.2549C26.2592 85.9406 27.2682 86.5368 28.1253 86.9449C28.7277 87.2318 29.6791 88.2737 29.6791 88.2737L30.6325 86.4125Z" fill="url(#paint48_linear_933_2473)"/>
<path d="M11.682 77.2918L18.1407 93.2699C18.2502 93.5659 18.4901 93.7949 18.7909 93.8904L26.2363 96.2552C27.0055 96.4995 27.7416 95.7993 27.536 95.0189L23.5557 79.9129C23.4647 79.5672 23.2041 78.8001 22.5448 78.5907L13.4759 75.9694C12.6677 75.7299 11.3897 76.5013 11.682 77.2918Z" fill="url(#paint49_linear_933_2473)"/>
<path d="M11.6001 77.5449L17.3187 93.0087C17.4283 93.3047 17.6681 93.5338 17.9689 93.6293L25.4143 95.994C26.1834 96.2383 26.9195 95.5381 26.7139 94.7578L22.7338 79.6517C22.6427 79.306 22.3778 79.0328 22.0349 78.9312L12.8511 76.2085C12.0429 75.9689 11.3077 76.7543 11.6001 77.5449Z" fill="url(#paint50_linear_933_2473)"/>
<path d="M62.8576 95.6243C63.3877 92.8686 61.5835 90.2051 58.8278 89.675C56.8182 89.2884 54.8586 90.1441 53.7387 91.704C53.1656 91.9717 51.9113 91.5644 49.8218 91.2806C43.5607 90.4302 41.6403 92.3024 38.0556 91.4118C35.9496 90.8885 33.1953 89.3934 30.4891 85.053C30.0819 86.631 29.6745 88.2089 29.2672 89.787C29.5051 91.4852 30.6026 97.8669 36.1027 102.046C42.8591 107.18 52.2061 105.911 57.948 101.992C59.6896 100.803 61.0751 99.2709 62.139 97.5065C62.1365 97.4812 62.1327 97.4565 62.1299 97.4312C62.4771 96.8969 62.7298 96.2887 62.8576 95.6243Z" fill="url(#paint51_linear_933_2473)"/>
<path d="M12.4688 84.7103L13.2061 83.9328C13.2061 83.9328 14.7376 82.8323 15.4816 81.9997C16.2256 81.1672 16.3809 80.3472 15.6787 79.4513C14.9764 78.5552 13.7968 79.302 12.7677 79.9372C12.1417 80.3237 11.7379 81.4241 11.4915 82.3407C11.3183 82.9853 10.4658 84.1094 10.4658 84.1094L12.4688 84.7103Z" fill="url(#paint52_linear_933_2473)"/>
<path d="M10.343 83.1392C11.2977 83.6153 12.2526 84.0911 13.2073 84.5673C13.4995 84.9391 16.9779 89.5055 15.121 93.8843C14.8794 94.4539 13.9661 96.6077 12.165 96.989C9.38549 97.5775 5.33635 93.7675 5.46695 89.6775C5.55452 86.9363 7.50857 84.4182 10.343 83.1392Z" fill="url(#paint53_linear_933_2473)"/>
<path d="M53.4734 68.1133C50.3807 65.8476 50.1001 66.6855 47.3058 66.5083C43.168 76.3486 44.2836 81.6007 46.1251 84.5886C48.5241 88.4809 53.4818 90.686 53.4671 92.0824C53.0214 92.8381 52.7647 93.7186 52.7647 94.6595C52.7647 97.4657 55.0395 99.7405 57.8458 99.7405C59.8598 99.7405 61.6001 98.5687 62.4221 96.8695C62.4905 96.8103 62.5428 96.7356 62.5767 96.6435C66.0824 87.1156 60.8561 73.5217 53.4734 68.1133Z" fill="url(#paint54_linear_933_2473)"/>
<path d="M35.6868 52.7577C35.1189 53.3801 36.3696 55.4367 38.8942 59.5245C40.448 62.0405 41.225 63.2985 41.724 63.8421C44.4109 66.7695 48.94 69.0206 53.5169 68.7594C56.6576 68.5801 57.1159 67.3723 59.6912 67.7981C63.5762 68.4403 65.7988 71.729 65.9746 71.5555C66.1689 71.3637 63.6535 67.1538 58.6117 63.6474C54.4863 60.7783 53.3669 61.6472 46.8841 57.6749C46.4138 57.3867 44.4229 56.1586 41.6285 54.7775C38.3434 53.1539 36.2518 52.1384 35.6868 52.7577Z" fill="url(#paint55_linear_933_2473)"/>
<defs>
<linearGradient id="paint0_linear_933_2473" x1="281.536" y1="73.3831" x2="304.166" y2="141.626" gradientUnits="userSpaceOnUse">
<stop stop-color="#FF9085"/>
<stop offset="0.5" stop-color="#FD80A0"/>
<stop offset="1" stop-color="#FB6FBB"/>
</linearGradient>
<linearGradient id="paint1_linear_933_2473" x1="-104.593" y1="19.0903" x2="-72.758" y2="-82.3056" gradientUnits="userSpaceOnUse">
<stop stop-color="#FFC444"/>
<stop offset="0.5" stop-color="#F99A4D"/>
<stop offset="1" stop-color="#F36F56"/>
</linearGradient>
<linearGradient id="paint2_linear_933_2473" x1="407.998" y1="-14.8985" x2="369.118" y2="-132.185" gradientUnits="userSpaceOnUse">
<stop stop-color="#61BB2F"/>
<stop offset="0.5" stop-color="#6FCE3B"/>
<stop offset="1" stop-color="#6DC23E"/>
</linearGradient>
<linearGradient id="paint3_linear_933_2473" x1="177.246" y1="60.6052" x2="137.155" y2="115.736" gradientUnits="userSpaceOnUse">
<stop stop-color="#AA80F9"/>
<stop offset="0.5" stop-color="#8672E8"/>
<stop offset="1" stop-color="#6165D7"/>
</linearGradient>
<linearGradient id="paint4_linear_933_2473" x1="193.4" y1="76.279" x2="151.418" y2="17.9111" gradientUnits="userSpaceOnUse">
<stop stop-color="#FFC444"/>
<stop offset="0.5" stop-color="#F99A4D"/>
<stop offset="1" stop-color="#F36F56"/>
</linearGradient>
<linearGradient id="paint5_linear_933_2473" x1="52.7087" y1="98.5966" x2="143.936" y2="98.5966" gradientUnits="userSpaceOnUse">
<stop stop-color="#FF9085"/>
<stop offset="0.5" stop-color="#FD80A0"/>
<stop offset="1" stop-color="#FB6FBB"/>
</linearGradient>
<linearGradient id="paint6_linear_933_2473" x1="50.4988" y1="27.324" x2="130.449" y2="190.804" gradientUnits="userSpaceOnUse">
<stop stop-color="#AA80F9"/>
<stop offset="0.5" stop-color="#6FCE3B"/>
<stop offset="1" stop-color="#61B930"/>
</linearGradient>
<linearGradient id="paint7_linear_933_2473" x1="25.4292" y1="39.548" x2="105.38" y2="203.028" gradientUnits="userSpaceOnUse">
<stop stop-color="#AA80F9"/>
<stop offset="0.5" stop-color="#8672E8"/>
<stop offset="1" stop-color="#6165D7"/>
</linearGradient>
<linearGradient id="paint8_linear_933_2473" x1="36.1971" y1="39.5599" x2="112.752" y2="196.097" gradientUnits="userSpaceOnUse">
<stop stop-color="#AA80F9"/>
<stop offset="0.5" stop-color="#8672E8"/>
<stop offset="1" stop-color="#6165D7"/>
</linearGradient>
<linearGradient id="paint9_linear_933_2473" x1="45.8795" y1="37.6328" x2="120.799" y2="190.827" gradientUnits="userSpaceOnUse">
<stop stop-color="#AA80F9"/>
<stop offset="0.5" stop-color="#8672E8"/>
<stop offset="1" stop-color="#6165D7"/>
</linearGradient>
<linearGradient id="paint10_linear_933_2473" x1="45.9528" y1="16.279" x2="133.868" y2="196.046" gradientUnits="userSpaceOnUse">
<stop stop-color="#AA80F9"/>
<stop offset="0.5" stop-color="#8672E8"/>
<stop offset="1" stop-color="#6165D7"/>
</linearGradient>
<linearGradient id="paint11_linear_933_2473" x1="81.3695" y1="8.26279" x2="161.32" y2="171.743" gradientUnits="userSpaceOnUse">
<stop stop-color="#65B838"/>
<stop offset="0.5" stop-color="#7BE441"/>
<stop offset="1" stop-color="#65B439"/>
</linearGradient>
<linearGradient id="paint12_linear_933_2473" x1="70.4577" y1="13.6497" x2="150.408" y2="177.13" gradientUnits="userSpaceOnUse">
<stop stop-color="#5EAD32"/>
<stop offset="0.5" stop-color="#6FCE3B"/>
<stop offset="1" stop-color="#6165D7"/>
</linearGradient>
<linearGradient id="paint13_linear_933_2473" x1="139.901" y1="144.944" x2="145.047" y2="137.9" gradientUnits="userSpaceOnUse">
<stop stop-color="#60B432"/>
<stop offset="0.5" stop-color="#6FCE3B"/>
<stop offset="1" stop-color="#509728"/>
</linearGradient>
<linearGradient id="paint14_linear_933_2473" x1="383.44" y1="307.487" x2="375.108" y2="310.596" gradientUnits="userSpaceOnUse">
<stop stop-color="#444B8C"/>
<stop offset="0.5" stop-color="#35396D"/>
<stop offset="1" stop-color="#26264F"/>
</linearGradient>
<linearGradient id="paint15_linear_933_2473" x1="308.065" y1="328.914" x2="308.953" y2="337.488" gradientUnits="userSpaceOnUse">
<stop stop-color="#FFC444"/>
<stop offset="0.5" stop-color="#F99A4D"/>
<stop offset="1" stop-color="#F36F56"/>
</linearGradient>
<linearGradient id="paint16_linear_933_2473" x1="343.587" y1="304.256" x2="335.322" y2="307.54" gradientUnits="userSpaceOnUse">
<stop stop-color="#444B8C"/>
<stop offset="0.5" stop-color="#35396D"/>
<stop offset="1" stop-color="#26264F"/>
</linearGradient>
<linearGradient id="paint17_linear_933_2473" x1="278.432" y1="316.953" x2="279.321" y2="325.528" gradientUnits="userSpaceOnUse">
<stop stop-color="#FFC444"/>
<stop offset="0.5" stop-color="#F99A4D"/>
<stop offset="1" stop-color="#F36F56"/>
</linearGradient>
<linearGradient id="paint18_linear_933_2473" x1="107.638" y1="175.057" x2="128.397" y2="146.648" gradientUnits="userSpaceOnUse">
<stop stop-color="#5CAA31"/>
<stop offset="0.5" stop-color="#6FCE3B"/>
<stop offset="1" stop-color="#539E2A"/>
</linearGradient>
<linearGradient id="paint19_linear_933_2473" x1="113.487" y1="171.117" x2="134.95" y2="143.94" gradientUnits="userSpaceOnUse">
<stop stop-color="#51992A"/>
<stop offset="0.5" stop-color="#6FCE3B"/>
<stop offset="1" stop-color="#57A32E"/>
</linearGradient>
<linearGradient id="paint20_linear_933_2473" x1="111.319" y1="251.034" x2="126.23" y2="205.191" gradientUnits="userSpaceOnUse">
<stop stop-color="#444B8C"/>
<stop offset="0.5" stop-color="#35396D"/>
<stop offset="1" stop-color="#26264F"/>
</linearGradient>
<linearGradient id="paint21_linear_933_2473" x1="111.953" y1="209.801" x2="93.1925" y2="256.722" gradientUnits="userSpaceOnUse">
<stop stop-color="#444B8C"/>
<stop offset="0.5" stop-color="#35396D"/>
<stop offset="1" stop-color="#26264F"/>
</linearGradient>
<linearGradient id="paint22_linear_933_2473" x1="121.462" y1="197.141" x2="114.039" y2="184.544" gradientUnits="userSpaceOnUse">
<stop stop-color="#311944"/>
<stop offset="0.5" stop-color="#5D295D"/>
<stop offset="1" stop-color="#893976"/>
</linearGradient>
<linearGradient id="paint23_linear_933_2473" x1="95.5981" y1="179.082" x2="99.7161" y2="190.839" gradientUnits="userSpaceOnUse">
<stop stop-color="#311944"/>
<stop offset="0.5" stop-color="#5D295D"/>
<stop offset="1" stop-color="#893976"/>
</linearGradient>
<linearGradient id="paint24_linear_933_2473" x1="126.933" y1="135.659" x2="143.97" y2="105.027" gradientUnits="userSpaceOnUse">
<stop stop-color="#FFC444"/>
<stop offset="0.5" stop-color="#F99A4D"/>
<stop offset="1" stop-color="#F36F56"/>
</linearGradient>
<linearGradient id="paint25_linear_933_2473" x1="104.708" y1="162.864" x2="145.491" y2="119.318" gradientUnits="userSpaceOnUse">
<stop stop-color="#5CA832"/>
<stop offset="0.5" stop-color="#6FCE3B"/>
<stop offset="1" stop-color="#559E2C"/>
</linearGradient>
<linearGradient id="paint26_linear_933_2473" x1="120.344" y1="159.126" x2="139.942" y2="156.45" gradientUnits="userSpaceOnUse">
<stop stop-color="#6FCE3B"/>
<stop offset="0.5" stop-color="#6FCE3B"/>
<stop offset="1" stop-color="#65BD35"/>
</linearGradient>
<linearGradient id="paint27_linear_933_2473" x1="99.7403" y1="156.816" x2="119.099" y2="132.304" gradientUnits="userSpaceOnUse">
<stop stop-color="#5EAD32"/>
<stop offset="0.5" stop-color="#6FCE3B"/>
<stop offset="1" stop-color="#4C9226"/>
</linearGradient>
<linearGradient id="paint28_linear_933_2473" x1="147.087" y1="166.889" x2="136.6" y2="154.176" gradientUnits="userSpaceOnUse">
<stop stop-color="#444B8C"/>
<stop offset="0.5" stop-color="#35396D"/>
<stop offset="1" stop-color="#26264F"/>
</linearGradient>
<linearGradient id="paint29_linear_933_2473" x1="130.639" y1="190.552" x2="148.134" y2="146.915" gradientUnits="userSpaceOnUse">
<stop stop-color="#311944"/>
<stop offset="0.5" stop-color="#5D295D"/>
<stop offset="1" stop-color="#893976"/>
</linearGradient>
<linearGradient id="paint30_linear_933_2473" x1="118.298" y1="164.257" x2="163.786" y2="160.785" gradientUnits="userSpaceOnUse">
<stop stop-color="#311944"/>
<stop offset="0.5" stop-color="#5D295D"/>
<stop offset="1" stop-color="#893976"/>
</linearGradient>
<linearGradient id="paint31_linear_933_2473" x1="138.104" y1="102.49" x2="130.036" y2="130.422" gradientUnits="userSpaceOnUse">
<stop stop-color="#444B8C"/>
<stop offset="0.5" stop-color="#35396D"/>
<stop offset="1" stop-color="#26264F"/>
</linearGradient>
<linearGradient id="paint32_linear_933_2473" x1="135.492" y1="115.342" x2="127.48" y2="139.602" gradientUnits="userSpaceOnUse">
<stop stop-color="#FFC444"/>
<stop offset="0.5" stop-color="#F99A4D"/>
<stop offset="1" stop-color="#F36F56"/>
</linearGradient>
<linearGradient id="paint33_linear_933_2473" x1="127.736" y1="103.206" x2="133.474" y2="124.584" gradientUnits="userSpaceOnUse">
<stop stop-color="#444B8C"/>
<stop offset="0.5" stop-color="#35396D"/>
<stop offset="1" stop-color="#26264F"/>
</linearGradient>
<linearGradient id="paint34_linear_933_2473" x1="308.789" y1="79.163" x2="309.549" y2="76.0743" gradientUnits="userSpaceOnUse">
<stop stop-color="#FFC444"/>
<stop offset="0.5" stop-color="#F99A4D"/>
<stop offset="1" stop-color="#F36F56"/>
</linearGradient>
<linearGradient id="paint35_linear_933_2473" x1="49.022" y1="183.924" x2="54.6679" y2="184.534" gradientUnits="userSpaceOnUse">
<stop stop-color="#AA80F9"/>
<stop offset="0.5" stop-color="#8672E8"/>
<stop offset="1" stop-color="#6165D7"/>
</linearGradient>
<linearGradient id="paint36_linear_933_2473" x1="59.9866" y1="185.614" x2="65.6325" y2="186.224" gradientUnits="userSpaceOnUse">
<stop stop-color="#AA80F9"/>
<stop offset="0.5" stop-color="#8672E8"/>
<stop offset="1" stop-color="#6165D7"/>
</linearGradient>
<linearGradient id="paint37_linear_933_2473" x1="24.2238" y1="144.448" x2="58.7419" y2="143.757" gradientUnits="userSpaceOnUse">
<stop stop-color="#444B8C"/>
<stop offset="0.5" stop-color="#35396D"/>
<stop offset="1" stop-color="#26264F"/>
</linearGradient>
<linearGradient id="paint38_linear_933_2473" x1="26.4933" y1="141.838" x2="59.6624" y2="145.267" gradientUnits="userSpaceOnUse">
<stop stop-color="#444B8C"/>
<stop offset="0.5" stop-color="#35396D"/>
<stop offset="1" stop-color="#26264F"/>
</linearGradient>
<linearGradient id="paint39_linear_933_2473" x1="94.1355" y1="82.3091" x2="29.2567" y2="48.2612" gradientUnits="userSpaceOnUse">
<stop stop-color="#311944"/>
<stop offset="0.5" stop-color="#4E295D"/>
<stop offset="1" stop-color="#6B3976"/>
</linearGradient>
<linearGradient id="paint40_linear_933_2473" x1="94.4281" y1="81.7431" x2="29.5499" y2="47.6954" gradientUnits="userSpaceOnUse">
<stop stop-color="#311944"/>
<stop offset="0.5" stop-color="#4E295D"/>
<stop offset="1" stop-color="#6B3976"/>
</linearGradient>
<linearGradient id="paint41_linear_933_2473" x1="16.5023" y1="68.5592" x2="16.4633" y2="98.4236" gradientUnits="userSpaceOnUse">
<stop stop-color="#63B636"/>
<stop offset="0.5" stop-color="#6FCE3B"/>
<stop offset="1" stop-color="#569633"/>
</linearGradient>
<linearGradient id="paint42_linear_933_2473" x1="44.502" y1="84.7476" x2="90.321" y2="133.309" gradientUnits="userSpaceOnUse">
<stop stop-color="#509B28"/>
<stop offset="0.5" stop-color="#6FCE3B"/>
<stop offset="1" stop-color="#56A12D"/>
</linearGradient>
<linearGradient id="paint43_linear_933_2473" x1="38.1721" y1="78.99" x2="87.8606" y2="118.179" gradientUnits="userSpaceOnUse">
<stop stop-color="#AA80F9"/>
<stop offset="0.5" stop-color="#6FCE3B"/>
<stop offset="1" stop-color="#52972B"/>
</linearGradient>
<linearGradient id="paint44_linear_933_2473" x1="-47.771" y1="68.2646" x2="-49.1943" y2="95.7872" gradientUnits="userSpaceOnUse">
<stop stop-color="#FFC444"/>
<stop offset="0.5" stop-color="#F99A4D"/>
<stop offset="1" stop-color="#F36F56"/>
</linearGradient>
<linearGradient id="paint45_linear_933_2473" x1="40.5209" y1="70.2054" x2="43.6822" y2="47.8576" gradientUnits="userSpaceOnUse">
<stop stop-color="#FFC444"/>
<stop offset="0.5" stop-color="#F99A4D"/>
<stop offset="1" stop-color="#F36F56"/>
</linearGradient>
<linearGradient id="paint46_linear_933_2473" x1="-51.9561" y1="52.1688" x2="-57.582" y2="30.418" gradientUnits="userSpaceOnUse">
<stop stop-color="#FFC444"/>
<stop offset="0.5" stop-color="#F99A4D"/>
<stop offset="1" stop-color="#F36F56"/>
</linearGradient>
<linearGradient id="paint47_linear_933_2473" x1="95.2048" y1="79.4788" x2="30.3263" y2="45.431" gradientUnits="userSpaceOnUse">
<stop stop-color="#311944"/>
<stop offset="0.5" stop-color="#4E295D"/>
<stop offset="1" stop-color="#6B3976"/>
</linearGradient>
<linearGradient id="paint48_linear_933_2473" x1="27.4005" y1="81.1485" x2="33.4157" y2="91.9212" gradientUnits="userSpaceOnUse">
<stop stop-color="#FFC444"/>
<stop offset="0.5" stop-color="#F99A4D"/>
<stop offset="1" stop-color="#F36F56"/>
</linearGradient>
<linearGradient id="paint49_linear_933_2473" x1="55.7981" y1="78.0976" x2="47.8429" y2="83.09" gradientUnits="userSpaceOnUse">
<stop stop-color="#FFC444"/>
<stop offset="0.5" stop-color="#F99A4D"/>
<stop offset="1" stop-color="#F36F56"/>
</linearGradient>
<linearGradient id="paint50_linear_933_2473" x1="32.9299" y1="83.0836" x2="64.7095" y2="93.1752" gradientUnits="userSpaceOnUse">
<stop stop-color="#FF9085"/>
<stop offset="0.5" stop-color="#FD80A0"/>
<stop offset="1" stop-color="#FB6FBB"/>
</linearGradient>
<linearGradient id="paint51_linear_933_2473" x1="28.3018" y1="83.703" x2="70.43" y2="110.061" gradientUnits="userSpaceOnUse">
<stop stop-color="#5EAD32"/>
<stop offset="0.5" stop-color="#6FCE3B"/>
<stop offset="1" stop-color="#63B835"/>
</linearGradient>
<linearGradient id="paint52_linear_933_2473" x1="16.213" y1="80.7082" x2="4.43148" y2="89.1966" gradientUnits="userSpaceOnUse">
<stop stop-color="#FFC444"/>
<stop offset="0.5" stop-color="#F99A4D"/>
<stop offset="1" stop-color="#F36F56"/>
</linearGradient>
<linearGradient id="paint53_linear_933_2473" x1="15.5756" y1="87.2361" x2="6.51732" y2="95.8516" gradientUnits="userSpaceOnUse">
<stop stop-color="#62B634"/>
<stop offset="0.5" stop-color="#6FCE3B"/>
<stop offset="1" stop-color="#5BAC2F"/>
</linearGradient>
<linearGradient id="paint54_linear_933_2473" x1="48.1506" y1="76.0129" x2="71.4935" y2="103.813" gradientUnits="userSpaceOnUse">
<stop stop-color="#5EB42F"/>
<stop offset="0.5" stop-color="#6FCE3B"/>
<stop offset="1" stop-color="#6BC23B"/>
</linearGradient>
<linearGradient id="paint55_linear_933_2473" x1="94.8586" y1="80.4107" x2="29.9803" y2="46.363" gradientUnits="userSpaceOnUse">
<stop stop-color="#311944"/>
<stop offset="0.5" stop-color="#4E295D"/>
<stop offset="1" stop-color="#6B3976"/>
</linearGradient>
</defs>
</svg>
