<svg xmlns="http://www.w3.org/2000/svg" width="20.138" height="20.699" viewBox="0 0 20.138 20.699">
    <path data-name="Moon 1" d="m19.3 13.953.776.315a.82.82 0 0 0-.205-.922.848.848 0 0 0-.947-.134zM8.4.828l.677.489a.819.819 0 0 0 .03-.941.844.844 0 0 0-.883-.357zm7.031 13.2a7.938 7.938 0 0 1-7.915-7.961H5.838a9.605 9.605 0 0 0 9.6 9.614zm3.488-.812a7.851 7.851 0 0 1-3.488.812v1.652a9.547 9.547 0 0 0 4.24-.987zm-.4.425a8.763 8.763 0 0 1-8.084 5.4V20.7a10.441 10.441 0 0 0 9.636-6.431zm-8.084 5.4a8.781 8.781 0 0 1-8.76-8.8H0A10.448 10.448 0 0 0 10.439 20.7zm-8.76-8.8a8.8 8.8 0 0 1 6.905-8.6L8.224.019A10.457 10.457 0 0 0 0 10.241zm5.841-4.174a7.944 7.944 0 0 1 1.565-4.75L7.727.339a9.586 9.586 0 0 0-1.889 5.728z" style="fill:#19191c"/>
</svg>
