<svg width="63" height="63" viewBox="0 0 63 63" fill="none" xmlns="http://www.w3.org/2000/svg">
<path d="M31.5 5.25C17.01 5.25 5.25 17.01 5.25 31.5C5.25 45.99 17.01 57.75 31.5 57.75C45.99 57.75 57.75 45.99 57.75 31.5C57.75 17.01 45.99 5.25 31.5 5.25ZM22.9162 20.1075C25.0425 20.1075 26.8013 21.84 26.8013 23.9925C26.8013 26.1188 25.0687 27.8775 22.9162 27.8775C20.79 27.8775 19.0312 26.145 19.0312 23.9925C19.0312 21.84 20.7637 20.1075 22.9162 20.1075ZM23.2313 41.475C22.8375 41.8688 22.3387 42.0525 21.84 42.0525C21.3412 42.0525 20.8425 41.8688 20.4487 41.475C19.6875 40.7137 19.6875 39.4538 20.4487 38.6925L37.6425 21.4987C38.4038 20.7375 39.6637 20.7375 40.425 21.4987C41.1862 22.26 41.1862 23.52 40.425 24.2812L23.2313 41.475ZM40.0838 42.8925C37.9575 42.8925 36.1987 41.16 36.1987 39.0075C36.1987 36.8812 37.9313 35.1225 40.0838 35.1225C42.21 35.1225 43.9688 36.855 43.9688 39.0075C43.9688 41.16 42.2363 42.8925 40.0838 42.8925Z" fill="#F1D550"/>
</svg>
