<svg width="45" height="44" viewBox="0 0 45 44" fill="none" xmlns="http://www.w3.org/2000/svg">
<path d="M40.085 19.14L38.2884 26.8033C36.7484 33.4217 33.705 36.0983 27.985 35.5483C27.0684 35.475 26.0784 35.31 25.015 35.0533L21.935 34.32C14.29 32.505 11.925 28.7283 13.7217 21.065L15.5184 13.3833C15.885 11.825 16.325 10.4683 16.875 9.34999C19.02 4.91333 22.6684 3.72166 28.7917 5.16999L31.8534 5.88499C39.535 7.68166 41.8817 11.4767 40.085 19.14Z" stroke="#38414D" stroke-width="1.5" stroke-linecap="round" stroke-linejoin="round"/>
<path d="M27.985 35.5483C26.8483 36.3183 25.4183 36.96 23.6767 37.5283L20.78 38.4817C13.5017 40.8283 9.67001 38.8667 7.30501 31.5883L4.95835 24.3467C2.61168 17.0683 4.55501 13.2183 11.8333 10.8717L14.73 9.91834C15.4817 9.68001 16.1967 9.47834 16.875 9.35001C16.325 10.4683 15.885 11.825 15.5183 13.3833L13.7217 21.065C11.925 28.7283 14.29 32.505 21.935 34.32L25.015 35.0533C26.0783 35.31 27.0683 35.475 27.985 35.5483Z" stroke="#38414D" stroke-width="1.5" stroke-linecap="round" stroke-linejoin="round"/>
<path d="M23.5483 15.6383L32.44 17.8933" stroke="#38414D" stroke-width="1.5" stroke-linecap="round" stroke-linejoin="round"/>
<path d="M21.7517 22.7333L27.0684 24.09" stroke="#38414D" stroke-width="1.5" stroke-linecap="round" stroke-linejoin="round"/>
</svg>
