<svg width="14" height="15" viewBox="0 0 14 15" fill="none" xmlns="http://www.w3.org/2000/svg">
<path d="M11.3634 2.1446L11.5267 2.4771C11.6084 2.64043 11.8125 2.7921 11.9934 2.8271L12.215 2.8621C12.88 2.97293 13.0375 3.46293 12.5592 3.9471L12.355 4.15127C12.2209 4.29127 12.145 4.5596 12.1859 4.74627L12.215 4.86877C12.3959 5.67377 11.97 5.98293 11.27 5.56293L11.1184 5.47543C10.9375 5.37043 10.6459 5.37043 10.465 5.47543L10.3134 5.56293C9.60754 5.98877 9.18171 5.67377 9.36837 4.86877L9.39754 4.74627C9.43837 4.5596 9.36254 4.29127 9.22837 4.15127L9.02421 3.94127C8.54587 3.4571 8.70337 2.9671 9.36837 2.85627L9.59004 2.82127C9.76504 2.7921 9.97504 2.6346 10.0567 2.47127L10.22 2.13877C10.535 1.50877 11.0484 1.50877 11.3634 2.1446Z" fill="#BF0045"/>
<path d="M12.5825 6.38616C12.3725 6.53783 11.7833 6.81783 10.9433 6.38616C10.85 6.33949 10.7333 6.33366 10.64 6.38616C10.3075 6.55533 10.0041 6.62533 9.76496 6.62533C9.39163 6.62533 9.12913 6.47949 9.00079 6.38616C8.78496 6.22866 8.32996 5.77949 8.48746 4.82866C8.50496 4.72949 8.47579 4.63033 8.41163 4.55449C8.00913 4.09366 7.78746 3.47533 7.94496 2.99116C8.00329 2.79866 7.88079 2.54199 7.68246 2.54199H4.08329C2.33329 2.54199 1.16663 3.41699 1.16663 5.45866V9.54199C1.16663 11.5837 2.33329 12.4587 4.08329 12.4587H9.91663C11.6666 12.4587 12.8333 11.5837 12.8333 9.54199V6.49116C12.8333 6.38033 12.6758 6.32199 12.5825 6.38616ZM8.36496 7.55283C7.97996 7.86199 7.48996 8.01366 6.99996 8.01366C6.50996 8.01366 6.01413 7.86199 5.63496 7.55283L3.80913 6.09449C3.62246 5.94283 3.59329 5.66283 3.73913 5.47616C3.89079 5.28949 4.16496 5.25449 4.35163 5.40616L6.17746 6.86449C6.62079 7.22033 7.37329 7.22033 7.81663 6.86449C8.00329 6.71283 8.27746 6.74199 8.42913 6.93449C8.58663 7.12116 8.55746 7.40116 8.36496 7.55283Z" fill="#BF0045"/>
</svg>
