<svg width="45" height="44" viewBox="0 0 45 44" fill="none" xmlns="http://www.w3.org/2000/svg">
<path d="M41.0799 12.3933L34.9016 37.1984C34.4616 39.0501 32.8116 40.3333 30.9049 40.3333H6.81491C4.04658 40.3333 2.06661 37.6199 2.89161 34.9616L10.6099 10.1751C11.1416 8.45175 12.7366 7.25992 14.5333 7.25992H37.0833C38.8249 7.25992 40.2733 8.32326 40.8783 9.78993C41.2266 10.5783 41.2999 11.4767 41.0799 12.3933Z" stroke="#38414D" stroke-width="1.5" stroke-miterlimit="10"/>
<path d="M30.2083 40.3333H38.9716C41.3366 40.3333 43.1882 38.335 43.0232 35.97L41.2083 11" stroke="#38414D" stroke-width="1.5" stroke-miterlimit="10" stroke-linecap="round" stroke-linejoin="round"/>
<path d="M18.6216 11.6967L20.5283 3.77676" stroke="#38414D" stroke-width="1.5" stroke-miterlimit="10" stroke-linecap="round" stroke-linejoin="round"/>
<path d="M30.905 11.715L32.6284 3.75842" stroke="#38414D" stroke-width="1.5" stroke-miterlimit="10" stroke-linecap="round" stroke-linejoin="round"/>
<path d="M14.9917 22H29.6584" stroke="#38414D" stroke-width="1.5" stroke-miterlimit="10" stroke-linecap="round" stroke-linejoin="round"/>
<path d="M13.1584 29.3333H27.8251" stroke="#38414D" stroke-width="1.5" stroke-miterlimit="10" stroke-linecap="round" stroke-linejoin="round"/>
</svg>
